<?xml version="1.0" encoding="utf-8"?>
<!-- Generator: Adobe Illustrator 24.0.3, SVG Export Plug-In . SVG Version: 6.00 Build 0)  -->
<svg version="1.1" id="Layer_2_1_" xmlns="http://www.w3.org/2000/svg" xmlns:xlink="http://www.w3.org/1999/xlink" x="0px" y="0px"
	 viewBox="0 0 1043.8 962.6" style="enable-background:new 0 0 1043.8 962.6;" xml:space="preserve">
<style type="text/css">
	.st0{opacity:0.4;fill:#C6C6C6;enable-background:new    ;}
	.st1{fill:#EEEEEE;}
	.st2{fill:#288E42;}
	.st3{fill:#81A358;}
	.st4{fill:#86BC44;}
	.st5{fill:#33A855;}
	.st6{fill:#E94E1B;}
	.st7{fill:#C44217;}
	.st8{fill:#454342;}
	.st9{fill:#EEA886;}
	.st10{fill:#3C3C3B;}
	.st11{fill:#D6A428;}
	.st12{fill:#FFAF82;}
	.st13{fill:#A77860;}
	.st14{fill:#FAC831;}
	.st15{fill:#9D9D9C;}
	.st16{fill:#D6985E;}
	.st17{fill:#C6C6C6;}
	.st18{fill:#BC8551;}
</style>
<title>1</title>
<ellipse class="st0" cx="521.9" cy="870.5" rx="411.4" ry="20"/>
<rect x="144.5" y="72.1" class="st1" width="652.7" height="652.7"/>
<rect x="857.7" y="636.3" transform="matrix(0.9977 -6.749289e-02 6.749289e-02 0.9977 -45.5881 59.5485)" class="st2" width="1.6" height="136.3"/>
<rect x="827.9" y="400.6" transform="matrix(0.9982 -6.035170e-02 6.035170e-02 0.9982 -33.8174 51.0815)" class="st2" width="1.6" height="369.5"/>
<rect x="849.2" y="347.4" class="st3" width="1.6" height="430.3"/>
<rect x="738.7" y="644.9" transform="matrix(2.286178e-02 -0.9997 0.9997 2.286178e-02 202.1718 1498.2672)" class="st4" width="257.7" height="1.6"/>
<path class="st5" d="M849,435.4c0,0-44.7-38.1-31.5-76.2s78.8-17.5,58,51.2C870.4,422,860.8,431,849,435.4z"/>
<path class="st4" d="M820.8,498c0,0-38.8-50.1-18.6-85.6s150-6.1,91.3,121.8s-104.1,41.9-104.1,41.9L820.8,498z"/>
<path class="st5" d="M850,543.1c0,0-5.8-86.1-55.2-54.4s-61.6,156,55.2,193.8V543.1z"/>
<path class="st5" d="M865.8,732c0,0-40.8-43-31.2-109.1s83.9-66,83.4-1.8S904,703.1,865.8,732z"/>
<polygon class="st6" points="904.7,769.8 878.8,852.1 821.1,852.1 795.3,769.8 "/>
<g>
	<path class="st7" d="M904.7,769.8c0,0-56.9,9-56.9,82.3h-26.7l-25.8-82.3H904.7z"/>
</g>
<path class="st8" d="M811.4,858.6L811.4,858.6L811.4,858.6z"/>
<path class="st9" d="M507.2,448c4,0.8,8.1,1.4,12.1,1.8c3.9,0.1,22.1-8.1,27.9-7.3s43.7,16.9,45.4,18s-0.8,3.8-0.8,3.8l-87,1
	L507.2,448z"/>
<rect x="302.4" y="624.2" class="st10" width="14.5" height="183.4"/>
<path d="M492,786c0.3,5.9,1.2,11.8,2.8,17.5c1.9,6.9,5.8,33.7,10.8,37.5s20.9,13.7,18.6,23.9s-4.3,17.3-21.6,11.3
	s-28.8-9.5-32.1-24.6s-12.7-28.9-12.7-28.9l-12.5,31l-6.6-2.6c0,0,9.9-33.5,9.1-36.4s4.5-29.6,25.4-36.2S492,786,492,786z"/>
<path d="M607.1,795.8c2.4,5.4,5.5,10.5,9.1,15.2c4.4,5.7,18,29.1,24,30.8s24.5,4.9,26.1,15.2s2.5,17.7-15.8,18.5
	s-30.2,1.9-38.9-10.9s-22.7-22-22.7-22V876h-7c0,0-3.3-34.7-5.2-37.2s-6.8-29.1,10.1-43S607.1,795.8,607.1,795.8z"/>
<path class="st11" d="M392.7,417.2c0,0,4.8-17.3-0.9-30.7c0,0,2.1,13.9-3.9,23.8C383.5,417.4,392.7,417.2,392.7,417.2z"/>
<path class="st12" d="M574.6,609.9l-37.2,83.7c-2.6,5.9-5,11.3-7.2,16.1c-2.5,5.6-4.5,10.2-6,13.4c-9.9,22.2-34.1,70.6-34.1,70.6
	s-18.2,0.7-19.3-14.8c0,0,17.5-33.6,17.5-57.2s3.2-93.1,25.7-108.2C541.6,595.3,559.4,591.8,574.6,609.9z"/>
<path class="st12" d="M373.9,517.1c0,0,4.6,4.6,8.5,5.6s68.7,6,98.6,15.8s69.8,16.2,77.2,24.7s19.7,55,19.4,63.8
	s26.3,157.2,29.6,168.8c1.8,6.2-24.1,3.8-24.1,3.8s-36.8-87.7-44.6-103.9c-14.4-29.8-15.1-66.2-20.4-71.9s-64.1-18.3-98-18.3
	s-109.6,2.8-117.7-1.8s-58.8-38-37.7-82.8S373.9,517.1,373.9,517.1z"/>
<path class="st10" d="M519.8,549.8l-53.3,102.5c0,0-16.2-38.3-44.4-44.9s-140.7-3-140.7-3s-51.6-65.3-7.4-99.6s95.9,5.4,95.9,5.4
	s10.7,11.6,15.8,11.8S432,521.7,519.8,549.8z"/>
<path class="st12" d="M640.2,841.8c0,0-16.3,4.1-22.6,0s-27.5-40.1-34.6-42.2c0,0,6.8-13.9,24.1-3.8
	C607.1,795.8,635.6,835.8,640.2,841.8z"/>
<path class="st12" d="M505.6,841.1c0,0-16.7-2.3-21-8.4s-10.6-47.5-16.3-52.1c0,0,11.5-10.3,23.8,5.5
	C492,786,503.5,833.8,505.6,841.1z"/>
<path class="st12" d="M344.9,293.7c0,0-1,3.3-2.1,8.1c-0.6,2.5-1.2,5.4-1.8,8.4c-1.5,8.5-2.4,18.4-0.1,25c0,0-18.1,6.3-32.4-19.3
	c0,0,6.1-27.5-1.8-44.2S344.9,293.7,344.9,293.7z"/>
<path class="st13" d="M343.1,300.7c-0.6,2.5-1.6,6.5-2.2,9.6c-16.8-10.7-22.5-28.6-22.5-28.6C328.1,290.4,343.1,300.7,343.1,300.7z"
	/>
<path class="st14" d="M391.8,399.5c-3.8,17.6-13.8,18.6-13.2,31.6s4.5,14.1-2.2,34.7c-1.3,4-2.3,8-3.1,12.1c-0.1,0.5-0.2,1-0.3,1.5
	c-0.4,2.4-0.8,4.8-1.1,7.1c-0.6,4.4-1,8.6-1.3,12.5c-0.8,10.1,6.7,18,6.7,18s-65.9,39.5-111.2,34c0,0,11.7-49.3,18.2-66.2
	s4.5-95.1-0.2-111.9c-7-24.8,7-61.9,26.1-66.7l29.7,13.7c0,0,29.9,35.7,36.6,41.1S395.6,381.6,391.8,399.5z"/>
<path class="st14" d="M293.7,327.2c8.4-7,20.5-18.9,38.2,4.7s30.6,38.9,34.4,45.8s37.1,54.9,37.1,54.9s32.6,3.5,45.2,4.9
	c15.9,1.7,72.4,7.2,72.4,7.2l1.6,24c0,0-99.6,0.5-110.6,3.3s-41.8-25-54-35.7s-46.5-49.9-52.4-53.7S271.8,345.5,293.7,327.2z"/>
<path class="st13" d="M537.4,693.6c-2.6,5.9-5,11.3-7.2,16.1c-8-25.7-7.3-68.6-7.3-68.6C525.8,659.1,530.6,676.7,537.4,693.6z"/>
<rect x="193.6" y="604.4" class="st5" width="228.6" height="25.2"/>
<path class="st5" d="M312.5,524.2c0,0-5.8,23.3,21.4,28.6s60.5,12,60.5,53.9h-94.1L312.5,524.2z"/>
<path class="st5" d="M193.6,629.5l-79.9-335.8c0,0,144.5-22.6,161.7,42.3s45.5,257.6,79.9,269.5S193.6,629.5,193.6,629.5z"/>
<path class="st11" d="M379.4,454.6c0,0-1.5,6.2-3,11.3l-35.1-45.6L379.4,454.6z"/>
<polygon class="st14" points="341.4,322.1 341.4,314.8 310.5,299.8 299.9,312.1 "/>
<path class="st15" d="M450.7,855c0,6.6-5.4,12-12,12c-6.6,0-11.9-5.4-11.9-12s5.4-12,11.9-12S450.7,848.4,450.7,855L450.7,855z"/>
<polygon class="st10" points="181.6,843.2 184.7,851.7 312.5,812.1 306.4,794.8 "/>
<polygon class="st10" points="438.8,843.2 435.7,851.7 307.9,812.1 313.5,793.8 "/>
<polygon class="st10" points="348.7,850.8 348.7,860.7 307.9,812.1 313.5,793.8 "/>
<path class="st15" d="M349.7,855c0,6.6-5.4,12-12,12c-6.6,0-11.9-5.4-11.9-12c0-6.6,5.4-11.9,12-11.9c0,0,0,0,0,0
	C344.3,843,349.7,848.4,349.7,855C349.7,855,349.7,855,349.7,855z"/>
<path class="st15" d="M193.6,855c0,6.6-5.3,12-11.9,12c-6.6,0-12-5.3-12-11.9c0-6.6,5.3-12,11.9-12c0,0,0,0,0,0
	C188.2,843,193.6,848.4,193.6,855C193.6,855,193.6,855,193.6,855z"/>
<path d="M326.3,194.4c-13.6,3-5.5,37.2-14.6,85s-37.9,55.2-37.9,55.2s12.8-21.2,11.4-43.3c-1.1-17.3-22.1-64.5-1.3-95.4
	c16-23.9,44.2-2.2,44.2-2.2L326.3,194.4z"/>
<path class="st12" d="M348.9,197.2c12.2,0.8,38.6,10.1,39,42.8c-1.2,5.2-2.9,10.3-4.9,15.2c-2.9,6.6,0.9,27.5-0.8,28.3
	s-8.5,1.3-8.5,1.3s-9.6,21.2-17.4,20.1s-36.3-10.5-46.9-39.5S299.5,193.9,348.9,197.2z"/>
<path d="M387.9,240c0,0-21.3,11.2-41.3,11.6s-36.3,32.4-36.3,32.4s-24.1-54.2,3.5-81.6S396.5,202.9,387.9,240z"/>
<path class="st12" d="M342,251.5c0.3-3.8-3.2-10-10.1-5.5s-0.5,23.5,4.8,22.3S341.6,255.4,342,251.5z"/>
<path class="st16" d="M521.9,476.7v7.5h359.8v-7.5c0-7-4.7-12.7-10.6-12.7H532.5C526.6,464,521.9,469.7,521.9,476.7z"/>
<path class="st10" d="M861.3,852.3H752.6l0,0v-15.9c0-0.8,0.7-1.5,1.5-1.5c0,0,0,0,0,0h107.3l0,0V852.3L861.3,852.3z"/>
<rect x="840.1" y="484.3" class="st10" width="14.4" height="368.1"/>
<rect x="811.2" y="484.3" class="st10" width="14.4" height="368.1"/>
<rect x="709.2" y="252.3" class="st17" width="8.5" height="187.4"/>
<path class="st10" d="M730,464h63.3v-3.8H730c-3.3,0-5.7-0.8-7-2.3c-1-1.2-1.5-2.8-1.4-4.4v-0.1v-81.9h-3.8v81.7
	c-0.2,2.6,0.6,5.2,2.3,7.2C722.1,462.8,725.5,464,730,464z"/>
<path class="st17" d="M710.5,464h-71.2l0,0v-6.1c0-0.3,0.3-0.6,0.6-0.6h70.7l0,0V464L710.5,464z"/>
<path class="st18" d="M674.6,484.3h207.1v-7.5c0-7-4.9-12.7-10.9-12.7H707L674.6,484.3z"/>
</svg>
