<?xml version="1.0" encoding="utf-8"?>
<!-- Generator: Adobe Illustrator 24.1.2, SVG Export Plug-In . SVG Version: 6.00 Build 0)  -->
<svg version="1.1" id="Layer_2_1_" xmlns="http://www.w3.org/2000/svg" xmlns:xlink="http://www.w3.org/1999/xlink" x="0px" y="0px"
	 viewBox="0 0 210 210" style="enable-background:new 0 0 210 210;" xml:space="preserve">
<style type="text/css">
	.st0{fill:#DADADA;}
	.st1{fill:#D6FAFF;}
	.st2{fill:#FFFFFF;}
	.st3{opacity:0.75;fill:#FFFFFF;enable-background:new    ;}
	.st4{fill:#E94E1B;}
	.st5{fill:#D94919;}
	.st6{fill:#3C3C3B;}
	.st7{opacity:0.1;fill:#1D1D1B;enable-background:new    ;}
	.st8{fill:#D6A428;}
	.st9{fill:#FAC831;}
	.st10{fill:#575756;}
	.st11{fill:#33A855;}
	.st12{opacity:0.15;fill:#131313;enable-background:new    ;}
	.st13{fill:#FFAF82;}
	.st14{fill:#131313;}
	.st15{fill:#FFC990;}
	.st16{opacity:0.1;fill:#050504;enable-background:new    ;}
	.st17{fill:#EDEDED;}
	.st18{fill:#C44217;}
	.st19{fill:none;}
	.st20{fill:#39803D;}
</style>
<rect x="46.9" y="44.1" class="st0" width="107.9" height="78.4"/>
<rect x="52.5" y="50.1" class="st1" width="96.8" height="67.1"/>
<polygon class="st2" points="53.4,76.3 53.4,71.4 100.3,116.3 95.5,116.3 "/>
<polygon class="st2" points="53.4,51.7 122.7,116.3 103.9,116.3 53.4,68.7 "/>
<path class="st3" d="M91.9,54.9c-0.3,4.5-0.8,9-0.8,13.6c0,2.3-0.8,8.5-2,0c-0.5,4.7-0.9,9.4-1.4,14.2c0,0.7-0.3,1.5-1,1.5
	s-1.1-1-1.1-1.7c-0.1-2.8-0.3-5.7-0.4-8.5c-1,6.7-2.2,3.3-2.2-1.7c-0.8,5.2-1.6,2.1-1.5-0.8c0.1-2.8-0.1-2.9,0-5.2L91.9,54.9z"/>
<polygon class="st4" points="84.4,177.8 99.4,177.8 101.8,157.5 82.5,157.5 "/>
<rect x="82.1" y="157.5" class="st5" width="20.1" height="1.5"/>
<path class="st6" d="M102.3,165.1l-10.5-5.4c-0.4-0.2-0.6-0.7-0.4-1.1c0,0,0,0,0,0c0,0,0,0,0-0.1l0,0c0.2-0.4,0.7-0.5,1.1-0.3
	l10.3,6.1L102.3,165.1z"/>
<path class="st7" d="M84.4,177.8h15c-7.7-4.3-14-10.4-17-20.4L84.4,177.8z"/>
<polygon class="st8" points="143.6,209.5 118.8,210 100.2,178.2 122.5,178.2 "/>
<path class="st9" d="M102.2,189.1c0,0.2,0,0.4,0,0.6c0,9.6,7.8,17.4,17.4,17.4c9.6,0,17.4-7.8,17.4-17.4c0-0.2,0-0.4,0-0.6H102.2z"
	/>
<path class="st10" d="M145.7,129.3c0.5,0.1,0.9-0.2,1.1-0.6c0.1-0.3,0-0.5-0.2-0.8L87.8,61c-0.3-0.4-0.9-0.4-1.2-0.1
	c-0.4,0.3-0.4,0.9-0.1,1.2l58.8,66.9C145.4,129.2,145.5,129.3,145.7,129.3z"/>
<path d="M97.8,177.9h15.9c0.5-1.7,0.5-3.4,0-5.1c-2.2-2.1-5.2-3-8.2-2.6c-1,1.6-3.7,3-5.6,3.9c-1.2,0.6-2,1.8-2,3.2L97.8,177.9z"/>
<path d="M126.5,177.9h12c0.2-2.2-0.1-4.4-0.9-6.5c-2-1.2-4.7-0.9-7.9,0.6l-1.8,1.3c-0.9,0.6-1.4,1.6-1.4,2.7L126.5,177.9z"/>
<path class="st11" d="M111.6,124.1h0.8c1.9,0.1,6.8,0.3,11.5,0.5c5.3,0.2,10.3,0.4,10.3,0.2c1-2.8,0.8-7.5-0.2-11.4l-14.1-4
	l-0.4-0.1l-4.7-0.4l-2.4,12.1l-0.3,1.2c-0.1,0.4-0.2,0.8-0.3,1.2c0,0.1,0,0.2-0.1,0.4C111.7,123.8,111.7,124,111.6,124.1z"/>
<path class="st11" d="M122.7,124.3c0,0.2,0,0.4,0.1,0.5c0.2,1.2,0.3,2.3,0.5,3.4c0.9,6.8,1.6,12.7,3.3,17.7l1.2-0.1l7.8-0.6
	c0.8-6.9,0.4-13.8-1.3-20.5l0,0c-2.7-2.9-6.2-2.9-10.2-1.2l0,0c-0.2,0.1-0.4,0.2-0.6,0.3C123.2,124,122.9,124.1,122.7,124.3z"/>
<path class="st11" d="M126.5,146c1.1,7.6,1.3,15.8,2.6,23.2c0.2,0.9,0.4,1.9,0.6,2.8c2.8,0.5,5.1-1.9,7.9-0.6
	c1.5-8.6,1.2-22.4-2.2-26c-2.7-3-4.2-1.9-7.8,0C127.3,145.6,126.9,145.8,126.5,146z"/>
<path class="st11" d="M108.2,142.6l1.4,0.5l5.2,1.6l2,0.6c0.1-0.2,0.2-0.5,0.4-0.7c2.6-5.2,4.7-10.6,6.1-16.3
	c0.3-1.1,0.5-2.2,0.7-3.3c0-0.1,0-0.2,0-0.3c0-0.2,0.1-0.5,0.1-0.7c0-0.1,0-0.2,0-0.3c-0.9-2.5-3.2-3.2-6-3.2
	c-1.2,0-2.4,0.1-3.6,0.2l-0.8,0.1l-1.3,0.1l0,0c-0.1,0.4-0.2,0.8-0.3,1.2c-0.1,0.4-0.2,0.8-0.3,1.2c0,0.1,0,0.2-0.1,0.4
	s-0.1,0.4-0.1,0.6c-0.7,2.8-1.3,5.4-1.9,7.8c0,0,0,0.1,0,0.1c-0.8,3.3-1.3,6.6-1.5,10C108.2,142.2,108.2,142.4,108.2,142.6z"/>
<path class="st11" d="M105.5,170.1c2.6,1.1,5.7,0.8,8.2,2.6c0.1-0.2,0.2-0.5,0.3-0.7c3.2-8.3,5.6-23.7,3.2-27.5l0,0
	c-0.4-0.7-0.8-1.3-1.3-1.8c-1.5-1.6-3-1.6-5.8-1c-0.6,0.1-1.2,0.3-1.8,0.4l0,0C107.6,150.7,105.4,161.9,105.5,170.1z"/>
<path class="st12" d="M117.1,144.5L117.1,144.5c2.6-5.2,4.6-10.6,6-16.3c0.9,6.8,1.6,12.7,3.3,17.7c1.1,7.6,1.3,15.8,2.6,23.2
	l-1.5-23.3v-0.5v-1c-1.4-9.1-1.1-15.7,1.5-19.2c0.2-0.3,0.5-0.6,0.8-0.9l-5.8-0.4h-0.6l-4.2-0.3c0.1,0.4,0.2,0.7,0.3,1.1
	c1.2,5.8-0.8,12.2-3.8,18c-0.3,0.7-0.6,1.3-1,1.9c0,0-0.1,0.1-0.1,0.2c2.4,7,1.6,17.1-0.7,27.3C117.2,163.8,119.6,148.4,117.1,144.5
	z"/>
<path class="st11" d="M133.9,112.2c3.7-0.4,7.3-1.4,10.7-3c0.8-0.4,1.6-0.8,2.5-1.2c0.8-0.4,1.3-1.2,1.4-2.1
	c0.5-6.1-0.3-12.2-2.3-18l-4.3,5.8l-0.1,0.2L133.9,112.2z"/>
<path class="st12" d="M133.9,112.2c3.7-0.4,7.3-1.4,10.7-3l-2.8-2.7l2.7-12l-2.6-0.6L133.9,112.2z"/>
<path class="st13" d="M102.1,78.2c-0.7,0.1-1.4-0.1-1.8-0.7c-1-1.1-1.3-1.5-2.3-2.6c-0.3,0.9-0.8,1.4-0.8,2.3
	c0.2,0.9,0.5,1.8,1.1,2.6c0.5,0.9,1.1,1.8,1.8,2.6c0.9,0.8,2,1.4,3.1,1.9c0.2,0.1,0.4,0.2,0.6,0.1c0.2,0,0.5-0.2,0.6-0.4
	c0.8-1.1,1.2-2.4,1.2-3.7c0.1-0.7,0-1.5-0.3-2.2c-0.8-1.5-2.7-2.4-3.7-3.9c-0.2-0.3-0.3-0.6-0.6-0.6c-0.3-0.1-0.6,0.1-0.7,0.4
	c-0.1,0.3-0.1,0.5,0,0.8c0.2,0.6,0.6,1.1,1,1.5C101.7,76.8,101.9,77.5,102.1,78.2z"/>
<polygon class="st13" points="131,79.8 138.3,82.7 140.8,75.5 134.8,72.3 "/>
<path class="st13" d="M128.5,75.3c0,0.7,0.4,1.3,1.1,1.6l1.5,0.7c0.6,0.2,1.2,0.3,1.8,0.3l0,0c2.2-0.1,4.1-1.3,5.2-3.2h0.1l0,0
	c1.1,0.5,2.2,2.4,2.8,1.4s2.8-2.1,3.8-3.5c3.3-6.7-1-8.6-3.4-9.8c-2.1-1.1-4.6-0.9-6.6,0.5c-0.7,0.5-1.3,1.1-1.8,1.8
	c-0.3,0.4-0.6,0.8-0.8,1.2c0,0.3-0.1,0.7-0.1,1l-0.4,0.3l-1.5,1.2c-0.3,0.2-0.4,0.7-0.2,1c0,0,0,0.1,0.1,0.1l0.1,0.1l0.5,0.5
	c-0.2,0.5-1.7,2.8-1.7,2.8C128.6,74,128.4,74.6,128.5,75.3z"/>
<path class="st14" d="M138.8,68c-0.5,1.2-1.4,2.8-2.5,5c0.4,0.3,0.9,0.6,1.3,0.8c0.6-0.2,2.2-1.2,2.5-1.3c-0.4,0.3-5,3.8-0.2,5.2
	c1.1-0.8,2-1.4,2.7-2s1.1-1,1.6-1.5c0.8-0.9,1.4-2,1.8-3.1c1.5-3.5-1-6.1-3.8-8.6c-1.7-1.5-5.4-1.1-7.6,0.9c3,0.8,4.3,1.7,4.5,2.8
	C139.2,66.7,139.1,67.4,138.8,68z"/>
<path class="st15" d="M140.8,73.3c-0.5,1-2,1.8-2.8,1.4s-0.1-1.2,0.4-2.2c0.4-0.7,0.7-1.8,1.6-1.5S141.6,71.8,140.8,73.3z"/>
<path class="st16" d="M132,67.2l-0.4,0.3c3.5,1.8,7.6,2.6,11.3,3.9l-0.2-0.1h-0.1v-0.1l-4.5-3.4l0,0l-4.7-2.3l-0.6-0.3
	c-0.3,0.4-0.6,0.8-0.8,1.2C132,66.6,132,66.9,132,67.2z"/>
<path class="st16" d="M128.5,75.3c0,0.7,0.4,1.3,1.1,1.6l1.5,0.7c0.6,0.2,1.2,0.3,1.8,0.3l0,0c0.7-0.4,1.3-1,1.8-1.6
	c0.5-0.7,0.9-1.4,1.3-2.1c-0.4,0.6-1,1-1.7,1.3c-0.7,0.3-1.4,0.5-2.2,0.5c-0.7,0.1-1.5,0-2.2-0.1C129.4,75.7,128.9,75.5,128.5,75.3z
	"/>
<path class="st11" d="M115.6,104.7c-0.3,1.6-0.6,3-0.7,4.1l0,0c1,0.5,2,0.8,3.1,1.2l0.9,0.4c4.9,1.9,10,3,15.2,3.2
	c0.8-1.1,1.6-2.2,2.3-3.4c4.8-7.5,9.2-17,9.7-22.3c-2-2.1-4.2-4.1-6.5-6l0.1-2.3c-0.6-0.8-2.8-1.4-6-2.3c-0.7-0.2-1.3-0.3-1.8,0.3
	l-0.9,1.8c-3.2-0.6-6.4-0.7-9.6-0.1c-0.3,1.2-1.4,5.8-2.7,11.2c-0.2,0.8-0.4,1.7-0.6,2.6C117.2,97.1,116.3,101.2,115.6,104.7z"/>
<rect x="77.5" y="58.7" transform="matrix(0.7578 -0.6525 0.6525 0.7578 -18.5329 71.1688)" class="st10" width="18.2" height="3.7"/>
<rect x="76.7" y="59" transform="matrix(0.7578 -0.6525 0.6525 0.7578 -18.0688 70.4068)" class="st6" width="18.2" height="1.1"/>
<path class="st11" d="M102.1,84.1c0.2,4.9,1.8,9.6,4.7,13.6c3.8,0,7.6-1.8,11.4-4.6c1.2-0.8,2.3-1.8,3.4-2.7l0.5-0.4v-0.8l-0.2-1.5
	l-0.5-8.3c-3.9,2.6-7.6,5.7-10.9,9.1l-5-6.5C104.3,82.2,103,83,102.1,84.1z"/>
<path class="st12" d="M106.8,97.6c3.8,0,7.6-1.8,11.4-4.6c-0.9,4-1.9,8.3-2.6,11.7c-0.3,1.5-0.6,3-0.8,4.1l-2.4,12.1l0,0
	c-0.1,0.4-0.2,0.8-0.3,1.2c-0.1,0.4-0.2,0.8-0.3,1.2c0,0.1,0,0.2-0.1,0.4s-0.1,0.4-0.1,0.6c-0.7,2.8-1.3,5.4-1.9,7.8
	c0.9-3,1.8-5.6,2.7-7.8c0.4-1.3,0.8-2.3,1.3-3.4c4.2-10.6,6.3-11.4,6.3-11.4l0,0c-1.5-5.6-1-12,1.6-19c0.1-0.4,0.3-0.8,0.5-1.2
	c0.4-0.9,0.7-1.8,1.1-2.6c-0.4,0.4-0.8,0.8-1.2,1.1c-1.2,1.1-2.2,2-3.2,2.9c-3.6,3.1-6.4,4.7-11.1,5.3l-5.7-11.7
	C102.4,89.1,104,93.8,106.8,97.6z"/>
<path class="st17" d="M138.1,66.6l0.2,0.4l0.5,0.9l0.1,0.1l0,0l0,0l0.6,1.1l3.1,6.3c0.6-0.5,1.1-1,1.6-1.5l-0.1-0.1l-1.5-2.7
	l-0.6-1.1l-0.6-1.1l-1.8-3.2l-0.6,0.3l-0.5,0.3L138.1,66.6z"/>
<path class="st4" d="M146,72.8L146,72.8c2.4-3.7,2.1-8.2-2.3-11.1c-3.7-2.4-8.2-2.1-11.1,2.3l0,0L146,72.8z"/>
<rect x="138" y="58.7" transform="matrix(0.548 -0.8365 0.8365 0.548 5.8406 146.6789)" class="st18" width="1.2" height="18.6"/>
<rect x="135.8" y="63.7" transform="matrix(0.548 -0.8365 0.8365 0.548 7.8239 143.8512)" class="st18" width="2.5" height="2"/>
<rect x="142.2" y="67.8" transform="matrix(0.548 -0.8365 0.8365 0.548 7.241 151.0831)" class="st18" width="2.5" height="2"/>
<rect x="102.2" y="115.1" class="st9" width="3" height="68.9"/>
<rect x="134.2" y="115.1" class="st9" width="3" height="68.9"/>
<rect x="81.2" y="128.1" class="st8" width="77.9" height="2.2"/>
<rect x="81.2" y="142.3" class="st8" width="77.9" height="2.2"/>
<path class="st9" d="M160.9,117.3H78.4c-1.2,0-2.2-1-2.2-2.2c0-1.2,1-2.2,2.2-2.2h82.5c1.2,0,2.2,1,2.2,2.2c0,0,0,0,0,0
	C163.1,116.3,162.2,117.3,160.9,117.3C161,117.3,160.9,117.3,160.9,117.3z"/>
<path class="st9" d="M153.7,189.6H85.6c-3.2,0-5.9-2.6-5.9-5.9c0,0,0,0,0,0l0,0v-68.6h3v71.5h73.9v-71.5h3v68.6
	C159.6,187,157,189.6,153.7,189.6z"/>
<path class="st9" d="M152.3,188.1H87.1c-3.2,0-5.9-2.6-5.9-5.8c0,0,0,0,0,0l0,0v-4.4h76.9v4.4C158.1,185.5,155.5,188.1,152.3,188.1z
	"/>
<path class="st8" d="M108.7,189.1v0.4c0.2,6,5.2,10.8,11.3,10.6c5.8-0.2,10.4-4.8,10.6-10.6v-0.4H108.7z"/>
<g>
	<polygon class="st19" points="135,93.8 134.5,95.4 135.2,95.6 135.5,94.3 135.6,94 	"/>
	<polygon class="st20" points="135.5,94.3 136.1,94.7 136.2,94.1 135.6,94 	"/>
	<polygon class="st19" points="132.6,100.2 133.2,97.7 136.9,98.7 138.7,92.2 136.5,91.6 136.4,92.2 133.6,91.5 133.6,91.5 
		133.5,92 131.7,98.7 131.1,98.5 130.8,99.7 	"/>
	<polygon class="st19" points="133,91.3 132.3,91.2 132.7,90.6 135.9,91.4 136.4,89.6 129.1,87.7 128.6,89.5 131.3,90.2 129.4,97.4 
		131.2,97.9 132.9,91.7 	"/>
	<polygon class="st20" points="133,91.3 132.9,91.7 133.5,92 133.6,91.5 	"/>
	<polygon class="st20" points="137.2,91.1 136.7,91 136.5,91.6 136.9,91.7 	"/>
	<polygon class="st20" points="130.9,99 131.1,98.5 130.5,98.3 130.4,98.7 130.4,98.7 	"/>
	<line class="st19" x1="135.5" y1="94.3" x2="136.1" y2="94.7"/>
	<polygon class="st2" points="134.5,93 133.7,95.9 135.6,96.4 136.1,94.7 135.5,94.3 135.2,95.6 134.5,95.4 135,93.8 136.9,94.3 
		137.2,93.7 	"/>
	<polygon class="st19" points="133.6,91.5 133.6,91.5 133,91.3 133,91.3 132.3,91.2 132.7,90.6 135.9,91.4 136.4,89.6 129.1,87.7 
		128.6,89.5 131.3,90.2 129.4,97.4 131.2,97.9 132.9,91.7 133.5,92 131.7,98.7 	"/>
	<polygon class="st2" points="133.5,92 132.9,91.7 131.2,97.9 129.4,97.4 131.3,90.2 128.6,89.5 129.1,87.7 136.4,89.6 135.9,91.4 
		132.7,90.6 132.3,91.2 133,91.3 133,91.3 133.6,91.5 133.6,91.5 136.4,92.2 137.2,89.2 128.6,86.9 127.8,89.9 130.5,90.7 
		128.6,97.8 130.5,98.3 130.5,98.3 131.1,98.5 131.7,98.7 	"/>
	<polygon class="st2" points="137.4,99.5 139.5,91.7 137.2,91.1 136.9,91.7 138.7,92.2 136.9,98.7 133.2,97.7 132.6,100.2 
		130.8,99.7 130.9,99 130.4,98.7 130,100.2 133,101 133.7,98.5 	"/>
</g>
</svg>
