<?xml version="1.0" encoding="utf-8"?>
<!-- Generator: Adobe Illustrator 24.1.2, SVG Export Plug-In . SVG Version: 6.00 Build 0)  -->
<svg version="1.1" id="Layer_2_1_" xmlns="http://www.w3.org/2000/svg" xmlns:xlink="http://www.w3.org/1999/xlink" x="0px" y="0px"
	 viewBox="0 0 210 210" style="enable-background:new 0 0 210 210;" xml:space="preserve">
<style type="text/css">
	.st0{fill:#33A855;}
	.st1{opacity:0.15;fill:#131313;enable-background:new    ;}
	.st2{fill:#3C3C3B;}
	.st3{fill:#FFAF82;}
	.st4{opacity:0.1;fill:#10100F;enable-background:new    ;}
	.st5{fill:#298741;}
	.st6{opacity:0.3;fill:#1D1D1B;enable-background:new    ;}
	.st7{fill:#C6C6C6;}
	.st8{fill:#661A2F;}
	.st9{fill:#C69724;}
	.st10{fill:#FAC831;}
	.st11{opacity:0.4;fill:#862A40;enable-background:new    ;}
	.st12{fill:none;}
	.st13{fill:#2E8E47;}
	.st14{fill:#91C654;}
	.st15{fill:#39803D;}
	.st16{fill:#FFFFFF;}
</style>
<path class="st0" d="M101.3,116.3c0,0-0.1,0-0.1,0c-0.7-0.3-1.5-0.4-2.3-0.1l0,0c-1.2,0.5-2.2,1.5-2.7,2.7c-0.2,0.3-0.3,0.7-0.4,1.1
	c0,0.2,0,0.5,0,0.7c0,0-0.1,0-0.1-0.1c-0.4-0.2-0.8-0.4-1.1-0.7c-0.3-0.2-0.5-0.3-0.8-0.5l-0.1-0.1l-1.2-0.9l-0.1-0.1
	c-4.9-3.7-6.8-7.9-9.3-11.7l0,0c-0.2-0.4-0.4-0.7-0.7-1s-0.3-0.8-0.5-1.2c-2.5-6.4-2.1-8.2-4.1-17.8c-1.1-3.8,0.9-7.7,4.6-9.1
	c2.5,0.8,4.4,2.8,4.9,5.4c2.5,9.3,2.6,12.1,3,17.5L101.3,116.3z"/>
<path class="st1" d="M93.8,119.5l-0.1-0.1l-1.2-0.9l-0.1-0.1c-4.9-3.7-6.8-7.9-9.3-11.7l-0.4,4.8l-1.4-1l0.6-6l1.8-18.1l2.4,19.5
	L93.8,119.5z"/>
<path class="st0" d="M84.5,137.5L84.5,137.5l-2.3,0.1l-5.4,0.3l-2.8,0.2l-3,0.2l-1.2,0.1l-1.5,0.1l-3.9,0.2l0,0l-3,0.2l-3,0.2
	l-3.4,0.2c-0.1-0.3-0.3-0.6-0.4-0.9l0,0c-1.3-3.7-0.8-11.5,0.4-16.9l1.8-0.1l14.2-0.9l2.3-0.1h0.5l1.7-0.1h1H77l1.6-0.1l0.5-0.1
	l1-0.1l1.4-0.1V120l0.2,1.5l0.2,1.5l0.4,2.5l1.1,7.7l0.8,3.1c0.1,0.1,0.1,0.3,0.1,0.4c0,0.1,0.1,0.2,0.1,0.4L84.5,137.5z"/>
<path class="st0" d="M69.9,137.7c0,0.2-0.1,0.5-0.1,0.7c0,0.1,0,0.2,0,0.3c-0.2,1.4-0.4,2.9-0.6,4.2c-1.2,9-2.1,16.8-4.4,23.4
	l-1.5-0.1l-5.7-0.4l-4.6-0.3c-1.1-9.1-0.6-18.3,1.7-27.1l0,0c1-1.1,2.2-1.9,3.5-2.5c2.9-1.2,6.3-0.7,9.9,0.9l0,0
	c0.3,0.1,0.5,0.2,0.8,0.4C69.2,137.3,69.6,137.5,69.9,137.7z"/>
<path class="st0" d="M64.7,166.4c-1.4,10-1.7,21-3.5,30.8c-0.2,1.2-0.4,3.3-0.6,4.5c-3.7,0.7-7.6-0.8-11.4,0.9
	c-2.1-11.4-1.3-28.7,3.6-37c1.1-1.8,2.1-2.5,3.3-2.7c1.9-0.2,4.1,1.2,7.1,2.7C63.8,165.9,64.2,166.1,64.7,166.4z"/>
<path class="st2" d="M64.7,208.6H48.8c-0.2-3.5,0-5.1,0.8-7.4c2.7-1.6,7.2-1.3,11.5,0.7l1.8,0.7c1.2,0.8,1.8,2.2,1.8,3.6L64.7,208.6
	L64.7,208.6z"/>
<path class="st0" d="M83.1,106.7L83.1,106.7l-0.4,4.8c-0.2,1.8-0.3,3.6-0.5,5.4l-0.3,3c0,0.5-0.1,1-0.1,1.5H55l-0.8-10l-1.5-19.8
	l-1-13.2l0.3-0.1l9.8-2.8h10.9l9.7,1.8c0.8,2.9,1.3,5.9,1.3,8.9C83.9,93.2,83.7,100,83.1,106.7z"/>
<path class="st1" d="M81.3,116.4L81.3,116.4l-2.7,3.6l-0.1,0.1l-1.1,1.4l-1.2-0.3l0,0l-0.7-0.2l-0.6-0.2l-0.3-0.1l-1.4-0.4l-2.3-0.6
	l-14.5-3.7l0.3,5.4v0.1l0,0.5c-0.2,4.7,0.2,9.3,1.3,13.9c0.2,0.8,0.4,1.6,0.7,2.3c-0.2,0.3-0.3,0.5-0.5,0.8
	c-3.8,6.8-4.4,17-2.2,23.8c0.3,1,0.8,2,1.3,3c0.5,1,1.2,1.8,2,2.6c-9.7,0.3-9.4,19.9-10.3,34.2c-2.1-11.4-1.3-28.7,3.6-37
	c-1.1-9.1-0.5-18.3,1.7-27.1l0,0c-1.3-3.7-0.8-11.6,0.4-16.9l-0.7-10c-2.8-3.9-4.7-9.2-6.3-15.7l4.8-4.1l5.5-4.7l6.5,14.6l5.5,4.9
	L81.3,116.4z"/>
<path class="st2" d="M102.8,208.6h-21c-0.6-2.2-0.6-4.5,0-6.8c2.8-2.7,6.4-3.8,10.9-3.5c1.3,2.1,4.9,4,7.5,5.1
	c1.7,0.7,2.7,2.4,2.7,4.2L102.8,208.6L102.8,208.6z"/>
<path class="st0" d="M89.1,161.9l-1.9,0.6l-6.9,2.1l-2.6,0.8c-0.2-0.3-0.3-0.6-0.5-0.9l0,0c-3.5-6.8-6.2-14.1-8.1-21.5
	c-0.3-1.4-0.6-2.8-0.8-4.1c0-0.1,0-0.2,0-0.4c-0.1-0.4-0.1-0.9-0.2-1.3c0-0.1,0-0.3,0-0.4l0,0c1.5-3.9,5.2-4.4,9.7-4.1
	c0.2,0,0.3,0,0.4,0.1c0.8,0,1.7,0.1,2.6,0.2l2.7,0.3l0,0c0.2,1,0.5,2.1,0.7,3.1c0,0.1,0.1,0.3,0.1,0.4c0,0.1,0.1,0.2,0.1,0.4
	c0,0.1,0.1,0.2,0.1,0.4c2.2,9,4.2,16.6,4.6,23.8L89.1,161.9z"/>
<path class="st0" d="M92.6,198.4c-3.4,1.5-7.4,1-10.8,3.4c0,0-0.1,0-0.1,0.1c-0.1-0.3-0.2-0.6-0.4-0.9c-0.4-1.1-0.8-2.2-1.2-3.5
	c0-0.1-0.1-0.2-0.1-0.4c-1.1-3.7-2-7.4-2.7-11.2c0,0,0-0.1,0-0.1c-1.7-9-2.1-18.1-0.1-21.3l0,0c0.5-0.9,1.1-1.7,1.7-2.5l0.1-0.1
	c1.9-2,4-2.1,7.6-1.2c0.8,0.2,1.6,0.4,2.5,0.6l0,0C89.9,172.7,92.8,187.5,92.6,198.4z"/>
<path class="st3" d="M61.7,68.8l0.1,6.9c0.5,4.7,10.8,4.3,10.9,0l0.1-6.6L61.7,68.8z"/>
<path class="st3" d="M77.3,62.6c-0.3,1.2-0.8,2.8-1.5,3c-0.4,0.2-0.8,0.1-1.1-0.2c-0.4,1.7-0.5,3.2-1.1,4.1
	c-0.5,0.9-1.1,1.7-1.8,2.5c-1.2,1.4-2.2,1.7-4.4,1.7l0,0c-2.2,0-3.2-0.3-4.4-1.7c-0.7-0.8-1.3-1.6-1.8-2.5c-0.6-0.9-0.8-2.4-1.2-4.1
	c-0.3,0.3-0.7,0.4-1.1,0.2c-0.7-0.2-1.3-1.8-1.5-3c-0.3-0.8-0.1-1.6,0.5-2.2c0.2-0.1,0.3-0.2,0.5-0.2l0,0c0.2,0,0.4,0.1,0.6,0.2
	c-0.1-0.7-0.2-1.3-0.3-2c-0.1-1.2,0-2.3,0.3-3.5c0.3-1.2,0.9-2.3,1.8-3.2l0,0c1.5-1.5,3.5-2.5,5.7-2.5l0,0c0.2,0,0.4,0,0.7,0
	c3.9,0,7.2,2,8.3,5.8c0.3,1.1,0.4,2.2,0.3,3.4c-0.1,0.7-0.1,1.3-0.3,2c0.2-0.1,0.4-0.2,0.6-0.2c0.2,0,0.4,0.1,0.6,0.2
	C77.3,61.1,77.5,61.9,77.3,62.6z"/>
<path class="st2" d="M76.2,60.3c-0.6,0.3-1,0.9-1.1,1.6c-0.2,0.6-0.3,1.1-0.3,1.7c-0.4,0.1-0.8,0.2-1.2,0.4c0.1-0.5,0.2-0.9,0.3-1.4
	c0.5-1.9,0.7-3.9,0.6-5.9c0-0.5-0.1-1-0.2-1.5c-0.7-3.5-3-3.6-3.8-3.8c-2.1-0.2-4.3-0.2-6.4,0c-1.7,0.1-3.1,1.3-3.5,2.9
	c-0.1,0.3-0.2,0.6-0.2,0.8c-0.3,2.5-0.2,5,0.5,7.3c0.1,0.5,0.2,1,0.4,1.6c-0.5-0.2-0.7-0.2-1.3-0.4c-0.1-0.6-0.2-1.3-0.4-1.9
	c-0.1-0.6-0.5-1.1-1.1-1.4l0,0c-0.3-1.8-0.3-3.6-0.1-5.3c0.3-1.5,0.9-2.8,1.7-4c2.3-3.3,11-4,14.3-0.1c1,1.2,1.7,2.6,1.9,4.1
	C76.5,56.8,76.5,58.6,76.2,60.3z"/>
<path class="st2" d="M64.3,49.3c-0.6,0-1.2,0.2-1.8,0.5c-0.8,0.4-2.7,3.3-2.3,3.9c1.7,2.7,6.8,3.5,10.4,3.6
	c-0.5-0.4-0.9-0.9-1.2-1.5c2,0.9,4.2,1,6.3,0.5c-0.5-1.8-1.4-3.5-2.7-4.9c-1.2-1-2.6-1.7-4.1-1.9C67.4,49.3,65.8,49.3,64.3,49.3z"/>
<path class="st4" d="M76.2,60.3c-0.6,0.3-1,0.9-1.1,1.6c-0.2,0.1-0.4,0.2-0.7,0.4s-0.4,0.2-0.6,0.3c-4.1,2-8.9,2-13,0l-0.5-0.3
	c-0.3-0.1-0.5-0.3-0.7-0.4c-0.1-0.6-0.5-1.1-1.1-1.4l0,0c-0.3-1.8-0.3-3.6-0.1-5.3h18C76.5,56.8,76.4,58.6,76.2,60.3z"/>
<path class="st0" d="M68.6,46.9H66c-4.4,0-8,3.6-8,8l0.2,2.8c6-1.2,12.3-1.2,18.3-0.1l0.2-2.6c0-4.4-3.5-8-7.9-8.1
	C68.7,46.9,68.7,46.9,68.6,46.9z"/>
<path class="st5" d="M58.8,57.4c0.1,0.3,0.2,0.5,0.3,0.7c0.6,1.4,2,2.2,3.5,2c0.8-0.2,1.6-0.6,2.4-1c0.8-0.3,1.6-0.5,2.4-0.6
	c0.8,0,1.7,0.2,2.4,0.6c0.8,0.4,1.5,0.8,2.4,1c1.5,0.2,2.9-0.6,3.5-2c0.1-0.2,0.2-0.5,0.3-0.7C73.2,54.1,61.6,54.1,58.8,57.4z"/>
<path class="st0" d="M64.7,75.6c-1.2-0.6-2.2-1.5-3-2.6L61,75.9c0.5,2.4,3,4,5.4,3.4c0,0,0,0,0,0l-0.4-2
	C66,76.5,65.4,75.9,64.7,75.6z"/>
<path class="st0" d="M70.2,75.4c1.2-0.4,2.1-1.3,2.6-2.4l0.7,2.9c-0.4,2.2-2.4,3.6-4.6,3.3c-0.2,0-0.3-0.1-0.4-0.1l0.2-1.7
	C68.8,76.5,69.4,75.7,70.2,75.4z"/>
<path class="st6" d="M72,124.2h-2c0-8.1-1.9-36.2-3.4-44.9l2-0.4C70.1,87.7,72,116.1,72,124.2z"/>
<path class="st0" d="M81.3,116.4L81.3,116.4c-2.2,0-4.2,1.5-4.8,3.6c0,0.1,0,0.2,0,0.2c-0.1,0.3-0.1,0.5-0.1,0.8l0,0v0.5h-0.1
	l-0.5-0.2l-0.8-0.4l-0.3-0.1l-0.9-0.4l-2.9-1.3l-16.5-7.3c-0.1-0.1-0.1-0.2-0.2-0.3c-2.8-3.9-4.7-9.2-6.3-15.7
	c-0.6-2.3-1.1-4.8-1.7-7.5c-0.9-3.9,0.2-7.9,4-9.3l1.5-0.4l0.3-0.1l2.3-0.6c1.4,3.1,2.7,6.2,3.8,9.2c2,5,3.3,10.3,3.9,15.6l8.2,5.9
	L81.3,116.4z"/>
<path class="st1" d="M81.9,201.8c0,0.2,0,0.2-0.1,0.1c-0.7-1.4-1.2-2.9-1.6-4.4c0-0.1-0.1-0.2-0.1-0.4c-0.8-2.9-1.7-6.8-2.7-11.2
	c0,0,0-0.1,0-0.1c-1.7-9-2.1-18.1-0.1-21.3l0,0c-3.5-6.8-6.2-14-8.1-21.5l-4.8-4.2c1.3,0.2,2.7,0.2,4,0.1c0.5,0,1-0.1,1.4-0.2
	c0.4-0.1,0.9-0.2,1.3-0.3c2.6-0.9,4.7-2.7,6.7-5.6c0.3-0.5,0.6-0.9,0.8-1.4c-0.1,0.5-0.3,1-0.4,1.5c-0.5,1.7-1,3.5-1.3,5.3l0,0
	c-2,9.3-1.2,16.2,2.2,23.9c0.4,0.9,0.8,1.8,1.2,2.6C77.1,174.5,82.1,199.7,81.9,201.8z"/>
<path class="st3" d="M87.3,118.2c-0.6,0.4-1.3,0.5-1.9,0.3c-0.6-0.2-1.3-0.3-2-0.2c-0.4,0.1-0.8,0.2-1.2,0.2
	c-0.4-0.1-0.7-0.3-0.9-0.7c-0.2-0.4-0.2-0.8-0.2-1.2c1-0.2,2-0.8,3-0.7s1.8,0.8,2.8,1.1c0.3,0,0.6,0.2,0.8,0.4
	C87.6,117.7,87.5,118,87.3,118.2z"/>
<polygon class="st7" points="157.3,132.9 97.5,134 98.9,126.8 157.3,130.3 "/>
<polygon class="st8" points="100.1,134 101.7,135.5 103.2,133.9 "/>
<polygon class="st9" points="102.7,133.9 104.2,135.4 105.8,133.9 "/>
<polygon class="st9" points="105.3,133.9 106.8,135.4 108.4,133.8 "/>
<polygon class="st9" points="107.8,133.8 109.4,135.3 111,133.8 "/>
<polygon class="st9" points="110.4,133.8 112,135.3 113.5,133.7 "/>
<polygon class="st9" points="113,133.7 114.6,135.2 116.1,133.7 "/>
<polygon class="st9" points="115.6,133.7 117.2,135.2 118.7,133.6 "/>
<polygon class="st9" points="118.2,133.6 119.7,135.1 121.2,133.5 "/>
<polygon class="st9" points="120.7,133.6 122.3,135.1 123.8,133.5 "/>
<polygon class="st9" points="123.3,133.5 124.9,135 126.4,133.5 "/>
<polygon class="st9" points="125.9,133.5 127.4,135 129,133.4 "/>
<polygon class="st9" points="128.4,133.4 130,134.9 131.6,133.4 "/>
<polygon class="st9" points="131,133.4 132.6,134.9 134.1,133.3 "/>
<polygon class="st9" points="133.6,133.3 135.2,134.8 136.7,133.2 "/>
<polygon class="st9" points="136.2,133.3 137.8,134.8 139.3,133.2 "/>
<polygon class="st9" points="138.8,133.2 140.4,134.7 141.9,133.2 "/>
<polygon class="st9" points="141.4,133.2 142.9,134.7 144.5,133.1 "/>
<polygon class="st9" points="143.9,133.1 145.5,134.6 147,133 "/>
<polygon class="st9" points="146.5,133.1 148.1,134.6 149.6,133 "/>
<polygon class="st9" points="149.1,133 150.7,134.5 152.2,132.9 "/>
<polygon class="st9" points="151.7,132.9 153.2,134.4 154.8,132.9 "/>
<polygon class="st9" points="154.2,132.9 155.8,134.4 157.3,132.9 "/>
<polygon class="st8" points="97.5,134 99.1,135.5 100.6,134 "/>
<path class="st9" d="M103.7,129.6l-5.1,0.1c-1.2,0-2.2-0.9-2.2-2.1c0,0,0,0,0,0l-0.1-5c0-1.2,0.9-2.2,2.1-2.2c0,0,0,0,0,0l5-0.1
	c1.2,0,2.2,0.9,2.2,2.1c0,0,0,0,0,0l0.1,5C105.8,128.6,104.9,129.6,103.7,129.6C103.7,129.6,103.7,129.6,103.7,129.6z M98.4,121.9
	c-0.3,0-0.6,0.3-0.6,0.6c0,0,0,0,0,0l0.1,5c0,0.3,0.3,0.6,0.6,0.6l5-0.1c0.3,0,0.6-0.3,0.6-0.6c0,0,0,0,0,0l-0.1-5
	c0-0.3-0.3-0.6-0.6-0.6L98.4,121.9z"/>
<path class="st10" d="M107.7,125.6c-0.1-0.1-0.2-0.2-0.3-0.2c-2-0.8-8.8-0.2-10.2-0.8c-2-0.9-3.5-6.1-5.6-6.6
	c-12.8-3.2-16.6,7-16.6,7s-1,5.1,0.1,6.2c0.3,0.2,0.6,0.4,0.9,0.5c2,0.5,5.8-0.6,7.5,0c1.4,0.8,2.7,1.8,3.8,2.9
	c2.2,2.3,13.9,1.3,16.8,0.8c0.2,0,0.4-0.1,0.6-0.1l3.9-8.5C108.3,126.3,108,125.9,107.7,125.6z M78.4,124.7c1.1-1.7,2.6-3.1,4.4-4
	c3.4-1.8,8.3-1.1,9.1,3.2c0,0-10.6,3.4-12.4,3.5C77.3,127.4,77.6,126.2,78.4,124.7z"/>
<path class="st11" d="M107.7,125.6c-0.1-0.1-0.2-0.1-0.3-0.2c-2-0.8-8.8-0.2-10.2-0.8c-2-0.9-3.5-6.1-5.6-6.6
	c-7.7-1.9-12.2,1-14.5,3.7c2.5-2.3,6.8-4.5,13.7-2.8c2.1,0.5,3.7,5.7,5.6,6.6c1.5,0.7,8.2,0,10.2,0.8c0.1,0,0.2,0.1,0.3,0.2
	c0.4,0.5,0.8,1,1.1,1.5l0.5-1.2C108.3,126.3,108.1,125.9,107.7,125.6z"/>
<path class="st9" d="M103.9,135.4c-3,0.4-14.6,1.4-16.8-0.8c-1.1-1.2-2.3-2.2-3.8-2.9c-1.7-0.6-5.4,0.5-7.5,0c0,0,16.6-6,17.5-5
	c1.5,1.7-1.1,7,1.6,7.7C97.9,134.9,100.9,135.2,103.9,135.4z"/>
<path class="st9" d="M109.6,124.1c0,0.1,0,0.2-0.1,0.3l-1,2.3l-3,6.5l-1.4,3.1c-0.2,0.4-0.7,0.6-1.1,0.4c0,0,0,0,0,0
	c-0.3-0.1-0.5-0.4-0.5-0.7c0-0.1,0-0.2,0.1-0.4l0.8-1.7l3.9-8.7l0.7-1.6c0.2-0.4,0.6-0.6,1-0.4c0,0,0,0,0,0
	C109.4,123.5,109.6,123.8,109.6,124.1z"/>
<path class="st3" d="M96.7,122.6c0.3-0.6,0.2-1.3-0.1-1.9c-0.3-0.6-0.5-1.3-0.6-1.9c0.1-0.4,0.1-0.8,0-1.2c-0.1-0.4-0.5-0.7-0.9-0.8
	c-0.4-0.1-0.8-0.1-1.2,0c0,1-0.4,2.1-0.1,3.1s1.2,1.6,1.7,2.5c0.1,0.3,0.3,0.6,0.6,0.6S96.6,122.8,96.7,122.6z"/>
<path class="st3" d="M96.7,121.9c-0.3-0.2-0.6-0.4-0.8-0.7c-0.3-0.5,0.4-1,0-1.4c-0.2-0.1-0.4-0.2-0.6-0.2c-0.6-0.1-1.1-0.4-1.3-0.8
	c-0.1-0.2-0.1-0.4-0.1-0.6c0-1,0.3-1.9,1-2.6c0.7-0.7,1.6-1.2,2.5-1.4c0.3-0.1,0.6-0.1,0.8-0.1c0.8,0.1,1.5,0.4,2.1,0.8l4.2,2.4
	c0.3,0.1,0.6,0.4,0.8,0.7c0.1,0.2,0.1,0.4,0.1,0.6c0,1,0,2,0,2.9c0,0.3,0,0.5-0.1,0.8c-0.2,0.3-0.6,0.5-1,0.4
	c-0.1-0.1-0.3-0.1-0.4-0.1c-0.1,0-0.2,0.1-0.3,0.2c-0.4,0.3-0.9,0.3-1.3,0c-0.1,0-0.2-0.1-0.3-0.1c-0.2,0-0.3,0.1-0.4,0.3
	c-0.4,0.4-1,0.5-1.4,0.1c-0.1-0.1-0.1-0.1-0.2-0.2c-0.3,0.4-0.9,0.6-1.4,0.4C97.9,122.7,97.3,122.3,96.7,121.9z"/>
<path class="st3" d="M80.8,124.4c-0.2-0.1-0.9-0.3-1.1-0.4c-0.5-0.4,0.1-1.2-0.5-1.4c-0.2-0.1-0.5-0.1-0.7,0c-0.5,0.1-1.1,0-1.6-0.4
	c-0.2-0.2-0.3-0.4-0.4-0.6c-0.4-1-0.4-2,0-3c0.4-0.9,1-1.7,1.8-2.3c0.2-0.2,0.5-0.3,0.8-0.4c0.7-0.2,1.5-0.2,2.3,0
	c1.6,0.3,3.2,0.6,4.8,0.9c0.4,0,0.7,0.1,1,0.4c0.2,0.2,0.3,0.4,0.3,0.6c0.4,0.9,0.7,1.9,1.1,2.9c0.1,0.3,0.2,0.5,0.2,0.8
	c0,0.4-0.4,0.8-0.8,0.8c-0.1,0-0.3,0-0.4,0c-0.1,0.1-0.2,0.2-0.2,0.3c-0.3,0.4-0.8,0.6-1.2,0.4c-0.1,0-0.2-0.1-0.3,0
	s-0.2,0.3-0.2,0.4c-0.2,0.5-0.9,0.8-1.4,0.5c-0.1,0-0.1-0.1-0.2-0.1c-0.3,0.5-0.6,0.9-1.2,1C82.3,124.7,81.5,124.6,80.8,124.4z"/>
<path class="st12" d="M154,204c-0.1,0-0.1,0-0.2,0c0.1,1.1,0.2,2.2,0.2,3.3c0,0.4,0,0.7-0.1,1.1c0.2-0.1,0.4-0.2,0.5-0.3
	c-0.3-1.2-0.5-2.5-0.5-3.8L154,204z"/>
<path class="st13" d="M69.7,201.7c0-1.1,0.1-2.2,0.4-3.3c-4.1-2.5-6.5-6.9-6.5-11.6c-0.1-6.2,4.1-11.6,10.2-13v-0.2
	c0-7.3,5.6-13.2,12.4-13.2c1.2,0,2.3,0.2,3.4,0.5c3.5-5.6,9.6-9.1,16.3-9.1c4.2,0,8.3,1.4,11.7,4c3.6-4.4,9-6.9,14.6-6.9
	c10.8,0,19.6,9.4,19.6,20.9c0,2.3-0.3,4.5-1,6.7c3.4,2,5.4,5.6,5.4,9.5c0,1.3-0.2,2.6-0.6,3.8c5.3,1.9,8.9,7,8.8,12.6
	c0,2.6-0.7,5.2-2.2,7.4H72.3C70.6,207.4,69.7,204.6,69.7,201.7z"/>
<path class="st0" d="M139.9,203.9c0-0.8-0.1-1.7-0.4-2.5c3.4-1.6,5.6-4.9,5.6-8.7c0-4.8-3.8-8.9-8.9-9.7v-0.2
	c0-5.5-4.9-9.9-10.9-9.9c-1,0-2,0.1-3,0.4c-3.4-4.3-8.7-6.9-14.2-6.8c-3.6,0-7.2,1-10.2,3c-3.4-3.4-8-5.2-12.8-5.2
	c-9.5,0-17.2,7-17.2,15.6c0,1.7,0.3,3.4,0.9,5c-2.8,1.3-4.7,4-4.7,7.1c0,1,0.2,1.9,0.6,2.8c-4.4,1-7.6,4.9-7.8,9.5
	c0,2,0.7,4,1.9,5.6h78.6C139,208.3,139.9,206.2,139.9,203.9z"/>
<path class="st14" d="M102.5,205.2c0-0.6-0.1-1.3-0.3-1.9c3.7-2,5-6.5,3.1-10.2c-1.1-2-3-3.5-5.3-3.8v-0.1c0-4.1-3.3-7.5-7.5-7.5
	c-0.7,0-1.4,0.1-2.1,0.3c-3.7-5.4-11.1-6.8-16.5-3.1c-0.1,0.1-0.2,0.1-0.3,0.2c-2.2-2.5-5.4-3.9-8.7-3.9c-6.5,0-11.8,5.3-11.8,11.8
	c0,0,0,0,0,0.1c0,1.3,0.2,2.6,0.6,3.8c-2,1.1-3.3,3.1-3.2,5.4c0,0.7,0.1,1.5,0.4,2.1c-3.1,1-5.3,3.9-5.3,7.2c0,1.5,0.5,3,1.3,4.2
	H101C102,208.5,102.5,206.8,102.5,205.2z"/>
<path class="st14" d="M117.9,207.7c0-0.3,0-0.6,0.2-0.9c-1.3-0.6-2.2-1.8-2.3-3.3c0.2-1.9,1.7-3.5,3.6-3.7v-0.1c0-2,2-3.7,4.4-3.7
	c0.4,0,0.8,0,1.2,0.1c1.4-1.7,3.5-2.6,5.7-2.6c1.4,0,2.9,0.4,4.1,1.1c1.4-1.3,3.2-2,5.1-2c3.8,0,6.9,2.6,6.9,5.9
	c0,0.6-0.1,1.3-0.4,1.9c1.1,0.4,1.9,1.5,1.9,2.7c0,0.4-0.1,0.7-0.2,1.1c1.7,0.3,3,1.8,3.1,3.6c0,0.8-0.3,1.5-0.8,2.1h-31.6
	C118.2,209.3,117.9,208.5,117.9,207.7z"/>
<path class="st0" d="M131.6,140.4L131.6,140.4c0-0.1,0-0.1,0-0.1v-0.1c0-0.2-0.1-0.4-0.1-0.7s-0.1-0.6-0.2-0.9
	c-0.1-0.2-0.1-0.3-0.1-0.5l-0.2-0.4c-0.1-0.1-0.1-0.2-0.2-0.4s-0.1-0.2-0.2-0.3c-0.2-0.2-0.3-0.4-0.5-0.6c-0.4-0.4-0.7-0.7-0.9-0.9
	c0,0.6,0.1,1.3,0.2,1.9c0.1,0.4,0.2,0.8,0.5,1.1c-0.1-0.2-0.2-0.4-0.3-0.6c-0.1-0.2-0.2-0.4-0.3-0.6c-0.1-0.2-0.2-0.5-0.3-0.8
	c-0.1-0.3-0.1-0.7-0.1-1l-0.1,0.1l0,0c0,0-0.1,0.1-0.1,0.2c-0.1,0.2-0.1,0.4-0.2,0.6c-0.1,0.3-0.1,0.7-0.1,1c0,0.2,0,0.4,0.1,0.6
	c0.1,0.2,0.1,0.4,0.2,0.7c0.1,0.2,0.2,0.4,0.4,0.6l0.5,0.5c0.2,0.1,0.3,0.2,0.5,0.3c0.1,0,0.2,0.1,0.2,0.1c0.1,0,0.2,0.1,0.3,0.1
	c0.1,0,0.2,0.1,0.2,0.1s0.1,0,0.2,0.1s0.1,0.1,0.2,0S131.4,140.4,131.6,140.4L131.6,140.4c0.1,0.1,0.1,0.1,0.2,0.1
	C131.5,140.4,131.6,140.4,131.6,140.4z"/>
<path class="st0" d="M136,122.8C136,122.8,135.9,122.8,136,122.8c-0.1,0-0.1,0-0.2,0.1s-0.1,0-0.1,0.1c-0.2,0.2-0.4,0.3-0.6,0.4
	c-0.2,0.2-0.5,0.3-0.8,0.5s-0.2,0.2-0.4,0.3c-0.1,0.1-0.3,0.2-0.4,0.3l-0.2,0.3l-0.2,0.3c-0.1,0.2-0.2,0.5-0.3,0.7
	c-0.2,0.4-0.3,0.8-0.4,1.2c0.6-0.3,1.1-0.6,1.6-0.9c0.3-0.2,0.6-0.5,0.8-0.8l-0.4,0.5c-0.1,0.2-0.3,0.4-0.4,0.6
	c-0.2,0.2-0.4,0.4-0.6,0.6c-0.3,0.2-0.6,0.4-0.9,0.5h0.1h0.1c0.1,0,0.1,0,0.2,0c0.2,0,0.4,0,0.7-0.1c0.3-0.1,0.6-0.2,0.9-0.3
	c0.2-0.1,0.3-0.2,0.5-0.3l0.5-0.5c0.2-0.2,0.3-0.4,0.4-0.6c0.1-0.2,0.2-0.4,0.2-0.7c0.1-0.2,0.1-0.4,0.1-0.6c0-0.1,0-0.2,0-0.3
	c0-0.1,0-0.2,0-0.3v-0.2c0-0.1-0.1-0.2-0.1-0.2v-0.2c0-0.1-0.1-0.1-0.1-0.2v0 M136.1,122.9C136.1,122.9,136.1,122.9,136.1,122.9
	c0-0.1-0.1-0.2-0.1-0.2L136.1,122.9z"/>
<path class="st0" d="M130.3,145.8C130.3,145.8,130.3,145.7,130.3,145.8c0-0.1,0-0.1-0.1-0.2s0-0.1-0.1-0.1c-0.1-0.2-0.2-0.4-0.4-0.6
	c-0.1-0.3-0.3-0.5-0.5-0.8c-0.1-0.1-0.2-0.3-0.3-0.4s-0.2-0.3-0.3-0.4s-0.2-0.2-0.3-0.3l-0.3-0.2c-0.2-0.1-0.4-0.3-0.7-0.4l-1.1-0.5
	c0.2,0.6,0.5,1.2,0.9,1.7c0.2,0.3,0.5,0.6,0.8,0.9c-0.2-0.2-0.3-0.3-0.5-0.4c-0.2-0.1-0.4-0.3-0.5-0.5c-0.2-0.2-0.4-0.4-0.5-0.6
	c-0.2-0.3-0.3-0.6-0.5-0.9l-0.1,0.1v0.1c0,0.1,0,0.1,0,0.2c0,0.2,0,0.4,0,0.7c0,0.3,0.1,0.7,0.2,0.9l0.3,0.5
	c0.1,0.2,0.3,0.4,0.4,0.5c0.2,0.2,0.4,0.3,0.6,0.4c0.2,0.1,0.4,0.2,0.6,0.3c0.2,0.1,0.4,0.1,0.6,0.2h0.3c0.1,0,0.2,0,0.3,0
	c0.1,0,0.2,0,0.2-0.1h0.2h0.2c0,0,0.1,0,0.1,0h0.1h0c0,0,0.1,0,0.1,0C130.2,145.9,130.2,145.8,130.3,145.8z"/>
<path class="st0" d="M137.4,151.5C137.3,151.5,137.3,151.4,137.4,151.5c-0.1-0.1-0.1-0.2-0.1-0.2s0-0.1-0.1-0.1
	c-0.1-0.2-0.2-0.4-0.4-0.6c-0.1-0.3-0.3-0.5-0.5-0.8c-0.1-0.1-0.2-0.3-0.3-0.4l-0.3-0.4c-0.1-0.1-0.2-0.2-0.3-0.3l-0.3-0.2
	c-0.2-0.1-0.4-0.3-0.7-0.4l-1.1-0.5c0.2,0.6,0.5,1.2,0.9,1.7c0.2,0.3,0.5,0.6,0.8,0.9c-0.2-0.2-0.3-0.3-0.5-0.4
	c-0.2-0.1-0.4-0.3-0.5-0.5c-0.2-0.2-0.4-0.4-0.5-0.6c-0.2-0.3-0.3-0.6-0.5-0.9l-0.1,0.1v0.1c0,0.1,0,0.1,0,0.2c0,0.2,0,0.4,0,0.7
	c0,0.3,0.1,0.7,0.2,1l0.3,0.5c0.1,0.2,0.3,0.4,0.4,0.5c0.2,0.2,0.4,0.3,0.6,0.5c0.2,0.1,0.4,0.2,0.6,0.3c0.2,0.1,0.4,0.1,0.6,0.1
	h0.3c0.1,0,0.2,0,0.3,0c0.1,0,0.2,0,0.2,0h0.2h0.2c0.1,0,0.1,0,0.1-0.1h0.1c0,0,0.1,0,0.1,0C137.3,151.5,137.4,151.5,137.4,151.5z"
	/>
<path class="st0" d="M152.5,153C152.5,153,152.4,152.9,152.5,153c-0.1-0.1-0.1-0.1-0.1-0.2s0-0.1-0.1-0.1c-0.1-0.2-0.2-0.4-0.4-0.6
	c-0.1-0.3-0.3-0.5-0.5-0.8c-0.1-0.1-0.2-0.3-0.3-0.4s-0.2-0.3-0.3-0.4s-0.2-0.2-0.3-0.3l-0.3-0.2c-0.2-0.1-0.4-0.3-0.7-0.4l-1.1-0.5
	c0.2,0.6,0.5,1.2,0.9,1.7c0.2,0.3,0.5,0.6,0.8,0.9c-0.2-0.2-0.3-0.3-0.5-0.4c-0.2-0.1-0.4-0.3-0.5-0.5c-0.2-0.2-0.4-0.4-0.5-0.6
	c-0.2-0.3-0.3-0.6-0.5-0.9l-0.1,0.1v0.1c0,0.1,0,0.1,0,0.2c0,0.2,0,0.4,0,0.7c0,0.3,0.1,0.7,0.2,0.9l0.3,0.5
	c0.1,0.2,0.3,0.4,0.4,0.5c0.2,0.2,0.4,0.3,0.6,0.4c0.2,0.1,0.4,0.2,0.6,0.3c0.2,0.1,0.4,0.1,0.6,0.2h0.3c0.1,0,0.2,0,0.3,0
	c0.1,0,0.2,0,0.2,0h0.2h0.2c0,0,0.1,0,0.1,0h0.1c0,0,0.1,0,0.1,0L152.5,153z"/>
<path class="st0" d="M161.3,163.4C161.3,163.4,161.3,163.3,161.3,163.4c-0.1-0.1-0.1-0.1-0.1-0.2s-0.1-0.1-0.1-0.1
	c-0.1-0.2-0.2-0.4-0.4-0.6c-0.1-0.3-0.3-0.5-0.5-0.8c-0.1-0.1-0.2-0.3-0.3-0.4c-0.1-0.1-0.2-0.3-0.3-0.4c-0.1-0.1-0.2-0.2-0.3-0.3
	l-0.3-0.2c-0.2-0.1-0.4-0.3-0.7-0.4l-1.1-0.5c0.2,0.6,0.5,1.2,0.9,1.7c0.2,0.3,0.5,0.6,0.8,0.9c-0.2-0.2-0.3-0.3-0.5-0.4
	c-0.2-0.1-0.4-0.3-0.5-0.5c-0.2-0.2-0.4-0.4-0.5-0.6c-0.2-0.3-0.3-0.6-0.5-0.9l-0.1,0.1v0.1c0,0,0,0.1,0,0.2s0,0.4,0,0.7
	c0,0.3,0.1,0.7,0.2,0.9l0.3,0.5c0.1,0.2,0.3,0.4,0.4,0.5c0.2,0.2,0.4,0.3,0.6,0.5c0.2,0.1,0.4,0.2,0.6,0.3c0.2,0.1,0.4,0.1,0.6,0.2
	h0.3c0.1,0,0.2,0,0.3,0c0.1,0,0.2,0,0.2,0h0.2h0.2c0.1,0,0.1,0,0.1-0.1h0.1c0,0,0.1,0,0.1,0S161.3,163.4,161.3,163.4z"/>
<path class="st0" d="M163.4,173.9L163.4,173.9l0.1-0.2c0,0,0-0.1,0-0.1c0.1-0.2,0.2-0.4,0.3-0.7c0.1-0.3,0.3-0.6,0.4-0.8
	c0-0.1,0.1-0.3,0.1-0.4c0.1-0.1,0.1-0.3,0.1-0.5c0-0.1,0-0.3,0.1-0.4c0-0.1,0-0.3,0-0.4c0-0.3,0-0.5-0.1-0.8
	c-0.1-0.5-0.2-0.9-0.2-1.2c-0.4,0.5-0.7,1.1-0.9,1.7c-0.2,0.4-0.3,0.8-0.3,1.2c0-0.2,0-0.4,0.1-0.6c0-0.2,0-0.5,0.1-0.7
	s0.1-0.5,0.2-0.8c0.1-0.3,0.3-0.6,0.5-0.9h-0.2c0,0-0.1,0-0.2,0.1c-0.2,0.1-0.4,0.2-0.6,0.4c-0.2,0.2-0.4,0.5-0.6,0.8
	c-0.1,0.2-0.2,0.3-0.3,0.5c-0.1,0.2-0.1,0.4-0.2,0.6c0,0.2-0.1,0.5-0.1,0.7c0,0.2,0,0.5,0.1,0.7c0.1,0.2,0.1,0.4,0.2,0.6l0.1,0.3
	c0,0.1,0.1,0.2,0.2,0.2c0.1,0.1,0.1,0.1,0.1,0.2s0.1,0.1,0.2,0.2s0.1,0.1,0.1,0.1l0.1,0.1h0.1l0,0l0.1,0.1c0-0.1,0.1-0.1,0.2-0.1
	S163.4,173.8,163.4,173.9L163.4,173.9z"/>
<path class="st0" d="M149.6,157.1C149.6,157.1,149.6,157,149.6,157.1c0-0.1,0-0.1,0-0.2s-0.1-0.1-0.1-0.1s-0.2-0.4-0.4-0.6
	c-0.1-0.3-0.3-0.5-0.5-0.8c-0.1-0.1-0.2-0.3-0.3-0.4c-0.1-0.1-0.2-0.3-0.3-0.4c-0.1-0.1-0.2-0.2-0.3-0.3l-0.3-0.2
	c-0.2-0.1-0.4-0.3-0.7-0.4l-1.1-0.5c0.2,0.6,0.5,1.2,0.9,1.7c0.2,0.3,0.5,0.6,0.8,0.9c-0.2-0.2-0.3-0.3-0.5-0.4
	c-0.2-0.1-0.4-0.3-0.5-0.5c-0.2-0.2-0.4-0.4-0.5-0.6c-0.2-0.3-0.3-0.6-0.5-0.9l-0.1,0.1v0.1c0,0,0,0.1,0,0.2s0,0.4,0,0.7
	c0,0.3,0.1,0.7,0.3,0.9l0.3,0.5c0.1,0.2,0.3,0.4,0.4,0.5c0.2,0.2,0.4,0.3,0.6,0.4c0.2,0.1,0.4,0.2,0.6,0.3c0.2,0.1,0.4,0.1,0.6,0.2
	l0.3,0.1c0.1,0,0.2,0,0.3,0c0.1,0,0.2,0,0.2,0h0.2h0.2c0.1,0,0.1,0,0.1-0.1h0.1h0.1c0,0,0.1,0,0.1,0
	C149.6,157.1,149.6,157.1,149.6,157.1z"/>
<path class="st0" d="M137.6,142.7c0,0-0.1,0-0.1,0c0,0,0,0-0.1,0s-0.1,0-0.1,0s-0.4-0.1-0.7-0.2l-0.9-0.3l-0.5-0.1
	c-0.2,0-0.3-0.1-0.5-0.1s-0.3,0-0.4,0l-0.4,0c-0.3,0-0.5,0.1-0.8,0.2c-0.5,0.1-0.9,0.3-1.1,0.4c0.6,0.3,1.1,0.5,1.8,0.7
	c0.4,0.1,0.8,0.2,1.2,0.1h-0.7c-0.2,0-0.4,0-0.7,0c-0.3,0-0.6-0.1-0.8-0.1c-0.3-0.1-0.6-0.2-0.9-0.4l0.1,0.1v0.1c0,0,0,0.1,0.1,0.1
	c0.1,0.2,0.3,0.3,0.5,0.5c0.3,0.2,0.5,0.4,0.8,0.5c0.2,0.1,0.4,0.1,0.6,0.2c0.2,0,0.4,0.1,0.6,0.1c0.2,0,0.5,0,0.7-0.1
	c0.2,0,0.4-0.1,0.6-0.2c0.2-0.1,0.4-0.2,0.6-0.3c0.1-0.1,0.1-0.1,0.2-0.2c0.1,0,0.1-0.1,0.2-0.2c0.1-0.1,0.1-0.1,0.2-0.1l0.1-0.2
	l0.1-0.1l0.1-0.1l0.1-0.1l0,0l0.1-0.1C137.6,142.8,137.6,142.7,137.6,142.7z"/>
<path class="st0" d="M143,146.7c0,0-0.1,0-0.1,0c0,0,0,0-0.1,0s-0.1,0-0.1,0s-0.4-0.1-0.7-0.2s-0.6-0.2-0.8-0.3s-0.3-0.1-0.5-0.1
	s-0.3-0.1-0.5-0.1s-0.3,0-0.4,0l-0.4,0.1c-0.3,0-0.5,0.1-0.8,0.2c-0.4,0.1-0.8,0.2-1.2,0.4c0.6,0.3,1.2,0.5,1.8,0.7
	c0.4,0.1,0.8,0.2,1.2,0.1h-0.7c-0.2,0-0.4,0-0.7,0c-0.3,0-0.6-0.1-0.8-0.2c-0.3-0.1-0.6-0.2-0.9-0.4l0.1,0.2v0c0,0,0.1,0.1,0.1,0.1
	c0.1,0.2,0.3,0.3,0.5,0.5c0.3,0.2,0.5,0.4,0.8,0.5c0.2,0.1,0.4,0.2,0.6,0.2c0.2,0,0.4,0.1,0.7,0.1c0.2,0,0.5,0,0.7-0.1
	c0.2,0,0.4-0.1,0.6-0.2c0.2-0.1,0.4-0.2,0.6-0.3c0.1,0,0.1-0.1,0.2-0.2c0.1,0,0.1-0.1,0.2-0.2c0.1-0.1,0.1-0.1,0.2-0.2l0.1-0.2
	l0.1-0.1l0.1-0.1l0.1-0.1l0,0v-0.1C142.9,146.8,143,146.8,143,146.7z"/>
<path class="st0" d="M138.8,138.3c0,0-0.1,0-0.1,0c0,0,0,0-0.1,0s-0.1,0-0.1,0s-0.4-0.1-0.7-0.2l-0.9-0.3c-0.1,0-0.3-0.1-0.5-0.1
	s-0.3-0.1-0.5-0.1s-0.3,0-0.4,0l-0.4,0.1c-0.3,0-0.5,0.1-0.8,0.2c-0.4,0.1-0.8,0.2-1.1,0.4c0.6,0.3,1.1,0.5,1.8,0.7
	c0.4,0.1,0.8,0.2,1.2,0.1h-0.7c-0.2,0-0.4,0-0.7,0c-0.3,0-0.6-0.1-0.8-0.2c-0.3-0.1-0.6-0.2-0.9-0.4l0.1,0.1v0.1c0,0,0,0.1,0.1,0.1
	c0.1,0.2,0.3,0.3,0.5,0.5c0.3,0.2,0.5,0.4,0.8,0.5c0.2,0.1,0.4,0.2,0.6,0.2c0.2,0,0.4,0.1,0.6,0.1c0.2,0,0.5,0,0.7,0
	c0.2,0,0.4-0.1,0.6-0.2c0.2-0.1,0.4-0.2,0.6-0.3c0.1-0.1,0.1-0.1,0.2-0.2c0.1,0,0.1-0.1,0.2-0.2c0.1-0.1,0.1-0.1,0.2-0.2l0.1-0.2
	l0.1-0.1l0.1-0.1l0.1-0.1l0,0v-0.1c0.1,0,0.1,0,0.2,0S138.9,138.3,138.8,138.3z"/>
<path class="st0" d="M110.1,151.7L110.1,151.7v-0.2l0.1-0.1c0.1-0.2,0.2-0.4,0.3-0.6s0.3-0.5,0.4-0.8s0.2-0.3,0.2-0.4
	s0.1-0.3,0.2-0.5c0-0.1,0.1-0.3,0.1-0.4c0-0.1,0-0.3,0.1-0.4s0-0.6,0-0.8c0-0.4-0.1-0.8-0.2-1.3c-0.4,0.5-0.7,1-1,1.6
	c-0.2,0.4-0.3,0.7-0.4,1.1c0-0.2,0.1-0.4,0.1-0.6c0-0.2,0.1-0.5,0.2-0.7c0.1-0.3,0.2-0.5,0.3-0.8c0.1-0.3,0.3-0.6,0.5-0.8H111
	c-0.1,0-0.1,0-0.2,0.1c-0.2,0.1-0.4,0.2-0.6,0.4c-0.3,0.2-0.5,0.4-0.7,0.7c-0.1,0.2-0.2,0.3-0.3,0.5c-0.1,0.2-0.2,0.4-0.2,0.6
	c-0.1,0.2-0.1,0.5-0.1,0.7c0,0.2,0,0.5,0.1,0.7c0.1,0.2,0.1,0.4,0.2,0.6l0.1,0.3c0,0.1,0.1,0.2,0.2,0.2c0,0.1,0.1,0.1,0.1,0.2
	c0,0.1,0.1,0.1,0.2,0.2c0.1,0.1,0.1,0.1,0.1,0.1l0.1,0.1l0.1,0.1l0,0l0.1,0.1C110.1,151.6,110.1,151.7,110.1,151.7z"/>
<path class="st0" d="M117.1,153L117.1,153v-0.2v-0.1l-0.1-0.7c0-0.3-0.1-0.6-0.1-0.9c-0.1-0.2,0-0.3-0.1-0.5s-0.1-0.3-0.2-0.5
	c0-0.1-0.1-0.2-0.2-0.4c-0.1-0.1-0.1-0.2-0.2-0.3c-0.1-0.2-0.3-0.4-0.4-0.6c-0.3-0.3-0.6-0.6-0.8-0.9c0,0.6,0,1.3,0.1,1.9
	c0,0.4,0.2,0.8,0.4,1.1c-0.1-0.2-0.2-0.4-0.3-0.6c-0.1-0.2-0.2-0.4-0.3-0.7c-0.1-0.3-0.2-0.5-0.2-0.8c-0.1-0.3-0.1-0.7-0.1-1
	l-0.1,0.1l0,0c0,0-0.1,0.1-0.1,0.2c-0.1,0.2-0.2,0.4-0.2,0.6c-0.1,0.3-0.1,0.7-0.1,1c0,0.2,0,0.4,0.1,0.6l0.2,0.6
	c0.1,0.2,0.2,0.4,0.3,0.6c0.1,0.2,0.3,0.4,0.5,0.5c0.1,0.2,0.3,0.3,0.5,0.4c0.1,0.1,0.2,0.1,0.2,0.1s0.2,0.1,0.2,0.1
	s0.2,0.1,0.2,0.1c0.1,0,0.2,0,0.2,0.1c0.1,0,0.1,0,0.2,0s0.1,0,0.2,0h0.1c0,0,0.1,0,0.1,0V153z"/>
<path class="st0" d="M117.3,145.9L117.3,145.9c0-0.1,0-0.1,0-0.2c0,0,0-0.1,0-0.1c0-0.2,0-0.4,0.1-0.6c0.1-0.3,0.1-0.5,0.1-0.8
	c0-0.1,0-0.3,0-0.4c0-0.1,0-0.3,0-0.4c0-0.1,0-0.2-0.1-0.3c0-0.1-0.1-0.2-0.1-0.3c-0.1-0.2-0.1-0.4-0.2-0.6
	c-0.2-0.4-0.3-0.7-0.4-0.9c-0.2,0.5-0.3,1-0.4,1.5c-0.1,0.3-0.1,0.7,0,1l-0.1-0.6c0-0.2-0.1-0.4-0.1-0.6c0-0.2,0-0.4,0-0.7
	c0-0.3,0.1-0.5,0.2-0.8h-0.1l0,0c0,0-0.1,0.1-0.1,0.1c-0.1,0.1-0.2,0.2-0.3,0.4c-0.2,0.2-0.3,0.5-0.3,0.8c0,0.2-0.1,0.3-0.1,0.5
	c0,0.2,0,0.4,0,0.6c0,0.2,0.1,0.4,0.1,0.6c0,0.2,0.1,0.4,0.2,0.5c0.1,0.2,0.2,0.3,0.3,0.4s0.1,0.1,0.2,0.2l0.2,0.1l0.2,0.1l0.1,0.1
	c0.1,0,0.1,0.1,0.2,0.1c0,0,0.1,0.1,0.1,0.1l0,0l0,0c0,0,0,0,0.1,0L117.3,145.9z"/>
<path class="st0" d="M118.4,128L118.4,128C118.4,128,118.4,128.1,118.4,128c0,0.1,0,0.1,0,0.2s0.1,0.4,0.2,0.6
	c0.1,0.2,0.2,0.5,0.3,0.7c0,0.1,0.1,0.2,0.2,0.4c0.1,0.1,0.1,0.3,0.2,0.4s0.2,0.2,0.2,0.3c0.1,0.1,0.1,0.2,0.2,0.2
	c0.1,0.1,0.3,0.3,0.5,0.4c0.3,0.2,0.6,0.4,0.9,0.6c-0.1-0.5-0.2-1-0.4-1.5c-0.1-0.3-0.3-0.6-0.5-0.9l0.4,0.4
	c0.1,0.2,0.3,0.3,0.4,0.5c0.1,0.2,0.2,0.4,0.3,0.6c0.1,0.3,0.2,0.5,0.3,0.8l0.1-0.1l0,0c0,0,0-0.1,0-0.1c0-0.2,0.1-0.4,0.1-0.6
	c0-0.3,0-0.5-0.1-0.8c-0.1-0.1-0.1-0.3-0.1-0.5c-0.1-0.2-0.2-0.3-0.3-0.5l-0.4-0.4l-0.5-0.3c-0.2-0.1-0.3-0.2-0.5-0.2
	c-0.1,0-0.1,0-0.2,0c-0.1,0-0.2,0-0.2-0.1c-0.1,0-0.1,0-0.2,0c-0.1,0-0.1,0-0.2,0c-0.1,0-0.1,0-0.2,0c-0.1,0-0.1,0-0.1,0h-0.1
	c0,0,0,0-0.1,0L118.4,128z"/>
<path class="st0" d="M125.6,123.2L125.6,123.2c0,0.1,0,0.1,0,0.1c0,0,0,0.1,0,0.1c0.1,0.2,0.2,0.4,0.3,0.6c0.1,0.2,0.2,0.4,0.4,0.7
	c0.1,0.1,0.2,0.2,0.2,0.3c0.1,0.1,0.2,0.2,0.3,0.3c0.1,0.1,0.2,0.2,0.2,0.2l0.3,0.2c0.2,0.1,0.4,0.2,0.5,0.3
	c0.3,0.2,0.7,0.4,0.9,0.5c-0.2-0.5-0.4-1-0.7-1.4c-0.2-0.3-0.4-0.5-0.7-0.8c0.1,0.1,0.3,0.2,0.4,0.3c0.2,0.1,0.3,0.3,0.4,0.4
	c0.2,0.2,0.3,0.3,0.4,0.5c0.2,0.2,0.3,0.5,0.4,0.8l0.1-0.1v-0.1c0-0.1,0-0.1,0-0.2c0-0.2,0-0.4,0-0.6c0-0.3-0.1-0.5-0.2-0.8
	c0-0.2-0.1-0.3-0.2-0.4c-0.1-0.2-0.2-0.3-0.4-0.4c-0.1-0.1-0.3-0.3-0.4-0.4c-0.2-0.1-0.3-0.2-0.5-0.2c-0.2-0.1-0.3-0.1-0.5-0.1
	c-0.1,0-0.2,0-0.3,0s-0.2,0-0.2,0c-0.1,0-0.2,0-0.2,0H126c-0.1,0-0.1,0-0.2,0.1c-0.1,0-0.1,0-0.1,0h-0.1 M125.6,123.1
	C125.6,123.1,125.6,123.1,125.6,123.1c-0.1,0,0,0.1,0,0.1L125.6,123.1z"/>
<g>
	<polygon class="st12" points="77.8,90.9 77.8,91.8 78.2,91.8 78.2,91.1 78.2,90.9 	"/>
	<polygon class="st15" points="78.2,91.1 78.5,91.2 78.5,90.9 78.2,90.9 	"/>
	<polygon class="st12" points="77.5,94.2 77.5,93 79.4,93 79.4,89.7 78.3,89.7 78.3,90 76.9,90 76.9,90 76.9,90.3 76.9,93.6 
		76.6,93.6 76.6,94.2 	"/>
	<polygon class="st12" points="76.6,90 76.3,90 76.4,89.7 78,89.7 78,88.8 74.3,88.8 74.3,89.7 75.7,89.7 75.7,93.3 76.6,93.3 
		76.6,90.2 	"/>
	<polygon class="st15" points="76.6,90 76.6,90.2 76.9,90.3 76.9,90 	"/>
	<polygon class="st15" points="78.6,89.4 78.3,89.4 78.3,89.7 78.5,89.7 	"/>
	<polygon class="st15" points="76.6,93.9 76.6,93.6 76.3,93.6 76.3,93.8 76.3,93.8 	"/>
	<line class="st12" x1="78.2" y1="91.1" x2="78.5" y2="91.2"/>
	<polygon class="st16" points="77.5,90.6 77.5,92.1 78.5,92.1 78.5,91.2 78.2,91.1 78.2,91.8 77.8,91.8 77.8,90.9 78.8,90.9 
		78.9,90.6 	"/>
	<polygon class="st12" points="76.9,90 76.9,90 76.6,90 76.6,90 76.3,90 76.4,89.7 78,89.7 78,88.8 74.3,88.8 74.3,89.7 75.7,89.7 
		75.7,93.3 76.6,93.3 76.6,90.2 76.9,90.3 76.9,93.6 	"/>
	<polygon class="st16" points="76.9,90.3 76.6,90.2 76.6,93.3 75.7,93.3 75.7,89.7 74.3,89.7 74.3,88.8 78,88.8 78,89.7 76.4,89.7 
		76.3,90 76.6,90 76.6,90 76.9,90 76.9,90 78.3,90 78.3,88.5 74,88.5 74,90 75.4,90 75.4,93.6 76.3,93.6 76.3,93.6 76.6,93.6 
		76.9,93.6 	"/>
	<polygon class="st16" points="79.7,93.3 79.7,89.4 78.6,89.4 78.5,89.7 79.4,89.7 79.4,93 77.5,93 77.5,94.2 76.6,94.2 76.6,93.9 
		76.3,93.8 76.3,94.5 77.8,94.5 77.8,93.3 	"/>
</g>
</svg>
