<?xml version="1.0" encoding="utf-8"?>
<!-- Generator: Adobe Illustrator 24.0.1, SVG Export Plug-In . SVG Version: 6.00 Build 0)  -->
<svg version="1.1" id="Layer_2" xmlns="http://www.w3.org/2000/svg" xmlns:xlink="http://www.w3.org/1999/xlink" x="0px" y="0px"
	 viewBox="0 0 2075.7 1175.98" style="enable-background:new 0 0 2075.7 1175.98;" xml:space="preserve">
<style type="text/css">
	.st0{opacity:0.2;fill:#C6C6C6;}
	.st1{fill:#654C39;}
	.st2{fill:#291B0E;}
	.st3{fill:#ADAAA0;}
	.st4{opacity:0.3;fill:#ADAAA0;}
	.st5{fill:#CECDC9;}
	.st6{opacity:0.4;fill:#F7F5F3;}
	.st7{fill:#BFC2C2;}
	.st8{fill:#B2B2B2;}
	.st9{fill:#E9E9E9;}
	.st10{fill:#3C3C3B;}
	.st11{fill:#757575;}
	.st12{fill:#24893E;}
	.st13{fill:#33A855;}
	.st14{fill:#47BF66;}
	.st15{opacity:0.2;fill:#E8AE52;}
	.st16{fill:#287F3C;}
	.st17{opacity:0.4;fill:#87450E;}
	.st18{fill:#EDD2C1;}
	.st19{fill:#D98851;}
	.st20{opacity:0.5;fill:#EDD2C1;}
	.st21{fill:#443B36;}
	.st22{opacity:0.5;fill:#443B36;}
	.st23{fill:#1C1717;}
	.st24{fill:#FDBEBF;}
	.st25{fill:#161616;}
	.st26{fill:#FFAF82;}
	.st27{fill:#E8AB79;}
	.st28{fill:#E94E1B;}
	.st29{fill:#D94919;}
	.st30{fill:#FFC92E;}
	.st31{fill:#FAC831;}
	.st32{fill:#997E6B;}
	.st33{fill:#FFFFFF;}
	.st34{fill:#3B2012;}
	.st35{fill:#D6A428;}
	.st36{fill:#7A553C;}
	.st37{fill:#F0BB8F;}
	.st38{opacity:0.5;}
	.st39{fill:#6B6B6B;}
	.st40{fill:url(#SVGID_1_);}
	.st41{fill:#575756;}
	.st42{fill:#F8F3E0;}
	.st43{fill:#4D4136;}
	.st44{fill:#38312A;}
	.st45{fill:#6E5E4F;}
	.st46{opacity:0.3;}
	.st47{fill:#FFA401;}
	.st48{fill:#414242;}
	.st49{fill:#EDEDED;}
	.st50{fill:#C3C6D5;}
	.st51{fill:url(#SVGID_2_);}
	.st52{fill:#FFD878;}
	.st53{fill:#C6962A;}
	.st54{fill:#878787;}
	.st55{fill:#9D9D9C;}
	.st56{opacity:0.1;fill:#1D1D1B;}
	.st57{opacity:0.1;fill:#131313;}
	.st58{fill:#F9A378;}
	.st59{fill:#16191E;}
	.st60{opacity:0.07;fill:#1D1D1B;}
	.st61{opacity:0.15;fill:#131313;}
	.st62{fill:none;}
	.st63{fill:#39803D;}
</style>
<ellipse class="st0" cx="1864.38" cy="928.41" rx="191.67" ry="18.11"/>
<g>
	<polygon class="st1" points="1719.45,461.21 1719.45,750.66 1751.8,750.66 1751.8,690.47 1981.18,690.47 1981.18,750.66 
		2006.64,750.66 2006.64,461.57 	"/>
	<polygon class="st1" points="1245.59,435.22 1245.59,461.57 1245.59,750.66 1265.69,750.66 1265.69,461.57 2006.64,461.57 
		2006.64,435.22 	"/>
	<rect x="1737.8" y="464.21" class="st1" width="249.84" height="61.6"/>
	<path class="st2" d="M1989.07,527.22h-252.71v-64.44h252.71V527.22z M1739.23,524.38h246.97v-58.76h-246.97V524.38z"/>
	<ellipse class="st3" cx="1862.72" cy="495" rx="12.92" ry="12.78"/>
	<path class="st4" d="M1851.25,489.13c-0.92,1.76-1.45,3.76-1.45,5.88c0,7.06,5.79,12.78,12.92,12.78c7.14,0,12.92-5.72,12.92-12.78
		C1856.37,502.5,1851.31,489.29,1851.25,489.13z"/>
	<path class="st5" d="M1857.3,486.34c0,0,11.01-3.31,14.36,4.73C1871.66,491.07,1864.96,495.8,1857.3,486.34z"/>
	<rect x="1737.8" y="527.22" class="st1" width="249.84" height="61.6"/>
	<path class="st2" d="M1989.07,590.24h-252.71V525.8h252.71V590.24z M1739.23,587.4h246.97v-58.76h-246.97V587.4z"/>
	<ellipse class="st3" cx="1862.72" cy="558.02" rx="12.92" ry="12.78"/>
	<path class="st4" d="M1851.25,552.14c-0.92,1.76-1.45,3.76-1.45,5.88c0,7.06,5.79,12.78,12.92,12.78c7.14,0,12.92-5.72,12.92-12.78
		C1856.37,565.52,1851.31,552.3,1851.25,552.14z"/>
	<path class="st5" d="M1857.3,549.35c0,0,11.01-3.31,14.36,4.73C1871.66,554.09,1864.96,558.82,1857.3,549.35z"/>
	<rect x="1737.8" y="590.24" class="st1" width="249.84" height="61.6"/>
	<path class="st2" d="M1989.07,653.26h-252.71v-64.44h252.71V653.26z M1739.23,650.42h246.97v-58.76h-246.97V650.42z"/>
	<ellipse class="st3" cx="1862.72" cy="621.04" rx="12.92" ry="12.78"/>
	<path class="st4" d="M1851.25,615.16c-0.92,1.76-1.45,3.76-1.45,5.88c0,7.06,5.79,12.78,12.92,12.78c7.14,0,12.92-5.72,12.92-12.78
		C1856.37,628.53,1851.31,615.32,1851.25,615.16z"/>
	<path class="st5" d="M1857.3,612.37c0,0,11.01-3.31,14.36,4.73C1871.66,617.1,1864.96,621.84,1857.3,612.37z"/>
	<path class="st4" d="M1265.69,461.57h453.76V448.4h-463.81v295.73l-10.05,6.54c6.54-0.07,13.08-0.13,19.62-0.2
		c0.16-1.16,0.32-2.31,0.48-3.47V461.57z"/>
	<path class="st4" d="M1751.8,690.47h229.38c0,0,0.22-5.86,0.34-11.73H1737.8v63.19l-18.34,8.72h32.34V690.47z"/>
	<polygon class="st6" points="1245.59,435.22 1245.59,448.4 1252.05,440.18 2006.64,440.18 2006.64,435.22 	"/>
</g>
<g>
	<polygon class="st7" points="1462.33,435.95 1556.73,406.09 1644.83,435.95 	"/>
	<rect x="1534.48" y="370.73" class="st8" width="45.23" height="42.4"/>
	<polygon class="st4" points="1557.1,413.12 1575.73,413.12 1579.71,411.43 1579.71,370.73 1534.48,370.73 1557.1,381.98 	"/>
	<polygon class="st9" points="1581.33,370.73 1744.43,370.73 1744.43,161.12 1365.05,161.12 1365.05,370.73 	"/>
	<rect x="1388.77" y="182.29" class="st10" width="335.01" height="167.55"/>
	<polygon class="st4" points="1581.33,370.73 1744.43,370.73 1744.43,164.91 1734.85,175.56 1734.85,349.84 1376.7,349.84 
		1376.7,175.56 1365.05,161.12 1365.05,370.73 	"/>
	<polygon class="st4" points="1576.81,412.89 1575.73,413.12 1606.64,427.49 1462.33,435.95 1644.83,435.95 	"/>
</g>
<g>
	<path class="st0" d="M1942.57,837.71l-70,60.18l-312.04-4.99l73.03-60.13c8.32-2.04,20.13-5.05,34.22-9.04
		c21.49-6.08,32.23-9.12,39.39-12.29c28.75-12.74,30.34-26.06,46.12-25.1c13.66,0.83,17.05,9.77,35.66,16.72
		c20.48,7.65,37.57,4.75,48.92,4.01C1859.62,805.66,1893.07,810.07,1942.57,837.71z"/>
	<g>
		<g>
			<polygon class="st11" points="1804.72,809.38 1856.52,896.5 1811.49,896.71 1786.83,809.47 			"/>
			<path class="st11" d="M1800.1,809.4c0,0,112.34,14.89,142.55,19.89l-21.87-20.45l-120.72-8L1800.1,809.4z"/>
			<polygon class="st11" points="1786.83,809.47 1643.16,830.7 1651.73,810.1 1786.79,800.9 			"/>
			<polygon class="st10" points="1795.73,800.86 1786.7,781.06 1754.09,781.22 1786.83,809.47 			"/>
			<polygon class="st11" points="1800.39,748.35 1800.68,809.97 1782.79,810.06 1782.53,754.31 			"/>
			<polygon class="st10" points="1782.53,754.31 1787.09,752.79 1797.66,757.12 1791.54,768.37 1791.67,795.24 1800.66,806.14 
				1800.68,809.97 1782.79,810.06 			"/>
			<path class="st12" d="M1898.59,610.92c0,0-13.92,131.28-105.65,147.13c0,0-177.92-44.74-168.01-72.53
				C1634.85,657.73,1898.59,610.92,1898.59,610.92z"/>
			<path class="st13" d="M1910.96,438.9c29.16,6.97,39.6,20.77,43.43,27.2c17.35,29.12-5.51,67.14-37.97,121.15
				c0,0-17.89,29.21-42.67,41.95c-11.07,5.69-15.48,4.48-26.44,6.51c-4.36,0.81-7.94,1.79-15.08,3.96
				c-16.99,5.16-30.52,11.21-44.28,17.41c-4.87,2.19-8.8,4.04-11.23,5.19c-9.02,11.4-49.96,61-96.73,54.4
				c-8.99-1.27-18.28-6.02-36.87-15.52c-32.39-16.55-58.49-29.38-72.42-56.83c-8.74-17.22-10.47-33.71-10.6-44.49
				c3.84-11.48,9.81-17.51,13.76-20.62c4.8-3.78,10.21-6.1,34.48-10.95c10.54-2.11,19.47-3.66,26.07-4.75
				c5.98-0.62,13.87-1.95,22.8-4.86c0,0,15.88-4.78,30.8-15.95c21.52-16.11,18.26-29.64,48.05-69.82
				c10.12-13.66,16.55-20.25,24.68-26.02c13.88-9.84,27.04-13.22,34-15.01C1839.24,420.43,1902.48,436.66,1910.96,438.9z"/>
			<path class="st14" d="M1569.26,606.13c56.63-14.29,104.28-17.54,137.32-17.77c111.93-0.77,138.3,32.55,139.88,37.02
				c0.16,0.45,1,3.23,3.49,4.55c4.58,2.44,11.75-1.69,11.54-2.34c-0.47-1.44-39.16,9.52-53.05,13.95
				c-23.94,7.63-56.33,22.03-92.13,51.81c-14.4,0.36-51.99-0.59-90.18-24.7C1592.32,647.33,1575.8,619.05,1569.26,606.13z"/>
			<path class="st15" d="M1740.55,667.51c4.8-0.66,9.23-0.99,13.32-1.02c-11.91,7.19-24.51,16-37.57,26.87
				c-14.4,0.36-51.99-0.59-90.18-24.7c-33.81-21.34-50.33-49.61-56.87-62.53C1569.26,606.13,1633.36,682.24,1740.55,667.51z"/>
			<path class="st16" d="M1582.85,649.41c23.57,30.45,60.98,48.02,95.37,47.56c8.02-0.11,23.51-0.49,39.21-9.32
				c7.99-4.49,8.12-6.72,23.12-20.14c12.19-10.91,26.87-23.03,46.6-34.48c35.24-20.44,45.4-8.59,76.09-26.05
				c31.15-17.72,46.49-44.62,53.43-56.78c13.35-23.39,30.18-52.93,18.69-77.17c-11.7-24.67-46.64-30.98-81.58-37.3
				c-25.04-4.53-46.3-4.34-60.71-3.38c0.44-0.13,0.94-0.27,1.49-0.43c0.42-0.12,0.83-0.24,1.25-0.36c0.5-0.14,1-0.27,1.5-0.41
				c0.41-0.11,0.82-0.22,1.23-0.32c0.5-0.13,1.01-0.26,1.51-0.38c0.4-0.1,0.81-0.2,1.21-0.29c0.51-0.12,1.01-0.24,1.52-0.35
				c0.39-0.09,0.78-0.17,1.18-0.26c1.12-0.24,2.24-0.48,3.36-0.69c0.21-0.04,0.42-0.08,0.63-0.12c0.53-0.1,1.05-0.19,1.58-0.29
				c0.38-0.07,0.75-0.14,1.13-0.2c0.52-0.09,1.03-0.17,1.55-0.25c0.38-0.06,0.76-0.12,1.14-0.18c0.52-0.08,1.03-0.16,1.55-0.23
				c0.37-0.05,0.74-0.1,1.11-0.15c0.52-0.07,1.05-0.14,1.57-0.21c0.34-0.04,0.67-0.08,1.01-0.12c1.13-0.13,2.26-0.26,3.39-0.37
				c0.21-0.02,0.42-0.04,0.63-0.06c0.54-0.05,1.07-0.09,1.61-0.14c0.35-0.03,0.69-0.06,1.03-0.09c0.52-0.04,1.04-0.08,1.56-0.11
				c0.35-0.02,0.71-0.05,1.06-0.07c0.52-0.03,1.03-0.06,1.55-0.09c0.34-0.02,0.68-0.03,1.03-0.05c0.53-0.02,1.05-0.05,1.57-0.07
				c0.28-0.01,0.56-0.02,0.83-0.03c1.13-0.04,2.25-0.07,3.36-0.08c0.22,0,0.43-0.01,0.65-0.01c0.53-0.01,1.05-0.01,1.58-0.01
				c0.32,0,0.64,0,0.97,0c0.51,0,1.02,0.01,1.52,0.01c0.33,0,0.66,0.01,0.99,0.01c0.5,0.01,1.01,0.02,1.51,0.03
				c0.32,0.01,0.63,0.02,0.95,0.03c0.51,0.01,1.02,0.03,1.53,0.05c0.23,0.01,0.45,0.02,0.68,0.03c1.08,0.04,2.16,0.1,3.23,0.16
				c0.23,0.01,0.46,0.02,0.69,0.04c0.5,0.03,1,0.07,1.5,0.1c0.31,0.02,0.61,0.04,0.92,0.06c0.48,0.04,0.96,0.07,1.44,0.11
				c0.31,0.03,0.62,0.05,0.93,0.08c0.48,0.04,0.95,0.08,1.42,0.13c0.3,0.03,0.59,0.06,0.88,0.08c0.48,0.05,0.97,0.09,1.45,0.14
				c0.16,0.02,0.32,0.04,0.48,0.05c1.04,0.11,2.06,0.23,3.08,0.35c0.25,0.03,0.5,0.06,0.75,0.09c0.46,0.06,0.91,0.12,1.37,0.18
				c0.29,0.04,0.59,0.08,0.88,0.12c0.44,0.06,0.88,0.12,1.31,0.18c0.3,0.04,0.59,0.08,0.88,0.13c0.43,0.06,0.87,0.13,1.3,0.19
				c0.28,0.04,0.56,0.09,0.83,0.13c0.44,0.07,0.88,0.14,1.31,0.21c0.11,0.02,0.22,0.04,0.33,0.06c0.96,0.16,1.9,0.32,2.83,0.48
				c0.26,0.05,0.53,0.09,0.79,0.14c0.4,0.07,0.8,0.15,1.19,0.22c0.28,0.05,0.57,0.11,0.85,0.16c0.38,0.07,0.76,0.15,1.14,0.22
				c0.29,0.06,0.57,0.11,0.85,0.17c0.37,0.07,0.75,0.15,1.11,0.23c0.28,0.06,0.55,0.11,0.82,0.17c1.31,0.28,2.59,0.56,3.84,0.84
				c0.27,0.06,0.54,0.12,0.81,0.18c0.33,0.08,0.66,0.16,0.99,0.23c0.27,0.06,0.54,0.13,0.81,0.19c0.32,0.08,0.63,0.15,0.95,0.23
				c0.27,0.07,0.55,0.13,0.82,0.2c0.3,0.07,0.6,0.15,0.9,0.22c0.28,0.07,0.56,0.14,0.84,0.22c0.32,0.08,0.64,0.16,0.95,0.25
				c0.46,0.12,0.92,0.24,1.37,0.36c0.26,0.07,0.52,0.14,0.78,0.21c0.27,0.07,0.54,0.15,0.81,0.22c0.25,0.07,0.51,0.14,0.76,0.21
				c0.26,0.07,0.52,0.15,0.78,0.22c0.24,0.07,0.48,0.14,0.72,0.21c0.26,0.07,0.51,0.15,0.76,0.22c0.23,0.07,0.46,0.13,0.68,0.2
				c0.28,0.08,0.55,0.16,0.82,0.24c0.19,0.06,0.39,0.12,0.58,0.17c0.42,0.13,0.83,0.25,1.23,0.37c0.18,0.06,0.35,0.11,0.53,0.17
				c0.25,0.08,0.5,0.16,0.74,0.23c0.18,0.06,0.36,0.11,0.54,0.17c0.23,0.07,0.45,0.14,0.68,0.22c0.17,0.05,0.34,0.11,0.51,0.16
				c0.23,0.08,0.46,0.15,0.68,0.22c0.14,0.05,0.28,0.09,0.42,0.14c0.28,0.09,0.55,0.18,0.82,0.27c0.07,0.02,0.15,0.05,0.22,0.07
				c0.33,0.11,0.65,0.22,0.95,0.32c0.12,0.04,0.23,0.08,0.35,0.12c0.2,0.07,0.39,0.13,0.58,0.2c0.12,0.04,0.23,0.08,0.34,0.12
				c0.18,0.06,0.36,0.13,0.53,0.19c0.1,0.04,0.2,0.07,0.3,0.11c0.18,0.06,0.36,0.13,0.53,0.19c0.07,0.02,0.14,0.05,0.21,0.07
				c0.24,0.08,0.46,0.17,0.67,0.24c29.16,6.97,39.6,20.77,43.43,27.2c17.35,29.12-5.51,67.14-37.97,121.15
				c-7.42,11.68-22.71,32.96-42.67,41.95c-2.05,0.92-7.14,3.06-13.39,5.25c-14.29,5-23.16,6.11-31.14,8.14
				c-8.49,2.15-20.56,6.47-34.56,16.15c-8.52,7.65-20.87,18.07-36.69,29.25c-19.67,13.89-29.5,20.86-41.57,24.79
				c-30.44,9.91-59.25-1.9-76.13-8.82c-14.24-5.84-50.8-20.9-69.56-59.63c-8.53-17.62-10.33-34.09-10.6-44.49
				C1565.39,624.44,1576.22,640.86,1582.85,649.41z"/>
			<path class="st17" d="M1793.66,605.08c0,0-121.76-24.44-189.74,7.22C1603.92,612.3,1725.89,592.84,1793.66,605.08z"/>
			<path class="st16" d="M1798.54,430.84c0.5-0.13,1.01-0.26,1.51-0.38c0.4-0.1,0.81-0.2,1.21-0.29c0.51-0.12,1.01-0.24,1.52-0.35
				c0.39-0.09,0.78-0.17,1.18-0.26c1.12-0.24,2.24-0.48,3.36-0.69c0.21-0.04,0.42-0.08,0.63-0.12c0.53-0.1,1.05-0.19,1.58-0.29
				c0.38-0.07,0.75-0.14,1.13-0.2c0.52-0.09,1.03-0.17,1.55-0.25c0.38-0.06,0.76-0.12,1.14-0.18c0.52-0.08,1.03-0.16,1.55-0.23
				c0.37-0.05,0.74-0.1,1.11-0.15c0.52-0.07,1.05-0.14,1.57-0.21c0.34-0.04,0.67-0.08,1.01-0.12c1.13-0.13,2.26-0.26,3.39-0.37
				c0.21-0.02,0.42-0.04,0.63-0.06c0.54-0.05,1.07-0.09,1.61-0.14c0.35-0.03,0.69-0.06,1.03-0.09c0.52-0.04,1.04-0.08,1.56-0.11
				c0.35-0.02,0.71-0.05,1.06-0.07c0.52-0.03,1.03-0.06,1.55-0.09c0.34-0.02,0.68-0.03,1.03-0.05c0.53-0.02,1.05-0.05,1.57-0.07
				c0.28-0.01,0.56-0.02,0.83-0.03c1.13-0.04,2.25-0.07,3.36-0.08c0.22,0,0.43-0.01,0.65-0.01c0.53-0.01,1.05-0.01,1.58-0.01
				c0.32,0,0.64,0,0.97,0c0.51,0,1.02,0.01,1.52,0.01c0.33,0,0.66,0.01,0.99,0.01c0.5,0.01,1.01,0.02,1.51,0.03
				c0.32,0.01,0.63,0.02,0.95,0.03c0.51,0.01,1.02,0.03,1.53,0.05c0.23,0.01,0.45,0.02,0.68,0.03c1.08,0.04,2.16,0.1,3.23,0.16
				c0.23,0.01,0.46,0.02,0.69,0.04c0.5,0.03,1,0.07,1.5,0.1c0.31,0.02,0.61,0.04,0.92,0.06c0.48,0.04,0.96,0.07,1.44,0.11
				c0.31,0.03,0.62,0.05,0.93,0.08c0.48,0.04,0.95,0.08,1.42,0.13c0.3,0.03,0.59,0.06,0.88,0.08c0.48,0.05,0.97,0.09,1.45,0.14
				c0.16,0.02,0.32,0.04,0.48,0.05c1.04,0.11,2.06,0.23,3.08,0.35c0.25,0.03,0.5,0.06,0.75,0.09c0.46,0.06,0.91,0.12,1.37,0.18
				c0.29,0.04,0.59,0.08,0.88,0.12c0.44,0.06,0.88,0.12,1.31,0.18c0.3,0.04,0.59,0.08,0.88,0.13c0.43,0.06,0.87,0.13,1.3,0.19
				c0.28,0.04,0.56,0.09,0.83,0.13c0.44,0.07,0.88,0.14,1.31,0.21c0.11,0.02,0.22,0.04,0.33,0.06c0.96,0.16,1.9,0.32,2.83,0.48
				c0.26,0.05,0.53,0.09,0.79,0.14c0.4,0.07,0.8,0.15,1.19,0.22c0.28,0.05,0.57,0.11,0.85,0.16c0.38,0.07,0.76,0.15,1.14,0.22
				c0.29,0.06,0.57,0.11,0.85,0.17c0.37,0.07,0.75,0.15,1.11,0.23c0.28,0.06,0.55,0.11,0.82,0.17c1.31,0.28,2.59,0.56,3.84,0.84
				c0.27,0.06,0.54,0.12,0.81,0.18c0.33,0.08,0.66,0.16,0.99,0.23c0.27,0.06,0.54,0.13,0.81,0.19c0.32,0.08,0.63,0.15,0.95,0.23
				c0.27,0.07,0.55,0.13,0.82,0.2c0.3,0.07,0.6,0.15,0.9,0.22c0.28,0.07,0.56,0.14,0.84,0.22c0.32,0.08,0.64,0.16,0.95,0.25
				c0.46,0.12,0.92,0.24,1.37,0.36c0.26,0.07,0.52,0.14,0.78,0.21c0.27,0.07,0.54,0.15,0.81,0.22c0.25,0.07,0.51,0.14,0.76,0.21
				c0.26,0.07,0.52,0.15,0.78,0.22c0.24,0.07,0.48,0.14,0.72,0.21c0.26,0.07,0.51,0.15,0.76,0.22c0.23,0.07,0.46,0.13,0.68,0.2
				c0.28,0.08,0.55,0.16,0.82,0.24c0.19,0.06,0.39,0.12,0.58,0.17c0.42,0.13,0.83,0.25,1.23,0.37c0.18,0.06,0.35,0.11,0.53,0.17
				c0.25,0.08,0.5,0.16,0.74,0.23c0.18,0.06,0.36,0.11,0.54,0.17c0.23,0.07,0.45,0.14,0.68,0.22c0.17,0.05,0.34,0.11,0.51,0.16
				c0.23,0.08,0.46,0.15,0.68,0.22c0.14,0.05,0.28,0.09,0.42,0.14c0.28,0.09,0.55,0.18,0.82,0.27c0.07,0.02,0.15,0.05,0.22,0.07
				c0.33,0.11,0.65,0.22,0.95,0.32c0.12,0.04,0.23,0.08,0.35,0.12c0.2,0.07,0.39,0.13,0.58,0.2c0.12,0.04,0.23,0.08,0.34,0.12
				c0.18,0.06,0.36,0.13,0.53,0.19c0.1,0.04,0.2,0.07,0.3,0.11c0.18,0.06,0.36,0.13,0.53,0.19c0.07,0.02,0.14,0.05,0.21,0.07
				c0.24,0.08,0.46,0.17,0.67,0.24c29.16,6.97,39.6,20.77,43.43,27.2c17.35,29.12-5.51,67.14-37.97,121.15
				c-7.42,11.68-22.71,32.96-42.67,41.95c-2.05,0.92-7.14,3.06-13.39,5.25c-14.29,5-23.16,6.11-31.14,8.14
				c-8.49,2.15-20.56,6.47-34.56,16.15c-8.52,7.65-20.87,18.07-36.69,29.25c-19.67,13.89-29.5,20.86-41.57,24.79
				c-30.44,9.91-59.25-1.9-76.13-8.82c-3.21-1.32-7.57-3.11-12.6-5.53c37.75,16.67,76.35,19.9,109.42-5.12
				c109.3-82.69,65.6-46.01,133.34-77.16c67.74-31.15,79.32-125.97,79.32-125.97c-8.41-70.75-153.93-58.59-153.93-58.59
				c0.5-0.14,1-0.27,1.5-0.41C1797.72,431.06,1798.13,430.95,1798.54,430.84z"/>
			<polygon class="st10" points="1829.19,883.52 1855.76,896.5 1811.49,896.71 1786.83,809.47 1800.68,809.97 			"/>
			<polygon class="st10" points="1779.73,803.34 1778.86,810.64 1643.16,830.7 1651.73,810.1 1662.43,820.36 			"/>
			<path class="st10" d="M1942.65,829.29c-27.27-4.51-121.47-17.08-139.54-19.49l-2.45-3.66l120.15,9.9l-0.03-7.2L1942.65,829.29z"
				/>
		</g>
	</g>
</g>
<g>
	<path class="st18" d="M1639.53,557.78c1.13-2.09,2.29-4.08,3.45-5.84c1.17-1.79,2.36-3.38,3.58-4.67c0.36-0.4,0.73-0.76,1.09-1.11
		c1.92-1.95,3.8-3.45,5.73-4.59c-1.97-5.56-13.93-14.15-16.78-13.68c-0.11,0-0.19,0.02-0.26,0.05
		C1634.21,529,1635.38,551.07,1639.53,557.78z"/>
	<path class="st19" d="M1678.8,544.69c0.38,0.21,0.78,0.43,1.15,0.65c0.25,0.13,0.51,0.28,0.75,0.44c1.67,1.03,3.29,2.21,4.76,3.55
		c0.31,0.28,0.62,0.58,0.92,0.89c0.02,0.02,0.03,0.03,0.04,0.05c0.03,0.03,0.08,0.07,0.11,0.1c0.25,0.27,0.52,0.54,0.77,0.83
		c0.31,0.34,0.59,0.68,0.87,1.05c0.15,0.18,0.27,0.35,0.38,0.53c0.06,0.09,0.11,0.18,0.16,0.27c0.06,0.11,0.12,0.2,0.18,0.3
		c0.24,0.36,0.47,0.72,0.7,1.09c0.21,0.38,0.42,0.77,0.62,1.15c0.18,0.38,0.36,0.78,0.53,1.19c0.22,0.56,0.42,1.15,0.59,1.76
		c0.11,0.35,0.18,0.72,0.25,1.07c0.05,0.23-1.05,0.47-1.01,0.7c0.18,1.03-0.86,2.12-0.86,3.26v0.16c0-0.46,4.47-1.57,6.25-3.03
		c0.81-0.65,2.19-1.4,3-2.21c1.53-1.53,3.32-3.26,4.67-5.03c0.93-1.16,1.91-2.36,2.65-3.52c0.02-0.02,0.09-0.04,0.1-0.05
		c2.28-3.5,3.67-9.49,3.01-10.82c-0.8-1.59-5.4-4.9-10.88-4.9h-0.02c-7.53,5.35-16.55,4.72-19.34,7.18
		C1679,541.48,1678.9,544.53,1678.8,544.69z"/>
	<path class="st18" d="M1796.95,622.27c0.16,1.28,0.26,3.63,0.31,5.92c2.32-1.26,4.72-2.37,7.13-3.46c1.01-2.01,1.99-4.34,2.79-7.01
		c0.73-2.45,1.14-5.67,0.91-9.45c-0.79-13.77-9.81-34.8-41.06-51.17c-4.96-2.59-9.73-4.56-14.31-6
		c-31.18-9.82-53.35,4.57-60.76,10.03c0.11,0.83,0.18,1.7,0.18,2.59c-0.02,0.69-0.04,1.38-0.12,2.09
		c-1.9,17.04-10.61,37.88-26.14,42.8c-1.37,0.45-2.82,0.77-4.3,1.03c-3.3,3.85-14.35,17.32-10.47,20.57
		c0.9,0.74,2.13,1.18,3.61,1.36c5.94,0.7,15.63-2.65,21.39-4.77c7.2-2.65,33.34-10.23,33.34-10.23c0.86,0.28,1.94,0.49,3.19,0.64
		c6.57,0.82,17.49,0.11,22.97-0.33c2.09-0.17,3.39-0.31,3.39-0.31s-4.93,1.15-4.17,5.69c0.76,4.54,10.99,8.71,35.99,6.81
		C1795.81,627.19,1796.95,622.27,1796.95,622.27z"/>
	<path class="st18" d="M1621.92,597.53c0.16,0.79,0.44,1.58,0.78,2.37c0.11,0.26,0.23,0.52,0.36,0.77c0.75,1.5,2.81,3.04,5.71,4.44
		c4.71,2.3,11.67,4.2,18.91,4.91c4.69,0.45,9.5,0.41,13.89-0.37c1.49-0.26,2.93-0.58,4.3-1.03c6.57-2.09,11.94-7.01,16.05-13.31
		c1.06-1.61,2.03-3.3,2.92-5.06c3.87-7.63,5.08-16.45,5.94-24.43c0.09-0.71-1.08-1.41-1.08-2.09v-0.16c0-0.83,1.13-1.64,1.03-2.43
		c-0.02-0.12,0.53-0.23,0.5-0.35c-0.04-0.17,0.23-0.33,0.2-0.49c-0.04-0.24,0.05-0.47,0-0.7c-0.08-0.35-0.09-0.72-0.19-1.07
		c-0.16-0.61-0.34-1.2-0.57-1.76c-0.16-0.41-0.33-0.81-0.5-1.19c-0.2-0.39-0.39-0.77-0.61-1.15c-0.19-0.38-0.42-0.74-0.67-1.09
		c-0.05-0.09-0.13-0.19-0.2-0.3c-0.05-0.09-0.11-0.18-0.16-0.27c-0.14-0.18-0.26-0.37-0.4-0.53c-0.27-0.37-0.56-0.71-0.86-1.05
		c-0.25-0.29-0.5-0.56-0.75-0.83c-0.05-0.05-0.11-0.1-0.15-0.15c-0.3-0.3-0.61-0.61-0.92-0.89c-1.47-1.34-3.09-2.52-4.76-3.55
		c-0.12-0.08-0.25-0.15-0.38-0.22c-0.12-0.08-0.24-0.16-0.37-0.21c-0.37-0.22-0.77-0.44-1.15-0.65c-0.24-0.14-0.47-0.26-0.71-0.37
		c-0.21-0.11-0.43-0.23-0.65-0.32c-4.01-2.03-7.93-3.26-10.43-3.94c-1.09-0.3-2.14-0.51-3.14-0.62c-3.93-0.51-7.29,0.23-10.5,2.12
		c-2.29,1.35-4.5,3.24-6.82,5.7c-2.42,2.56-4.74,6.32-7.03,10.51c-3.79,6.96-7.52,15.16-11.54,21.31
		C1622.68,587.21,1620.72,592.51,1621.92,597.53z"/>
	<path class="st19" d="M1698.49,534.18h-0.02c-6.33,5.11-16.55,4.72-19.34,7.19c-0.14,0.13-0.23,1.73-0.34,1.89
		c-4.45-2.42-8.99-3.14-11.78-3.91c-1.09-0.3-2.14-0.14-3.14-0.26c-11.29,14.83-17.9,47.48,18.05,56.23
		c1.06-1.61,2.03-3.3,2.92-5.06c3.89-7.63,6.29-16.45,7.16-24.43c0.08-0.71,0.1-1.41,0.12-2.09c1.5-0.46,3.22-1.55,4.96-3.03
		c0.81-0.65,1.63-1.4,2.43-2.21c2.57-2.55,5.07-5.68,6.94-8.55c-0.01-0.02,3.26-7.83,3.03-9.11"/>
	<path class="st19" d="M1750.73,570.74c0,0,14.02,39.78,29.56,48.49c15.53,8.72,19.69,1.13,17.8-7.57c0,0,5.21-0.36,10-3.38
		c-0.79-13.77-9.81-34.8-41.06-51.17c-4.96-2.59-9.73-4.56-14.31-6C1749.04,560.79,1749.73,567.1,1750.73,570.74z"/>
	<path class="st20" d="M1730.66,579.08c4.92,9.09,26.51,30.87,26.51,30.87c-10.18,1.8-18.18,6.63-18.18,6.63s-4.93,1.15-4.17,5.69
		c1.52-4.93,28.41-10.61,28.41-10.61s-29.92-29.55-29.17-35.62c0.76-6.06,17.44-6.44,28.04-5.68c0,0-9.09-3.41-19.7-2.65
		C1731.79,568.48,1725.73,569.99,1730.66,579.08z"/>
	<path class="st20" d="M1654.71,631.59c5.94,0.7,15.63-2.65,21.39-4.77c7.2-2.65,33.34-10.23,33.34-10.23
		c0.86,0.28,6.51-2.16,7.96-3.03c6.63-3.97-1.4-14.2-1.88-14.76c1.12,3.03,7.91,10.42-11.77,17.61
		C1684.3,623.51,1660.3,627.07,1654.71,631.59z"/>
	<path class="st20" d="M1636.59,527.89c3.42,3.72,10.28,12.72,11.05,18.27c1.92-1.95,3.8-3.45,5.73-4.59
		C1651.41,536.01,1639.45,527.41,1636.59,527.89z"/>
	<path class="st20" d="M1686.31,550.41c0.03,0.02,0.08,0.07,0.1,0.1c0.27,0.26,0.54,0.54,0.79,0.82c0.3,0.34,0.6,0.68,0.88,1.03
		c0.16,0.18,0.27,0.34,0.39,0.52c0.07,0.09,0.12,0.18,0.17,0.27c0.07,0.1,0.13,0.19,0.18,0.28c0.25,0.36,0.48,0.72,0.72,1.08
		c0.22,0.37,0.44,0.75,0.65,1.14c0.18,0.38,0.37,0.78,0.55,1.19c0.24,0.55,0.44,1.14,0.61,1.74c0.12,0.35,0.19,0.71,0.27,1.08
		c0.06,0.22-1.1,0.46-1.06,0.7c0.2,1.02-0.86,2.11-0.86,3.25v0.17c0-0.48,4.5-1.62,6.25-3.12c0.8-0.67,2.2-1.41,3-2.25
		c1.5-1.55,3.28-3.3,4.6-5.1C1698.19,553.5,1691.51,552.03,1686.31,550.41z"/>
	<path class="st20" d="M1622.7,599.9c0.11,0.26,0.23,0.52,0.36,0.77c0.75,1.5,2.81,3.04,5.71,4.44c4.71,2.3,11.67,4.2,18.91,4.91
		c4.69,0.45,9.5,0.41,13.89-0.37c1.49-0.26,2.93-0.58,4.3-1.03c6.57-2.09,11.94-7.01,16.05-13.31c1.06-1.61,2.03-3.3,2.92-5.06
		c3.87-7.63,5.08-16.45,5.94-24.43c0.09-0.71-1.08-1.41-1.08-2.09v-0.16c0-0.83,1.13-1.64,1.03-2.43c-0.02-0.12,0.53-0.23,0.5-0.35
		c-0.04-0.17,0.23-0.33,0.2-0.49c-0.04-0.24,0.05-0.47,0-0.7c-0.08-0.35-0.09-0.72-0.19-1.07c-0.16-0.61-0.34-1.2-0.57-1.76
		c-0.16-0.41-0.33-0.81-0.5-1.19c-0.2-0.39-0.39-0.77-0.61-1.15c-0.19-0.38-0.42-0.74-0.67-1.09c-0.05-0.09-0.13-0.19-0.2-0.3
		c-0.05-0.09-0.11-0.18-0.16-0.27c-0.14-0.18-0.26-0.37-0.4-0.53c-0.27-0.37-0.56-0.71-0.86-1.05c-0.25-0.29-0.5-0.56-0.75-0.83
		c-0.05-0.05-0.11-0.1-0.15-0.15c-0.3-0.3-0.61-0.61-0.92-0.89c-1.47-1.34-3.09-2.52-4.76-3.55c-0.12-0.08-0.25-0.15-0.38-0.22
		c-0.12-0.08-0.24-0.16-0.37-0.21c-0.37-0.22-0.77-0.44-1.15-0.65c-0.24-0.14-0.47-0.26-0.71-0.37c-0.21-0.11-0.43-0.23-0.65-0.32
		c4.96,5.22,11.92,14.64,6.36,29.77c-6.94,18.93-17.2,33.58-38.64,31.82C1635.95,604.84,1626.43,601.42,1622.7,599.9z"/>
	<g>
		<path class="st21" d="M1622.68,593.87c-0.11,4.21,6.46,9.57,6.46,9.57s4.1-3.02,6.91-5.19c0.53-0.41,1.02-0.79,1.42-1.11
			c2.53-2.03-12.12-9.09-14.4-4.8C1622.81,592.83,1622.69,593.34,1622.68,593.87z"/>
		<path class="st22" d="M1622.68,593.87c-0.11,4.21,6.46,9.57,6.46,9.57s4.1-3.02,6.91-5.19
			C1631.8,597.78,1626.02,596.2,1622.68,593.87z"/>
	</g>
	<path class="st23" d="M1672.89,571.89c0,0-3.79,1.89-8.34,0.95c-4.54-0.95-6.82-2.84-6.82-2.84s0.96,6.24,5.88,7.01
		C1668.52,577.76,1672.89,571.89,1672.89,571.89z"/>
	<path class="st23" d="M1643.71,568.66c-1.89,1.71-6.25,3.79-10.04-0.75c0,0-0.94,5.11,2.66,5.87
		C1639.92,574.54,1643.71,568.66,1643.71,568.66z"/>
	<path class="st24" d="M1640.12,538.55l2.86,13.39c1.17-1.79,2.36-3.38,3.58-4.67c0.36-0.4,0.73-0.76,1.09-1.11L1640.12,538.55z"/>
	<g>
		<path class="st18" d="M1625.34,621.51c0.4,0.23,0.84,0.41,1.3,0.51c6.76,1.96,17.74-6.78,21.03-12c-2.58-0.24-5.12-0.65-7.55-1.18
			c-4.38-0.95-8.33-2.27-11.36-3.74C1625.4,610.16,1620.58,618.87,1625.34,621.51z"/>
		<path class="st20" d="M1626.64,622.02c6.76,1.96,17.74-6.78,21.03-12c-2.58-0.24-5.12-0.65-7.55-1.18
			C1635.99,614.88,1630.81,619.51,1626.64,622.02z"/>
	</g>
</g>
<path class="st10" d="M1666.48,526.54c-1.72-0.08-3.32,0.22-4.84,0.8c0.77-2.43,1.67-4.82,2.68-7.16c0.35-0.8-0.51-1.41-1.26-1.31
	c-2.2,0.3-4.58,0.61-6.55,1.68c-0.74,0.41-0.57,1.26,0.31,1.23c1.35-0.04,2.69-0.28,4.04-0.48c-1.17,2.69-2.17,5.43-2.99,8.26
	c-0.46,1.59,1.59,1.56,2.51,0.98c1.81-1.14,3.83-1.67,5.88-2.18C1667.22,528.13,1667.84,526.61,1666.48,526.54z"/>
<path class="st10" d="M1683.1,505.69c-3.4-0.31-6.82,0.65-9.97,2.06c0.92-2.79,2.11-5.45,3.57-8.03c0.61-1.08,3.85-4.25,2.7-5.88
	c-0.97-1.38-3.68-0.45-4.93-0.26c-3.68,0.57-7.61,1.58-10.82,3.52c-0.73,0.44-0.32,1.15,0.46,0.99c2.43-0.49,4.79-1.25,7.22-1.78
	c1.49-0.33,2.99-0.57,4.51-0.77c1.65-0.32,1.65-0.15,0,0.51c-0.46,0.63-0.9,1.28-1.33,1.93c-2.51,3.77-4.16,8.03-5.33,12.38
	c-0.32,1.2,1.7,1.25,2.33,0.91c3.68-2,7.46-2.7,11.42-3.87C1683.77,507.15,1684.4,505.8,1683.1,505.69z"/>
<path class="st10" d="M1700.72,490.7c-3.4-0.88-7.19-0.22-10.62,1.02c1.27-2.6,2.79-5.05,4.58-7.37c1.27-1.65,2.74-3.16,4.26-4.59
	c0.68-0.64,1.64-1.57,1.52-2.59c-0.36-2.9-4.52-2.35-6.65-2.38c-3.72-0.04-7.81,0.53-11.2,2.12c-0.81,0.38-0.59,1.41,0.34,1.32
	c2.74-0.28,5.43-0.83,8.18-0.97c1.86-0.1,3.7-0.02,5.55,0.16c0.4,0.04-2.59,3.23-2.65,3.3c-3.68,3.82-6.46,8.5-8.44,13.4
	c-0.58,1.43,1.43,1.78,2.36,1.3c4.03-2.1,7.8-2.32,12.2-2.76C1701.35,492.53,1702.28,491.1,1700.72,490.7z"/>
<g>
	<g>
		<path class="st10" d="M1303.02,499.35c7.81-0.01,14.93,2.68,20.69,7.18c0.21-17.77,0.32-31.02,0.32-31.02h-158.68
			c-0.9,8.22-2.61,21.78-4.64,38.26C1207.72,504.93,1255.42,499.43,1303.02,499.35z"/>
	</g>
	<g>
		<path class="st25" d="M1289.06,499.53c0.19-14.49,0.23-24.01,0.23-24.01h-37.99l-2.14,26.13
			C1262.45,500.57,1275.76,499.84,1289.06,499.53z"/>
	</g>
	<g>
		<path class="st25" d="M1203.14,506.78c2.41-13.97,4.23-24.99,5.16-31.27h-42.95c-0.9,8.22-2.61,21.78-4.64,38.26
			C1174.8,511.13,1188.95,508.78,1203.14,506.78z"/>
	</g>
	<g>
		<path class="st26" d="M1217.17,199.73c10.64-11.22,10.06-31.12,10.06-31.12l54.64,2.89c0,0-3.43,33.15,0.97,45.54
			C1287.23,229.43,1235.78,235.6,1217.17,199.73z"/>
	</g>
	<g>
		<path class="st27" d="M1539.56,306.02c2.81,1.17,1.59,3.06,2.25,4.95c0.66,1.9-1.84,4.67-2.55,6.91
			c-0.69,2.24-1.45,4.05-4.93,6.12c-3.48,2.07-22.84,4.18-26.11,6.65c0,0-7.98-8.79-6.7-9.97
			C1502.81,319.5,1539.56,306.02,1539.56,306.02z"/>
	</g>
	<g>
		<path class="st28" d="M1476.85,340.66c-0.45-7.64-1.66-16.49-3.44-18.45l-1.19,0.16c-1.91,0.26-3.9,0.51-5.98,0.78l-14.46,1.89
			l-26.16,3.44c-16.85,1.95-35.42,3.49-37.82,1.38c-3.65-3.2-40.75-80.6-53.02-94.97s-13.25-12.36-50.35-26.86
			c0,0,17.28,100.62,21.28,106.85c4.01,6.24,57.99,58.39,62.87,59.95c4.88,1.57,32.96,0.93,56.28-9.28
			c4.28-1.87,8.66-3.98,13.02-6.15c0.04-0.02,0.1-0.02,0.14-0.04c10.14-4.84,38.5-7.13,38.5-7.13
			C1477.1,351.02,1477.17,346.15,1476.85,340.66z"/>
	</g>
	<g>
		<path class="st28" d="M1316.52,362.14c-3.08-11.3-5.9-60.84-3-80.34c2.9-19.51-7.73-65.66-7.73-65.66l-25.55-11.47l-18.68,17.36
			c0,0-42.32,26.78-43.92,27.58c-1.59,0.79-42.65,62.23-42.65,62.23s-15.42,102.48-13.99,115.08c0.6,5.3,1.17,13.68,2.13,21.81
			c12.15,3.8,26.52,7.02,35.47,16.28c17.64-6.54,39.31-16.03,52.92-22.95c24.38-12.39,74.78-2.2,75.14-5.13
			C1327.03,433.99,1319.59,373.46,1316.52,362.14z"/>
	</g>
	<g>
		<path class="st29" d="M1316.52,362.14c-2.69-9.91-5.2-49.16-3.83-71.85c-2.81-8.99-4.54-14.54-4.54-14.54
			c2.36,28.65-8.82,102.3-141.69,96.3c-3.28,24.81-6.12,49.14-5.47,54.86c0.47,4.19-2.99,27.84-3.31,43.94
			c-0.13,6.33,3.67,12.06,9.56,14.39c33.81,13.36,150.28,10.84,160.09,4.58c14.32-9.14,2-30.21-0.67-52.9
			C1326.33,433.99,1319.59,373.46,1316.52,362.14z"/>
	</g>
	<g>
		<path class="st28" d="M1217.17,199.73c-12.95,3.67-53.7,8.39-59.69,14.3c-6,5.9-18.64,43.21-29.12,74.84
			c-10.48,31.62-21.96,72.03-20.4,80.78c1.55,8.75,15.03,15.65,21.84,19.11c6.81,3.47,87.51,0.95,92.26-3.1
			c0,0,2.05-14.38,0.84-29.6c0,0-43.74-7.91-63.34-8.79c0,0,9.98-19.49,15.42-35.43l86.57-89.81L1217.17,199.73z"/>
	</g>
	<g>
		<g>
			<path class="st29" d="M1245.21,363.49c-52.01-9.6-64.08-80.01-62.44-90.32l-6.64,32.07l-6.25,43.24L1245.21,363.49z"/>
		</g>
		<g>
			<path class="st30" d="M1182.77,273.16l0.21-1.29C1182.98,271.88,1182.9,272.38,1182.77,273.16z"/>
		</g>
	</g>
	<g>
		<path class="st31" d="M1255.53,333.7l-0.96,52.97c0,0,16.09,11.74,33.64,4.15l6.58-53.38L1255.53,333.7z"/>
	</g>
	<g>
		<path class="st32" d="M1251.26,328.59c0.14,1.18,1.72,7.17,1.72,7.17l43.66,3.84l1.01-8.18L1251.26,328.59z"/>
	</g>
	<g>
		<polygon class="st1" points="1260.28,321.98 1256.13,328.89 1293.32,331.16 1290.42,323.57 		"/>
	</g>
	<g>
		<path class="st33" d="M1287.37,320.68c-1.64-3.88-2.17-6.5,1.24-10.04c3.41-3.55-0.78-9.3-0.78-9.3s7.18,6.69,3.37,10.11
			C1287.38,314.88,1286.42,314.62,1287.37,320.68z"/>
	</g>
	<g>
		<path class="st33" d="M1277.67,308.26c-2.24-5.29-2.96-8.87,1.69-13.7c4.65-4.84-1.06-12.69-1.06-12.69s9.8,9.13,4.59,13.8
			C1277.68,300.34,1276.38,299.98,1277.67,308.26z"/>
	</g>
	<g>
		<path class="st33" d="M1262.31,318.14c-2.24-5.29-2.96-8.87,1.69-13.7c4.65-4.84-1.06-12.69-1.06-12.69s9.8,9.13,4.59,13.8
			C1262.32,310.22,1261.01,309.86,1262.31,318.14z"/>
	</g>
	<g>
		<path class="st13" d="M1283.74,362.6c-0.9,9.32-6.4,16.43-12.28,15.86c-5.89-0.57-9.93-8.59-9.02-17.91
			c0.9-9.34,6.4-16.43,12.28-15.86C1280.6,345.25,1284.64,353.28,1283.74,362.6z"/>
	</g>
	<g>
		<path class="st26" d="M1267.09,345.58c-3.27,0.09-24.25,10.82-27.69,12.35c-3.24,1.43-8.52,1.2-16.32,1.36
			c0.35,6.88,0.13,13.32-0.21,18.15c5.52-0.83,16.12-2.27,20.26-1.75c5.71,0.7,13.63-2.39,19.01-3.75
			c5.38-1.36,14.03,6.08,17.02,5.29c3-0.79,14.86-7.73,14.22-11.87C1292.73,361.23,1270.35,345.5,1267.09,345.58z"/>
	</g>
	<g>
		<path class="st26" d="M1524,312.98c11.76-4.36,19.36-8.11,16.11-9.15c-3.26-1.03-9,2.07-27.43,5.89
			c-18.44,3.82-18.17,8.32-26.4,10.28c-3.61,0.87-8.48,1.61-14.05,2.37l1.19-0.16c1.78,1.96,3,10.81,3.44,18.45
			c2.44-0.81,4.6-1.37,6.04-1.23c8.24,0.69,13.28,3.37,24.18,1.02c10.9-2.34,20.11-0.28,20.5-2.98c0.38-2.71-9.16-4.35-13.93-5.17
			c-4.77-0.83-5.9-3.3-5.58-6.38C1508.38,322.84,1512.23,317.35,1524,312.98z"/>
	</g>
	<g>
		<path class="st29" d="M1133.71,363.14c8.95-11.04,25.86-15.87,25.86-15.87s9.98-19.49,15.42-35.43l8-39.97
			C1177.11,299.23,1133.71,363.14,1133.71,363.14z"/>
	</g>
	<g>
		<path class="st29" d="M1374.15,356.58c-4.52-4.5-66-80.83-66-80.83c0.23,13.53,4.53,46.93,4.53,46.93
			c15.71,16.34,51.94,50.88,55.9,52.14c4.88,1.57,32.96,0.93,56.28-9.28c4.28-1.87,8.66-3.98,13.02-6.15
			c0.04-0.02,0.1-0.02,0.14-0.04c10.14-4.84,38.5-7.13,38.5-7.13c0.6-1.19,0.66-6.06,0.35-11.56c0,0-50.62,10.25-69.26,16.03
			C1388.94,362.48,1378.69,361.08,1374.15,356.58z"/>
	</g>
	<g>
		<g>
			<path class="st34" d="M1298.04,110.37c5.38-19.36-8.37-45.79-50.11-44.66c-15.08,0.41-29.94,5.34-33.79,19.08
				c-0.22,0.76-1.03,1.2-1.52,1.82c-6.96,8.85-9.51,19.76-9.11,28.94c0.77,17.97,6.41,29.11,7.92,32.62
				c1.56,3.52,12.93,12.86,16.92,23.79C1232.35,182.89,1298.04,110.37,1298.04,110.37z"/>
		</g>
	</g>
	<g>
		<g>
			<path class="st26" d="M1224.53,157.22c2.82,6.06,3.43,12.7,14.59,20.03c11.18,7.35,28.82,16.7,34.17,16.27
				c5.31-0.44,9.59,0.73,16.5-13.28c6.9-14,12.32-20.65,11.65-34.32c-0.68-13.65,2.34-41.81-15.76-50.64
				c-13.37-6.62-33.76-1.3-43.71,10.66c-10.01,11.95-9.88,16.08-12.21,33.86c0,0-8.74-10.32-12.42-10.51
				c-3.69-0.22-6.61,2.34-3.88,9.62c2.76,7.25,3,4.92,3.58,8.71c0.61,3.76,1.34,7.51,3.4,8.73
				C1223.05,157.82,1224.53,157.22,1224.53,157.22z"/>
		</g>
	</g>
	<g>
		<g>
			<path class="st34" d="M1284.72,93.14c0,0-10.63-0.75-19.93,4.11c-10.08,5.27-24.05,12.92-25.89,24.02
				c-1.84,11.1-4.09,22.43-4.09,22.43l-4.3-0.29l-2.84-37.73l21.19-22.86L1284.72,93.14z"/>
		</g>
	</g>
	<g>
		<g>
			<path class="st34" d="M1280.93,95.54c0,0,13.96,3.39,17.11,14.83l-5.27-19.09l-12.37-9.42L1280.93,95.54z"/>
		</g>
	</g>
	<g>
		<path class="st34" d="M1229.78,139.8c-1.02,13.21-6.02,12.33-6.71,18.74c-0.69,6.41-0.29,11.11,12.88,24.31
			c13.17,13.19,30.22,22.19,39.37,20.97c9.14-1.22,14.32-9.69,15.41-13.97c1.09-4.27,5.64-22.36,5.64-22.36s-3.97,8.49-13.45,11.66
			c-9.48,3.15-29.35-2.81-35.72-9.65c-6.37-6.83-12.39-25.8-12.39-25.8l-3.71-18.11l-5.2,4.25L1229.78,139.8z"/>
	</g>
	<g>
		<path class="st34" d="M1292.88,174.23c1.86-3.56,3.52-6.71,4.88-9.74c-2.24-1.37-5.99-2.79-11.47-2.07
			c-6.82,0.9-6.85,1.99-16.87,6.91c-10.79,5.31-15.91,5.43-24.73,1.18c-6.44-3.1-1.49,6.04,1.65,11.2c1.97,1.17,3.97,2.32,6,3.43
			l12.15,0.42l1.62-6.91c9.87-1.38,11.23-6.7,16.09-8.58C1288.12,167.8,1289.82,170.03,1292.88,174.23z"/>
	</g>
	<g>
		<path class="st34" d="M1295.13,104.24c-2.24-3.73-5.22-6.91-9.43-8.98c-13.38-6.6-33.76-1.29-43.71,10.66
			c-1.17,1.4-2.16,2.66-3.07,3.86c0.47,1.09,0.82,1.9,0.82,1.9l3.62,0.63c7.73-6.99,16.87-11.46,24.81-7.12
			c7.95,4.33,16.67,4.5,22.33-0.42C1292.5,103.07,1293.99,103.29,1295.13,104.24z"/>
	</g>
</g>
<g>
	<g>
		<g>
			<path class="st26" d="M1988.51,577.36c-4.65,49.52-13.56,88.48-12.8,100.86c0.77,12.38,9.18,43.81-0.09,86.58
				c-6.38,29.38-17.7,69.63-16.92,92.84c0.77,23.21,6.96,37.14,6.96,54.17c0,17.02-1.53,21.65-22.44,21.66
				c-21.95,0.01-16.08-25.44-13.85-37.05c2.24-11.61,6.93-31.83,7.65-41.87c1.79-24.74-5.29-81.46-6.11-97.38
				c-1.54-29.55,2.25-52.64,6.11-75.08c1.61-9.35-3.49-31.5-6.36-51.35c-4.02-27.79-6.66-53.38-6.66-53.38H1988.51z"/>
		</g>
	</g>
	<g>
		<g>
			<path class="st26" d="M1849.3,570.36c-17.02,43.32-15.64,89.06-17.18,96.8c-1.55,7.73-10.37,34.2-20.42,62.06
				c-10.06,27.85-27.78,114.5-33.96,131.52c-6.19,17.02-13.93,36.37-21.66,43.33c-7.74,6.96-25.53,10.06-27.09,19.34
				c-1.54,9.28,47.97,7.74,49.52,3.87c1.55-3.87,3.87-23.2,13.93-28.63c10.06-5.41,20.89-14.69,16.25-23.98
				c-4.65-9.28-9.28-12.37-3.87-23.98c5.42-11.61,24.68-62.73,40.16-80.11c15.47-17.38,18.1-68.6,27.38-81.76
				c9.29-13.15,39.84-77.36,45.25-95.16C1923.02,575.87,1849.3,570.36,1849.3,570.36z"/>
		</g>
	</g>
	<g>
		<g>
			<path class="st35" d="M1809.06,881.8c-2.7,9.41-6,37.06-6,46.66h-6.71c0,0,1.76-20.43-0.82-34.36
				C1792.95,880.18,1809.06,881.8,1809.06,881.8z"/>
		</g>
	</g>
	<g>
		<g>
			<path class="st31" d="M1943.22,933.47c20.9-0.01,22.44-4.64,22.44-21.66c0-5.26-0.62-10.22-1.46-15.25
				c0.06,0.74,1.05,15.24-14.53,14.98c-16-0.27-21.68-7.64-20.29-15.11C1927.14,908.03,1921.28,933.48,1943.22,933.47z"/>
		</g>
	</g>
	<g>
		<g>
			<path class="st31" d="M1792.43,898.65c10.06-5.41,20.89-14.69,16.25-23.98c-1.71-3.4-3.39-5.97-4.6-8.44l0,0
				c0,0-19.41,12.89-25.13,26.23c-5.72,13.35-16.27,26.53-35.14,18.68c-7,3.31-13.88,6.66-14.82,12.27
				c-1.55,9.28,47.97,7.74,49.52,3.87C1780.05,923.41,1782.37,904.07,1792.43,898.65z"/>
		</g>
	</g>
	<g>
		<path class="st1" d="M1966.44,189.11c17.56,10.88,32.23-3.52,31.45-25.23c-0.79-21.7-24.38-26.39-27.38-18.87
			C1967.51,152.52,1966.44,189.11,1966.44,189.11z"/>
	</g>
	<g>
		<path class="st36" d="M1968.59,176.45c0,0-0.2-18.31,1.06-28.21c0.26-1.31,0.54-2.47,0.86-3.23c2.4-6.04,18.07-4.17,24.57,8
			c0.69,1.65,1.17,3.44,1.35,5.42C1997.9,174.96,1985,185.36,1968.59,176.45z"/>
	</g>
	<g>
		<g>
			<path class="st28" d="M1866.13,459.2c-2.5,6.82-11.56,8.38-24.75,95.26c-7.34,48.32-7.73,91.23-7.73,91.23
				s110.44,27.09,155.47,6.05c0,0,9.7-44.5,9.7-83.51c0-82.57,4.03-83.09-15.63-113.46L1866.13,459.2z"/>
		</g>
	</g>
	<g>
		<g>
			<g>
				<path class="st36" d="M1878.66,171.63c0,0-3.66-18.03,0.36-30.67c4.59-14.67,17.42-31.9,43.93-30.52
					C1949.49,111.79,1878.66,171.63,1878.66,171.63z"/>
			</g>
		</g>
		<g>
			<g>
				<path class="st1" d="M1886.04,145.83c8.06-20.67,23.33-40.45,52.85-33.94c31.13,6.88,42.26,36.89,39.26,54.41
					c-3,17.48-8.1,28.02-10.22,31.13c-8.58,12.56-19.19,15.46-24.35,25.65C1938.43,233.31,1886.04,145.83,1886.04,145.83z"/>
			</g>
		</g>
		<g>
			<g>
				<path class="st26" d="M1981.54,256.7c-0.02-0.19-0.02-0.39-0.06-0.57c-0.02-0.09-0.05-0.18-0.07-0.27
					c-0.06-0.22-0.11-0.43-0.19-0.63c-0.02-0.05-0.05-0.09-0.07-0.13c-0.11-0.23-0.23-0.45-0.39-0.65
					c-0.01-0.01-0.02-0.02-0.03-0.03c-0.57-0.7-1.45-1.24-2.81-1.65c-6.76-2.07-17.41-2.99-25.36-6.35
					c-8.04-4.69-8.53-20.99-7.8-28.71c0.51-5.42,2.13-16.34,4.28-21.52c-0.06-0.07-0.14-0.17-0.17-0.22l-38.3,21.04h-2.59h-6.91
					c0,0,0.42,2.1,0.78,5.13c-0.3,0.25-0.55,0.42-0.78,0.56c0.26,0.09,0.55,0.19,0.87,0.3c0.76,7.05,1.02,18.18-4.36,21.28
					c-5.59,3.25-9.75,5.25-16.58,6.59c0,0.14,0.08,0.25,0.08,0.4v24.71c17.62,1.45,21.68,30.18,38.99,30.26
					c15.41,0.09,42.9-25.67,58.32-30.58c0.75,0.01,1.51,0.03,2.26,0.05c-0.04-0.35-0.06-0.68-0.09-1.02
					c-0.07-0.73-0.13-1.45-0.16-2.14c0-0.04,0-0.07,0-0.1c-0.28-6.35,0.93-10.88,1.17-14.05c0-0.01,0-0.03,0-0.04
					c0.02-0.28,0.02-0.53,0.02-0.79c0-0.14,0.01-0.28,0.01-0.41C1981.58,257.01,1981.56,256.86,1981.54,256.7z"/>
			</g>
			<g>
				<path class="st37" d="M1901.06,222.71c-0.92-0.33-1.45-0.56-1.45-0.56S1899.26,223.85,1901.06,222.71z"/>
			</g>
		</g>
		<g>
			<g class="st38">
				<path class="st27" d="M1949.03,196.2c-1.32,3.19-2.47,7.54-3.46,14.92c-0.72,5.36-1.86,12.49-0.43,21.11
					c-2.41,0.9-8.69,3.5-11.77,4.16c-18.51,3.99-33.05,4.84-33.05,4.84s4.69-13.82,0.66-20.25l47.87-25
					C1948.89,196.03,1948.96,196.13,1949.03,196.2z"/>
			</g>
		</g>
		<g>
			<g>
				<path class="st26" d="M1951.99,200.23c-3.14,5.87-5.54,14.19-16.85,20.64c-11.31,6.54-29.01,14.63-34.19,13.83
					c-5.14-0.84-9.32,0.05-15.04-14.37c-5.77-14.42-10.59-21.44-9.01-35c1.62-13.5,0.65-41.8,18.74-49.3
					c13.4-5.63,32.78,1.07,41.62,13.64c8.86,12.63,8.45,16.74,9.46,34.59c0,0,10.7-10.53,14.3-10.49c3.59,0.07,6.22,2.84,3.08,9.86
					c-3.14,7.05-4.74,5.57-5.57,9.29c-0.86,3.71-1.8,7.42-3.88,8.46C1952.04,202.68,1951.99,200.23,1951.99,200.23z"/>
			</g>
		</g>
		<g>
			<g>
				<path class="st1" d="M1905.01,133.14c0,0,12.91,42.96,41.03,55.72l19.02-32.39l-22.81-26.61L1905.01,133.14z"/>
			</g>
		</g>
		<g>
			<g>
				<path class="st1" d="M1910.51,135.75c0,0-19.03,19.23-32.78,22.93c0,0,5.77-31.04,25.73-41.25L1910.51,135.75z"/>
			</g>
		</g>
		<g>
			<path class="st1" d="M1966.96,128.98c9.71,18.69-1.06,42.06-21.36,39.71c-19.74-2.27-31.45-19.25-38.09-28.55
				c4.93,12.64,17.42,39.14,38.54,48.72l5.04-8.61c3.4-2.98,7.84-6.5,9.94-6.47c3.59,0.07,6.22,2.84,3.08,9.86
				c-3.14,7.05-4.74,5.57-5.57,9.29c-0.86,3.71-1.8,7.42-3.88,8.46c-2.62,1.29-2.67-1.16-2.67-1.16c-1.47,2.74-2.82,6.03-4.98,9.4
				c-1.29,3.84-1.79,7.09-2.44,11.74c5.25-9.75,14.91-11.61,23.35-23.94c2.12-3.11,7.22-13.65,10.22-31.13
				C1979.94,155.79,1976.61,140.8,1966.96,128.98z"/>
		</g>
	</g>
	<g>
		<path class="st29" d="M1861.93,467.9c-0.79,1.67-1.67,3.64-2.58,5.82c50.72,25.36,90.25,26.36,90.25,26.36
			s-10.53,120.25-20.95,159.68c24.58-1.14,44.86-0.72,60.47-8.01c0,0,9.7-44.5,9.7-83.51c0-82.57,4.03-83.09-15.63-113.46
			l-103.91,3.93L1861.93,467.9z"/>
	</g>
	<g>
		<path class="st31" d="M1850.34,298.83c5.02-22.55-12.14-24.42-5.34-34.56c4-5.94,11.15-10.72,21.81-11.47
			c12.36-0.86,27.02-6.43,27.02-6.43l26.22,59.88l35.9-58.07c0,0,30.03,6.01,43.2,6.93c22.98,1.62,27.63,18.21,32.62,40.77
			c5.03,22.54,12.74,62.06,14.97,72.4c4.01,18.47,3.94,26.74,1.19,37.78c-2.43,9.83-11.22,17.14-19.44,20.65h-7.29
			c0,0-22.99,4.45-28.6,0c-9.82-7.81,1.19,28.21,3.82,41.43c0.31,1.57-0.56,3.06-2.08,3.58c-12.5,4.19-68.66,20.38-139.34-0.14
			c-1.51-0.44-2.54-1.87-2.36-3.43c1.8-16.04,10.74-78.72,2.88-105.89C1852.6,352.09,1845.33,321.37,1850.34,298.83z"/>
	</g>
	<g>
		<path class="st35" d="M1994.36,471.71c1.52-0.52,2.39-2.01,2.08-3.58c-2.63-13.22-13.65-49.24-3.82-41.43
			c1.43,1.14,4.01,1.69,7.04,1.88l-18.12-10.67l-5.67,36.86c0,0-91.18,10.75-121.45-3.62l0,0c-0.75,7.72-1.39,13.77-1.76,16.99
			c-0.18,1.56,0.85,2.99,2.36,3.43C1925.7,492.08,1981.86,475.9,1994.36,471.71z"/>
	</g>
	<g>
		<g>
			<g>
				<path class="st35" d="M1985.98,400.12c0,0,21.79-12.08,22.8-13.73c1.04-1.65-22.8-76.69-22.8-76.69s3.55,63.05,3.89,67.68
					C1990.24,381.99,1985.98,400.12,1985.98,400.12L1985.98,400.12z"/>
			</g>
		</g>
	</g>
	<g>
		<g>
			<g>
				<path class="st26" d="M1999.64,394.39c-5.91,1.67-23.66,8.93-22.44,15.12c1.22,6.24,4.38,5.8,4.33,8.39
					c0,2.59,0.93,4.15,2.81,7.38c1.91,3.24,6.56,5.08,8.24,7.77c1.65,2.61,4.58,7.75,11.13,4.96c6.56-2.75,15.9-8.48,17.49-10.88
					c1.54-2.36,1.32-6.54-1.05-8.73c-2.34-2.23-2.39-6.37-3.88-8.22c-1.61-1.86-3.84-3.54-4.71-5.84c-0.87-2.3-3.57-3.72-4-4.88
					C2007.12,398.32,2004.41,393.05,1999.64,394.39z"/>
			</g>
		</g>
	</g>
	<g>
		<g>
			<path class="st31" d="M1877.75,255.1c0,0-19.83-4.47-30.39,6.21c-16.06,16.23-21.13,44.59-26.36,81.24
				c-2.96,20.71-7.62,44.62-7.99,52.92c-0.35,8.31,37.05,15.41,37.05,15.41l18.61-73.67c0,0,3.12-6.45,7.73-22.47
				C1884.84,285.43,1877.75,255.1,1877.75,255.1z"/>
		</g>
	</g>
	<g>
		<path class="st35" d="M1858.27,378.41l1.36-91.8c0,0-16.74,52.24-24.88,61.89l0.86,59c7.72,2.1,14.46,3.38,14.46,3.38
			L1858.27,378.41z"/>
	</g>
	<g>
		<g>
			<path class="st26" d="M1807.48,346.34c0,0-20.98-5.85-24.59-9.74c-3.59-3.84-10.08-23.07-6.32-29.12
				c3.86-6.08,9.63-12.7,11.7-9.3c2.09,3.44-0.1,5.21-0.1,5.21s6.23-8.05,9-6.42c2.77,1.66,0.62,12.85-1.02,16.41
				c-1.64,3.53,4.36,5.01,8,4.9c3.53-0.06,15.19-4.9,30.43,13.22c0,0-1.28,13.89-7.92,16.29
				C1820.04,350.19,1809.56,349.98,1807.48,346.34z"/>
		</g>
	</g>
	<g class="st38">
		<path class="st26" d="M1826.67,347.79c-6.63,2.4-17.11,2.19-19.19-1.45c0,0-20.98-5.85-24.59-9.74
			c-3.59-3.85-10.08-23.07-6.32-29.12c2.2,20.98,42.09,44.87,58.02,24.02C1834.59,331.5,1833.31,345.39,1826.67,347.79z"/>
	</g>
	<g>
		<g>
			<path class="st31" d="M1807.48,346.34c0,0-7.58,80.07,31.47,74.04c37.02-5.69-4.36-88.87-4.36-88.87
				S1827.61,354.73,1807.48,346.34z"/>
		</g>
	</g>
</g>
<g>
	<polygon class="st39" points="1258.01,716.03 1255.92,728.03 1352.35,728.03 1350.26,716.03 	"/>
	<polygon class="st39" points="1240.34,582.07 1249.07,598.07 1359.2,598.07 1369.26,583.42 	"/>
	<polygon class="st10" points="1249.07,598.07 1258.01,716.03 1350.26,716.03 1359.2,598.07 	"/>
	<path class="st39" d="M1253.21,617.86l-2.49,2.07l0.22,2.96l4.16-3.45l13.98,11.61l-14.29,11.87l-2.48-2.06l0.2,2.61l0.81,0.67
		l-0.71,0.59l0.21,2.79l2.29-1.9l14.08,11.69l-14.4,11.95l-0.35-0.29l0.24,3.17l0.42-0.35l14.19,11.78l-12.93,10.74l0.19,2.47
		l14.32-11.89l14.29,11.87l-14.5,12.04l-14.09-11.69l0.17,2.23l12.66,10.51l-7.46,6.19h2.95l5.99-4.97l5.99,4.97h2.52l-7.25-6.02
		l14.5-12.04l14.4,11.95l-7.36,6.11h2.73l5.99-4.97l5.99,4.97h2.73l-7.36-6.11l14.4-11.95l14.5,12.04l-7.25,6.02h2.52l5.99-4.97
		l5.99,4.97h2.95l-7.46-6.19l14.29-11.86l1.83,1.52l0.19-2.47l-0.44-0.36l0.5-0.41l0.17-2.23l-1.93,1.6l-14.5-12.04l14.19-11.78
		l3.69,3.07l0.2-2.63l-2.21-1.84l2.51-2.08l0.18-2.42l-4.06,3.37l-14.4-11.95l14.08-11.69l5.56,4.62l0.21-2.79l-3.98-3.31l4.52-3.75
		l0.2-2.61l-6.19,5.14l-14.29-11.87l13.98-11.61l7.43,6.17l0.22-2.96l-5.76-4.78l6.53-5.42l0.12-1.56l-0.43-0.8l-7.79,6.47
		l-14.19-11.78l8.08-6.71h-3.36l-6.4,5.31l-6.4-5.31h-3.79l8.29,6.88l-13.98,11.61l-14.08-11.69l8.19-6.8h-3.58l-6.4,5.31l-6.4-5.31
		h-3.58l8.19,6.8l-14.08,11.69l-13.98-11.61l8.29-6.88h-3.79l-6.4,5.31l-6.4-5.31h-3.36l8.08,6.71l-14.19,11.78l-4.61-3.83l0.21,2.8
		L1253.21,617.86z M1286.64,619.44l14.08,11.69l-14.19,11.78l-14.08-11.69L1286.64,619.44z M1318.16,645.62l14.29,11.87
		l-14.19,11.78l-14.29-11.87L1318.16,645.62z M1302.4,656.08l-14.19-11.78l14.19-11.78l14.19,11.78L1302.4,656.08z M1316.69,670.57
		l-14.29,11.87l-14.29-11.87l14.29-11.87L1316.69,670.57z M1286.53,669.26l-14.19-11.78l14.29-11.87l14.19,11.78L1286.53,669.26z
		 M1316.48,618.04l-14.08,11.69l-14.08-11.69l14.08-11.69L1316.48,618.04z M1332.35,631.22l-14.08,11.69l-14.19-11.78l14.08-11.69
		L1332.35,631.22z M1334.14,629.73l-14.19-11.78l13.98-11.61l14.19,11.78L1334.14,629.73z M1334.14,656.09l-14.29-11.87l14.08-11.69
		l14.29,11.87L1334.14,656.09z M1334.14,682.44l-14.4-11.95l14.19-11.78l14.4,11.95L1334.14,682.44z M1319.63,696.75l14.29-11.87
		l14.5,12.04l-14.29,11.86L1319.63,696.75z M1303.87,683.66l14.29-11.87l14.4,11.95l-14.29,11.86L1303.87,683.66z M1288,696.84
		l14.4-11.95l14.4,11.95l-14.4,11.95L1288,696.84z M1272.24,683.75l14.4-11.95l14.29,11.87l-14.4,11.95L1272.24,683.75z
		 M1270.87,658.7l14.19,11.78l-14.4,11.95l-14.19-11.78L1270.87,658.7z M1270.87,632.53l14.08,11.69l-14.29,11.87l-14.08-11.69
		L1270.87,632.53z M1256.68,618.13l14.19-11.78l13.98,11.61l-14.19,11.78L1256.68,618.13z"/>
	
		<linearGradient id="SVGID_1_" gradientUnits="userSpaceOnUse" x1="8500.4014" y1="525.8389" x2="8456.4365" y2="739.4475" gradientTransform="matrix(-1 0 0 1 9789.4746 0)">
		<stop  offset="0" style="stop-color:#8A8677"/>
		<stop  offset="0.1713" style="stop-color:#706D61"/>
		<stop  offset="0.7396" style="stop-color:#201F1B"/>
		<stop  offset="1" style="stop-color:#000000"/>
	</linearGradient>
	<polygon class="st40" points="1369.26,583.42 1365.77,588.5 1286.58,588.5 1292.26,716.03 1290.78,728.03 1262.36,728.03 
		1264.88,716.03 1255.92,598.06 1253.18,588.15 1242.98,586.9 1240.34,582.07 	"/>
</g>
<g>
	<polygon class="st1" points="1076.41,505.05 1076.41,852.33 1115.21,852.33 1115.21,780.12 1390.42,780.12 1390.42,852.33 
		1420.98,852.33 1420.98,505.48 	"/>
	<polygon class="st1" points="507.88,473.87 507.88,505.48 507.88,852.33 531.99,852.33 531.99,505.48 1420.98,505.48 
		1420.98,473.87 	"/>
	<rect x="1098.42" y="508.64" class="st1" width="299.76" height="73.9"/>
	<path class="st2" d="M1399.9,584.25h-303.2v-77.31h303.2V584.25z M1100.14,580.84h296.31v-70.5h-296.31V580.84z"/>
	<ellipse class="st3" cx="1248.3" cy="545.6" rx="15.5" ry="15.33"/>
	<path class="st4" d="M1234.54,538.55c-1.11,2.11-1.75,4.51-1.75,7.05c0,8.47,6.94,15.33,15.5,15.33c8.56,0,15.5-6.86,15.5-15.33
		C1240.68,554.59,1234.61,538.73,1234.54,538.55z"/>
	<path class="st5" d="M1241.8,535.2c0,0,13.21-3.98,17.23,5.68C1259.03,540.87,1250.99,546.55,1241.8,535.2z"/>
	<rect x="1098.42" y="584.25" class="st1" width="299.76" height="73.9"/>
	<path class="st2" d="M1399.9,659.86h-303.2v-77.31h303.2V659.86z M1100.14,656.45h296.31v-70.5h-296.31V656.45z"/>
	<ellipse class="st3" cx="1248.3" cy="621.2" rx="15.5" ry="15.33"/>
	<path class="st4" d="M1234.54,614.15c-1.11,2.11-1.75,4.51-1.75,7.05c0,8.47,6.94,15.33,15.5,15.33c8.56,0,15.5-6.86,15.5-15.33
		C1240.68,630.2,1234.61,614.34,1234.54,614.15z"/>
	<path class="st5" d="M1241.8,610.8c0,0,13.21-3.98,17.23,5.68C1259.03,616.48,1250.99,622.16,1241.8,610.8z"/>
	<rect x="1098.42" y="659.86" class="st1" width="299.76" height="73.9"/>
	<path class="st2" d="M1399.9,735.47h-303.2v-77.31h303.2V735.47z M1100.14,732.06h296.31v-70.5h-296.31V732.06z"/>
	<ellipse class="st3" cx="1248.3" cy="696.81" rx="15.5" ry="15.33"/>
	<path class="st4" d="M1234.54,689.76c-1.11,2.11-1.75,4.51-1.75,7.05c0,8.47,6.94,15.33,15.5,15.33c8.56,0,15.5-6.86,15.5-15.33
		C1240.68,705.8,1234.61,689.95,1234.54,689.76z"/>
	<path class="st5" d="M1241.8,686.41c0,0,13.21-3.98,17.23,5.68C1259.03,692.09,1250.99,697.77,1241.8,686.41z"/>
	<path class="st4" d="M531.99,505.48h544.41v-15.81H519.94v354.81l-12.06,7.85c7.85-0.08,15.7-0.16,23.55-0.24
		c0.19-1.39,0.38-2.77,0.57-4.16V505.48z"/>
	<path class="st4" d="M1115.21,780.12h275.21c0,0,0.27-7.04,0.4-14.07h-292.41v75.82l-22.01,10.46h38.81V780.12z"/>
	<polygon class="st6" points="507.88,473.87 507.88,489.67 515.63,479.82 1420.98,479.82 1420.98,473.87 	"/>
</g>
<g>
	<polygon class="st7" points="767.92,474.74 881.18,438.91 986.88,474.74 	"/>
	<rect x="854.49" y="396.49" class="st8" width="54.27" height="50.87"/>
	<polygon class="st4" points="881.62,447.36 903.97,447.36 908.75,445.33 908.75,396.49 854.49,396.49 881.62,409.99 	"/>
	<polygon class="st9" points="910.69,396.49 1106.37,396.49 1106.37,145 651.21,145 651.21,396.49 	"/>
	<rect x="679.66" y="170.41" class="st10" width="401.93" height="201.02"/>
	<polygon class="st4" points="910.69,396.49 1106.37,396.49 1106.37,149.55 1094.88,162.33 1094.88,371.43 665.18,371.43 
		665.18,162.33 651.21,145 651.21,396.49 	"/>
	<polygon class="st4" points="905.27,447.08 903.97,447.36 941.06,464.59 767.92,474.74 986.88,474.74 	"/>
</g>
<g>
	<polygon class="st1" points="518.86,852.46 448.82,852.46 453.95,206.88 518.86,206.88 	"/>
</g>
<g>
	<g>
		<g>
			<polygon class="st35" points="407.7,734.45 437.92,852.2 463.58,852.44 429.85,721.03 			"/>
		</g>
		<g>
			<polygon class="st31" points="450.7,715.69 429.85,721.03 463.58,852.44 484.42,847.1 			"/>
		</g>
		<g>
			<polygon class="st41" points="384,724.26 384,852.44 408.79,852.44 408.79,716.78 			"/>
		</g>
		<g>
			<rect x="408.79" y="716.78" class="st10" width="21.52" height="135.66"/>
		</g>
		<g>
			<polygon class="st29" points="348.44,724.26 348.44,852.44 373.23,852.44 373.23,716.78 			"/>
		</g>
		<g>
			<rect x="373.23" y="716.78" class="st28" width="21.53" height="135.66"/>
		</g>
	</g>
	<g>
		<polygon class="st42" points="389.51,843.53 382.63,843.53 378.48,758.28 389.51,758.28 		"/>
	</g>
	<g>
		<polygon class="st42" points="424.06,844.25 417.16,844.25 415.33,759.73 425.88,758.94 		"/>
	</g>
	<g>
		<path class="st42" d="M391.13,739.03c0,3.88-2.83,7.02-6.32,7.02c-3.49,0-6.32-3.15-6.32-7.02c0-3.88,2.84-7.03,6.32-7.03
			C388.3,732.01,391.13,735.15,391.13,739.03L391.13,739.03z"/>
	</g>
	<g>
		<polygon class="st42" points="475.92,837.14 469.25,838.9 443.52,757.52 454.19,754.71 		"/>
	</g>
	<g>
		<path class="st42" d="M450.84,735.68c0.98,3.75-0.95,7.51-4.33,8.41c-3.38,0.89-6.92-1.43-7.91-5.18
			c-0.98-3.76,0.95-7.51,4.33-8.4C446.31,729.62,449.84,731.93,450.84,735.68L450.84,735.68z"/>
	</g>
	<g>
		<path class="st42" d="M425.88,739.64c0,3.88-2.83,7.02-6.32,7.02c-3.49,0-6.32-3.15-6.32-7.02c0-3.88,2.83-7.02,6.32-7.02
			C423.04,732.62,425.88,735.76,425.88,739.64L425.88,739.64z"/>
	</g>
</g>
<g>
	<polygon class="st1" points="240.39,888.56 265.72,166.28 327.27,166.28 327.27,888.56 	"/>
</g>
<g>
	<rect x="296.09" y="852.46" class="st32" width="253.96" height="36.1"/>
</g>
<g>
	<rect x="518.86" y="192.04" class="st32" width="15.59" height="660.42"/>
</g>
<g>
	<rect x="327.27" y="192.04" class="st32" width="15.59" height="660.42"/>
</g>
<g>
	<rect x="327.27" y="618.02" class="st32" width="207.17" height="42.38"/>
</g>
<g>
	<rect x="327.27" y="166.28" class="st32" width="207.17" height="42.38"/>
</g>
<g>
	<rect x="327.27" y="393.25" class="st32" width="207.17" height="42.37"/>
</g>
<g>
	<g>
		<polygon class="st43" points="372.13,559 382.57,618.52 431.27,618.52 441.71,559 		"/>
	</g>
	<g>
		<polygon class="st10" points="372.13,559 382.57,618.52 431.27,618.52 441.71,559 		"/>
	</g>
	<g>
		<polygon class="st44" points="427.45,559 422.63,613.34 381.82,614.25 382.57,618.52 431.27,618.52 441.71,559 		"/>
	</g>
	<g>
		<polygon class="st45" points="381.82,559 390.75,607.51 393.04,559 		"/>
	</g>
	<g>
		<path class="st13" d="M372.13,559c-13.46-3.12-15.69-13.37-14.73-18.89c1.28-7.21,8.8-10.62,14.73-9.66
			c0,0-15.68-20.66,4.24-29.85c19.92-9.18,30.55,7.46,30.55,7.46s1.43-12.41,15.2-10.23c13.78,2.2,12.63,15.97,10.33,19.99
			c0,0,3.61-6.32,9.27-3.45c5.66,2.87-0.09,10.34-4.11,10.9c0,0,13.2-3.45,21.24,7.46c8.04,10.9-2.89,26.25-17.13,26.25H372.13z"/>
	</g>
	<g>
		<path class="st14" d="M458.84,532.75c-8.04-10.91-21.24-7.46-21.24-7.46c4.02-0.57,9.77-8.04,4.11-10.9
			c-5.66-2.87-9.27,3.45-9.27,3.45c1.9-3.31,2.98-13.21-4.36-17.84c7.48,6.8-1.45,22.84-6.8,24.89c0,0,10.73-2.81,11.5,3.41
			c0.8,6.5-5.75,9.36-5.75,9.36s12.68,1.28,10.61,9.19c-2.56,9.71-18.91,4.09-18.91,4.09s5.11,7.92-20.7,8.06h43.69
			C455.96,559,466.88,543.65,458.84,532.75z"/>
	</g>
	<g>
		<path class="st14" d="M379.11,531.4c-4.07-5.4-6.09-18.81,6.8-21.08c12.9-2.28,7.09,19.47,7.09,19.47s6.99-6.06,11.2-1.51
			c4.22,4.55-2.61,10.62-11.46,11.12c0,0-4.64,16.87-19.09,12.14C366.69,549.27,367.99,534.78,379.11,531.4z"/>
	</g>
</g>
<g>
	<g>
		<g>
			<polygon class="st8" points="433.34,228.35 425.15,332.95 433.42,333.29 449.07,237.7 			"/>
		</g>
		<g class="st46">
			<polygon class="st3" points="431.59,321.31 426.09,321.09 425.15,332.95 433.42,333.29 449.07,237.7 444.81,235.17 			"/>
		</g>
		<g>
			<g>
				<polygon class="st4" points="433.33,288.41 433.53,287.58 428.79,286.4 428.74,287.25 				"/>
			</g>
			<g>
				<polygon class="st4" points="431.95,300.68 432.13,299.86 427.81,298.92 427.76,299.77 				"/>
			</g>
			<g>
				<polygon class="st4" points="432.64,294.55 432.83,293.73 428.31,292.68 428.24,293.52 				"/>
			</g>
			<g>
				<polygon class="st4" points="434.02,282.28 434.24,281.45 429.29,280.14 429.22,280.99 				"/>
			</g>
			<g>
				<polygon class="st4" points="434.7,276.13 434.94,275.31 429.79,273.85 429.71,274.71 				"/>
			</g>
			<g>
				<polygon class="st4" points="435.64,269.18 430.27,267.54 430.21,268.42 435.39,270 				"/>
			</g>
			<g>
				<polygon class="st4" points="431.27,306.82 431.43,305.99 427.33,305.17 427.27,306.02 				"/>
			</g>
			<g>
				<polygon class="st4" points="430.77,261.25 430.7,262.13 436.1,263.87 436.36,263.05 				"/>
			</g>
			<g>
				<polygon class="st4" points="437.47,251.58 437.76,250.79 431.75,248.63 431.69,249.5 				"/>
			</g>
			<g>
				<polygon class="st4" points="436.78,257.71 437.05,256.92 431.27,254.95 431.19,255.81 				"/>
			</g>
			<g>
				<polygon class="st4" points="438.16,245.44 438.47,244.65 432.25,242.29 432.19,243.17 				"/>
			</g>
			<g>
				<polygon class="st4" points="439.17,238.52 432.74,235.94 432.67,236.83 438.85,239.31 				"/>
			</g>
		</g>
	</g>
	<g>
		<g>
			<path class="st31" d="M398.44,266.49c-13.06,1.74-8.28,31.32-8.28,31.32s-9.57-31.76-24.8-16.97s24.8,50.9,24.8,50.9l12.19,2.18
				C413.71,293.66,411.49,264.75,398.44,266.49z M385.8,319.39c-11.03-7.02-21.27-32.35-14.58-36.37
				C383.85,275.42,396.83,326.4,385.8,319.39z M394.02,299.4c-3.51-19.48-0.23-28.3,6.5-28.59c4.02-0.17,5.94,1.59,5.43,22.44
				C405.45,314.1,397.53,318.86,394.02,299.4z"/>
		</g>
		<g>
			<g>
				<path class="st30" d="M373.16,276.93c1-0.06,1.89,0.09,2.71,0.4C374.98,277.05,374.09,276.92,373.16,276.93z"/>
			</g>
		</g>
		<g>
			<g>
				<path class="st30" d="M393.59,277.34c-0.04,0.16-0.1,0.35-0.15,0.53c0.04-0.19,0.12-0.31,0.18-0.48L393.59,277.34z"/>
			</g>
		</g>
		<g class="st38">
			<path class="st47" d="M391.17,302.1c0,0,4.74,18.17,3.59,23.85l3.71-0.18C398.47,325.77,395.76,315.57,391.17,302.1z"/>
		</g>
	</g>
	<g>
		<polygon class="st13" points="412.98,329.03 420.76,252.8 427.65,253.77 418.03,333.7 		"/>
	</g>
	<g>
		<polygon class="st48" points="409.51,331.8 409.67,272.05 416.43,270.82 414.06,333.77 		"/>
	</g>
	<g>
		<polygon class="st29" points="377.47,324.13 393.58,392.44 434.47,392.44 442.3,324.13 		"/>
	</g>
	<g>
		<polygon class="st28" points="386.25,324.13 400.53,392.44 406.19,392.44 406.19,324.13 		"/>
	</g>
	<g>
		<polygon class="st28" points="423.23,324.13 439.11,324.13 426.65,392.44 417.63,392.44 		"/>
	</g>
</g>
<g>
	<g>
		<path class="st12" d="M163.94,547.37c0,0,43.76-364.09,87.56-457.77c0,0-23.26,443.13-82.21,483.12
			C110.32,612.7,163.94,547.37,163.94,547.37z"/>
	</g>
	<g>
		<path class="st14" d="M105.43,563c0,0-42.34-95.5-36.34-250.52c6.03-155.01,1.73-184.68,1.73-184.68s92.13,294.02,66.06,433.02
			L105.43,563z"/>
	</g>
	<g>
		<path class="st12" d="M146.44,53.79c0,0-60.74,338.56-20.07,509.15L169.3,563C169.3,563,166.3,181.66,146.44,53.79z"/>
	</g>
	<g>
		<path class="st14" d="M207.71,154.79c0,0-73.3,300.53-55.79,419.45l26.53,5.24C178.45,579.47,216.46,263.24,207.71,154.79z"/>
	</g>
	<g>
		<path class="st13" d="M116.66,579.47c0,0-51.22-57.5-66.52-185.56c0,0,76.11,115.61,86.75,166.91
			C147.53,612.14,116.66,579.47,116.66,579.47z"/>
	</g>
	<g>
		<polygon class="st49" points="113.37,847.37 78.86,536.04 204.37,536.04 175.82,847.37 		"/>
	</g>
	<g>
		<polygon class="st50" points="181.29,536.04 153.95,831.77 111.87,837.97 113.37,847.37 175.82,847.37 204.37,536.04 		"/>
	</g>
	<g class="st38">
		<polygon class="st50" points="94.98,546.64 123.46,546.64 126.04,810.95 		"/>
	</g>
</g>
<g>
	<polygon class="st39" points="176.2,887.61 173.52,903.04 297.52,903.04 294.84,887.61 	"/>
	<polygon class="st39" points="153.48,715.34 164.71,735.92 306.33,735.92 319.26,717.08 	"/>
	<polygon class="st10" points="164.71,735.92 176.2,887.61 294.84,887.61 306.33,735.92 	"/>
	<path class="st39" d="M170.04,761.37l-3.2,2.66l0.29,3.8l5.35-4.44l17.97,14.92l-18.38,15.26l-3.19-2.65l0.25,3.36l1.04,0.86
		l-0.92,0.76l0.27,3.59l2.94-2.44l18.11,15.04l-18.51,15.37l-0.45-0.37l0.31,4.08l0.54-0.45l18.25,15.15l-16.63,13.81l0.24,3.17
		l18.42-15.29l18.38,15.26l-18.65,15.49l-18.11-15.04l0.22,2.87l16.27,13.51l-9.59,7.97h3.79l7.7-6.39l7.7,6.39h3.24l-9.32-7.74
		l18.65-15.49l18.51,15.37l-9.46,7.85h3.52l7.7-6.4l7.7,6.4h3.51l-9.46-7.85l18.51-15.37l18.65,15.49l-9.32,7.74h3.24l7.7-6.39
		l7.7,6.39h3.79l-9.59-7.97l18.38-15.26l2.35,1.95l0.24-3.17l-0.56-0.47l0.64-0.53l0.22-2.87l-2.48,2.06l-18.65-15.49l18.24-15.15
		l4.75,3.94l0.26-3.38l-2.84-2.36l3.23-2.68l0.24-3.11l-5.22,4.33l-18.51-15.37l18.11-15.03l7.15,5.94l0.27-3.59l-5.12-4.25
		l5.81-4.83l0.25-3.36l-7.96,6.61l-18.38-15.26l17.97-14.92l9.55,7.93l0.29-3.8l-7.4-6.15l8.4-6.97l0.15-2.01l-0.56-1.03
		l-10.02,8.32l-18.24-15.15l10.39-8.63h-4.32l-8.23,6.83l-8.23-6.83H261l10.66,8.85l-17.97,14.92l-18.11-15.03l10.53-8.74h-4.6
		l-8.23,6.83l-8.23-6.83h-4.6l10.53,8.74l-18.11,15.03l-17.97-14.92l10.66-8.85h-4.87l-8.23,6.83l-8.23-6.83h-4.32l10.39,8.62
		l-18.24,15.15l-5.93-4.92l0.27,3.6L170.04,761.37z M213.02,763.4l18.11,15.03l-18.24,15.15l-18.11-15.03L213.02,763.4z
		 M253.56,797.06l18.38,15.26l-18.24,15.15l-18.38-15.26L253.56,797.06z M233.29,810.52l-18.24-15.15l18.24-15.15l18.24,15.15
		L233.29,810.52z M251.66,829.15l-18.38,15.26l-18.38-15.26l18.38-15.26L251.66,829.15z M212.88,827.46l-18.24-15.15l18.38-15.26
		l18.24,15.15L212.88,827.46z M251.39,761.6l-18.11,15.03l-18.11-15.03l18.11-15.03L251.39,761.6z M271.8,778.54l-18.11,15.03
		l-18.24-15.15l18.11-15.03L271.8,778.54z M274.1,776.63l-18.24-15.15l17.97-14.92l18.24,15.15L274.1,776.63z M274.1,810.52
		l-18.38-15.26l18.11-15.03l18.38,15.26L274.1,810.52z M274.1,844.41l-18.51-15.37l18.24-15.15l18.51,15.37L274.1,844.41z
		 M255.45,862.81l18.38-15.26l18.65,15.49L274.1,878.3L255.45,862.81z M235.18,845.98l18.38-15.26l18.51,15.37l-18.38,15.26
		L235.18,845.98z M214.77,862.92l18.51-15.37l18.51,15.37l-18.51,15.37L214.77,862.92z M194.5,846.09l18.51-15.37l18.38,15.26
		l-18.51,15.37L194.5,846.09z M192.74,813.89l18.24,15.15l-18.51,15.37l-18.24-15.15L192.74,813.89z M192.74,780.23l18.11,15.04
		l-18.38,15.26l-18.11-15.04L192.74,780.23z M174.5,761.71l18.24-15.15l17.97,14.92l-18.24,15.15L174.5,761.71z"/>
	
		<linearGradient id="SVGID_2_" gradientUnits="userSpaceOnUse" x1="9573.3252" y1="643.0358" x2="9516.7891" y2="917.7187" gradientTransform="matrix(-1 0 0 1 9789.4746 0)">
		<stop  offset="0" style="stop-color:#8A8677"/>
		<stop  offset="0.1713" style="stop-color:#706D61"/>
		<stop  offset="0.7396" style="stop-color:#201F1B"/>
		<stop  offset="1" style="stop-color:#000000"/>
	</linearGradient>
	<polygon class="st51" points="319.26,717.08 314.78,723.62 212.95,723.62 220.24,887.61 218.34,903.04 181.79,903.04 
		185.04,887.61 173.52,735.91 169.99,723.16 156.87,721.56 153.48,715.34 	"/>
</g>
<g>
	<path class="st0" d="M528.21,901.53l93.05,80l414.81-6.64l-97.08-79.93c-11.06-2.72-26.75-6.72-45.49-12.02
		c-28.56-8.08-42.85-12.12-52.36-16.34c-38.21-16.93-40.33-34.64-61.32-33.37c-18.16,1.11-22.67,12.99-47.4,22.23
		c-27.22,10.17-49.95,6.31-65.04,5.33C638.47,858.92,594.01,864.78,528.21,901.53z"/>
	<g>
		<g>
			<polygon class="st11" points="710.84,868.88 650.7,971.1 703.39,971.1 731.77,868.88 			"/>
			<path class="st11" d="M716.24,868.88c0,0-131.37,18.04-166.69,24.05l25.48-24.05l141.21-10.02V868.88z"/>
			<polygon class="st11" points="731.77,868.88 899.99,892.93 889.86,868.88 731.77,858.86 			"/>
			<polygon class="st10" points="721.3,858.86 731.77,835.64 769.92,835.64 731.77,868.88 			"/>
			<polygon class="st11" points="715.56,797.43 715.56,869.55 736.5,869.55 736.5,804.31 			"/>
			<polygon class="st10" points="736.5,804.31 731.15,802.56 718.81,807.68 726.03,820.81 726.03,852.26 715.56,865.06 
				715.56,869.55 736.5,869.55 			"/>
			<path class="st35" d="M599.91,637.17c0,0,17.01,153.54,124.43,171.58c0,0,207.95-53.33,196.19-85.79
				C908.77,690.49,599.91,637.17,599.91,637.17z"/>
			<path class="st31" d="M584.49,435.95c-34.08,8.32-46.22,24.52-50.67,32.07c-20.14,34.17,6.82,78.54,45.1,141.55
				c0,0,21.09,34.08,50.16,48.86c12.99,6.6,18.14,5.16,30.97,7.48c5.1,0.92,9.31,2.05,17.67,4.55
				c19.91,5.95,35.77,12.94,51.91,20.12c5.71,2.54,10.32,4.68,13.17,6.01c10.61,13.29,58.79,71.1,113.48,63.13
				c10.52-1.53,21.36-7.14,43.06-18.36c37.8-19.55,68.28-34.7,84.43-66.89c10.13-20.2,12.06-39.51,12.16-52.11
				c-4.55-13.42-11.58-20.43-16.21-24.05c-5.64-4.4-11.98-7.08-40.41-12.63c-12.34-2.41-22.8-4.18-30.53-5.41
				c-7-0.69-16.24-2.2-26.7-5.56c0,0-18.61-5.51-36.13-18.49c-25.27-18.74-21.53-34.58-56.61-81.43
				c-11.92-15.93-19.47-23.6-29.03-30.31c-16.3-11.44-31.71-15.32-39.86-17.38C668.31,413.94,594.4,433.28,584.49,435.95z"/>
			<path class="st52" d="M985.24,629.76c-66.35-16.41-122.11-19.95-160.77-20.04c-130.97-0.29-161.65,38.84-163.48,44.09
				c-0.18,0.52-1.15,3.78-4.05,5.34c-5.35,2.88-13.75-1.92-13.51-2.67c0.54-1.69,45.88,10.93,62.15,16.03
				c28.05,8.8,66.03,25.47,108.08,60.12c16.85,0.34,60.83-0.98,105.38-29.39C958.48,678.09,977.66,644.91,985.24,629.76z"/>
			<path class="st15" d="M785.14,702.52c-5.62-0.74-10.8-1.1-15.6-1.12c13.97,8.35,28.77,18.59,44.11,31.23
				c16.85,0.34,60.83-0.98,105.38-29.39c39.44-25.15,58.62-58.33,66.2-73.48C985.24,629.76,910.64,719.17,785.14,702.52z"/>
			<path class="st53" d="M969.58,680.47c-27.41,35.75-71.09,56.53-111.34,56.17c-9.39-0.08-27.51-0.45-45.94-10.69
				c-9.38-5.21-9.54-7.82-27.16-23.43c-14.33-12.7-31.57-26.8-54.72-40.09c-41.34-23.73-53.17-9.8-89.18-30.06
				c-36.54-20.56-54.65-51.95-62.83-66.14c-15.75-27.3-35.61-61.77-22.29-90.19c13.55-28.93,54.41-36.51,95.26-44.09
				c29.28-5.44,54.15-5.33,71.02-4.29c-0.51-0.15-1.1-0.31-1.74-0.5c-0.49-0.14-0.97-0.28-1.46-0.41c-0.59-0.16-1.17-0.31-1.76-0.47
				c-0.48-0.13-0.96-0.25-1.44-0.37c-0.59-0.15-1.18-0.29-1.77-0.44c-0.47-0.11-0.95-0.23-1.42-0.33c-0.59-0.14-1.18-0.28-1.78-0.41
				c-0.46-0.1-0.92-0.2-1.38-0.29c-1.31-0.28-2.63-0.54-3.94-0.79c-0.24-0.05-0.49-0.1-0.73-0.14c-0.62-0.11-1.23-0.22-1.85-0.33
				c-0.44-0.08-0.88-0.15-1.32-0.23c-0.61-0.1-1.21-0.2-1.82-0.29c-0.45-0.07-0.89-0.14-1.33-0.2c-0.61-0.09-1.21-0.18-1.82-0.26
				c-0.43-0.06-0.87-0.12-1.3-0.17c-0.61-0.08-1.23-0.16-1.84-0.23c-0.39-0.05-0.79-0.09-1.18-0.14c-1.33-0.15-2.65-0.29-3.97-0.41
				c-0.25-0.02-0.49-0.05-0.74-0.07c-0.63-0.06-1.26-0.1-1.88-0.15c-0.4-0.03-0.81-0.07-1.21-0.1c-0.61-0.04-1.22-0.08-1.82-0.12
				c-0.42-0.03-0.83-0.05-1.24-0.08c-0.61-0.04-1.21-0.07-1.81-0.1c-0.4-0.02-0.8-0.04-1.2-0.05c-0.61-0.03-1.23-0.05-1.84-0.07
				c-0.33-0.01-0.65-0.02-0.97-0.03c-1.32-0.04-2.63-0.06-3.93-0.08c-0.25,0-0.51-0.01-0.76-0.01c-0.62,0-1.23,0-1.85,0
				c-0.38,0-0.75,0-1.13,0c-0.59,0-1.19,0.01-1.78,0.02c-0.39,0.01-0.77,0.01-1.16,0.02c-0.59,0.01-1.18,0.03-1.76,0.04
				c-0.37,0.01-0.74,0.02-1.11,0.04c-0.6,0.02-1.2,0.04-1.79,0.07c-0.27,0.01-0.53,0.03-0.8,0.04c-1.27,0.06-2.53,0.13-3.77,0.2
				c-0.27,0.02-0.54,0.03-0.81,0.05c-0.59,0.04-1.17,0.08-1.75,0.12c-0.36,0.03-0.72,0.05-1.07,0.08c-0.56,0.04-1.12,0.09-1.68,0.14
				c-0.36,0.03-0.73,0.06-1.09,0.1c-0.56,0.05-1.11,0.1-1.67,0.15c-0.35,0.03-0.69,0.07-1.03,0.1c-0.57,0.06-1.13,0.11-1.7,0.18
				c-0.19,0.02-0.37,0.04-0.56,0.06c-1.21,0.13-2.41,0.28-3.6,0.43c-0.29,0.04-0.58,0.07-0.87,0.11c-0.54,0.07-1.07,0.14-1.6,0.21
				c-0.34,0.05-0.69,0.09-1.03,0.14c-0.51,0.07-1.03,0.15-1.54,0.22c-0.35,0.05-0.69,0.1-1.03,0.15c-0.51,0.08-1.01,0.15-1.52,0.23
				c-0.33,0.05-0.65,0.1-0.97,0.16c-0.51,0.08-1.02,0.16-1.53,0.25c-0.13,0.02-0.26,0.04-0.39,0.07c-1.12,0.19-2.22,0.38-3.31,0.58
				c-0.31,0.06-0.62,0.11-0.93,0.17c-0.47,0.09-0.93,0.18-1.4,0.27c-0.33,0.06-0.66,0.13-0.99,0.19c-0.45,0.09-0.89,0.18-1.34,0.27
				c-0.33,0.07-0.67,0.14-1,0.2c-0.44,0.09-0.87,0.18-1.3,0.27c-0.32,0.07-0.64,0.14-0.96,0.21c-1.53,0.33-3.03,0.66-4.49,1
				c-0.32,0.07-0.63,0.15-0.95,0.22c-0.39,0.09-0.77,0.19-1.16,0.28c-0.32,0.08-0.64,0.15-0.95,0.23c-0.37,0.09-0.74,0.18-1.11,0.27
				c-0.32,0.08-0.64,0.16-0.95,0.24c-0.35,0.09-0.7,0.18-1.05,0.27c-0.33,0.09-0.66,0.17-0.98,0.26c-0.37,0.1-0.75,0.2-1.11,0.29
				c-0.54,0.14-1.08,0.29-1.6,0.43c-0.31,0.08-0.6,0.17-0.91,0.25c-0.32,0.09-0.64,0.18-0.95,0.26c-0.3,0.08-0.59,0.17-0.88,0.25
				c-0.3,0.09-0.61,0.17-0.91,0.26c-0.28,0.08-0.56,0.16-0.84,0.24c-0.3,0.09-0.6,0.18-0.89,0.26c-0.27,0.08-0.53,0.16-0.79,0.24
				c-0.32,0.1-0.64,0.19-0.96,0.29c-0.22,0.07-0.45,0.14-0.67,0.2c-0.49,0.15-0.97,0.3-1.43,0.45c-0.21,0.07-0.41,0.13-0.62,0.2
				c-0.29,0.09-0.58,0.18-0.86,0.28c-0.21,0.07-0.42,0.14-0.63,0.2c-0.27,0.09-0.53,0.17-0.79,0.26c-0.2,0.07-0.4,0.13-0.59,0.19
				c-0.27,0.09-0.54,0.18-0.8,0.27c-0.16,0.05-0.33,0.11-0.49,0.16c-0.33,0.11-0.65,0.22-0.96,0.32c-0.09,0.03-0.18,0.06-0.26,0.09
				c-0.38,0.13-0.75,0.26-1.11,0.38c-0.14,0.05-0.27,0.1-0.41,0.14c-0.23,0.08-0.46,0.16-0.68,0.24c-0.13,0.05-0.27,0.09-0.4,0.14
				c-0.21,0.07-0.42,0.15-0.62,0.22c-0.12,0.04-0.24,0.08-0.35,0.13c-0.21,0.08-0.42,0.15-0.62,0.22c-0.08,0.03-0.17,0.06-0.24,0.09
				c-0.28,0.1-0.54,0.2-0.79,0.29c-34.08,8.32-46.22,24.52-50.67,32.07c-20.14,34.17,6.82,78.54,45.1,141.55
				c8.75,13.62,26.76,38.44,50.16,48.86c2.4,1.07,8.37,3.54,15.7,6.07c16.75,5.77,27.13,7.03,36.48,9.35
				c9.95,2.47,24.09,7.46,40.53,18.7c10.02,8.91,24.52,21.04,43.09,34.02c23.09,16.15,34.63,24.24,48.78,28.78
				c35.67,11.43,69.31-2.54,89.04-10.74c16.63-6.91,59.33-24.74,81.07-70.15c9.89-20.66,11.9-39.94,12.16-52.11
				C989.86,651.16,977.28,670.43,969.58,680.47z"/>
			<path class="st17" d="M722.65,629.76c0,0,142.34-29.27,222.06,7.41C944.71,637.17,801.88,615.06,722.65,629.76z"/>
			<path class="st53" d="M715.98,425.9c-0.59-0.15-1.18-0.29-1.77-0.44c-0.47-0.11-0.95-0.23-1.42-0.33
				c-0.59-0.14-1.18-0.28-1.78-0.41c-0.46-0.1-0.92-0.2-1.38-0.29c-1.31-0.28-2.63-0.54-3.94-0.79c-0.24-0.05-0.49-0.1-0.73-0.14
				c-0.62-0.11-1.23-0.22-1.85-0.33c-0.44-0.08-0.88-0.15-1.32-0.23c-0.61-0.1-1.21-0.2-1.82-0.29c-0.45-0.07-0.89-0.14-1.33-0.2
				c-0.61-0.09-1.21-0.18-1.82-0.26c-0.43-0.06-0.87-0.12-1.3-0.17c-0.61-0.08-1.23-0.16-1.84-0.23c-0.39-0.05-0.79-0.09-1.18-0.14
				c-1.33-0.15-2.65-0.29-3.97-0.41c-0.25-0.02-0.49-0.05-0.74-0.07c-0.63-0.06-1.26-0.1-1.88-0.15c-0.4-0.03-0.81-0.07-1.21-0.1
				c-0.61-0.04-1.22-0.08-1.82-0.12c-0.42-0.03-0.83-0.05-1.24-0.08c-0.61-0.04-1.21-0.07-1.81-0.1c-0.4-0.02-0.8-0.04-1.2-0.05
				c-0.61-0.03-1.23-0.05-1.84-0.07c-0.33-0.01-0.65-0.02-0.97-0.03c-1.32-0.04-2.63-0.06-3.93-0.08c-0.25,0-0.51-0.01-0.76-0.01
				c-0.62,0-1.23,0-1.85,0c-0.38,0-0.75,0-1.13,0c-0.59,0-1.19,0.01-1.78,0.02c-0.39,0.01-0.77,0.01-1.16,0.02
				c-0.59,0.01-1.18,0.03-1.76,0.04c-0.37,0.01-0.74,0.02-1.11,0.04c-0.6,0.02-1.2,0.04-1.79,0.07c-0.27,0.01-0.53,0.03-0.8,0.04
				c-1.27,0.06-2.53,0.13-3.77,0.2c-0.27,0.02-0.54,0.03-0.81,0.05c-0.59,0.04-1.17,0.08-1.75,0.12c-0.36,0.03-0.72,0.05-1.07,0.08
				c-0.56,0.04-1.12,0.09-1.68,0.14c-0.36,0.03-0.73,0.06-1.09,0.1c-0.56,0.05-1.11,0.1-1.67,0.15c-0.35,0.03-0.69,0.07-1.03,0.1
				c-0.57,0.06-1.13,0.11-1.7,0.18c-0.19,0.02-0.37,0.04-0.56,0.06c-1.21,0.13-2.41,0.28-3.6,0.43c-0.29,0.04-0.58,0.07-0.87,0.11
				c-0.54,0.07-1.07,0.14-1.6,0.21c-0.34,0.05-0.69,0.09-1.03,0.14c-0.51,0.07-1.03,0.15-1.54,0.22c-0.35,0.05-0.69,0.1-1.03,0.15
				c-0.51,0.08-1.01,0.15-1.52,0.23c-0.33,0.05-0.65,0.1-0.97,0.16c-0.51,0.08-1.02,0.16-1.53,0.25c-0.13,0.02-0.26,0.04-0.39,0.07
				c-1.12,0.19-2.22,0.38-3.31,0.58c-0.31,0.06-0.62,0.11-0.93,0.17c-0.47,0.09-0.93,0.18-1.4,0.27c-0.33,0.06-0.66,0.13-0.99,0.19
				c-0.45,0.09-0.89,0.18-1.34,0.27c-0.33,0.07-0.67,0.14-1,0.2c-0.44,0.09-0.87,0.18-1.3,0.27c-0.32,0.07-0.64,0.14-0.96,0.21
				c-1.53,0.33-3.03,0.66-4.49,1c-0.32,0.07-0.63,0.15-0.95,0.22c-0.39,0.09-0.77,0.19-1.16,0.28c-0.32,0.08-0.64,0.15-0.95,0.23
				c-0.37,0.09-0.74,0.18-1.11,0.27c-0.32,0.08-0.64,0.16-0.95,0.24c-0.35,0.09-0.7,0.18-1.05,0.27c-0.33,0.09-0.66,0.17-0.98,0.26
				c-0.37,0.1-0.75,0.2-1.11,0.29c-0.54,0.14-1.08,0.29-1.6,0.43c-0.31,0.08-0.6,0.17-0.91,0.25c-0.32,0.09-0.64,0.18-0.95,0.26
				c-0.3,0.08-0.59,0.17-0.88,0.25c-0.3,0.09-0.61,0.17-0.91,0.26c-0.28,0.08-0.56,0.16-0.84,0.24c-0.3,0.09-0.6,0.18-0.89,0.26
				c-0.27,0.08-0.53,0.16-0.79,0.24c-0.32,0.1-0.64,0.19-0.96,0.29c-0.22,0.07-0.45,0.14-0.67,0.2c-0.49,0.15-0.97,0.3-1.43,0.45
				c-0.21,0.07-0.41,0.13-0.62,0.2c-0.29,0.09-0.58,0.18-0.86,0.28c-0.21,0.07-0.42,0.14-0.63,0.2c-0.27,0.09-0.53,0.17-0.79,0.26
				c-0.2,0.07-0.4,0.13-0.59,0.19c-0.27,0.09-0.54,0.18-0.8,0.27c-0.16,0.05-0.33,0.11-0.49,0.16c-0.33,0.11-0.65,0.22-0.96,0.32
				c-0.09,0.03-0.18,0.06-0.26,0.09c-0.38,0.13-0.75,0.26-1.11,0.38c-0.14,0.05-0.27,0.1-0.41,0.14c-0.23,0.08-0.46,0.16-0.68,0.24
				c-0.13,0.05-0.27,0.09-0.4,0.14c-0.21,0.07-0.42,0.15-0.62,0.22c-0.12,0.04-0.24,0.08-0.35,0.13c-0.21,0.08-0.42,0.15-0.62,0.22
				c-0.08,0.03-0.17,0.06-0.24,0.09c-0.28,0.1-0.54,0.2-0.79,0.29c-34.08,8.32-46.22,24.52-50.67,32.07
				c-20.14,34.17,6.82,78.54,45.1,141.55c8.75,13.62,26.76,38.44,50.16,48.86c2.4,1.07,8.37,3.54,15.7,6.07
				c16.75,5.77,27.13,7.03,36.48,9.35c9.95,2.47,24.09,7.46,40.53,18.7c10.02,8.91,24.52,21.04,43.09,34.02
				c23.09,16.15,34.63,24.24,48.78,28.78c35.67,11.43,69.31-2.54,89.04-10.74c3.75-1.56,8.84-3.68,14.71-6.54
				c-44.08,19.71-89.23,23.7-128.07-5.39c-128.35-96.16-77.01-53.48-156.44-89.56c-79.43-36.07-93.5-146.97-93.5-146.97
				c9.46-82.84,179.79-69.41,179.79-69.41c-0.59-0.16-1.17-0.31-1.76-0.47C716.94,426.15,716.46,426.02,715.98,425.9z"/>
			<polygon class="st10" points="682.6,955.76 651.58,971.1 703.39,971.1 731.77,868.88 715.56,869.55 			"/>
			<polygon class="st10" points="740.04,861.67 741.1,870.21 899.99,892.93 889.86,868.88 877.39,880.94 			"/>
			<path class="st10" d="M549.55,892.93c31.88-5.43,142.04-20.66,163.17-23.57l2.85-4.3L575.03,877.3v-8.42L549.55,892.93z"/>
		</g>
	</g>
</g>
<g>
	<g>
		<path class="st10" d="M748.65,952.03h8.7v-19.47h-8.7c-24.97,0-45.28-20.31-45.28-45.28V650.57c0-37.09,30.17-67.26,67.26-67.26
			h62.79c11.29,0,21.9,4.4,29.88,12.38l32.09,32.09l13.76-13.76l-32.09-32.09c-11.66-11.66-27.16-18.08-43.65-18.08h-62.79
			c-47.82,0-86.73,38.91-86.73,86.73v236.71C683.9,922.98,712.95,952.03,748.65,952.03z"/>
		<path class="st28" d="M800.58,782.78c0-12.32,10.02-22.34,22.34-22.34h50.6c12.32,0,22.34,10.02,22.34,22.34v35.46h-95.28V782.78z
			 M886.12,782.78c0-6.95-5.65-12.61-12.6-12.61h-50.6c-6.95,0-12.6,5.66-12.6,12.61v25.72h75.81V782.78z"/>
		<rect x="744.71" y="928.96" class="st41" width="7.3" height="26.67"/>
		<path class="st8" d="M936.18,955.63h19.47V681.06c0-13.26-5.16-25.72-14.54-35.1l-40.74-40.74l-13.76,13.76l40.74,40.74
			c5.62,5.61,8.84,13.39,8.84,21.33V955.63z"/>
		<g>
			<path class="st54" d="M931.59,939.41h22.49c3.41,0,6.17,2.76,6.17,6.17v26.27h-28.66V939.41z"/>
			<rect x="911.75" y="1014.85" class="st10" width="92.13" height="9.12"/>
			<path class="st41" d="M897.66,971.85l15.21,43h97.83l-9.06-25.61c-3.69-10.42-13.54-17.39-24.6-17.39H897.66z"/>
		</g>
		<path class="st28" d="M764.59,876.59v117.05h167.28V876.59c0-45.75-37.09-82.84-82.84-82.84h-1.65
			c-28.03,0-52.81,13.92-67.75,35.24c-6.52,9.2-11.15,19.81-13.38,31.29C765.13,865.54,764.59,870.99,764.59,876.59z"/>
		<path class="st28" d="M833.41,862.71v-68.38c0-2.41,1.76-4.49,4.15-4.79c3.23-0.4,6.5-0.63,9.84-0.63h1.63
			c3.33,0,6.61,0.24,9.84,0.63c2.39,0.29,4.15,2.38,4.15,4.79v68.38c0,6.01,4.88,10.89,10.89,10.89h57.83
			c1.94,1.94,3.03,3.03,4.98,4.98v119.95h-177V878.58c1.94-1.94,3.03-3.03,4.98-4.98h57.83
			C828.54,873.6,833.41,868.72,833.41,862.71z"/>
		<ellipse class="st41" cx="849.76" cy="1028" rx="61.99" ry="13.16"/>
		<circle class="st55" cx="922.57" cy="1048.12" r="15.26"/>
		<path class="st10" d="M917.47,1051.78l0.77,0.83c1.79,1.93,4.72,2.27,6.91,0.79l16.92-11.43v-16.79h-16.79v11.01l-7.79,8.31
			C915.56,1046.53,915.56,1049.72,917.47,1051.78z"/>
		<path class="st55" d="M919.63,1048.12c0,1.63,1.32,2.94,2.94,2.94c1.63,0,2.94-1.32,2.94-2.94c0-1.63-1.32-2.94-2.94-2.94
			C920.95,1045.18,919.63,1046.5,919.63,1048.12z"/>
		<circle class="st55" cx="764.29" cy="1048.12" r="15.26"/>
		<path class="st10" d="M759.18,1051.78l0.77,0.83c1.79,1.93,4.72,2.27,6.91,0.79l16.92-11.43v-16.79h-16.79v11.01l-7.79,8.31
			C757.28,1046.53,757.27,1049.72,759.18,1051.78z"/>
		<path class="st55" d="M761.35,1048.12c0,1.63,1.32,2.94,2.94,2.94c1.63,0,2.94-1.32,2.94-2.94c0-1.63-1.32-2.94-2.94-2.94
			C762.67,1045.18,761.35,1046.5,761.35,1048.12z"/>
		<g>
			<path class="st33" d="M820.47,922.27v32.34c0,1.51,1.23,2.74,2.74,2.74h50.01c1.51,0,2.74-1.23,2.74-2.74v-32.34
				c0-1.51-1.23-2.74-2.74-2.74h-50.01C821.7,919.53,820.47,920.76,820.47,922.27z"/>
			<path class="st10" d="M868.99,924.01c-1.37,0-2.49,1.11-2.49,2.49v24.88c0,1.37,1.11,2.49,2.49,2.49l0,0
				c1.37,0,2.49-1.11,2.49-2.49V926.5C871.48,925.13,870.36,924.01,868.99,924.01L868.99,924.01z"/>
			<path class="st10" d="M860.78,924.01c-1.37,0-2.49,1.11-2.49,2.49v24.88c0,1.37,1.11,2.49,2.49,2.49l0,0
				c1.37,0,2.49-1.11,2.49-2.49V926.5C863.27,925.13,862.15,924.01,860.78,924.01L860.78,924.01z"/>
			<path class="st10" d="M852.57,924.01c-1.37,0-2.49,1.11-2.49,2.49v24.88c0,1.37,1.11,2.49,2.49,2.49l0,0
				c1.37,0,2.49-1.11,2.49-2.49V926.5C855.06,925.13,853.94,924.01,852.57,924.01L852.57,924.01z"/>
			<path class="st10" d="M844.36,924.01c-1.37,0-2.49,1.11-2.49,2.49v24.88c0,1.37,1.11,2.49,2.49,2.49l0,0
				c1.37,0,2.49-1.11,2.49-2.49V926.5C846.85,925.13,845.73,924.01,844.36,924.01L844.36,924.01z"/>
			<path class="st10" d="M836.15,924.01c-1.37,0-2.49,1.11-2.49,2.49v24.88c0,1.37,1.11,2.49,2.49,2.49l0,0
				c1.37,0,2.49-1.11,2.49-2.49V926.5C838.64,925.13,837.52,924.01,836.15,924.01L836.15,924.01z"/>
			<path class="st10" d="M827.94,924.01c-1.37,0-2.49,1.11-2.49,2.49v24.88c0,1.37,1.11,2.49,2.49,2.49l0,0
				c1.37,0,2.49-1.11,2.49-2.49V926.5C830.42,925.13,829.31,924.01,827.94,924.01L827.94,924.01z"/>
		</g>
		<path class="st49" d="M766.25,860.29h42.59c3.31,0,5.99-2.68,5.99-5.99v-19.27c0-3.36-2.68-6.04-5.99-6.04h-29.2
			C773.11,838.19,768.49,848.8,766.25,860.29z"/>
		<rect x="796.99" y="836.09" class="st13" width="10.96" height="9.68"/>
		<rect x="782.12" y="836.09" class="st31" width="10.96" height="9.68"/>
		<rect x="752.01" y="1015.37" class="st10" width="195.49" height="12.63"/>
		<path class="st29" d="M762.13,971.95H934.3c6.42,0,11.62,5.2,11.62,11.62v31.8h-195.4v-31.8
			C750.51,977.15,755.71,971.95,762.13,971.95z"/>
		<rect x="759.71" y="878.58" class="st10" width="177" height="21.18"/>
		<rect x="759.71" y="903" class="st10" width="177" height="7.3"/>
		<path class="st56" d="M757.76,983.51c0,2.58,2.09,4.66,4.66,4.66h170.75c2.58,0,4.66-2.09,4.66-4.66l0,0
			c0-2.58-2.09-4.66-4.66-4.66H762.42C759.84,978.85,757.76,980.94,757.76,983.51L757.76,983.51z"/>
		<path class="st56" d="M757.76,998.52c0,2.58,2.09,4.66,4.66,4.66h170.75c2.58,0,4.66-2.09,4.66-4.66l0,0
			c0-2.58-2.09-4.66-4.66-4.66H762.42C759.84,993.86,757.76,995.95,757.76,998.52L757.76,998.52z"/>
		<circle class="st49" cx="887.24" cy="844.64" r="15.04"/>
		<path class="st10" d="M888.15,837.64c0,1.75,1.42,3.18,3.18,3.18c1.75,0,3.18-1.42,3.18-3.18c0-1.75-1.42-3.18-3.18-3.18
			C889.57,834.47,888.15,835.89,888.15,837.64z"/>
		<path class="st10" d="M750.51,961.81h9.2c5.45-12.08,6.46-24.59,0-37.8h-9.2V961.81z"/>
	</g>
	<path class="st26" d="M662.81,454.63l-3.36,51L659.2,510l-10.33,0.76l-8.66,4.71l-11.26,6.05l-8.32,4.54l-1.85-21.76l-4.03-48.15
		c4.29,1.34,8.74,2.19,13.19,2.52c4.12,0.42,8.15,0.42,12.27,0.08c4.2-0.25,8.4-0.84,12.6-1.68
		C656.26,456.39,659.54,455.55,662.81,454.63z"/>
	<path class="st49" d="M639,360.97l-0.47-0.01c-12.83-0.38-23.54,9.71-23.92,22.54l0.74,83.58c15.57,5.74,32.56,4.84,47.97,1.21
		l2.24-62.64C667.65,380.69,651.82,361.36,639,360.97z"/>
	<path class="st26" d="M758.62,555.37c2.79,1.19,5.48,4.78,7.09,7.35c4.6,7.34,6.3,12.6,8.51,19.8c2.65,8.65-18.74,12.8-20.2,11.76
		c-1.46-1.04-2.41-2.93-1.94-4.67c1.08-4,8.14-4.23,8.57-8.36c0.15-1.41-0.63-2.75-1.44-3.91c-2.15-3.06-5.58-6.04-9.21-5.1
		c-2.48,0.64-4.13,2.91-6.04,4.62c-4.91,4.41-16.11,5.91-21.84,2.66c-5.74-3.25-5.58-11.02-4.32-17.49
		c0.57-2.92,2.12-5.81,4.74-7.21C724.39,553.84,755.12,553.88,758.62,555.37z"/>
	<path class="st26" d="M728.1,555.46l-7.82,20.17l-0.67,1.76l-96.88-35.96c-1.51-6.47,1.43-13.7,6.22-19.91
		c3.19-4.12,7.14-7.73,11.26-10.59c7.14-4.96,14.71-7.48,19.24-5.29c0.34,0.17,0.67,0.34,0.92,0.51L728.1,555.46z"/>
	<path class="st57" d="M720.29,575.63l-0.67,1.76l-96.88-35.96c-1.51-6.47-2.1-15.38-2.1-15.38l19.58-128.65v131.5L720.29,575.63z"
		/>
	<g>
		<path d="M725.27,1070.24c1.93,7.65-28.57,7.06-31.85,7.06l-58.68-1.34c-17.17-3.66-5.71-32.69-5.04-34.12
			c1.51-3.28,3.7-5.97,6.89-6.97l0.08-0.08c2.77-0.92,10.5-1.43,26.64,5.38c0,0,0,0,0.08,0c0.17,0.08,0.42,0.17,0.84,0.34
			c16.55,6.89,28.51,10.59,43.55,16.64C716.11,1060.49,722.58,1064.52,725.27,1070.24z"/>
		<path class="st26" d="M699.62,1053.91c-12.77,9.24-30.59,6.47-49.07-4.71c-9.41-5.63-20.59-7.06-20.75-6.89
			c0-0.17,0-0.34-0.08-0.5c-2.27-27.73-5.04-51.51-7.9-72.1c-4.79-33.95-9.83-59.41-12.69-80.58c-0.67-4.62-1.18-9.08-1.6-13.28
			c-0.34-3.02-0.5-5.88-0.67-8.74c-1.01-20.42,1.6-37.31,11.01-56.13c-13.44-34.54-24.87-97.05-32.94-139.07
			c-0.08,1.34-0.08,2.69-0.17,4.03c-0.34,7.9-0.59,15.63-0.92,23.28c-1.18,30.92-2.27,58.74-4.87,92.18
			c-0.59,7.82-1.26,15.97-2.1,24.54c-2.77,11.18-6.47,29.16-10.42,50.25c-0.59,3.19-1.26,6.39-1.85,9.66
			c-0.92,4.62-1.85,9.41-2.69,14.28c-0.34,1.76-0.67,3.45-1.01,5.21c-8.91,48.9-18.32,104.36-22.69,130.24h-0.08l-16.3,8.82
			l-13.78,7.39c0-2.19,0-4.29-0.08-6.39v-1.01c-0.17-25.12-1.26-47.22-2.52-66.89c-2.19-33.36-5.04-59.83-5.21-82.43
			c0-3.19,0-6.22,0.08-9.24c0.59-24.87,5.21-45.29,18.82-66.13c0.08-0.17,0.17-0.25,0.25-0.42c-0.08-0.34-0.08-0.59-0.17-0.92
			c-6.72-33.78-8.4-68.4-12.77-140.24c-1.34-14.2,15.21-117.89,15.29-118.73l2.27-0.08l22.94-1.18l44.53-2.35l13.86-0.67l27.23-1.43
			h0.25c0.25,0.76,0.51,1.51,0.76,2.27c0.17,0.5,0.42,1.01,0.59,1.51c24.62,69.57,36.38,138.14,38.15,197.46
			c0.67,21.43,3.53,39.49,1.34,60.25l-3.53,55.96l-0.92,14.7l-0.5,8.15l-0.25,4.12l-8.66,137.72c-0.5,5.04,2.44,9.83,7.14,11.76
			C677.69,1041.9,689.12,1049.71,699.62,1053.91z"/>
		<g>
			<path d="M603.58,1070.24c1.93,7.65-28.57,7.06-31.85,7.06l-58.68-1.34c-17.17-3.66-5.71-32.69-5.04-34.12
				c1.51-3.28,3.7-5.97,6.89-6.97l0.08-0.08c2.77-0.92,10.5-1.43,26.64,5.38c0,0,0,0,0.08,0c0.17,0.08,0.42,0.17,0.84,0.34
				c16.55,6.89,28.51,10.59,43.55,16.64C594.42,1060.49,600.89,1064.52,603.58,1070.24z"/>
			<path class="st26" d="M538.09,1025.85l2.5-26.28h-28.84c1.51,12.99-4.98,26.99-3.75,42.27c0.08,0.17,0.08,0.34,0.08,0.51
				c0.17-0.17,11.34,1.21,20.75,6.89c18.48,11.14,36.29,13.9,49.03,4.7c-10.42-4.19-21.91-12.05-32.65-16.34
				C540.49,1035.7,537.61,1030.93,538.09,1025.85z"/>
		</g>
	</g>
	<path class="st57" d="M500.3,875.86h64.28c-1.26,6.3-2.44,12.86-3.7,19.49c-27.98,3.7-44.96,18.49-55.46,72.18
		C502.91,929.55,499.55,900.56,500.3,875.86z"/>
	<path class="st57" d="M669.2,875.86l-0.76,12.27c-22.02,3.11-41.51,29.16-46.64,81.59c-5.88-41.34-12.02-70.25-14.28-93.86H669.2z"
		/>
	<path class="st58" d="M462.26,644.49c-1.21-3.19,0.39-6.77,3.58-7.98l0.02-0.01c1.32-0.5,2.77-0.45,4.06,0.13
		c1.28,0.58,2.28,1.65,2.77,2.97c1.19,9.64,2.9,17.05,7.93,24.81c2.5,3.67,4.84,9.65-3.25,7.85c0,0-4.8-1.78-7.43-8.91
		L462.26,644.49z"/>
	<path class="st59" d="M505.5,353.45c8.61-11.85,10.45-29.55,10.24-45.92c-0.21-16.37-2.88-31.98-2.63-48.15
		c0.35-23.18,12.89-46.09,22.43-56.24c9.54-10.15,22.21-0.94,34.03-5.28c10.86-3.98,22.73-5.99,33.24-0.6
		c10.92,5.6,15.23,0.83,22.31,13.09c21.82,37.79,14.64,81.43,8.42,112.45c-6.22,31.03-20.05,56.96-44.08,62.94
		c-17.48,4.35-36.09-2.21-53.03,4.91c1.94-4.1,3.87-8.2,5.81-12.3c-10.49,5.02-21.74,7.28-32.89,6.6
		c5.98-8.37,12.99-15.48,20.67-20.96c-10.1,1.31-20.07,4.21-29.65,8.61c9.22-8.08,16.84-19.29,21.9-32.25
		C517.37,346.05,511.65,350.52,505.5,353.45z"/>
	<path class="st49" d="M699.62,878.97c-8.15,1.76-18.74,3.53-30.92,5.04c-17.56,2.27-38.23,4.03-59.58,5.13
		c-15.8,0.84-31.93,1.26-47.22,1.01c-23.78-0.17-45.63-1.68-61.68-5.04c-7.06-1.51-13.02-3.36-17.48-5.63
		c-0.92-96.88,6.47-172.51,15.13-226.71c2.94-19.07,6.13-35.63,9.24-49.83c0-0.17,0-0.25,0.08-0.42
		c4.54-20.75,8.65-35.8,11.51-45.37c0-0.17,0-0.25,0.08-0.42c3.11-10.34,5.04-15.63,5.04-15.96c-9.5-28.57-19.91-55.12-23.44-80.84
		c-0.08-0.92-0.25-1.76-0.34-2.69c-1.26-9.07-2.44-18.15-3.7-27.31c-2.86-19.49-10.25-27.56-16.81-48.65
		c8.91-12.77,66.13-32.18,69.41-33.44c0.08,0,28.06-3.78,56.72,0.67c15.13,5.46,31.18,8.99,38.07,13.36
		c5.29,44.45-2.61,117.89-13.44,176.12c0.67,1.76,1.43,3.61,2.27,5.71c0.34,0.76,0.67,1.51,1.01,2.27c0.17,0.5,0.42,1.01,0.59,1.51
		c12.1,28.48,38.4,89.91,62.77,307.46C697.85,862.75,698.78,870.73,699.62,878.97z"/>
	<path class="st49" d="M502.44,366.39c-15.4,6.49-18.57,8.66-22.91,14.85c6.55,21.09,8.62,30.26,11.47,49.76
		c1.43,10.08,1.81,17.83,3.15,27.83c1.08,7.88,6.52,5.84,8.67,13.92C538.19,441.93,529.75,380.29,502.44,366.39z"/>
	<g>
		<path class="st49" d="M588.12,455.68c0,20.72-15.61,37.51-34.85,37.51c-19.25,0-32.41-9.65-33.61-33.85
			c-1.25-25.05,24.72-41.17,29.71-63.27C553.84,376.29,588.12,434.96,588.12,455.68z"/>
		<path class="st60" d="M558.11,484.82c-20.32,0-34.2-10.1-35.47-35.41c-0.13-2.58,0.09-5.05,0.47-7.47
			c-2.35,5.4-3.76,11.12-3.44,17.41c1.2,24.19,14.36,33.85,33.61,33.85c13.26,0,24.78-7.96,30.67-19.69
			C577.3,480.49,568.18,484.82,558.11,484.82z"/>
	</g>
	<g>
		<path class="st49" d="M586.38,450.68c0,20.72,15.61,37.51,34.85,37.51c19.25,0,32.41-9.65,33.61-33.85
			c1.25-25.05-24.72-41.17-29.71-63.27C620.67,371.29,586.38,429.96,586.38,450.68z"/>
		<path class="st60" d="M616.4,479.82c20.32,0,34.2-10.1,35.47-35.41c0.13-2.58-0.09-5.05-0.47-7.47c2.35,5.4,3.76,11.12,3.44,17.41
			c-1.2,24.19-14.36,33.85-33.61,33.85c-13.26,0-24.78-7.96-30.67-19.69C597.21,475.49,606.33,479.82,616.4,479.82z"/>
	</g>
	<path class="st13" d="M699.58,854.17c-43.09,12.74-90.57,15.38-144.36,11.24c-22.12-1.7-38.71-21.12-37.03-43.24
		c5.75-75.45,8.56-176.67,5.66-281.41c48.49,6.88,86.49,7.46,106.42-2.8C672.32,624.25,687.26,733.74,699.58,854.17z"/>
	<path class="st49" d="M605.69,348.51c-28.69-4.5-56.67-0.73-56.72-0.67c-1.26,0.46-19.52,7.24-30.9,11.67
		c18.72,12.33,25.37,32.55,30.9,61.48c12.43,1.31,61.01-0.15,73.76-0.5c5.89-20.95,6.91-43.98,3.34-65.65
		C618.03,352.09,613.95,351.49,605.69,348.51z"/>
	<path class="st26" d="M605.58,346.96c15.06,47.44-48.41,48.48-56.62,0.88l1.03-40.95h55.39L605.58,346.96z"/>
	<path class="st26" d="M578.69,200.57c0.46,0,0.92,0.01,1.38,0.02c26.32,0.72,47.03,21.36,46.27,46.11
		c-0.13,4.28-0.54,9.17-1.29,14.29c1.04-0.61,2.11-0.88,3.17-0.65c4.16,0.86,6.32,8.35,4.86,16.75c-1.21,6.77-4.4,12.01-7.79,13.31
		c-0.78,0.33-1.58,0.42-2.38,0.24c-0.28-0.05-0.52-0.17-0.76-0.3c-3.24,13.09-7.24,23.32-11.43,28.1
		c-5.38,6.14-9.15,10.82-12.71,14.33c-5.37,5.33-10.2,7.96-19.33,8.81c-9.13-0.86-13.96-3.49-19.33-8.81
		c-3.56-3.51-7.32-8.19-12.71-14.33c-4.19-4.78-8.19-15.01-11.43-28.1c-0.24,0.12-0.48,0.25-0.76,0.3c-0.8,0.18-1.6,0.08-2.38-0.24
		c-3.39-1.3-6.58-6.54-7.79-13.31c-1.46-8.4,0.69-15.89,4.86-16.75c1.06-0.22,2.14,0.04,3.17,0.65c-0.75-5.11-1.16-10-1.29-14.29
		c-0.76-24.75,19.96-45.39,46.27-46.11C577.78,200.57,578.24,200.57,578.69,200.57z"/>
	<path class="st59" d="M564.18,250.49c-6.03,9.24-13.14,14.56-22.61,13.95c5.25-2.06,7.7-9.56,9.81-14.98
		c-3.79,3.06-6.02,8.39-10.75,9.18c3.92-4.55,0.45-7.88,5.09-16.89c-5.83,11.79-14.4,25.34-23.49,25.34
		c-2.13-15.66-6.31-42.81,15.84-66.86c8.13-8.82,52.78-31.79,85.06,6.48c6.72,7.96,10.53,30.73,11.8,44.24
		c-16.8-42.15-37.35,30.73-85.21,15.37C556.22,264.69,561.84,257.02,564.18,250.49z"/>
	<path class="st26" d="M470.4,634.05l-24.25-0.46l-7.51-132.86c3.24-9.8,8.91-15.51,21.73-14.77l0.47,0.03
		c12.81,0.74,22.6,11.72,21.87,24.53L470.4,634.05z"/>
	<g>
		<path class="st58" d="M462.08,665.2c0.53-3.32,3.58-5.45,6.8-4.77l0.06,0.01c2.75,0.58,4.61,3.35,4.16,6.18l-4.6,21.61
			c-0.5,3.13-1.92,5.3-5.4,4.68c0,0-3.85-1.44-3.03-6.21L462.08,665.2z"/>
		<path class="st58" d="M451.13,665.53c0.14-3.36,2.91-5.84,6.2-5.54l0.06,0.01c2.8,0.26,4.98,2.79,4.86,5.65l-2.03,22.01
			c-0.13,3.17-1.6,5.83-4.81,5.29c0,0-3.99-0.98-3.74-5.81L451.13,665.53z"/>
		<path class="st58" d="M441.54,663.57c-0.14-3.2,2.29-5.78,5.43-5.76h0.06c2.68,0.01,4.95,2.24,5.07,4.97l-0.13,21.05
			c0.13,3.02-0.81,5.84-4.14,5.41c0,0-3.87-0.6-4.02-5.21L441.54,663.57z"/>
		<path class="st58" d="M432.33,661.55c-0.34-2.98,1.76-5.55,4.69-5.74l0.05,0c2.51-0.16,4.78,1.77,5.07,4.31l1.27,19.68
			c0.33,2.81-0.41,5.8-3.51,5.33c0,0-3.66-0.31-4.1-4.6L432.33,661.55z"/>
		<path class="st26" d="M466.55,674.18l-0.1-0.03c-2.87-0.49-4.83-3.27-4.36-6.25c-0.47,2.98-3.13,4.95-5.99,4.46l-0.1-0.03
			c-2.82-0.5-4.78-3.28-4.31-6.26l0.22-1.58c-0.44,2.92-3.13,4.95-5.96,4.41l-0.09,0.02c-2.87-0.49-4.83-3.32-4.36-6.25l0.28-1.74
			c-0.4,2.63-2.81,4.41-5.31,3.94l-0.1-0.03c-2.54-0.41-4.45-2.68-4.04-5.26l0.33-1.99c0,0,2.61-21.78,12.31-31.12
			c0.28,0.04,0.56-0.16,0.61-0.41c0.12-0.12,0.14-0.22,0.17-0.32l3.36-17.17c0.09-0.5,0.54-0.83,1.01-0.73l0.43,0.11l10.75,2.33
			c3.82,5.8,6,9.12,9.82,14.92l-0.96,4.93l-0.07,0.4c-0.07,0.35,8.34,15.61,2.94,35.79l-0.53,3.42
			C472.08,672.7,469.38,674.68,466.55,674.18z"/>
	</g>
	<path class="st61" d="M551.81,544.11c-1.68,1.26-3.28,2.6-4.87,4.03c-8.49,7.65-15.8,18.07-22.27,30.42
		c-3.95,7.65-7.65,16.13-11.09,25.21c0,0.08,0,0.17-0.08,0.25c-2.94,8.07-5.8,16.55-8.4,25.54c-2.44,8.4-4.79,17.23-6.97,26.22
		l-0.25-3.02c2.94-19.07,6.13-35.63,9.24-49.83c0-0.17,0-0.25,0.08-0.42c4.54-20.75,8.65-35.8,11.51-45.37c0-0.17,0-0.25,0.08-0.42
		c3.11-10.34,5.04-15.63,5.04-15.96c-9.5-28.57-19.91-55.12-23.44-80.84c-0.08-0.92-0.25-1.76-0.34-2.69l12.27-55.21
		C518.2,460.17,523.5,507.65,551.81,544.11z"/>
	<path class="st26" d="M498.16,473.88l-22.47,57.75l-3.71-3.08l-33.34-27.82l14.25-43.12c10.16,8.13,22.59,12.65,35.07,14.88
		C491.37,473.13,494.79,473.55,498.16,473.88z"/>
	<path class="st49" d="M506.25,453.06l-5.82,14.96l-2.28,5.86c-3.37-0.34-6.79-0.76-10.2-1.39c-12.48-2.23-24.91-6.75-35.07-14.88
		l23.06-70.01c8.67-19.8,22.97-16.31,29.84-13.78C514.7,396.93,515.41,423.14,506.25,453.06z"/>
	<path class="st56" d="M524.67,669.11c-0.82,56.79-3.15,109.28-6.48,153.06c-1.68,22.12,14.91,41.53,37.03,43.23
		c50.45,3.89,95.29,1.7,136.21-9.09C610.37,801.58,549.83,754.31,524.67,669.11z"/>
</g>
<ellipse class="st0" cx="731.77" cy="1076.81" rx="315.06" ry="22.5"/>
<g>
	<polygon class="st62" points="565.33,825.07 565.33,829.75 567.14,829.75 567.14,826.07 567.14,825.07 	"/>
	<polygon class="st63" points="567.14,826.07 568.94,826.59 568.94,825.07 567.14,825.07 	"/>
	<polygon class="st62" points="563.53,843.83 563.53,836.73 574.09,836.73 574.09,818.1 567.91,818.1 567.91,819.9 560.03,819.9 
		560.03,819.9 560.03,821.42 560.03,840.35 558.36,840.35 558.36,843.83 	"/>
	<polygon class="st62" points="558.24,819.9 556.44,819.9 556.96,818.1 566.11,818.1 566.11,812.92 545.19,812.92 545.19,818.1 
		553.06,818.1 553.06,838.55 558.24,838.55 558.24,820.9 	"/>
	<polygon class="st63" points="558.24,819.9 558.24,820.9 560.03,821.42 560.03,819.9 	"/>
	<polygon class="st63" points="569.43,816.3 567.91,816.3 567.91,818.09 568.91,818.1 	"/>
	<polygon class="st63" points="558.36,841.88 558.36,840.35 556.56,840.35 556.56,841.34 556.56,841.36 	"/>
	<line class="st62" x1="567.14" y1="826.07" x2="568.94" y2="826.59"/>
	<polygon class="st33" points="563.53,823.27 563.53,831.55 568.94,831.55 568.94,826.59 567.14,826.07 567.14,829.75 
		565.33,829.75 565.33,825.07 570.74,825.07 571.26,823.27 	"/>
	<polygon class="st62" points="560.03,819.9 560.03,819.9 558.24,819.9 558.24,819.9 556.44,819.9 556.96,818.1 566.11,818.1 
		566.11,812.92 545.19,812.92 545.19,818.1 553.06,818.1 553.06,838.55 558.24,838.55 558.24,820.9 560.03,821.42 560.03,840.35 	
		"/>
	<polygon class="st33" points="560.03,821.42 558.24,820.9 558.24,838.55 553.06,838.55 553.06,818.1 545.19,818.1 545.19,812.92 
		566.11,812.92 566.11,818.1 556.96,818.1 556.44,819.9 558.24,819.9 558.24,819.9 560.03,819.9 560.03,819.9 567.91,819.9 
		567.91,811.12 543.4,811.12 543.4,819.9 551.26,819.9 551.26,840.35 556.56,840.35 556.56,840.35 558.36,840.35 560.03,840.35 	"/>
	<polygon class="st33" points="575.89,838.53 575.89,816.3 569.43,816.3 568.91,818.1 574.09,818.1 574.09,836.73 563.53,836.73 
		563.53,843.83 558.36,843.83 558.36,841.88 556.56,841.36 556.56,845.62 565.33,845.62 565.33,838.53 	"/>
</g>
</svg>
