<?xml version="1.0" encoding="utf-8"?>
<!-- Generator: Adobe Illustrator 24.1.2, SVG Export Plug-In . SVG Version: 6.00 Build 0)  -->
<svg version="1.1" id="Layer_2_1_" xmlns="http://www.w3.org/2000/svg" xmlns:xlink="http://www.w3.org/1999/xlink" x="0px" y="0px"
	 viewBox="0 0 210 210" style="enable-background:new 0 0 210 210;" xml:space="preserve">
<style type="text/css">
	.st0{fill:none;}
	.st1{fill:#39803D;}
	.st2{fill:#FFFFFF;}
	.st3{fill-rule:evenodd;clip-rule:evenodd;fill:#D6FAFF;}
	.st4{fill-rule:evenodd;clip-rule:evenodd;fill:#FFFFFF;}
	.st5{fill:#D6A428;}
	.st6{fill-rule:evenodd;clip-rule:evenodd;fill:#3C3C3B;}
	.st7{fill:#3C3C3B;}
	.st8{fill-rule:evenodd;clip-rule:evenodd;fill:#33A855;}
	.st9{opacity:0.1;fill-rule:evenodd;clip-rule:evenodd;fill:#050504;enable-background:new    ;}
	.st10{fill-rule:evenodd;clip-rule:evenodd;fill:#D6A428;}
	.st11{fill:#33A855;}
	.st12{opacity:0.1;fill:#050504;enable-background:new    ;}
	.st13{fill:#9D9D9C;}
	.st14{fill:#706F6F;}
</style>
<g>
	<polygon class="st0" points="565.3,825.1 565.3,829.8 567.1,829.8 567.1,826.1 567.1,825.1 	"/>
	<polygon class="st1" points="567.1,826.1 568.9,826.6 568.9,825.1 567.1,825.1 	"/>
	<polygon class="st0" points="563.5,843.8 563.5,836.7 574.1,836.7 574.1,818.1 567.9,818.1 567.9,819.9 560,819.9 560,819.9 
		560,821.4 560,840.3 558.4,840.3 558.4,843.8 	"/>
	<polygon class="st0" points="558.2,819.9 556.4,819.9 557,818.1 566.1,818.1 566.1,812.9 545.2,812.9 545.2,818.1 553.1,818.1 
		553.1,838.5 558.2,838.5 558.2,820.9 	"/>
	<polygon class="st1" points="558.2,819.9 558.2,820.9 560,821.4 560,819.9 	"/>
	<polygon class="st1" points="569.4,816.3 567.9,816.3 567.9,818.1 568.9,818.1 	"/>
	<polygon class="st1" points="558.4,841.9 558.4,840.3 556.6,840.3 556.6,841.3 556.6,841.4 	"/>
	<line class="st0" x1="567.1" y1="826.1" x2="568.9" y2="826.6"/>
	<polygon class="st2" points="563.5,823.3 563.5,831.5 568.9,831.5 568.9,826.6 567.1,826.1 567.1,829.8 565.3,829.8 565.3,825.1 
		570.7,825.1 571.3,823.3 	"/>
	<polygon class="st0" points="560,819.9 560,819.9 558.2,819.9 558.2,819.9 556.4,819.9 557,818.1 566.1,818.1 566.1,812.9 
		545.2,812.9 545.2,818.1 553.1,818.1 553.1,838.5 558.2,838.5 558.2,820.9 560,821.4 560,840.3 	"/>
	<polygon class="st2" points="560,821.4 558.2,820.9 558.2,838.5 553.1,838.5 553.1,818.1 545.2,818.1 545.2,812.9 566.1,812.9 
		566.1,818.1 557,818.1 556.4,819.9 558.2,819.9 558.2,819.9 560,819.9 560,819.9 567.9,819.9 567.9,811.1 543.4,811.1 543.4,819.9 
		551.3,819.9 551.3,840.3 556.6,840.3 556.6,840.3 558.4,840.3 560,840.3 	"/>
	<polygon class="st2" points="575.9,838.5 575.9,816.3 569.4,816.3 568.9,818.1 574.1,818.1 574.1,836.7 563.5,836.7 563.5,843.8 
		558.4,843.8 558.4,841.9 556.6,841.4 556.6,845.6 565.3,845.6 565.3,838.5 	"/>
</g>
<polygon class="st3" points="58.8,173.6 15.1,173.6 14.3,153.1 30.9,123.3 61.6,123.7 "/>
<polygon class="st4" points="61.6,123.7 31.1,123.3 59.1,164 59.4,163.8 "/>
<rect x="64.7" y="177.4" class="st5" width="121.5" height="5.9"/>
<path class="st6" d="M51.8,192c-0.5,0-0.9-0.4-0.9-0.9v-8.4c0-0.5,0.4-0.9,0.9-0.9l0,0H190c0.5,0,0.9,0.4,0.9,0.9v8.4
	c0,0.5-0.4,0.9-0.9,0.9H51.8z"/>
<polygon class="st6" points="64.5,136.1 68.8,135.6 68.8,176.9 64.5,177.4 "/>
<path class="st7" d="M51.8,167.9h138.3c0.4,0,0.8,0.4,0.8,0.8v7.7c0,0.4-0.4,0.8-0.8,0.8H51.8c-0.4,0-0.8-0.4-0.8-0.8v-7.7
	C51,168.3,51.3,167.9,51.8,167.9z"/>
<path class="st8" d="M64.4,122.3c-0.2-1.8-1.4-2.7-3.4-2.7H32.9c-3.3,0.1-3.5,0.9-4.4,2.4l-17.8,32.9v36.7l0,0c0,0.6,0.4,1,1,1h53
	L64.4,122.3L64.4,122.3z M25.8,169.1l-9.9,0.1v-14.8L31.2,126c1-1.9,1.5-2,3-2h23.9c0.7,0.1,0.9,0.7,0.9,1.6l-0.3,34
	C46.9,156.6,34.3,160.3,25.8,169.1z"/>
<path class="st9" d="M64.7,177.4v15.1h-53c-0.6,0-1-0.4-1-1v-14.1L64.7,177.4z"/>
<path class="st6" d="M50.6,171.2h1.8h0.5h0c10.9,1,19.3,10.1,19.6,21.1H29.2c0.2-10.1,7.4-18.7,17.3-20.7h0l0.4-0.1H47h0.2l0.3-0.1
	h0.2h0.3l0,0h0.3h0.3h2L50.6,171.2z"/>
<path class="st10" d="M63.4,180.4c-6.9-6.9-18.2-6.9-25.1,0c-3.2,3.2-5.1,7.5-5.2,12h35.5C68.5,187.9,66.6,183.6,63.4,180.4
	L63.4,180.4z"/>
<path class="st6" d="M159.1,171.4h-1.7h-0.5l0,0c-10.9,1-19.3,10.1-19.6,21.1h43.3c-0.2-10.1-7.4-18.7-17.3-20.8h-0.1l-0.4-0.1h-0.1
	h-0.3l-0.3-0.1h-0.2h-0.3l0,0h-0.3h-0.3L159.1,171.4L159.1,171.4z"/>
<path class="st10" d="M171.5,180.4c-7-6.9-18.2-6.9-25.1,0c-3.2,3.2-5,7.5-5.2,12h35.6C176.6,187.9,174.7,183.6,171.5,180.4
	L171.5,180.4z"/>
<rect x="78.6" y="123.7" class="st11" width="120.6" height="45.2"/>
<rect x="83.9" y="127.3" class="st12" width="110.2" height="37.8"/>
<circle class="st7" cx="158.6" cy="193.2" r="16.8"/>
<path class="st13" d="M159,183.2L159,183.2c5.6,0,10.2,4.6,10.2,10.2c0,5.6-4.6,10.2-10.2,10.2c-5.6,0-10.2-4.6-10.2-10.2
	S153.4,183.2,159,183.2C159,183.2,159,183.2,159,183.2z"/>
<circle class="st14" cx="158.9" cy="193.4" r="3.7"/>
<circle class="st7" cx="50.8" cy="193" r="16.7"/>
<path class="st13" d="M40.6,193c0-5.6,4.6-10.2,10.2-10.2l0,0c5.6,0,10.2,4.6,10.2,10.2c0,5.6-4.6,10.2-10.2,10.2
	S40.6,198.6,40.6,193C40.6,193,40.6,193,40.6,193z"/>
<circle class="st14" cx="50.8" cy="193" r="3.7"/>
<g>
	<path class="st2" d="M133.7,142.4c-0.3,0-0.7,0-1,0c-2.3,0.1-3.2,1.1-3.6,2.1h0.1c0.6-0.5,1.4-0.8,2.2-0.7c1.9,0,3.5,1.5,3.5,3.4
		c0,0.1,0,0.2,0,0.3c0,2.3-1.9,4.1-4.2,4.1c-0.1,0-0.1,0-0.2,0c-3.3,0-4.7-2.4-4.7-5c-0.1-1.9,0.7-3.7,2-5c1.3-1.1,3-1.7,4.7-1.6
		c0.4,0,0.7,0,1.1,0L133.7,142.4z M130.6,149.4c0.8,0,1.2-0.7,1.2-1.7c0-0.8-0.4-1.7-1.4-1.7c-0.6,0-1.1,0.3-1.3,0.8
		c-0.1,0.2-0.1,0.4-0.1,0.7C129.1,148.4,129.5,149.4,130.6,149.4L130.6,149.4z"/>
	<path class="st2" d="M136.3,145.8c0-1.1,0-2.1-0.1-2.9h2.6l0.1,1.1h0.1c0.6-0.8,1.5-1.3,2.5-1.3c1-0.1,1.9,0.5,2.3,1.4l0,0
		c0.3-0.4,0.7-0.8,1.2-1c0.5-0.2,1-0.4,1.5-0.4c1.8,0,2.9,1.3,2.9,3.7v5h-3v-4.6c0-1.1-0.3-1.7-1-1.7c-0.4,0-0.8,0.3-0.9,0.7
		c-0.1,0.2-0.1,0.4-0.1,0.6v4.9h-3v-4.6c0-1-0.3-1.6-1-1.6c-0.4,0-0.8,0.3-0.9,0.7c-0.1,0.2-0.1,0.4-0.1,0.6v4.9h-3L136.3,145.8z"/>
</g>
<g>
	<path class="st2" d="M151.2,143.9c0.5,0.2,1,0.4,1.6,0.4c0.6,0,1.1-0.2,1.1-0.7s-0.6-0.8-1.1-0.8H152v-1.3h0.6c0.5,0,1-0.1,1-0.6
		s-0.3-0.6-0.9-0.6c-0.5,0-1,0.1-1.4,0.4l-0.3-1.3c0.7-0.3,1.4-0.5,2.2-0.5c1.4,0,2.3,0.7,2.3,1.7c0,0.7-0.5,1.3-1.2,1.5l0,0
		c0.8,0.1,1.4,0.8,1.4,1.6c0,1.2-1.1,2-2.8,2c-0.7,0-1.4-0.1-2-0.5L151.2,143.9z"/>
</g>
<g>
	<polygon class="st0" points="184.6,153.4 184.6,154.9 185.2,154.9 185.2,153.7 185.2,153.4 	"/>
	<polygon class="st1" points="185.2,153.7 185.8,153.9 185.8,153.4 185.2,153.4 	"/>
	<polygon class="st0" points="184,159.5 184,157.2 187.5,157.2 187.5,151.1 185.5,151.1 185.5,151.7 182.9,151.7 182.9,151.7 
		182.9,152.2 182.9,158.4 182.3,158.4 182.3,159.5 	"/>
	<polygon class="st0" points="182.3,151.7 181.7,151.7 181.9,151.1 184.9,151.1 184.9,149.4 178,149.4 178,151.1 180.6,151.1 
		180.6,157.8 182.3,157.8 182.3,152.1 	"/>
	<polygon class="st1" points="182.3,151.7 182.3,152.1 182.9,152.2 182.9,151.7 	"/>
	<polygon class="st1" points="186,150.6 185.5,150.6 185.5,151.1 185.8,151.1 	"/>
	<polygon class="st1" points="182.3,158.9 182.3,158.4 181.8,158.4 181.8,158.7 181.8,158.7 	"/>
	<line class="st0" x1="185.2" y1="153.7" x2="185.8" y2="153.9"/>
	<polygon class="st2" points="184,152.8 184,155.5 185.8,155.5 185.8,153.9 185.2,153.7 185.2,154.9 184.6,154.9 184.6,153.4 
		186.4,153.4 186.6,152.8 	"/>
	<polygon class="st0" points="182.9,151.7 182.9,151.7 182.3,151.7 182.3,151.7 181.7,151.7 181.9,151.1 184.9,151.1 184.9,149.4 
		178,149.4 178,151.1 180.6,151.1 180.6,157.8 182.3,157.8 182.3,152.1 182.9,152.2 182.9,158.4 	"/>
	<polygon class="st2" points="182.9,152.2 182.3,152.1 182.3,157.8 180.6,157.8 180.6,151.1 178,151.1 178,149.4 184.9,149.4 
		184.9,151.1 181.9,151.1 181.7,151.7 182.3,151.7 182.3,151.7 182.9,151.7 182.9,151.7 185.5,151.7 185.5,148.9 177.5,148.9 
		177.5,151.7 180,151.7 180,158.4 181.8,158.4 181.8,158.4 182.3,158.4 182.9,158.4 	"/>
	<polygon class="st2" points="188.1,157.8 188.1,150.6 186,150.6 185.8,151.1 187.5,151.1 187.5,157.2 184,157.2 184,159.5 
		182.3,159.5 182.3,158.9 181.8,158.7 181.8,160.1 184.6,160.1 184.6,157.8 	"/>
</g>
</svg>
