<?xml version="1.0" encoding="utf-8"?>
<!-- Generator: Adobe Illustrator 24.0.1, SVG Export Plug-In . SVG Version: 6.00 Build 0)  -->
<svg version="1.1" id="Layer_1" xmlns="http://www.w3.org/2000/svg" xmlns:xlink="http://www.w3.org/1999/xlink" x="0px" y="0px"
	 viewBox="0 0 283.46 283.46" style="enable-background:new 0 0 283.46 283.46;" xml:space="preserve">
<style type="text/css">
	.st0{fill:#3E3E3E;}
	.st1{fill:#A7A9AC;}
	.st2{fill:#4DB15A;}
	.st3{fill:#001231;}
	.st4{fill:#FFFFFF;}
	.st5{fill:none;stroke:#A7A9AC;stroke-width:0.5;stroke-miterlimit:10;}
	.st6{fill:none;stroke:#A7A9AC;stroke-width:0.5;stroke-miterlimit:10;stroke-dasharray:4.9971,4.9971;}
	.st7{fill:none;stroke:#A7A9AC;stroke-width:0.5;stroke-miterlimit:10;stroke-dasharray:4.9946,4.9946;}
	.st8{fill:#58B947;}
	.st9{fill:#7ABC4C;}
	.st10{fill:#00A14D;}
	.st11{fill:#009448;}
	.st12{fill:#39803D;}
	.st13{fill:none;}
	.st14{fill:#898989;}
	.st15{fill:#BCBEC0;}
	.st16{fill:none;stroke:#A7A9AC;stroke-width:0.5;stroke-miterlimit:10;stroke-dasharray:4.9916,4.9916;}
	.st17{fill:none;stroke:#A7A9AC;stroke-width:0.5;stroke-miterlimit:10;stroke-dasharray:4.9035,4.9035;}
</style>
<g>
	<rect x="57.79" y="57.79" class="st2" width="167.88" height="167.88"/>
	<g>
		<polygon class="st13" points="160.09,131.06 160.09,146.19 165.92,146.19 165.92,134.31 165.92,131.06 		"/>
		<polygon class="st12" points="165.92,134.31 171.73,135.99 171.73,131.06 165.92,131.06 		"/>
		<polygon class="st13" points="154.28,191.61 154.28,168.69 188.37,168.69 188.37,108.56 168.4,108.56 168.4,114.37 142.99,114.37 
			142.99,114.37 142.99,119.29 142.99,180.39 137.59,180.39 137.59,191.61 		"/>
		<polygon class="st13" points="137.19,114.37 131.38,114.37 133.06,108.56 162.59,108.56 162.59,91.86 95.09,91.86 95.09,108.56 
			120.49,108.56 120.49,174.58 137.19,174.58 137.19,117.62 137.19,114.37 		"/>
		<polygon class="st12" points="137.19,114.37 137.19,117.62 142.99,119.29 142.99,114.37 		"/>
		<polygon class="st12" points="173.32,102.75 168.4,102.75 168.4,108.55 171.65,108.56 		"/>
		<polygon class="st12" points="137.59,185.32 137.59,180.39 131.78,180.39 131.78,183.58 131.78,183.64 		"/>
		<line class="st13" x1="165.92" y1="134.31" x2="171.73" y2="135.99"/>
		<polygon class="st4" points="154.28,125.25 154.28,152 171.73,152 171.73,135.99 165.92,134.31 165.92,146.19 160.09,146.19 
			160.09,131.06 177.53,131.06 179.21,125.25 		"/>
		<polygon class="st13" points="142.99,114.37 142.99,114.37 137.19,114.37 137.19,114.37 131.38,114.37 133.06,108.56 
			162.59,108.56 162.59,91.86 95.09,91.86 95.09,108.56 120.49,108.56 120.49,174.58 137.19,174.58 137.19,117.62 142.99,119.29 
			142.99,180.39 		"/>
		<polygon class="st4" points="142.99,119.29 137.19,117.62 137.19,174.58 120.49,174.58 120.49,108.56 95.09,108.56 95.09,91.86 
			162.59,91.86 162.59,108.56 133.06,108.56 131.38,114.37 137.19,114.37 137.19,114.37 142.99,114.37 142.99,114.37 168.4,114.37 
			168.4,86.05 89.29,86.05 89.29,114.37 114.68,114.37 114.68,180.39 131.78,180.39 131.78,180.39 137.59,180.39 142.99,180.39 		
			"/>
		<polygon class="st4" points="194.18,174.5 194.17,102.75 173.32,102.75 171.65,108.56 188.37,108.56 188.37,168.69 154.28,168.69 
			154.28,191.61 137.59,191.61 137.59,185.32 131.78,183.64 131.78,197.41 160.09,197.41 160.09,174.5 		"/>
	</g>
</g>
</svg>
