<?xml version="1.0" encoding="utf-8"?>
<!-- Generator: Adobe Illustrator 24.1.2, SVG Export Plug-In . SVG Version: 6.00 Build 0)  -->
<svg version="1.1" id="Layer_1" xmlns="http://www.w3.org/2000/svg" xmlns:xlink="http://www.w3.org/1999/xlink" x="0px" y="0px"
	 viewBox="0 0 716.6 178.8" style="enable-background:new 0 0 716.6 178.8;" xml:space="preserve">
<style type="text/css">
	.st0{fill:#4DB15A;}
	.st1{fill:none;}
	.st2{fill:#39803D;}
	.st3{fill:#FFFFFF;}
</style>
<g>
	<g>
		<path class="st0" d="M248,105.8h-7.5l-8.2-13.2l-2.8,2v11.2h-6.6V74.5h6.6v14.3l2.6-3.7l8.5-10.6h7.4L237,88.3L248,105.8z"/>
		<path class="st0" d="M253.7,105.8V74.5h6.6v31.3H253.7z"/>
		<path class="st0" d="M294.2,105.8h-8.4l-13.6-23.7H272c0.3,4.2,0.4,7.2,0.4,8.9v14.7h-5.9V74.5h8.4l13.6,23.4h0.1
			c-0.2-4.1-0.3-6.9-0.3-8.6V74.5h6L294.2,105.8L294.2,105.8z"/>
		<path class="st0" d="M329,105.8h-8.4l-13.6-23.7h-0.2c0.3,4.2,0.4,7.2,0.4,8.9v14.7h-5.9V74.5h8.4l13.6,23.4h0.1
			c-0.2-4.1-0.3-6.9-0.3-8.6V74.5h6L329,105.8L329,105.8z"/>
		<path class="st0" d="M336,105.8V74.5h6.6v31.3H336z"/>
		<path class="st0" d="M369.8,97.1c0,2.8-1,5.1-3,6.7c-2,1.6-4.9,2.4-8.5,2.4c-3.3,0-6.3-0.6-8.9-1.9v-6.2c2.1,0.9,3.9,1.6,5.4,2
			c1.5,0.4,2.8,0.6,4,0.6c1.5,0,2.6-0.3,3.4-0.8c0.8-0.6,1.2-1.4,1.2-2.5c0-0.6-0.2-1.2-0.5-1.6c-0.3-0.5-0.8-0.9-1.5-1.4
			c-0.7-0.4-2-1.1-4.1-2.1c-1.9-0.9-3.3-1.8-4.3-2.6c-1-0.8-1.7-1.8-2.3-2.9s-0.9-2.4-0.9-3.9c0-2.8,0.9-4.9,2.8-6.5
			c1.9-1.6,4.5-2.4,7.8-2.4c1.6,0,3.2,0.2,4.7,0.6c1.5,0.4,3,0.9,4.6,1.6l-2.1,5.2c-1.7-0.7-3-1.2-4.1-1.4c-1.1-0.3-2.2-0.4-3.2-0.4
			c-1.3,0-2.2,0.3-2.9,0.9c-0.7,0.6-1,1.4-1,2.3c0,0.6,0.1,1.1,0.4,1.5c0.3,0.4,0.7,0.9,1.3,1.3c0.6,0.4,2,1.1,4.2,2.2
			c2.9,1.4,4.9,2.8,6,4.2C369.2,93.3,369.8,95.1,369.8,97.1z"/>
		<path class="st0" d="M395.9,74.5h6.7L392,105.8h-7.2l-10.6-31.3h6.7l5.9,18.6c0.3,1.1,0.7,2.4,1,3.8c0.4,1.5,0.6,2.5,0.7,3.1
			c0.2-1.3,0.7-3.6,1.6-6.9L395.9,74.5z"/>
		<path class="st0" d="M424,105.8l-2.3-7.4h-11.4l-2.3,7.4h-7.1l11-31.4h8.1l11.1,31.4H424z M420.1,92.8c-2.1-6.8-3.3-10.6-3.5-11.4
			c-0.3-0.9-0.5-1.6-0.6-2.1c-0.5,1.8-1.8,6.3-4,13.5L420.1,92.8L420.1,92.8z"/>
		<path class="st0" d="M442.6,93.8v12h-6.6V74.5h9.1c4.2,0,7.4,0.8,9.4,2.3c2,1.6,3.1,3.9,3.1,7.1c0,1.8-0.5,3.5-1.5,4.9
			c-1,1.4-2.5,2.6-4.3,3.4c4.7,7,7.8,11.6,9.2,13.6h-7.4l-7.5-12L442.6,93.8L442.6,93.8z M442.6,88.4h2.1c2.1,0,3.6-0.4,4.6-1.1
			s1.5-1.8,1.5-3.3c0-1.5-0.5-2.5-1.5-3.2c-1-0.6-2.6-0.9-4.7-0.9h-2L442.6,88.4L442.6,88.4z"/>
		<path class="st0" d="M487.5,105.8l-2.3-7.4h-11.4l-2.3,7.4h-7.2l11-31.4h8.1l11.1,31.4H487.5z M483.7,92.8
			c-2.1-6.8-3.3-10.6-3.5-11.4c-0.3-0.9-0.5-1.6-0.6-2.1c-0.5,1.8-1.8,6.3-4,13.5L483.7,92.8L483.7,92.8z"/>
		<path class="st0" d="M525.1,105.8h-6.6V92.3h-12.4v13.5h-6.6V74.5h6.6v12.3h12.4V74.5h6.6V105.8z"/>
		<path class="st0" d="M561.4,90.1c0,5.2-1.3,9.2-3.8,11.9c-2.6,2.8-6.2,4.2-11,4.2s-8.5-1.4-11-4.2s-3.8-6.8-3.8-12
			s1.3-9.2,3.9-11.9c2.6-2.7,6.3-4.1,11.1-4.1c4.8,0,8.5,1.4,11,4.1C560.1,80.9,561.4,84.9,561.4,90.1z M538.6,90.1
			c0,3.5,0.7,6.1,2,7.9c1.3,1.8,3.3,2.6,6,2.6c5.3,0,7.9-3.5,7.9-10.6c0-7.1-2.6-10.6-7.9-10.6c-2.6,0-4.6,0.9-6,2.7
			C539.2,84,538.6,86.6,538.6,90.1z"/>
		<path class="st0" d="M597.1,90.1c0,5.2-1.3,9.2-3.8,11.9c-2.6,2.8-6.2,4.2-11,4.2s-8.5-1.4-11-4.2s-3.8-6.8-3.8-12
			s1.3-9.2,3.9-11.9c2.6-2.7,6.3-4.1,11.1-4.1c4.8,0,8.5,1.4,11,4.1C595.9,80.9,597.1,84.9,597.1,90.1z M574.3,90.1
			c0,3.5,0.7,6.1,2,7.9c1.3,1.8,3.3,2.6,6,2.6c5.3,0,7.9-3.5,7.9-10.6c0-7.1-2.6-10.6-7.9-10.6c-2.6,0-4.6,0.9-6,2.7
			C575,84,574.3,86.6,574.3,90.1z"/>
		<path class="st0" d="M603.6,105.8V74.5h6.6v25.8h12.7v5.5H603.6z"/>
		<path class="st0" d="M655.2,89.8c0,5.1-1.5,9.1-4.4,11.8c-2.9,2.7-7.2,4.1-12.7,4.1h-8.9V74.5h9.8c5.1,0,9.1,1.4,11.9,4
			S655.2,85,655.2,89.8z M648.3,90c0-6.7-3-10.1-8.9-10.1h-3.5v20.4h2.8C645.1,100.3,648.3,96.9,648.3,90z"/>
		<path class="st0" d="M687.2,74.5v20.2c0,2.3-0.5,4.3-1.5,6.1s-2.5,3.1-4.5,4c-2,0.9-4.3,1.4-6.9,1.4c-4,0-7.2-1-9.4-3.1
			c-2.2-2.1-3.3-4.9-3.3-8.5V74.5h6.6v19.1c0,2.4,0.5,4.2,1.5,5.3c1,1.1,2.6,1.7,4.8,1.7c2.2,0,3.7-0.6,4.7-1.7
			c1-1.1,1.5-2.9,1.5-5.3V74.5H687.2z"/>
		<path class="st0" d="M713.3,97.1c0,2.8-1,5.1-3,6.7c-2,1.6-4.9,2.4-8.5,2.4c-3.3,0-6.3-0.6-8.9-1.9v-6.2c2.1,0.9,3.9,1.6,5.4,2
			c1.5,0.4,2.8,0.6,4,0.6c1.5,0,2.6-0.3,3.3-0.8c0.8-0.6,1.2-1.4,1.2-2.5c0-0.6-0.2-1.2-0.5-1.6s-0.8-0.9-1.5-1.4
			c-0.7-0.4-2-1.1-4.1-2.1c-1.9-0.9-3.3-1.8-4.3-2.6c-1-0.8-1.7-1.8-2.3-2.9s-0.9-2.4-0.9-3.9c0-2.8,0.9-4.9,2.8-6.5
			c1.9-1.6,4.5-2.4,7.8-2.4c1.6,0,3.2,0.2,4.7,0.6c1.5,0.4,3,0.9,4.6,1.6l-2.1,5.2c-1.7-0.7-3-1.2-4.1-1.4c-1.1-0.3-2.2-0.4-3.2-0.4
			c-1.3,0-2.2,0.3-2.9,0.9c-0.7,0.6-1,1.4-1,2.3c0,0.6,0.1,1.1,0.4,1.5c0.3,0.4,0.7,0.9,1.3,1.3c0.6,0.4,2,1.1,4.2,2.2
			c2.9,1.4,4.9,2.8,6,4.2C712.7,93.3,713.3,95.1,713.3,97.1z"/>
	</g>
	<rect y="0.1" class="st0" width="178.5" height="178.5"/>
	<g>
		<polygon class="st1" points="108.8,78 108.8,94.1 114.9,94.1 114.9,81.5 114.9,78 		"/>
		<polygon class="st2" points="114.9,81.5 121.1,83.3 121.1,78 114.9,78 		"/>
		<polygon class="st1" points="102.6,142.4 102.6,118 138.8,118 138.8,54.1 117.6,54.1 117.6,60.3 90.6,60.3 90.6,60.3 90.6,65.5 
			90.6,130.5 84.8,130.5 84.8,142.4 		"/>
		<polygon class="st1" points="84.4,60.3 78.2,60.3 80,54.1 111.4,54.1 111.4,36.4 39.7,36.4 39.7,54.1 66.7,54.1 66.7,124.3 
			84.4,124.3 84.4,63.7 		"/>
		<polygon class="st2" points="84.4,60.3 84.4,63.7 90.6,65.5 90.6,60.3 		"/>
		<polygon class="st2" points="122.8,47.9 117.6,47.9 117.6,54.1 121,54.1 		"/>
		<polygon class="st2" points="84.8,135.7 84.8,130.5 78.7,130.5 78.7,133.9 78.7,133.9 		"/>
		<line class="st1" x1="114.9" y1="81.5" x2="121.1" y2="83.3"/>
		<polygon class="st3" points="102.6,71.9 102.6,100.3 121.1,100.3 121.1,83.3 114.9,81.5 114.9,94.1 108.8,94.1 108.8,78 127.3,78 
			129.1,71.9 		"/>
		<polygon class="st1" points="90.6,60.3 90.6,60.3 84.4,60.3 84.4,60.3 78.2,60.3 80,54.1 111.4,54.1 111.4,36.4 39.7,36.4 
			39.7,54.1 66.7,54.1 66.7,124.3 84.4,124.3 84.4,63.7 90.6,65.5 90.6,130.5 		"/>
		<polygon class="st3" points="90.6,65.5 84.4,63.7 84.4,124.3 66.7,124.3 66.7,54.1 39.7,54.1 39.7,36.4 111.4,36.4 111.4,54.1 
			80,54.1 78.2,60.3 84.4,60.3 84.4,60.3 90.6,60.3 90.6,60.3 117.6,60.3 117.6,30.2 33.5,30.2 33.5,60.3 60.5,60.3 60.5,130.5 
			78.7,130.5 78.7,130.5 84.8,130.5 90.6,130.5 		"/>
		<polygon class="st3" points="145,124.2 145,47.9 122.8,47.9 121,54.1 138.8,54.1 138.8,118 102.6,118 102.6,142.4 84.8,142.4 
			84.8,135.7 78.7,133.9 78.7,148.6 108.8,148.6 108.8,124.2 		"/>
	</g>
</g>
</svg>
