<?xml version="1.0" encoding="utf-8"?>
<!-- Generator: Adobe Illustrator 24.1.2, SVG Export Plug-In . SVG Version: 6.00 Build 0)  -->
<svg version="1.1" id="Layer_2_1_" xmlns="http://www.w3.org/2000/svg" xmlns:xlink="http://www.w3.org/1999/xlink" x="0px" y="0px"
	 viewBox="0 0 210 210" style="enable-background:new 0 0 210 210;" xml:space="preserve">
<style type="text/css">
	.st0{fill:#939393;}
	.st1{fill:#FFFFFF;}
	.st2{fill:#616264;}
	.st3{fill:#D6A428;}
	.st4{fill:#C44217;}
	.st5{fill:#EE4423;}
	.st6{fill:#EDBB86;}
	.st7{fill:#3C3C3B;}
	.st8{fill:#FAC831;}
	.st9{fill:#C6C6C6;}
	.st10{fill:#9D9D9C;}
	.st11{fill:#575756;}
	.st12{opacity:0.1;fill:#1D1D1B;enable-background:new    ;}
	.st13{fill:#706F6F;}
	.st14{fill:#FFAF82;}
	.st15{fill:#131313;}
	.st16{fill:#33A855;}
	.st17{fill:#298741;}
	.st18{opacity:0.1;fill:#050504;enable-background:new    ;}
	.st19{fill:#006080;}
	.st20{fill:#EDEDED;}
	.st21{fill:none;}
</style>
<rect x="16.5" y="67.5" class="st0" width="119.7" height="124.8"/>
<path class="st1" d="M36.2,81.4c0.9-0.1,1.7-0.2,2.6-0.2c0.9-0.1,1.8,0.1,2.5,0.7c0.6,0.5,0.9,1.2,0.9,1.9c0.1,0.8-0.2,1.5-0.8,2
	c-0.8,0.6-1.7,0.9-2.7,0.8h-0.5v2.7h-2.2L36.2,81.4L36.2,81.4z M38.3,85h0.5c0.8,0,1.4-0.4,1.4-1.1s-0.4-1-1.2-1
	c-0.2,0-0.4,0-0.7,0.1L38.3,85z"/>
<path class="st1" d="M44.9,87.6l-0.5,1.9h-2.2l2.3-8h2.9l2.4,8h-2.3L47,87.6H44.9z M46.8,85.9l-0.4-1.4c-0.1-0.5-0.3-1.1-0.4-1.6
	l0,0c-0.1,0.5-0.2,1.1-0.3,1.6l-0.3,1.4H46.8z"/>
<path class="st1" d="M50.9,81.4c0.9-0.1,1.7-0.2,2.6-0.2c1-0.1,1.9,0.2,2.7,0.7c0.5,0.4,0.8,1.1,0.8,1.8c0,0.9-0.6,1.6-1.4,2v0.1
	c0.5,0.3,0.9,0.8,1,1.4c0.2,0.8,0.5,2,0.7,2.3h-2.2c-0.3-0.6-0.5-1.2-0.6-1.9c-0.2-0.9-0.5-1.2-1.2-1.2h-0.3v3.1h-2.2V81.4
	L50.9,81.4z M53,84.8h0.6c0.8,0,1.3-0.4,1.3-1s-0.4-0.9-1.1-0.9c-0.2,0-0.5,0-0.7,0.1L53,84.8z"/>
<path class="st1" d="M58.3,81.3h2.2v3.5l0,0c0.2-0.3,0.3-0.6,0.5-0.9l1.6-2.6h2.6l-2.6,3.5l2.7,4.6h-2.5l-1.7-3.3l-0.7,0.8v2.5h-2.2
	L58.3,81.3z"/>
<path class="st1" d="M72.8,86.5c-0.1-0.9-0.1-2-0.1-3.2h-0.1c-0.3,1-0.6,2.3-0.8,3.2l-0.8,2.8h-1.7l-0.7-2.8
	c-0.2-0.8-0.5-2.1-0.7-3.2h0c-0.1,1.2-0.1,2.3-0.1,3.2l-0.1,2.9h-2l0.5-8h2.9l0.5,2.2c0.2,0.9,0.5,2,0.7,2.9h0.1
	c0.2-1,0.5-2.1,0.7-2.9l0.7-2.2h2.8l0.4,8h-2.1L72.8,86.5z"/>
<path class="st1" d="M78.5,81.3v8h-2.1v-8H78.5z"/>
<path class="st1" d="M80.1,87.2c0.6,0.3,1.4,0.5,2.1,0.5c0.7,0,1.1-0.3,1.1-0.7s-0.3-0.7-1.2-0.9c-1.4-0.5-2.3-1.2-2.3-2.4
	c0-1.4,1.2-2.5,3.2-2.5c0.8,0,1.5,0.1,2.2,0.4l-0.5,1.8c-0.5-0.3-1.2-0.4-1.8-0.4c-0.7,0-1,0.2-1,0.6s0.5,0.6,1.4,0.9
	c1.4,0.5,2.1,1.3,2.1,2.4c0,1.4-1,2.6-3.5,2.6c-0.8,0-1.6-0.2-2.3-0.5L80.1,87.2z"/>
<path class="st1" d="M93.6,86.5c-0.1-0.9-0.1-2-0.1-3.2h-0.1c-0.3,1-0.6,2.3-0.8,3.2l-0.8,2.8h-1.7l-0.7-2.8
	c-0.2-0.8-0.5-2.1-0.7-3.2h-0.1c-0.1,1.2-0.1,2.3-0.1,3.2l-0.1,2.9h-2l0.5-8h3l0.5,2.2c0.2,0.9,0.5,2,0.7,2.9h0.1
	c0.2-1,0.5-2.1,0.7-2.9l0.7-2.2h2.8l0.4,8h-2.1L93.6,86.5z"/>
<path class="st1" d="M99.2,87.6l-0.5,1.9h-2.2l2.3-8h2.9l2.4,8h-2.3l-0.5-1.9H99.2z M101,85.9l-0.3-1.4c-0.1-0.5-0.3-1.1-0.4-1.6
	h-0.1c-0.1,0.5-0.2,1.1-0.3,1.6l-0.3,1.4H101z"/>
<path class="st1" d="M106.8,81.3h2.2v5c0,2.4-1.1,3.2-3.1,3.2c-0.5,0-1-0.1-1.4-0.2l0.2-1.8c0.3,0.1,0.6,0.1,0.9,0.1
	c0.7,0,1.2-0.3,1.2-1.4L106.8,81.3L106.8,81.3z"/>
<path class="st1" d="M112.5,87.6l-0.5,1.9h-2.2l2.3-8h2.9l2.4,8h-2.3l-0.5-1.9H112.5z M114.3,85.9l-0.3-1.4
	c-0.1-0.5-0.3-1.1-0.4-1.6h-0.1c-0.1,0.5-0.2,1.1-0.3,1.6l-0.3,1.4H114.3z"/>
<rect x="32.8" y="102.3" class="st2" width="85.1" height="88.7"/>
<rect x="8.4" y="55.7" class="st3" width="134" height="13.1"/>
<rect x="30.7" y="153.1" class="st4" width="4.3" height="38.9"/>
<path class="st5" d="M111.1,160.7h-84c-0.6,0-1-0.3-1-0.6v-7c0-0.3,0.5-0.6,1-0.6h84c0.6,0,1.1,0.3,1.1,0.6v7
	C112.1,160.4,111.7,160.7,111.1,160.7z"/>
<rect x="32.1" y="154.5" class="st4" width="6.8" height="4"/>
<rect x="45.5" y="154.5" class="st4" width="6.8" height="4"/>
<rect x="59" y="154.5" class="st4" width="6.8" height="4"/>
<rect x="72.4" y="154.5" class="st4" width="6.8" height="4"/>
<rect x="85.9" y="154.5" class="st4" width="6.8" height="4"/>
<rect x="99.3" y="154.5" class="st4" width="6.8" height="4"/>
<path class="st6" d="M102.9,120.1c0-0.3,0-0.7,0.1-1c0.2-0.1,0.5-0.2,0.8-0.2l3-0.1c0.4-0.1,0.7,0,1,0.4c0.1,0.2,0.1,0.4,0,0.6
	c0,0.6-0.5,1.1-1.1,1.2c-1,0.1-2.1,0.5-3.2,0.6c-0.2,0-0.4,0-0.6-0.1c-0.1-0.2-0.2-0.4-0.1-0.6C102.8,120.6,102.9,120.4,102.9,120.1
	z"/>
<path class="st7" d="M107.4,123.3H107L88.7,120c-1.2-0.3-1.9-1.5-1.6-2.7c0.3-1.1,1.4-1.8,2.5-1.6l18.3,3.4c1.1,0.2,1.9,1.2,1.8,2.3
	c0,0.1,0,0.2-0.1,0.3C109.4,122.7,108.4,123.4,107.4,123.3L107.4,123.3z"/>
<path class="st7" d="M95.3,126c-0.4,0-0.8-0.2-1-0.5l-4.6-6.6c-0.3-0.4-0.3-1.1,0.2-1.4c0.1-0.1,0.1-0.1,0.2-0.1
	c0.5-0.2,1.1-0.1,1.5,0.2l4.6,6.6c0.3,0.5,0.2,1.1-0.2,1.5C95.8,125.9,95.5,126,95.3,126L95.3,126z"/>
<path class="st7" d="M97.1,126h-0.1c-0.6,0-1-0.6-1-1.2c0,0,0,0,0,0l0,0l0.8-5.4c0-0.6,0.5-1.1,1.1-1.1c0.6,0,1.1,0.5,1.1,1.1
	c0,0.1,0,0.1,0,0.2l-0.8,5.2C98.1,125.4,97.7,125.9,97.1,126C97.1,126,97.1,126,97.1,126z"/>
<path class="st7" d="M97.4,135.2l-4.1-0.7l1.8-10.9c0.1-0.6,0.6-1.1,1.2-1c0,0,0,0,0.1,0l1.9,0.4c0.6,0.1,1.1,0.6,1,1.2
	c0,0,0,0,0,0.1L97.4,135.2z"/>
<path class="st8" d="M97.4,199.3l-1.8-0.2c-8.5-1.2-14.4-9.1-13.3-17.6l0,0l6.8-49.7c0.4-1.9,2.2-3.2,4.1-2.9l0,0l6.2,1.1
	c1.9,0.4,3.2,2.2,2.9,4.1l0,0L97.4,199.3z"/>
<path class="st7" d="M98.7,126.7c-0.6,0-1.1-0.5-1.1-1.1c0,0,0,0,0,0c0-0.4,0.2-0.8,0.5-1l6.6-4.4c0.5-0.3,1.1-0.2,1.5,0.2
	c0.2,0.5,0.1,1.1-0.2,1.5l0,0l-6.6,4.4C99.2,126.5,98.9,126.7,98.7,126.7z"/>
<path class="st8" d="M174.5,120.5h-31.2v31.4h47.4l-4.4-21.8C185.1,124.6,180.2,120.6,174.5,120.5z"/>
<rect x="123.3" y="188.9" class="st7" width="48.2" height="5.9"/>
<polygon class="st9" points="164.1,194.9 130.6,194.9 126.3,198.6 168.4,198.6 "/>
<path class="st10" d="M169.7,201.6h-44.5v-1.7c0-1.5,1.1-2.7,2.6-2.7c0,0,0.1,0,0.1,0h39.3c1.5,0,2.7,1.1,2.7,2.6c0,0,0,0.1,0,0.1
	v1.7L169.7,201.6z"/>
<rect x="126.7" y="201.6" class="st11" width="41.5" height="1.1"/>
<polygon class="st8" points="169.6,209.2 125.2,209.2 126.7,202.7 168,202.7 "/>
<polygon class="st12" points="127.3,203.8 127.8,209.2 125.6,209.2 "/>
<polygon class="st12" points="131.3,203.8 131.9,209.2 127.8,209.2 128.6,206.3 129.7,208.6 "/>
<polygon class="st12" points="135.3,203.3 136.4,209.2 134.7,209.2 "/>
<polygon class="st12" points="137.3,204.9 138.1,209.2 136.8,209.2 "/>
<polygon class="st12" points="145.5,204.7 146.4,209.2 141.9,209.2 143.2,203.3 144.3,208.6 "/>
<polygon class="st12" points="147.4,206.8 148.2,209.2 146.7,209.2 "/>
<polygon class="st12" points="150,203 151.8,209.2 148.7,209.2 "/>
<polygon class="st12" points="155.3,203.2 156.4,209.2 154.7,209.2 "/>
<polygon class="st12" points="157.1,203.4 158.6,209.2 156.6,209.2 "/>
<polygon class="st12" points="159.9,203.6 161.3,209.2 158.8,209.2 160.3,209 "/>
<polygon class="st12" points="164.7,205.8 165.8,209.2 163,209.2 162.7,203.4 164.7,209.2 "/>
<polygon class="st12" points="169.3,209.2 167.5,209.2 167.5,203.6 "/>
<path class="st8" d="M201.6,169.9v29.4h-27.9c-1.8,0-3.2-1.4-3.2-3.1c0,0,0-0.1,0-0.1v0c0-3.4-2.8-6.2-6.2-6.3H130
	c-3.4,0-6.2,2.8-6.2,6.2l0,0v0.1c0,1.8-1.5,3.2-3.2,3.2H95.3v-14.9c0-1.9,1.5-3.5,3.4-3.5c0,0,0.1,0,0.1,0h19.9l2.4-19.1l1.2-10
	c0.3-2.2,2.1-3.9,4.4-3.8h52.8c12.2,0,22.1,9.9,22.1,22.1C201.6,169.9,201.6,169.9,201.6,169.9L201.6,169.9z"/>
<circle class="st7" cx="104" cy="199.4" r="10.6"/>
<path class="st10" d="M110.3,199.3c0,3.6-2.9,6.6-6.6,6.6c-3.6,0-6.6-2.9-6.6-6.6c0-3.6,2.9-6.6,6.6-6.6c0,0,0,0,0,0l0,0
	c3.6,0,6.5,2.9,6.6,6.5C110.4,199.2,110.4,199.2,110.3,199.3z"/>
<circle class="st13" cx="104" cy="199.3" r="2.4"/>
<path class="st7" d="M143.5,118.8c-2.1,0.1-4,0.6-4.3,2.6l-1.8,23.6c-0.1,1.6-1.4,2.8-3,2.8h-10c-1.2,0-2.2,1-2.2,2.2l0,0v4.4h16.5
	c2.6,0,4.6-2.1,4.6-4.6c0,0,0,0,0,0V148l1.7-27.7c0-0.7-0.5-1.3-1.2-1.3C143.6,118.8,143.6,118.8,143.5,118.8L143.5,118.8z"/>
<path class="st3" d="M201.6,169.9V181h-82.9l2.3-19.2h78.7C201.1,164.3,201.7,167.1,201.6,169.9z"/>
<path class="st7" d="M159.7,131.7c0,0.3-0.2,0.6-0.5,0.6c-0.1,0-0.1,0-0.2,0h-8.2c-0.3,0-0.6-0.2-0.6-0.5c0,0,0-0.1,0-0.2l0,0
	c0-0.3,0.2-0.6,0.5-0.6c0,0,0.1,0,0.2,0h8.2C159.3,131.1,159.6,131.3,159.7,131.7C159.6,131.6,159.6,131.7,159.7,131.7L159.7,131.7z
	"/>
<path class="st7" d="M159.7,133.9c0,0.3-0.2,0.6-0.5,0.6c0,0-0.1,0-0.2,0h-8.2c-0.3,0-0.6-0.2-0.6-0.5c0-0.1,0-0.1,0-0.2l0,0
	c0-0.3,0.2-0.6,0.5-0.6c0,0,0.1,0,0.2,0h8.2C159.3,133.2,159.6,133.4,159.7,133.9C159.6,133.8,159.6,133.8,159.7,133.9L159.7,133.9z
	"/>
<path class="st7" d="M159.7,135.9c0,0.3-0.2,0.6-0.5,0.6c-0.1,0-0.1,0-0.2,0h-8.2c-0.3,0-0.6-0.2-0.6-0.5c0,0,0-0.1,0-0.2l0,0
	c0-0.3,0.2-0.6,0.5-0.6c0,0,0.1,0,0.2,0h8.2C159.4,135.2,159.7,135.5,159.7,135.9z"/>
<path class="st7" d="M159.7,137.9c0,0.3-0.2,0.6-0.5,0.6c0,0-0.1,0-0.2,0h-8.2c-0.3,0-0.6-0.2-0.6-0.5c0-0.1,0-0.1,0-0.2l0,0
	c0-0.3,0.2-0.6,0.5-0.6c0,0,0.1,0,0.2,0h8.2C159.3,137.3,159.6,137.6,159.7,137.9z"/>
<path class="st7" d="M159.7,140c0,0.3-0.2,0.6-0.5,0.6c-0.1,0-0.1,0-0.2,0h-8.2c-0.3,0-0.6-0.2-0.6-0.5c0,0,0-0.1,0-0.2l0,0
	c0-0.3,0.2-0.6,0.5-0.6c0,0,0.1,0,0.2,0h8.2c0.3,0,0.6,0.2,0.7,0.5C159.7,139.9,159.7,140,159.7,140z"/>
<path class="st7" d="M159.7,142.1c0,0.3-0.2,0.6-0.5,0.6c0,0-0.1,0-0.2,0h-8.2c-0.3,0-0.6-0.2-0.6-0.5c0-0.1,0-0.1,0-0.2l0,0
	c0-0.3,0.2-0.6,0.5-0.6c0,0,0.1,0,0.2,0h8.2C159.4,141.5,159.6,141.7,159.7,142.1L159.7,142.1z"/>
<path class="st7" d="M159.7,144.2c0,0.3-0.2,0.6-0.5,0.6c-0.1,0-0.1,0-0.2,0h-8.2c-0.3,0-0.6-0.2-0.6-0.5c0,0,0-0.1,0-0.2l0,0
	c0-0.3,0.2-0.6,0.5-0.6c0,0,0.1,0,0.2,0h8.2C159.4,143.5,159.6,143.8,159.7,144.2L159.7,144.2z"/>
<path class="st14" d="M107.5,121.1c-0.3,0.5-0.9,0.7-1.5,0.6c-1.2,0-1.7,0-3-0.1c0.4,0.6,0.4,1.3,1,1.8c0.7,0.4,1.4,0.8,2.2,1
	c0.9,0.2,1.8,0.4,2.8,0.4c1-0.1,2-0.3,3-0.8c0.2,0,0.3-0.1,0.5-0.2c0.1-0.2,0.1-0.4,0.1-0.6c-0.2-1.1-0.8-2.2-1.7-2.9
	c-0.5-0.4-1-0.8-1.6-1.1c-1.3-0.5-3.2,0.2-4.6,0c-0.2-0.1-0.5-0.1-0.8,0c-0.1,0.2-0.2,0.4-0.1,0.6c0.1,0.2,0.3,0.4,0.6,0.5
	c0.5,0.1,1.1,0.2,1.6,0.2C106.5,120.6,107.1,120.8,107.5,121.1z"/>
<polygon class="st14" points="127,108.9 134.1,107.6 132.6,100.8 126.3,101.2 "/>
<path class="st14" d="M122.9,106.6c0.4,0.5,1,0.8,1.6,0.7l1.5-0.1c0.5-0.2,1.1-0.4,1.6-0.6l0,0c1.7-1.1,2.6-3,2.4-5h0.1
	c1.1-0.1,2.8,0.8,2.9-0.1c0-1.2,1.2-3,1.2-4.5c-0.6-6.8-4.9-6.2-7.4-6.1c-2.1,0.2-4,1.5-4.9,3.4c-0.3,0.7-0.4,1.5-0.6,2.2
	c0,0.4,0,0.9,0,1.3c0.1,0.3,0.2,0.6,0.4,0.8l-0.1,0.4l-0.6,1.6c-0.1,0.4,0.1,0.9,0.6,1h0.1l0.6,0.1v3
	C122.3,105.4,122.5,106,122.9,106.6z"/>
<path class="st15" d="M132.9,102.9c-4.6,1.2-2.3-4.1-2.3-4.1s-1,1.7-1.2,2.2h-1.5c-0.6-5.7,0.4-8.4-6-6.7c0.7-2.6,3.4-4.8,5.5-4.4
	c3.4,0.6,6.6,1.6,7.1,5C134.8,96.7,135.1,97.8,132.9,102.9z"/>
<path class="st14" d="M131.4,99.1c0.1,1.1-0.7,2.3-1.5,2.3s-0.6-0.8-0.7-1.9c0-0.7-0.2-1.7,0.5-2.1S131.3,97.5,131.4,99.1z"/>
<path class="st16" d="M121.4,95.5l5.2,0.6l0,0l5.1,0.6h0.3l2.4,0.2l0.1-2.6c-0.2-2.1-1.8-3.8-3.9-4.3l-3.2-0.6
	c-2.8-0.6-5.2,1.5-5.7,4.3v0.2l-0.1,0.6L121.4,95.5z"/>
<path class="st17" d="M116.2,95c0.6,1,1.5,1.2,2.8,1.3c1,0.1,1.9,0.1,2.9,0c1.2-0.1,4.6-0.4,4.8-0.4c-1.6-0.8-3.3-1.3-5-1.6
	l-2.3,0.1C118.4,94.5,117.3,94.7,116.2,95z"/>
<path class="st18" d="M121.7,98.6l-0.1,0.4c3.5-0.2,7.2-1.6,10.6-2.3h-0.3l-5-0.6l0,0c-0.1,0-3.5,0.4-4.8,0.4h-0.6
	c0,0.4,0,0.9,0,1.3C121.4,98.1,121.5,98.4,121.7,98.6z"/>
<path class="st18" d="M122.9,106.6c0.4,0.5,1,0.8,1.6,0.7l1.5-0.1c0.5-0.2,1.1-0.4,1.6-0.6l0,0c0.4-0.7,0.6-1.4,0.6-2.2
	c0-0.7,0-1.5-0.1-2.3c0,0.7-0.2,1.3-0.6,1.8c-0.3,0.5-0.8,1-1.3,1.3c-0.6,0.3-1.1,0.7-1.7,1C123.9,106.4,123.4,106.6,122.9,106.6z"
	/>
<polygon class="st19" points="137.5,145.5 120.4,141.5 124.5,138.8 125.1,137 138.1,139 137.9,142.4 137.5,145.1 "/>
<path class="st7" d="M117.1,179.9v0.2c0,0.1-0.1,0.1-0.1,0.1l-1.1,0.2c-0.3,0.1-0.7,0.1-1,0.1l-2.6,0.1H112l-6,0.4
	c-0.7,0-1.5,0-2.2-0.1c-1.2-0.1-2.4-0.5-3.5-1c-0.1-0.1-0.1-0.1-0.1-0.4l0.1-0.7l16.5-0.6L117.1,179.9z"/>
<path class="st7" d="M115.8,173.8c-2.4,1.8-4.1,0.6-5.2-0.1c0.6-1.1,0.8-2.8-1-2.8c-0.2,0-0.1,0.6-0.5,1.3c-1,2.8-6.8,3.8-8.4,5.1
	c-0.5,0.4-0.6,1.6-0.4,1.7c1.3,0.5,2.6,0.7,4,0.8c1.2,0.1,2.4,0,3.5-0.1l2.6-0.6c0.4-0.1,0.7-0.1,1-0.1l5-0.4
	C116.9,176.9,116.6,175.2,115.8,173.8z"/>
<path class="st20" d="M116.4,175.1c-0.8,0.4-0.8-0.4-2.1-0.5c0.4-0.2,0.6-0.6,0.6-1c0.1-0.5,0.1-1,0.5-1.1h0.3
	c0.1,0,0.1,0.1,0.1,0.1C116,173.3,116.2,174.4,116.4,175.1z"/>
<path class="st16" d="M134.8,148.2c-0.6,0.1-13.9,2.4-20.5,2.6c-0.1,0-5.2-0.6-5.6-3.2v-0.1c-0.4-2.1-0.6-4.6,1.2-5.5
	c1-0.2,2-0.4,3-0.6l10.9-1.7l8.3-1.3c1.3-0.4,6.2-1.8,6.2-0.4C138.5,141.7,138.5,147.7,134.8,148.2z"/>
<path class="st16" d="M116.8,176.1c0.8-10.6,0.6-20.5-1.5-29c-0.1-2.8-1.3-5.5-4.3-5.4h0c-2.9,0.2-5,2.6-4.9,5.5l1.5,26.7
	L116.8,176.1z"/>
<path class="st16" d="M138.4,137.9l-13.8,0.7c-0.9-3.6-1.2-7.3-1.1-11.1c0-2.3,0.1-4.5,0.4-6.8c0-7.7,3.4-12,3.4-12l0.6-0.1l0.1-0.6
	c0.2-0.9,0.8-1.6,1.6-1.9l4.3-1.6l0.5,1.7C143.5,115.1,139.1,131.5,138.4,137.9z"/>
<path class="st18" d="M135.9,115.3l-2.7,13.5c-0.6,3.2-2.5,6-5.2,7.7l-3.5,2.2c-0.9-3.6-1.2-7.3-1.1-11.1v-3.3l5.6-9.8L135.9,115.3z
	"/>
<path class="st16" d="M127.9,125.1l-16.2-3.5l-2.2,2.8l15.3,6.7c1.3,0.6,2.7,0.7,4,0.1c0.9-0.3,1.6-1.2,1.7-2.1v-0.1
	C130.9,127.3,129.7,125.6,127.9,125.1z"/>
<path class="st16" d="M135.4,117.1l-5.1,12.9l-7.2-1.2l5.2-14c0.6-1.8,2.7-4.6,5-3.8C133.4,111,137.2,112.3,135.4,117.1z"/>
<path class="st18" d="M125.6,153.2l-6.7,27.7l-11.2-6.9c6.7-4,8.2-16.5,5.5-25.2c7.3-0.6,16.7-1.3,19.7-5.2
	c3.4-4.4,5.5-12.9,7.3-22.3v26.4c0,1.9-1.4,3.6-3.3,3.9L125.6,153.2z"/>
<path class="st18" d="M196.5,155.5c-33.6,0-62.3,13.7-78.8,43.8h3c1.8,0,3.2-1.4,3.2-3.1c0,0,0-0.1,0-0.1v0c0-3.4,2.8-6.2,6.2-6.3
	h34.2c3.4,0,6.2,2.8,6.2,6.2l0,0v0.1c0,1.8,1.5,3.2,3.2,3.2h27.8v-29.4C201.8,164.6,199.9,159.5,196.5,155.5z"/>
<circle class="st7" cx="185.8" cy="199.2" r="10.6"/>
<path class="st10" d="M192.4,199.3c0,3.6-2.9,6.6-6.6,6.6s-6.6-2.9-6.6-6.6s2.9-6.6,6.6-6.6l0,0
	C189.4,192.7,192.3,195.7,192.4,199.3z"/>
<circle class="st13" cx="185.7" cy="199.3" r="2.4"/>
<g>
	<polygon class="st21" points="188,170.9 188,172.2 188.5,172.2 188.5,171.2 188.5,170.9 	"/>
	<polygon class="st18" points="188.5,171.2 189,171.3 189,170.9 188.5,170.9 	"/>
	<polygon class="st21" points="187.5,176.1 187.5,174.1 190.4,174.1 190.4,169 188.7,169 188.7,169.5 186.6,169.5 186.6,169.5 
		186.6,169.9 186.6,175.1 186.1,175.1 186.1,176.1 	"/>
	<polygon class="st21" points="186.1,169.5 185.6,169.5 185.7,169 188.2,169 188.2,167.6 182.5,167.6 182.5,169 184.7,169 
		184.7,174.6 186.1,174.6 186.1,169.8 	"/>
	<polygon class="st18" points="186.1,169.5 186.1,169.8 186.6,169.9 186.6,169.5 	"/>
	<polygon class="st18" points="189.2,168.5 188.7,168.5 188.7,169 189,169 	"/>
	<polygon class="st18" points="186.1,175.5 186.1,175.1 185.6,175.1 185.6,175.4 185.6,175.4 	"/>
	<line class="st21" x1="188.5" y1="171.2" x2="189" y2="171.3"/>
	<polygon class="st1" points="187.5,170.4 187.5,172.7 189,172.7 189,171.3 188.5,171.2 188.5,172.2 188,172.2 188,170.9 
		189.5,170.9 189.7,170.4 	"/>
	<polygon class="st21" points="186.6,169.5 186.6,169.5 186.1,169.5 186.1,169.5 185.6,169.5 185.7,169 188.2,169 188.2,167.6 
		182.5,167.6 182.5,169 184.7,169 184.7,174.6 186.1,174.6 186.1,169.8 186.6,169.9 186.6,175.1 	"/>
	<polygon class="st1" points="186.6,169.9 186.1,169.8 186.1,174.6 184.7,174.6 184.7,169 182.5,169 182.5,167.6 188.2,167.6 
		188.2,169 185.7,169 185.6,169.5 186.1,169.5 186.1,169.5 186.6,169.5 186.6,169.5 188.7,169.5 188.7,167.1 182,167.1 182,169.5 
		184.2,169.5 184.2,175.1 185.6,175.1 185.6,175.1 186.1,175.1 186.6,175.1 	"/>
	<polygon class="st1" points="190.9,174.6 190.9,168.5 189.2,168.5 189,169 190.4,169 190.4,174.1 187.5,174.1 187.5,176.1 
		186.1,176.1 186.1,175.5 185.6,175.4 185.6,176.6 188,176.6 188,174.6 	"/>
</g>
</svg>
