<?xml version="1.0" encoding="utf-8"?>
<!-- Generator: Adobe Illustrator 24.1.0, SVG Export Plug-In . SVG Version: 6.00 Build 0)  -->
<svg version="1.1" id="Capa_1" xmlns="http://www.w3.org/2000/svg" xmlns:xlink="http://www.w3.org/1999/xlink" x="0px" y="0px"
	 viewBox="0 0 512 512" style="enable-background:new 0 0 512 512;" xml:space="preserve">
<style type="text/css">
	.st0{fill:#CCCCCC;}
</style>
<g>
	<g>
		<g>
			<path class="st0" d="M511.8,421.4c-0.9-8.4-5.2-15.9-11.9-21.1L401.2,324c-16.8-12.9-39.4-14.5-57.7-3.9l-18.1,10.5
				c-11.1,6.4-24.8,5.5-34.9-2.3C275.8,317,253.9,299,233,278.2c-20.7-20.8-38.3-42.3-49.4-56.7c-7.7-10.1-8.6-23.7-2.2-34.8
				l10.5-18.2c10.5-18.3,9-41-3.9-57.7l-76.2-98.7c-5.2-6.7-12.7-11-21.2-11.9c-8.4-0.9-16.7,1.5-23.2,6.9
				C42.9,27.3,27.6,40.5,21.6,46.5C6.5,61.7,0,81.5,0,112.9c0,36.7,67.2,172.9,148.2,250.5C226.1,444.8,362.4,512,399.1,512
				c31.4,0,51.3-6.5,66.4-21.6c6-6,19.3-21.4,39.4-45.8C510.3,438.1,512.7,429.8,511.8,421.4z"/>
		</g>
	</g>
</g>
</svg>
