<?xml version="1.0" encoding="utf-8"?>
<!-- Generator: Adobe Illustrator 24.1.2, SVG Export Plug-In . SVG Version: 6.00 Build 0)  -->
<svg version="1.1" id="Layer_2_1_" xmlns="http://www.w3.org/2000/svg" xmlns:xlink="http://www.w3.org/1999/xlink" x="0px" y="0px"
	 viewBox="0 0 210 210" style="enable-background:new 0 0 210 210;" xml:space="preserve">
<style type="text/css">
	.st0{fill:#FF4F5B;}
	.st1{fill:#C92420;}
	.st2{fill:#E6332A;}
	.st3{fill:#EF4945;}
	.st4{fill:#ABA7A5;}
	.st5{fill:#858285;}
	.st6{fill:#C4C4C4;}
	.st7{fill:#FCA377;}
	.st8{fill:#FFAF82;}
	.st9{fill:#279343;}
	.st10{fill:#131313;}
	.st11{fill:#33A855;}
	.st12{opacity:0.1;fill:#050504;enable-background:new    ;}
	.st13{opacity:0.15;fill:#1D1D1B;enable-background:new    ;}
	.st14{fill:none;}
	.st15{fill:#39803D;}
	.st16{fill:#FFFFFF;}
</style>
<polygon class="st0" points="70.2,184.7 70.2,182.1 76.4,174.2 81.6,182.1 81.6,184.7 "/>
<polygon class="st1" points="70.2,184.7 70.2,182.1 76.4,174.2 81.6,182.1 81.6,184.7 "/>
<path class="st0" d="M100.7,177.4H75.8v-2.2c0,0,26.6-0.1,26.8,0L100.7,177.4z"/>
<path class="st1" d="M100.7,177.4H75.8v-2.2c0,0,26.6-0.1,26.8,0L100.7,177.4z"/>
<polygon class="st0" points="98,181.9 98,202.1 110.4,202.1 110.4,182.3 104,174.2 "/>
<polygon class="st2" points="98,202.1 98,181.9 104,174.2 102,174.2 95.8,181.5 95.8,184.7 70.2,184.7 70.2,182.1 76.4,174.2 
	73.6,174.2 68.1,181.8 68.1,202.1 "/>
<path class="st1" d="M83.2,186.2c8.3,0,15,0,15,0.1s-6.7,0.1-15,0.1s-15,0-15-0.1S74.8,186.2,83.2,186.2z"/>
<path class="st1" d="M83.3,200.8c8.3,0,15,0,15,0.1s-6.7,0.1-15,0.1s-15-0.1-15-0.1S75,200.8,83.3,200.8z"/>
<polygon class="st3" points="98,181.9 98,202.1 110.4,202.1 110.4,182.3 104,174.2 "/>
<path class="st4" d="M85.7,114.8L85.7,114.8l-0.9-2.3c-0.9-0.2-1.8,0.2-2.3,0.9c0.1,0.8,0.3,1.6,0.6,2.4c-0.5-0.1-1-0.3-1.4-0.6
	c-1.2-1-1.4-2.8-0.5-4c0-0.1,0.1-0.1,0.2-0.2c-0.4-2.3-5.3-20.6-5.8-21.9s-0.9-1.4-0.9-1.4l0,0c-1.5-0.4-2.6-1.8-2.7-3.4
	c0-0.6,0.2-1.2,0.5-1.8c0.5,0.8,1.1,1.7,1.8,2.4c1.1,0.1,2.1-0.6,2.6-1.6l-1.6-2.6h0.1c1.9,0,3.4,1.6,3.4,3.5c0,0.8-0.2,1.5-0.7,2.2
	c-0.4,1.9,3.5,16.5,4.4,19.4c0.5,1.6,1,3,1.6,4.5c0.3,0.1,0.6,0.3,0.9,0.5C86.5,111.7,86.7,113.5,85.7,114.8z"/>
<path class="st4" d="M82.5,115.7c-1.5-0.7-2.2-2.4-1.5-4c0.1-0.2,0.2-0.3,0.3-0.5c0-0.1,0.1-0.1,0.2-0.2c-0.4-2.3-5.3-20.6-5.8-21.9
	s-0.9-1.4-0.9-1.4l0,0c-1.5-0.4-2.6-1.8-2.6-3.4v-0.2l0,0c0.1,1.2,0.8,2.3,1.8,3c1.6,0.8,1.5-0.9,2.8,4s5.2,19.6,5.2,20.1
	s-1.3,1.4-0.6,3.1C81.5,114.8,81.9,115.4,82.5,115.7z"/>
<path class="st4" d="M74.4,85.5l-1.8-3c0.5,0.9,1.1,1.7,1.8,2.4c1.1,0.1,2.1-0.5,2.6-1.5l-1.6-2.7l1.7,2.6c0.1,0.1,0,0.1,0,0.1
	C76.6,84.5,75.6,85.3,74.4,85.5z"/>
<path class="st4" d="M81.5,101v0.1c0,0-4.4-14.5-3.4-15.1s0.9-2.6,0.9-2.6l0,0c0,0.2,0,0.4,0,0.7c0,0.8-0.2,1.5-0.7,2.1
	C78.1,87.7,80,95.6,81.5,101z"/>
<path class="st4" d="M84.9,112.2l0.7,2.6l-0.9-2.3c-0.9-0.2-1.8,0.2-2.3,0.9c0.1,0.8,0.3,1.6,0.6,2.4l-0.9-2.7
	c0.4-0.5,0.9-0.8,1.6-1C84.7,112,84.9,112.1,84.9,112.2z"/>
<path class="st5" d="M82,103.1l-0.3-1l0,0L82,103.1z"/>
<path class="st4" d="M84.4,110.4c-0.3-0.1-0.5-0.3-0.6-0.6l-1.6-5.8c0.2,0.7,0.3,1.2,0.4,1.6c0.5,1.6,1,3,1.6,4.5
	c0.3,0.1,0.6,0.3,0.9,0.5c0.4,0.3,0.7,0.8,0.9,1.2C85.7,111.2,85.1,110.7,84.4,110.4z"/>
<path class="st6" d="M76.5,81c2.1,0.6,2.3,3.1,2.3,3.1C78.5,82.9,77.6,81.8,76.5,81z"/>
<path class="st6" d="M82.4,107.4c-0.6,0-4.9-18.1-5-18.3c-0.1-0.7,0.2-0.6,0.2-0.6S82.9,107.4,82.4,107.4z"/>
<path class="st7" d="M76.8,98.5L76.8,98.5c-0.6,0-1.1-0.5-1.1-1.1l0,0l0,0c0-0.7,0.6-1.2,1.2-1.2c0,0,0,0,0,0h2c0.6,0,1,0.5,1,1.1
	c0,0,0,0,0,0l0,0c0,0.7-0.6,1.2-1.3,1.2L76.8,98.5z"/>
<path class="st7" d="M76.4,100.7c-0.6,0-1.1-0.5-1.1-1.1v-0.2c0-0.3,0.1-0.5,0.3-0.7c0.2-0.2,0.5-0.3,0.7-0.3l2.6,0.1
	c0.7,0,1.2,0.6,1.2,1.3l0,0l0,0c-0.1,0.6-0.6,1-1.1,1L76.4,100.7z"/>
<path class="st7" d="M76.6,103.1L76.6,103.1c-0.5,0-0.9-0.4-0.9-0.9c0,0,0,0,0-0.1v-0.2c0-0.7,0.6-1.2,1.2-1.1c0,0,0,0,0,0l2,0.1
	c0.3,0,0.5,0.1,0.7,0.4c0.2,0.2,0.3,0.5,0.3,0.8l0,0c0,0.7-0.6,1.2-1.3,1.2L76.6,103.1z"/>
<path class="st7" d="M77,105c-0.4,0-0.7-0.4-0.7-0.7c0,0,0,0,0,0v-0.4c0-0.4,0.3-0.8,0.7-0.8c0,0,0,0,0,0h1.7c0.5,0,0.8,0.4,0.8,0.9
	v0.2c0,0.5-0.4,0.9-0.8,0.9c0,0,0,0,0,0L77,105z"/>
<path class="st8" d="M89.8,98.5v5l0,0c0,0.1-0.1,0.2-0.2,0.2l-3.6-0.1c-0.1,0-0.2,0.1-0.2,0.1c-0.2,0.9-1.4,1.3-2.7,1.3l-4.1-0.1
	h-0.4c-0.5-0.1-0.9-0.6-0.9-1.1l0,0c0-0.5,0.4-0.9,1-0.9c0,0,0,0,0,0h-0.4l0,0c-0.6-0.1-1.1-0.6-1.1-1.2l0,0c0-0.6,0.5-1,1.1-1
	c0,0,0,0,0,0h-0.3c-0.6-0.1-1.1-0.6-1.1-1.2l0,0l0,0c0-0.6,0.6-1,1.1-1c-0.6-0.1-1-0.6-1-1.2l0,0c0-0.6,0.5-1,1.1-1c0,0,0,0,0,0h0.7
	l0,0c1.4,0,4.6,0,4.8,0.1c0.8,0.2,1.5,0.8,1.9,1.6l0,0l0.1,0.4c0,0.1,0.1,0.1,0.2,0.1h3.5C89.7,98.5,89.7,98.5,89.8,98.5z"/>
<path class="st9" d="M116.3,130.1l1.2,33.7c1.2,4.8,12.2,3.3,12.5-0.7c2.4-5.2,2.1-32.2,1.1-36.9C131.1,126.2,116,128,116.3,130.1z"
	/>
<path d="M141.9,208.5v1.5h-20.1c-0.4-1.1,0-2.3,0.9-3c1.1-1,4.1-1.3,6.8-3.6c3.3-2.9,8.9-1.1,11.4-0.3
	C141.4,203.2,142,203.5,141.9,208.5z"/>
<path class="st9" d="M129.4,203.4l-11.9-39.5c-0.9-4.3,1.4-9.5,5.5-10.3l0.1-0.1c4.9-2.3,5.7,0.1,8.1,5.7
	c7.1,19.6,10,34.3,10.7,46.3C137.1,206.7,133.8,204.5,129.4,203.4z"/>
<path d="M114.8,208.5v1.5H93.6c-0.4-1.1,0-2.3,0.9-3c1.1-1,5.2-1.3,7.9-3.6c3.3-2.9,8.9-1.1,11.4-0.3
	C114.3,203.2,114.9,203.5,114.8,208.5z"/>
<polygon class="st8" points="123.3,62.9 132.5,64 132.8,74.3 122.2,74.2 "/>
<path class="st8" d="M116.4,67c0,0,0.7-3.8,0.8-4.4l-0.9-0.4c0,0-0.1,0-0.1,0c-0.5-0.3-0.7-1-0.4-1.5l1.3-2.3l0.3-0.5
	c-0.1-0.4-0.3-0.8-0.4-1.3c0.1-0.7,0.3-1.3,0.5-2c0.3-1.1,0.8-2.1,1.5-3.1c1.8-2.7,4.9-4.1,8.1-3.7c3.7,0.5,10,0.7,9.1,10.8
	c-0.5,2.2-2.6,4.5-3.1,6.2c-0.3,1.5-2.6-0.4-4.3-0.5h-0.2c-0.3,2.9-2.3,5.4-5,6.5l0,0c-0.8,0.4-1.6,0.5-2.4,0.6l-2.2-0.2
	c-0.9-0.1-1.7-0.7-2.1-1.6C116.5,68.8,116.3,67.9,116.4,67z"/>
<path class="st10" d="M136.9,55.9c0.2-5.1-4.1-7.2-8.9-9.1c-2.9-1.2-7.5,1.2-9.2,4.8c9.7-0.8,7.5,2.8,6.8,11.5
	c0.7,0.2,1.4,0.3,2.1,0.4c0.7-0.6,2.5-2.9,2.5-2.9s-4.8,7.2,2.2,6.7C136.9,60.5,136.8,58.8,136.9,55.9z"/>
<path class="st8" d="M129.1,58.6c-1.2,0.2-1.1,1.7-1.2,2.8c-0.1,1.5-0.4,2.8,0.6,3c1,0.2,2.6-1.5,2.8-3
	C131.6,59,130.2,58.5,129.1,58.6z"/>
<path class="st11" d="M118.4,51.9l0.4-0.9l0.1-0.4c1.7-3.8,5.7-6.1,9.6-4.5l4.4,1.7c2.9,1.3,4.6,4.2,4.4,7.3l-0.6,3.8l-3.5-1
	l-0.3-0.1l-0.2-0.1l-7.3-2.2l0,0l-7.5-2.2L118.4,51.9z"/>
<path class="st9" d="M114.8,51.3c1.9,0.2,3.6,0.4,3.6,0.4c2.5,0.8,4.8,2.1,6.9,3.7c-0.3,0-5.3-0.5-7.1-0.8c-1.4-0.2-2.8-0.4-4.2-0.8
	c-1.9-0.5-3.1-1.3-3.7-2.9C111.8,51,113.3,51.1,114.8,51.3z"/>
<path class="st12" d="M116.8,56.5c0.1-0.7,0.3-1.3,0.5-2l0.8,0.2c1.8,0.2,6.8,0.8,7.1,0.8l0,0l7.3,2.2c0,0,0,0,0,0.1h0.2l0.3,0.1
	c-5.4,0.2-10.8,1.1-16.2,0.5l0.3-0.5C117.1,57.4,117,57,116.8,56.5z"/>
<path class="st12" d="M118.8,69.8c1-0.1,1.9-0.4,2.8-0.9c0.9-0.4,1.7-1,2.5-1.7c0.7-0.7,1.3-1.5,1.5-2.5c-0.1,1.1-0.3,2.2-0.6,3.3
	c-0.3,1.1-0.8,2-1.5,2.9l0,0c-0.8,0.4-1.6,0.5-2.4,0.6l-2.2-0.2c-0.9-0.1-1.7-0.7-2.1-1.6C117.5,69.8,118.1,69.9,118.8,69.8z"/>
<path class="st11" d="M110.3,115.3c0.5-8.8,2.1-22,2.1-22.2v-0.1c2.2-11,9.8-18.8,9.8-18.8l0.9-0.1l0.3-0.7c0.5-1.2,1.6-2,2.9-2.3
	l6.5-1.1l0.2,2.7c13.6,8.9,0.6,39.8-2.4,48.9c-6.6,0.7-13,3.9-18.6,1.2c-0.6-0.3-1.2-0.7-1.7-1.1l-0.2-0.1
	C110,119.5,110.1,117.4,110.3,115.3z"/>
<path class="st11" d="M102.7,157.8l7.4-26.8l0.8-3.1c0.1-0.4,0.8-0.4,2,0c4.3,1.4,14.1,7.1,14.1,7.1c0,0.2,0,0.4,0,0.5
	c-0.8,5.4-7.8,22.4-11.4,26.4c-0.9,2.2-5.2,2.1-8.6,0.7c-2.5-1-4.4-2.7-4.3-4.7C102.7,158,102.7,157.9,102.7,157.8z"/>
<path class="st11" d="M102.6,158.1c0-0.1,0-0.2,0-0.2c0.7-2.5,2.6-4.4,5.1-5.2c0.9-0.3,1.9-0.4,2.8-0.3h0.2c4.2,0.4,5.2,5.4,4.8,9.8
	c1,15.8,2.2,32.3-0.6,44c-2.4-0.1-4.7-0.5-7-1.1c-1.7-0.5-3.3-1.2-4.8-2.2l-0.7-43.3C102.5,159,102.5,158.6,102.6,158.1z"/>
<path class="st11" d="M110.1,121.6h0.1l2.3-0.4l18-3.4l0.5,8.4c0.3,3.7-1.3,7.2-4.2,9.5c-1.6,1.2-3.4,1.9-5.4,2l-10.5,0.7h-0.9
	V121.6z"/>
<path class="st13" d="M102.7,158.2c0-0.1,0-0.1,0-0.2l7.4-26.8v-4.9l0.2-0.4v-10.6c0.5-8.8,2.1-22,2.1-22.2s-0.1,0,0-0.1
	s0.1-0.1,0.1-0.2c0.9-1.5,2-2.7,2.9-4.1l12.3-1.3c-4,8.6-6.7,16.6-5.7,22.7c-4.9,1.6-7.8,5.8-9.6,11l0,0c0.6,2.2,0.7,4.6,0.4,6.8
	c-0.4,3.5-1,7-1.9,10.4c-1.2,5.1-2.6,10.2-3.2,14.2c-0.5,3.1-0.6,5.7,0.1,7.1c-0.4,1-0.7,2-0.9,3.1c-2.2,10.6-1.5,37,1,42.2
	c-1.7-0.5-3.3-1.2-4.8-2.2l-0.7-43.3C102.5,159.1,102.6,158.6,102.7,158.2z"/>
<path class="st11" d="M118.1,102.1L118.1,102.1c0,1.6-0.6,3.1-1.8,4.1c-1.7,1.5-4,2.1-6.2,1.6l-23.8-3.7L87,98l25.3-0.8
	C115.3,97,117.8,99.2,118.1,102.1z"/>
<path class="st11" d="M127,76.5c-3.4-1.9-7.5,1.9-8.9,4.6l-12,20.4l10.9,3.9l11.5-18.8C132.4,79.7,126.9,76.5,127,76.5z"/>
<g>
	<polygon class="st14" points="85.4,193.1 85.4,194.3 85.9,194.3 85.9,193.4 85.9,193.1 	"/>
	<polygon class="st15" points="85.9,193.4 86.3,193.5 86.3,193.1 85.9,193.1 	"/>
	<polygon class="st14" points="84.9,198 84.9,196.2 87.7,196.2 87.7,191.3 86.1,191.3 86.1,191.8 84,191.8 84,191.8 84,192.2 
		84,197.1 83.6,197.1 83.6,198 	"/>
	<polygon class="st14" points="83.6,191.8 83.1,191.8 83.2,191.3 85.6,191.3 85.6,190 80.2,190 80.2,191.3 82.2,191.3 82.2,196.6 
		83.6,196.6 83.6,192.1 	"/>
	<polygon class="st15" points="83.6,191.8 83.6,192.1 84,192.2 84,191.8 	"/>
	<polygon class="st15" points="86.4,190.9 86.1,190.9 86.1,191.3 86.3,191.3 	"/>
	<polygon class="st15" points="83.6,197.5 83.6,197.1 83.1,197.1 83.1,197.3 83.1,197.3 	"/>
	<line class="st14" x1="85.9" y1="193.4" x2="86.3" y2="193.5"/>
	<polygon class="st16" points="84.9,192.7 84.9,194.8 86.3,194.8 86.3,193.5 85.9,193.4 85.9,194.3 85.4,194.3 85.4,193.1 
		86.8,193.1 86.9,192.7 	"/>
	<polygon class="st14" points="84,191.8 84,191.8 83.6,191.8 83.6,191.8 83.1,191.8 83.2,191.3 85.6,191.3 85.6,190 80.2,190 
		80.2,191.3 82.2,191.3 82.2,196.6 83.6,196.6 83.6,192.1 84,192.2 84,197.1 	"/>
	<polygon class="st16" points="84,192.2 83.6,192.1 83.6,196.6 82.2,196.6 82.2,191.3 80.2,191.3 80.2,190 85.6,190 85.6,191.3 
		83.2,191.3 83.1,191.8 83.6,191.8 83.6,191.8 84,191.8 84,191.8 86.1,191.8 86.1,189.5 79.7,189.5 79.7,191.8 81.8,191.8 
		81.8,197.1 83.1,197.1 83.1,197.1 83.6,197.1 84,197.1 	"/>
	<polygon class="st16" points="88.1,196.6 88.1,190.9 86.4,190.9 86.3,191.3 87.7,191.3 87.7,196.2 84.9,196.2 84.9,198 83.6,198 
		83.6,197.5 83.1,197.3 83.1,198.4 85.4,198.4 85.4,196.6 	"/>
</g>
</svg>
