<?xml version="1.0" encoding="utf-8"?>
<!-- Generator: Adobe Illustrator 24.1.2, SVG Export Plug-In . SVG Version: 6.00 Build 0)  -->
<svg version="1.1" id="Layer_2_1_" xmlns="http://www.w3.org/2000/svg" xmlns:xlink="http://www.w3.org/1999/xlink" x="0px" y="0px"
	 viewBox="0 0 210 210" style="enable-background:new 0 0 210 210;" xml:space="preserve">
<style type="text/css">
	.st0{fill:#3C3C3B;}
	.st1{fill:#E94E1B;}
	.st2{fill:#575756;}
	.st3{fill:#B2B2B2;}
	.st4{fill:#878787;}
	.st5{fill:#9D9D9C;}
	.st6{fill:#FFFFFF;}
	.st7{fill:#EDEDED;}
	.st8{fill:#33A855;}
	.st9{fill:#FAC831;}
	.st10{fill:#D94919;}
	.st11{opacity:0.1;fill:#1D1D1B;enable-background:new    ;}
	.st12{fill:#FFAF82;}
	.st13{opacity:0.1;fill:#131313;enable-background:new    ;}
	.st14{fill:#F9A378;}
	.st15{fill:#16191E;}
	.st16{opacity:7.000000e-02;fill:#1D1D1B;enable-background:new    ;}
	.st17{opacity:0.15;fill:#131313;enable-background:new    ;}
	.st18{fill:none;}
	.st19{fill:#39803D;}
</style>
<path class="st0" d="M109.9,187.3h1.6v-3.5h-1.6c-4.5,0-8.2-3.7-8.2-8.2v-42.9c0-6.7,5.5-12.2,12.2-12.2h11.4c2,0,4,0.8,5.4,2.2
	l5.8,5.8l2.5-2.5l-5.8-5.8c-2.1-2.1-4.9-3.3-7.9-3.3h-11.4c-8.7,0-15.7,7-15.7,15.7v42.9C98.2,182,103.4,187.3,109.9,187.3z"/>
<path class="st1" d="M119.4,156.6c0-2.2,1.8-4,4-4h9.2c2.2,0,4,1.8,4,4v6.4h-17.2L119.4,156.6L119.4,156.6z M134.9,156.6
	c0-1.3-1-2.3-2.3-2.3h-9.2c-1.3,0-2.3,1-2.3,2.3v4.7h13.7V156.6z"/>
<rect x="109.2" y="183.1" class="st2" width="1.3" height="4.8"/>
<path class="st3" d="M144,187.9h3.5v-49.8c0-2.4-0.9-4.7-2.6-6.4l-7.4-7.4l-2.5,2.5l7.4,7.4c1,1,1.6,2.4,1.6,3.9V187.9L144,187.9z"
	/>
<path class="st4" d="M143.1,185h4.1c0.6,0,1.1,0.5,1.1,1.1v4.8h-5.2V185z"/>
<rect x="139.5" y="198.7" class="st0" width="16.7" height="1.6"/>
<path class="st2" d="M137,190.9l2.8,7.8h17.8l-1.7-4.7c-0.7-1.9-2.5-3.1-4.5-3.1L137,190.9z"/>
<path class="st1" d="M112.8,173.6v21.2h30.4v-21.2c0-8.3-6.7-15-15-15l0,0h-0.3c-4.9,0-9.5,2.4-12.3,6.4
	C113.8,167.5,112.9,170.5,112.8,173.6L112.8,173.6z"/>
<path class="st1" d="M125.3,171.1v-12.4c0-0.4,0.3-0.8,0.8-0.9c0.6-0.1,1.2-0.1,1.8-0.1h0.3c0.6,0,1.2,0,1.8,0.1
	c0.4,0.1,0.8,0.4,0.8,0.9v12.4c0,1.1,0.9,2,2,2h10.5l0.9,0.9v21.8H112v-21.8l0.9-0.9h10.5C124.4,173,125.3,172.1,125.3,171.1z"/>
<ellipse class="st2" cx="128.3" cy="201.1" rx="11.2" ry="2.4"/>
<circle class="st5" cx="141.5" cy="204.7" r="2.8"/>
<path class="st0" d="M140.6,205.4l0.1,0.1c0.3,0.3,0.9,0.4,1.2,0.1l3.1-2.1v-3.1h-3v2l-1.5,1.5C140.2,204.4,140.2,205,140.6,205.4
	C140.6,205.3,140.6,205.3,140.6,205.4z"/>
<path class="st5" d="M141,204.7c0,0.3,0.2,0.5,0.5,0.5c0,0,0,0,0,0c0.3,0,0.5-0.2,0.5-0.5c0-0.3-0.2-0.5-0.5-0.5c0,0,0,0,0,0
	C141.2,204.2,141,204.4,141,204.7C141,204.7,141,204.7,141,204.7z"/>
<circle class="st5" cx="112.8" cy="204.7" r="2.8"/>
<path class="st0" d="M111.9,205.4l0.1,0.1c0.3,0.3,0.9,0.4,1.2,0.1l3.1-2.1v-3.1h-3v2l-1.5,1.5C111.5,204.4,111.5,205,111.9,205.4z"
	/>
<path class="st5" d="M112.2,204.7c0,0.3,0.2,0.5,0.5,0.5c0,0,0,0,0,0c0.3,0,0.5-0.2,0.5-0.5c0-0.3-0.2-0.5-0.5-0.5c0,0,0,0,0,0
	C112.5,204.2,112.2,204.4,112.2,204.7C112.2,204.7,112.2,204.7,112.2,204.7z"/>
<path class="st6" d="M123,181.9v5.9c0,0.3,0.2,0.5,0.5,0.5c0,0,0,0,0,0h9.1c0.3,0,0.5-0.2,0.5-0.5c0,0,0,0,0,0v-5.9
	c0-0.3-0.2-0.5-0.5-0.5c0,0,0,0,0,0h-9.1C123.2,181.4,123,181.6,123,181.9C123,181.8,123,181.9,123,181.9z"/>
<path class="st0" d="M131.8,182.2c-0.2,0-0.5,0.2-0.5,0.4c0,0,0,0,0,0v4.5c0,0.2,0.2,0.5,0.4,0.5c0,0,0,0,0,0l0,0
	c0.2,0,0.4-0.2,0.4-0.4v-4.5C132.2,182.4,132,182.2,131.8,182.2z"/>
<path class="st0" d="M130.3,182.2c-0.2,0-0.5,0.2-0.5,0.4c0,0,0,0,0,0v4.5c0,0.2,0.2,0.5,0.4,0.5c0,0,0,0,0,0l0,0
	c0.2,0,0.4-0.2,0.4-0.4v-4.5C130.7,182.4,130.5,182.2,130.3,182.2z"/>
<path class="st0" d="M128.8,182.2c-0.2,0-0.4,0.2-0.4,0.4v4.5c0,0.2,0.2,0.4,0.4,0.4l0,0c0.2,0,0.4-0.2,0.4-0.4v-4.5
	C129.2,182.4,129,182.2,128.8,182.2z"/>
<path class="st0" d="M127.3,182.2c-0.2,0-0.4,0.2-0.4,0.4v4.5c0,0.2,0.2,0.4,0.4,0.4l0,0c0.2,0,0.5-0.2,0.5-0.4c0,0,0,0,0,0v-4.5
	C127.8,182.4,127.5,182.2,127.3,182.2C127.3,182.2,127.3,182.2,127.3,182.2z"/>
<path class="st0" d="M125.8,182.2c-0.2,0-0.5,0.2-0.5,0.4c0,0,0,0,0,0v4.5c0,0.2,0.2,0.5,0.4,0.5c0,0,0,0,0,0l0,0
	c0.2,0,0.4-0.2,0.4-0.4v-4.5C126.3,182.4,126.1,182.2,125.8,182.2z"/>
<path class="st0" d="M124.3,182.2c-0.2,0-0.4,0.2-0.4,0.4v4.5c0,0.2,0.2,0.4,0.4,0.4l0,0c0.2,0,0.4-0.2,0.4-0.4v-4.5
	C124.8,182.4,124.6,182.2,124.3,182.2z"/>
<path class="st7" d="M113.1,170.6h7.7c0.6,0,1.1-0.5,1.1-1.1V166c0-0.6-0.5-1.1-1.1-1.1h-5.3C114.4,166.6,113.5,168.6,113.1,170.6z"
	/>
<rect x="118.7" y="166.2" class="st8" width="2" height="1.8"/>
<rect x="116" y="166.2" class="st9" width="2" height="1.8"/>
<rect x="110.6" y="198.8" class="st0" width="35.5" height="2.3"/>
<path class="st10" d="M112.4,190.9h31.2c1.2,0,2.1,0.9,2.1,2.1v5.8h-35.4V193C110.3,191.8,111.2,190.9,112.4,190.9
	C112.4,190.9,112.4,190.9,112.4,190.9z"/>
<rect x="111.9" y="173.9" class="st0" width="32.1" height="3.9"/>
<rect x="111.9" y="178.4" class="st0" width="32.1" height="1.3"/>
<path class="st11" d="M111.6,193c0,0.5,0.4,0.9,0.8,0.9c0,0,0,0,0,0h31c0.5,0,0.9-0.4,0.9-0.9l0,0c0-0.5-0.4-0.9-0.9-0.9h-31
	C112,192.1,111.6,192.5,111.6,193C111.6,193,111.6,193,111.6,193z"/>
<path class="st11" d="M111.6,195.7c0,0.5,0.4,0.9,0.8,0.9c0,0,0,0,0,0h31c0.5,0,0.9-0.4,0.9-0.9l0,0c0-0.5-0.4-0.9-0.9-0.9h-31
	C112,194.8,111.6,195.2,111.6,195.7C111.6,195.7,111.6,195.7,111.6,195.7z"/>
<circle class="st7" cx="135.1" cy="167.8" r="2.7"/>
<path class="st0" d="M135.2,166.5c0,0.3,0.3,0.6,0.6,0.6s0.6-0.3,0.6-0.6c0-0.3-0.2-0.6-0.6-0.6c0,0,0,0,0,0
	C135.5,165.9,135.2,166.2,135.2,166.5z"/>
<path class="st0" d="M110.3,189h1.7c1.1-2.2,1.1-4.7,0-6.9h-1.7L110.3,189z"/>
<path class="st12" d="M94.4,97l-0.6,9.2v0.8l-1.9,0.1l-1.6,0.9l-2,1.1l-1.5,0.8l-0.3-4l-0.7-8.7c0.8,0.2,1.6,0.4,2.4,0.4
	c0.7,0.1,1.5,0.1,2.2,0c0.8,0,1.5-0.1,2.3-0.3C93.2,97.3,93.8,97.2,94.4,97z"/>
<path class="st7" d="M90.1,80L90.1,80c-2.4-0.1-4.3,1.8-4.4,4.1l0.1,15.2c2.8,0.9,5.8,1,8.7,0.2l0.4-11.4
	C95.2,83.6,92.4,80.1,90.1,80z"/>
<path class="st12" d="M111.8,115.3c0.5,0.3,1,0.8,1.3,1.3c0.7,1.1,1.2,2.3,1.6,3.6c0.5,1.6-3.4,2.3-3.7,2.1
	c-0.3-0.2-0.4-0.5-0.3-0.8c0.2-0.7,1.5-0.8,1.6-1.5c0-0.3-0.1-0.5-0.3-0.7c-0.4-0.6-1-1.1-1.7-0.9c-0.4,0.1-0.7,0.5-1.1,0.8
	c-1.2,0.9-2.7,1-4,0.5c-1-0.6-1-2-0.8-3.2c0.1-0.5,0.4-1,0.8-1.3C107.4,115,109.6,115,111.8,115.3z"/>
<path class="st12" d="M106.2,115.3l-1.4,3.7l-0.1,0.3l-17.6-6.5c-0.2-1.3,0.2-2.6,1.1-3.6c0.6-0.7,1.2-1.4,2-1.9
	c1.3-0.9,2.7-1.4,3.5-1c0,0,0.1,0.1,0.2,0.1L106.2,115.3z"/>
<path class="st13" d="M104.8,119l-0.1,0.3l-17.6-6.5c-0.2-0.9-0.3-1.9-0.4-2.8l3.6-23.3v23.9L104.8,119z"/>
<path d="M105.7,208.7c0.3,1.4-5.2,1.3-5.8,1.3l-10.7-0.2c-3.1-0.7-1-5.9-0.9-6.2c0.2-0.6,0.7-1,1.2-1.3l0,0c0.5-0.2,1.9-0.3,4.8,1
	l0,0h0.2c3,1.2,5.2,1.9,7.9,3C103.8,206.7,105,207.5,105.7,208.7z"/>
<path class="st12" d="M101,205.8c-2.3,1.7-5.6,1.2-8.9-0.9c-1.2-0.7-2.4-1.1-3.8-1.2c0,0,0-0.1,0-0.1c-0.4-5-0.9-9.4-1.4-13.1
	c-0.9-6.2-1.8-10.8-2.3-14.6c-0.1-0.8-0.2-1.6-0.3-2.4c-0.1-0.5-0.1-1.1-0.1-1.6c-0.3-3.5,0.4-7,2-10.2c-2.4-6.3-4.5-17.6-6-25.2
	c0,0.2,0,0.5,0,0.7c-0.1,1.4-0.1,2.8-0.2,4.2c-0.2,5.6-0.4,10.6-0.9,16.7c-0.1,1.4-0.2,2.9-0.4,4.4c-0.5,2-1.2,5.3-1.9,9.1
	c-0.1,0.6-0.2,1.2-0.3,1.8c-0.2,0.8-0.3,1.7-0.5,2.6c-0.1,0.3-0.1,0.6-0.2,0.9c-1.6,8.9-3.3,18.9-4.1,23.6l0,0l-3,1.6l-2.5,1.3
	c0-0.4,0-0.8,0-1.2v-0.2c0-4.6-0.2-8.6-0.5-12.1c-0.4-6.1-0.9-10.9-0.9-14.9c0-0.6,0-1.1,0-1.7c-0.1-4.2,1.1-8.4,3.4-12
	c0,0,0,0,0-0.1c0-0.1,0-0.1,0-0.2c-1.2-6.1-1.5-12.4-2.3-25.4c-0.2-2.6,2.8-21.4,2.8-21.6h0.4l4.2-0.2l8.1-0.4l2.5-0.1l4.9-0.3l0,0
	c0,0.1,0.1,0.3,0.1,0.4l0.1,0.3c4.1,11.5,6.5,23.6,6.9,35.8c0.1,3.9,0.6,7.2,0.2,10.9l-0.6,10.2l-0.2,2.7l-0.1,1.5v0.7l-1.6,25
	c-0.1,0.9,0.4,1.8,1.3,2.1C97.1,203.6,99.1,205,101,205.8z"/>
<path d="M83.6,208.7c0.3,1.4-5.2,1.3-5.8,1.3l-10.7-0.2c-3.1-0.7-1-5.9-0.9-6.2c0.2-0.6,0.7-1,1.2-1.3l0,0c0.5-0.2,1.9-0.3,4.8,1
	l0,0h0.1c3,1.2,5.2,1.9,7.9,3C81.7,206.7,82.9,207.5,83.6,208.7z"/>
<path class="st12" d="M71.7,200.7l0.5-4.8H67c0.3,2.4-0.9,4.9-0.7,7.7c0,0,0,0.1,0,0.1c1.3,0.1,2.6,0.6,3.8,1.2
	c3.3,2,6.6,2.5,8.9,0.9c-1.9-0.8-4-2.2-5.9-2.9C72.2,202.4,71.7,201.6,71.7,200.7z"/>
<path class="st13" d="M64.9,173.4h11.7c-0.2,1.1-0.4,2.3-0.7,3.5c-5.1,0.7-8.2,3.4-10.1,13.1C65.4,183.2,64.7,177.9,64.9,173.4z"/>
<path class="st13" d="M95.5,173.4l-0.2,2.2c-4,0.6-7.5,5.3-8.4,14.8c-1.1-7.5-2.2-12.7-2.6-17L95.5,173.4z"/>
<path class="st14" d="M58,131.5c-0.2-0.6,0.1-1.2,0.7-1.4l0,0c0.2-0.1,0.5-0.1,0.7,0c0.2,0.1,0.4,0.3,0.5,0.5
	c0.1,1.6,0.6,3.1,1.4,4.5c0.5,0.7,0.9,1.8-0.6,1.4c-0.7-0.3-1.1-0.9-1.3-1.6L58,131.5z"/>
<path class="st15" d="M65.8,78.7c1.6-2.2,1.9-5.3,1.8-8.3s-0.5-5.8-0.5-8.7c0.2-3.8,1.6-7.4,4.1-10.2c1.7-1.8,4-0.2,6.2-1
	c2-0.7,4.1-1.1,6-0.1s2.8,0.1,4.1,2.4c3.9,6.8,2.7,14.8,1.5,20.4s-3.6,10.4-8,11.5c-3.2,0.8-6.6-0.4-9.6,0.9c0.3-0.8,0.7-1.5,1-2.2
	c-1.9,0.9-3.9,1.3-6,1.2c1-1.5,2.3-2.8,3.8-3.8c-1.9,0.2-3.7,0.8-5.4,1.6c1.8-1.6,3.1-3.6,4-5.8C68,77.3,67,78.1,65.8,78.7z"/>
<path class="st7" d="M101,174c-1.5,0.3-3.4,0.6-5.6,0.9c-3.2,0.4-6.9,0.7-10.8,0.9c-2.9,0.1-5.8,0.2-8.6,0.2
	c-3.7,0-7.5-0.3-11.2-0.9c-1.1-0.2-2.2-0.5-3.2-1c-0.2-13.8,0.7-27.5,2.8-41.1c0.5-3.5,1.1-6.5,1.7-9c0,0,0,0,0-0.1
	c0.8-3.8,1.6-6.5,2.1-8.2c0,0,0,0,0-0.1c0.6-1.9,0.9-2.8,0.9-2.9c-1.7-5.2-3.6-10-4.2-14.7l-0.1-0.5c-0.2-1.7-0.4-3.3-0.7-5
	c-0.5-3.5-1.8-5-3-8.8c1.6-2.3,12-5.8,12.6-6.1c3.4-0.4,6.9-0.4,10.3,0.1c2.7,1,5.7,1.6,6.9,2.4c1,8.1-0.5,21.4-2.4,32
	c0.1,0.3,0.2,0.7,0.4,1c0,0.2,0.1,0.3,0.2,0.4l0.1,0.3c2.2,5.2,7,16.3,11.4,55.8C100.7,171.1,100.9,172.5,101,174z"/>
<path class="st7" d="M65.3,81c-2.8,1.2-3.4,1.6-4.2,2.7c1,2.9,1.7,5.9,2.1,9c0.2,1.8,0.3,3.2,0.6,5c0.2,1.4,1.2,1,1.6,2.5
	C71.8,94.7,70.2,83.5,65.3,81z"/>
<path class="st7" d="M80.8,97.2c0.1,3.6-2.7,6.6-6.3,6.8c-3.5,0-5.9-1.7-6.1-6.2s4.5-7.5,5.4-11.5C74.6,82.8,80.8,93.5,80.8,97.2z"
	/>
<path class="st16" d="M75.4,102.5c-3.7,0-6.2-1.8-6.4-6.4c0-0.5,0-0.9,0.1-1.4c-0.5,1-0.7,2.1-0.6,3.2c0.2,4.4,2.6,6.1,6.1,6.1
	c2.4,0,4.5-1.4,5.6-3.6C78.9,101.7,77.2,102.5,75.4,102.5z"/>
<path class="st7" d="M80.5,96.3c-0.1,3.6,2.7,6.7,6.3,6.8c3.5,0,5.9-1.8,6.1-6.2c0.2-4.6-4.5-7.5-5.4-11.5
	C86.7,81.9,80.5,92.6,80.5,96.3z"/>
<path class="st16" d="M86,101.6c3.7,0,6.2-1.8,6.4-6.4c0-0.5,0-0.9-0.1-1.4c0.4,1,0.6,2.1,0.6,3.2c-0.2,4.4-2.6,6.2-6.1,6.2
	c-2.4,0-4.5-1.4-5.6-3.6C82.5,100.9,84.2,101.6,86,101.6z"/>
<path class="st8" d="M101,169.5c-7.8,2.3-16.4,2.8-26.2,2c-4-0.3-7-3.8-6.7-7.8c1.1-13.7,1.6-32.1,1-51c8.8,1.2,15.7,1.4,19.3-0.5
	C96.1,127.8,98.8,147.7,101,169.5z"/>
<path class="st7" d="M84,77.8c-3.4-0.5-6.9-0.5-10.3-0.1c-0.2,0.1-3.5,1.3-5.6,2.1c3.4,2.2,4.6,5.9,5.6,11.2
	c2.2,0.2,11.1,0,13.4-0.1c1.1-3.9,1.3-7.9,0.6-11.9C86.2,78.4,85.5,78.3,84,77.8z"/>
<path class="st12" d="M84,77.5c2.7,8.6-8.8,8.8-10.3,0.2l0.2-7.4H84V77.5z"/>
<path class="st12" d="M79.1,50.9h0.2c4.6,0,8.4,3.7,8.4,8.4c0,0,0,0,0,0c0,0.9-0.1,1.7-0.2,2.6c0.2-0.1,0.4-0.2,0.6-0.1
	c0.8,0.2,1.1,1.5,0.9,3c-0.1,1-0.6,1.9-1.4,2.4c-0.1,0-0.3,0-0.4,0c-0.1,0-0.1,0-0.2-0.1c-0.3,1.8-1,3.6-2.1,5.1
	c-1,1.1-1.7,2-2.3,2.6C81,76.8,78,77,76.1,75.3c-0.2-0.1-0.3-0.3-0.5-0.5c-0.7-0.6-1.3-1.5-2.3-2.6c-1-1.5-1.7-3.3-2.1-5.1l-0.1,0.1
	c-0.1,0-0.3,0-0.4,0c-0.8-0.5-1.3-1.4-1.4-2.4c-0.3-1.5,0.1-2.9,0.9-3c0.2,0,0.4,0,0.6,0.1c-0.1-0.9-0.2-1.7-0.2-2.6
	c0-4.6,3.7-8.4,8.4-8.4c0,0,0,0,0,0H79.1z"/>
<path class="st15" d="M76.5,60c-1.1,1.7-2.4,2.7-4.1,2.5c0.9-0.4,1.4-1.7,1.8-2.7c-0.7,0.6-1.1,1.5-2,1.7c0.7-0.8,0.1-1.4,0.9-3.1
	c-1,2.1-2.6,4.6-4.2,4.6c-0.4-2.8-1.1-7.8,2.9-12.1c1.5-1.6,9.6-5.8,15.4,1.2c1.2,1.5,1.9,5.6,2.2,8c-3-7.7-6.8,5.6-15.5,2.8
	C75.1,62.3,76.1,61.3,76.5,60z"/>
<path class="st12" d="M59.5,129.6l-4.4-0.1l-1.4-24.1c0.4-1.8,2.1-3,3.9-2.7h0.1c2.3,0.1,4.1,2.1,4,4.4c0,0,0,0,0,0L59.5,129.6z"/>
<path class="st14" d="M58,135.2c0.1-0.5,0.5-1,1.1-0.9c0,0,0.1,0,0.1,0l0,0c0.5,0.1,0.8,0.6,0.8,1.1l-0.8,3.9c-0.1,0.6-0.3,1-1,0.9
	c-0.4-0.2-0.7-0.7-0.5-1.1L58,135.2z"/>
<path class="st14" d="M56,135.3c0-0.6,0.4-1,1-1c0,0,0.1,0,0.1,0l0,0c0.5,0.1,0.9,0.5,0.9,1l-0.4,4c0,0.6-0.3,1.1-0.9,1
	c-0.4-0.2-0.7-0.6-0.7-1.1L56,135.3z"/>
<path class="st14" d="M54.2,134.9c0-0.6,0.4-1,0.9-1.1c0,0,0,0,0.1,0l0,0c0.5,0,0.9,0.4,0.9,0.9v3.8c0,0.6-0.1,1-0.7,1
	c-0.4-0.1-0.7-0.5-0.7-0.9L54.2,134.9z"/>
<path class="st14" d="M52.5,134.6c0-0.5,0.3-1,0.8-1l0,0c0.5,0,0.9,0.3,0.9,0.8l0.2,3.6c0.1,0.5-0.1,1.1-0.6,1
	c-0.4-0.1-0.7-0.4-0.8-0.8L52.5,134.6z"/>
<path class="st12" d="M58.8,136.9L58.8,136.9c-0.5-0.1-0.9-0.6-0.8-1.1c-0.1,0.5-0.5,0.9-1,0.8c0,0,0,0,0,0l0,0
	c-0.5-0.1-0.9-0.6-0.8-1.1v-0.3c-0.1,0.5-0.5,0.9-1.1,0.8c0,0,0,0,0,0l0,0c-0.5-0.1-0.9-0.6-0.8-1.1l0.1-0.3
	c-0.1,0.5-0.5,0.8-0.9,0.7c0,0-0.1,0-0.1,0l0,0c-0.5-0.1-0.8-0.5-0.7-0.9c0,0,0,0,0-0.1l0.1-0.4c0,0,0.5-4,2.2-5.6
	c0,0,0.1,0,0.1-0.1l0,0l0.6-3.1c0-0.1,0.1-0.1,0.2-0.1c0,0,0,0,0,0h0.1l2,0.4l1.8,2.7l-0.2,0.9v0.1c0.9,2,1.1,4.3,0.5,6.5l-0.1,0.6
	c0,0.5-0.4,0.9-0.9,0.8C58.9,136.9,58.8,136.9,58.8,136.9z"/>
<path class="st17" d="M74.2,113.3c-0.3,0.2-0.6,0.5-0.9,0.7c-1.6,1.6-3,3.5-4,5.5c-0.8,1.5-1.4,3-2,4.6l0,0c-0.5,1.5-1.1,3-1.5,4.6
	c-0.5,1.6-0.9,3.1-1.3,4.8v-0.5c0.5-3.5,1.1-6.5,1.7-9c0,0,0,0,0-0.1c0.8-3.8,1.6-6.5,2.1-8.2c0,0,0-0.1,0-0.1
	c0.6-1.9,0.9-2.8,0.9-2.9c-1.7-5.2-3.6-10-4.2-14.7l-0.1-0.5l2.2-10C68.1,98,69.1,106.6,74.2,113.3z"/>
<path class="st12" d="M64.5,100.5L60.4,111l-0.7-0.6l-6-5l2.6-7.8c1.9,1.4,4.1,2.3,6.4,2.7C63.3,100.4,63.9,100.5,64.5,100.5z"/>
<path class="st7" d="M66,96.7l-1.1,2.7l-0.4,1.1c-0.6,0-1.2-0.2-1.8-0.2c-2.3-0.4-4.5-1.3-6.4-2.7l4.2-12.7c1.6-3.6,4.2-3,5.4-2.5
	C67.5,86.6,67.6,91.3,66,96.7z"/>
<path class="st11" d="M69.3,135.9c-0.1,10.3-0.6,19.8-1.2,27.8c-0.3,4,2.7,7.5,6.7,7.8c9.2,0.7,17.3,0.3,24.7-1.7
	C84.9,160,73.9,151.4,69.3,135.9z"/>
<g>
	<polygon class="st18" points="78.1,163 78.1,163.9 78.5,163.9 78.5,163.2 78.5,163 	"/>
	<polygon class="st19" points="78.5,163.2 78.8,163.3 78.8,163 78.5,163 	"/>
	<polygon class="st18" points="77.8,166.6 77.8,165.2 79.8,165.2 79.8,161.6 78.6,161.6 78.6,162 77.1,162 77.1,162 77.1,162.3 
		77.1,165.9 76.8,165.9 76.8,166.6 	"/>
	<polygon class="st18" points="76.8,162 76.4,162 76.5,161.6 78.3,161.6 78.3,160.6 74.2,160.6 74.2,161.6 75.8,161.6 75.8,165.6 
		76.8,165.6 76.8,162.2 	"/>
	<polygon class="st19" points="76.8,162 76.8,162.2 77.1,162.3 77.1,162 	"/>
	<polygon class="st19" points="78.9,161.3 78.6,161.3 78.6,161.6 78.8,161.6 	"/>
	<polygon class="st19" points="76.8,166.2 76.8,165.9 76.4,165.9 76.4,166.1 76.4,166.1 	"/>
	<line class="st18" x1="78.5" y1="163.2" x2="78.8" y2="163.3"/>
	<polygon class="st6" points="77.8,162.6 77.8,164.2 78.8,164.2 78.8,163.3 78.5,163.2 78.5,163.9 78.1,163.9 78.1,163 79.2,163 
		79.3,162.6 	"/>
	<polygon class="st18" points="77.1,162 77.1,162 76.8,162 76.8,162 76.4,162 76.5,161.6 78.3,161.6 78.3,160.6 74.2,160.6 
		74.2,161.6 75.8,161.6 75.8,165.6 76.8,165.6 76.8,162.2 77.1,162.3 77.1,165.9 	"/>
	<polygon class="st6" points="77.1,162.3 76.8,162.2 76.8,165.6 75.8,165.6 75.8,161.6 74.2,161.6 74.2,160.6 78.3,160.6 
		78.3,161.6 76.5,161.6 76.4,162 76.8,162 76.8,162 77.1,162 77.1,162 78.6,162 78.6,160.3 73.9,160.3 73.9,162 75.4,162 
		75.4,165.9 76.4,165.9 76.4,165.9 76.8,165.9 77.1,165.9 	"/>
	<polygon class="st6" points="80.2,165.6 80.2,161.3 78.9,161.3 78.8,161.6 79.8,161.6 79.8,165.2 77.8,165.2 77.8,166.6 
		76.8,166.6 76.8,166.2 76.4,166.1 76.4,167 78.1,167 78.1,165.6 	"/>
</g>
</svg>
