<svg id="Layer_2" data-name="Layer 2" xmlns="http://www.w3.org/2000/svg" xmlns:xlink="http://www.w3.org/1999/xlink" viewBox="0 0 210 200"><defs><style>.cls-1{fill:#3c3c3b;}.cls-2,.cls-4{fill:#292929;}.cls-3{fill:#242424;}.cls-4{opacity:0.63;}.cls-11,.cls-13,.cls-16,.cls-4,.cls-5,.cls-8{isolation:isolate;}.cls-5,.cls-8{opacity:0.25;}.cls-5{fill:url(#linear-gradient);}.cls-6{fill:#9d9d9c;}.cls-7{fill:#706f6f;}.cls-8{fill:url(#linear-gradient-2);}.cls-9{fill:#21893c;}.cls-10{fill:#33a855;}.cls-11{fill:#1c1c1c;opacity:0.75;}.cls-12{fill:#fac831;}.cls-13{fill:#1d1d1b;opacity:0.1;}.cls-14{fill:#d6faff;}.cls-15,.cls-16{fill:#fff;}.cls-16{opacity:0.35;}.cls-17{fill:#2e2e2e;}.cls-18{fill:#171717;}.cls-19{fill:#c6c6c6;}.cls-20{fill:#575756;}.cls-21{fill:none;}.cls-22{fill:#39803d;}</style><linearGradient id="linear-gradient" x1="178.21" y1="-423.76" x2="177.38" y2="-460.9" gradientTransform="matrix(1, 0, 0, -1, 0.59, -257.59)" gradientUnits="userSpaceOnUse"><stop offset="0" stop-color="#fff"/><stop offset="1"/></linearGradient><linearGradient id="linear-gradient-2" x1="81.22" y1="-423.74" x2="80.39" y2="-460.88" xlink:href="#linear-gradient"/></defs><path class="cls-1" d="M18.93,173.69H16.4a1,1,0,0,0-1,1v9.11a1,1,0,0,0,1,1h2.53a1,1,0,0,0,1-1V174.7A1,1,0,0,0,18.93,173.69Z"/><path class="cls-1" d="M43.63,175.29v-.59a1,1,0,0,0-1-1H16.39a1,1,0,0,0-1,1v.59a1,1,0,0,0,1,1H42.62A1,1,0,0,0,43.63,175.29Z"/><path class="cls-1" d="M25,181.19H10.32a1,1,0,0,0-1,1v9.11a1,1,0,0,0,1,1H25a1,1,0,0,0,1-1V182.2A1,1,0,0,0,25,181.19Z"/><path class="cls-2" d="M206.8,157.6l0,27.5a2.29,2.29,0,0,1-1.93,2.51l-148.76.15c-1.21,0-2.12-1.4-1.92-2.93.61-4.66,1.89-13.54,3.15-16.58,5.14-12.36,20.85-13.08,24.78-13.06a1.78,1.78,0,0,1,1.47.88l9.83,5.81a1.83,1.83,0,0,0,1.48.88l3.8,2.77a1.79,1.79,0,0,0,1.45-.84l6-8.66a1.8,1.8,0,0,1,1.44-.85l97.26-.1A2.28,2.28,0,0,1,206.8,157.6Z"/><path class="cls-3" d="M54.21,185c-.13,1.49.76,2.81,1.93,2.81l148.76-.15a2.27,2.27,0,0,0,1.93-2.51v-.3Z"/><path class="cls-4" d="M194.44,185.72c0,.31,0,.62,0,.91l-31.54,0c0-.31,0-.61,0-.91a15.8,15.8,0,0,1,31.59,0Z"/><path class="cls-1" d="M193.23,185.5a14.43,14.43,0,0,1-28.86,0,14.05,14.05,0,0,1,.42-3.39,14.5,14.5,0,0,1,27.78-.9A13.94,13.94,0,0,1,193.23,185.5Z"/><path class="cls-1" d="M192.57,181.25a14.5,14.5,0,0,1-27.78.9,14.5,14.5,0,0,1,27.78-.9Z"/><path class="cls-5" d="M178.79,171.3a14.23,14.23,0,1,0,14.49,14.21A14.35,14.35,0,0,0,178.79,171.3Zm0,27.34a13.12,13.12,0,1,1,13.33-13.13A13.23,13.23,0,0,1,178.82,198.64Z"/><ellipse class="cls-6" cx="178.8" cy="185.52" rx="8.14" ry="7.73" transform="translate(-0.19 0.18) rotate(-0.06)"/><path class="cls-6" d="M186.07,185.51a7,7,0,0,1-.12,1.31,6.72,6.72,0,0,1-1.12,2.55,7.15,7.15,0,0,1-2,1.9,7.25,7.25,0,0,1-2.56,1,7.6,7.6,0,0,1-2.74,0,7.6,7.6,0,0,1-2.58-.94,7.34,7.34,0,0,1-2.07-1.85,6.79,6.79,0,0,1-1.18-2.52,6.49,6.49,0,0,1-.16-1.47,7.09,7.09,0,0,1,.12-1.31h0a6.86,6.86,0,0,1,1.11-2.55,7.47,7.47,0,0,1,2-1.9,7.32,7.32,0,0,1,2.56-1,7.6,7.6,0,0,1,2.74,0,7.6,7.6,0,0,1,2.58.94,7.17,7.17,0,0,1,2.06,1.85A6.79,6.79,0,0,1,185.9,184,6.56,6.56,0,0,1,186.07,185.51Z"/><path class="cls-7" d="M181,185.52a2.18,2.18,0,1,1-2.18-2.13A2.16,2.16,0,0,1,181,185.52Z"/><path class="cls-4" d="M97.45,185.81c0,.3,0,.61,0,.91l-31.55,0c0-.3,0-.61,0-.91a15.8,15.8,0,0,1,31.59,0Z"/><path class="cls-1" d="M96.25,185.59a14.43,14.43,0,0,1-28.86,0,14,14,0,0,1,.41-3.38,14.5,14.5,0,0,1,27.78-.9A13.9,13.9,0,0,1,96.25,185.59Z"/><path class="cls-1" d="M95.58,181.34a14.5,14.5,0,0,1-27.78.9,14.5,14.5,0,0,1,27.78-.9Z"/><path class="cls-8" d="M81.81,171.38A14.23,14.23,0,1,0,96.29,185.6,14.36,14.36,0,0,0,81.81,171.38Zm0,27.35A13.12,13.12,0,1,1,95.16,185.6,13.23,13.23,0,0,1,81.83,198.73Z"/><ellipse class="cls-6" cx="81.82" cy="185.6" rx="8.14" ry="7.73" transform="translate(-0.19 0.08) rotate(-0.06)"/><path class="cls-6" d="M89.09,185.6a7,7,0,0,1-.13,1.3,6.68,6.68,0,0,1-1.11,2.56,7.26,7.26,0,0,1-4.58,2.9,7.59,7.59,0,0,1-1.45.13,7,7,0,0,1-1.29-.11,7.6,7.6,0,0,1-2.58-.94,7,7,0,0,1-2.06-1.85,6.64,6.64,0,0,1-1.18-2.52,6.43,6.43,0,0,1-.17-1.47,7.07,7.07,0,0,1,.12-1.3h0a6.7,6.7,0,0,1,1.12-2.56,7.29,7.29,0,0,1,2-1.9,7.52,7.52,0,0,1,2.56-1,7.67,7.67,0,0,1,1.45-.14,7.83,7.83,0,0,1,1.29.11,7.54,7.54,0,0,1,2.58.95,6.89,6.89,0,0,1,2.06,1.85,6.79,6.79,0,0,1,1.18,2.52A6,6,0,0,1,89.09,185.6Z"/><path class="cls-7" d="M84,185.6a2.18,2.18,0,1,1-2.17-2.13A2.14,2.14,0,0,1,84,185.6Z"/><path class="cls-9" d="M179.49,123.88l-36.78,0a2.35,2.35,0,0,1-2.05-2.56v-4.8a2.35,2.35,0,0,1,2-2.56l36.78,0a2.34,2.34,0,0,1,2.05,2.55v4.81A2.35,2.35,0,0,1,179.49,123.88Z"/><path class="cls-10" d="M106.64,122.67l0,44.66c0,3.33,2.16,6,4.84,6l46.6,0a4.46,4.46,0,0,0,3.7-2.15,19,19,0,0,1,31.82-.88,4.23,4.23,0,0,0,5,1.72l4.77-1.87a6,6,0,0,0,3.38-5.75l-.05-41.81c0-3.33-2.16-6-4.84-6l-90.47.09C108.8,116.64,106.63,119.35,106.64,122.67Z"/><path class="cls-9" d="M206.5,120.58l0,38c0,2.63-1.36,5-3.38,5.75l-4.77,1.87a4.25,4.25,0,0,1-5-1.72,19,19,0,0,0-31.82.88,4.49,4.49,0,0,1-3.69,2.15l-46.61,0c-2.11,0-3.89-1.69-4.56-4v3.83c0,3.33,2.17,6,4.84,6l46.61-.05a4.45,4.45,0,0,0,3.69-2.15,19,19,0,0,1,31.82-.88,4.23,4.23,0,0,0,5,1.72l4.77-1.87a6,6,0,0,0,3.38-5.75l0-41.81A7.14,7.14,0,0,0,206.5,120.58Z"/><path class="cls-2" d="M96.8,168l-9.22-8.38,0-33.72h9.22a4,4,0,0,1,4,4l0,34A4,4,0,0,1,96.8,168Z"/><path class="cls-11" d="M92.25,158.28c-.63-2.89,0-28.47-.41-32.36H87.53l0,33.71L96.79,168a4,4,0,0,0,2.78-1.12C99,165.08,96.94,162.17,92.25,158.28Z"/><path class="cls-10" d="M94.17,124.17l0,35.88a2.16,2.16,0,0,1-2.94,2,24.84,24.84,0,0,0-33.45,27,1.84,1.84,0,0,0,0,.25,2.09,2.09,0,0,1-.54,1.78h0a2.14,2.14,0,0,1-1.61.72l-19.21,0a2.17,2.17,0,0,1-2.17-2.18l0-12.1a2.2,2.2,0,0,0-.45-1.33l-1.44-1.88A2.11,2.11,0,0,1,32,173l0-23a2.15,2.15,0,0,1,.28-1.08l14.66-25.78A2.2,2.2,0,0,1,48.78,122L92,122A2.2,2.2,0,0,1,94.17,124.17Z"/><path class="cls-12" d="M34.23,173.14H31.51a1.57,1.57,0,0,1-1.57-1.57v-2.72a1.56,1.56,0,0,1,1.57-1.56h2.72Z"/><path class="cls-13" d="M33.44,167.29V172h-2.9a1.33,1.33,0,0,1-.6-.14,1.37,1.37,0,0,0,1.38,1.31h2.9v-5.85Z"/><path class="cls-9" d="M56.48,192c-.31-7.83-1-15.26,3.32-22.34,7.48-12.23,21.29-13.65,34.25-12a4.58,4.58,0,0,1,1,3.29,7.93,7.93,0,0,1-.69,2.48,1.43,1.43,0,0,1-1.6.84c-12.5-2.57-26.68-1.65-32.35,11.89a26.13,26.13,0,0,0-1.73,9.23C58.58,187.54,58.82,192.61,56.48,192Z"/><path class="cls-9" d="M60.58,171.25c7.48-12.23,21.29-13.65,34.25-12h0A3,3,0,0,0,94,157.7c-13-1.66-26.76-.24-34.24,12-4.32,7.07-3.63,14.51-3.33,22.34a1.17,1.17,0,0,0,.72,0C56.88,184.76,56.55,177.84,60.58,171.25Z"/><path class="cls-9" d="M38.65,171.54a2.23,2.23,0,0,1-2.22-2.22v-18a2.11,2.11,0,0,1,.28-1.08l12.57-22.09A2.21,2.21,0,0,1,51.19,127l32.86.43A1.56,1.56,0,0,1,85.58,129c0,13,0,21.39-.1,24.81a1.53,1.53,0,0,1-1.48,1.5c-2,.09-4.81.17-5.3.17A22.48,22.48,0,0,0,66,159.08l-.57.38a6.28,6.28,0,0,0-.52.38A33.87,33.87,0,0,0,56,170.4a2.22,2.22,0,0,1-1.92,1.11Z"/><path class="cls-10" d="M85,153.79a1.05,1.05,0,0,1-1,1c-2,.08-4.78.17-5.27.17a23,23,0,0,0-13,3.7l-.58.39-.54.39a34.38,34.38,0,0,0-9,10.7,1.73,1.73,0,0,1-1.5.87l-15.47,0a1.74,1.74,0,0,1-1.73-1.73v-18a1.2,1.2,0,0,1,.05-.38,1.3,1.3,0,0,1,.17-.44l12.56-22.1a1.74,1.74,0,0,1,1.5-.88l32.85.44a1,1,0,0,1,1,1.06C85.09,134.83,85.1,148.88,85,153.79Z"/><path class="cls-14" d="M43.16,147a1.31,1.31,0,0,1-1.13-.65A1.33,1.33,0,0,1,42,145l8.53-15a1.87,1.87,0,0,1,1.62-.95h5a1.3,1.3,0,0,1,1.31,1.3v15.29a1.3,1.3,0,0,1-1.3,1.31Z"/><path class="cls-15" d="M43.15,145.44,51.3,131.1a1.78,1.78,0,0,1,1.55-.91h4.74a1.25,1.25,0,0,1,.86.34,1.25,1.25,0,0,0-1.24-1.09H52.47a1.79,1.79,0,0,0-1.55.91l-8.15,14.34a1.24,1.24,0,0,0,0,1.25,1,1,0,0,0,.22.28A1.28,1.28,0,0,1,43.15,145.44Z"/><path class="cls-16" d="M42.74,143.75,42,145a1.31,1.31,0,0,0,1.13,2l14,0a1.31,1.31,0,0,0,1.3-1.31v-1.91Z"/><path class="cls-14" d="M62.4,147a1.31,1.31,0,0,1-1.31-1.31V130.35a1.3,1.3,0,0,1,1.3-1.3l19.3,0a1.87,1.87,0,0,1,1.87,1.86l0,14.73a1.31,1.31,0,0,1-1.31,1.31Z"/><path class="cls-16" d="M81.68,129H80v13.48a1.3,1.3,0,0,1-1.3,1.3l-17.66,0v1.81A1.31,1.31,0,0,0,62.4,147H82.25a1.31,1.31,0,0,0,1.31-1.31l0-14.73A1.87,1.87,0,0,0,81.68,129Z"/><path d="M43,151a.44.44,0,0,1-.35-.17.43.43,0,0,1,.08-.61l4.32-3.34v-5a.44.44,0,0,1,.43-.44h0a.44.44,0,0,1,.44.44v5.2a.42.42,0,0,1-.17.34l-4.49,3.47A.48.48,0,0,1,43,151Z"/><path class="cls-17" d="M48.77,144.67H46.58v-6.93h2.19A1.18,1.18,0,0,1,50,138.92v4.56A1.19,1.19,0,0,1,48.77,144.67Z"/><path class="cls-18" d="M49,137.74H46.57v.69h2.1a.94.94,0,0,1,.94.94v5.09a.91.91,0,0,0,.34-.72v-5.06A.93.93,0,0,0,49,137.74Z"/><path class="cls-1" d="M45.8,150v.71a.94.94,0,0,1-.94.94H42.59a.94.94,0,0,1-.94-.94V150a.94.94,0,0,1,.94-.94"/><polygon class="cls-19" points="28.54 183.6 6.78 183.6 4 187.18 31.32 187.18 28.54 183.6"/><path class="cls-6" d="M32.06,190.11H3.16v-1.66c0-1.46.76-2.59,1.75-2.59H30.39c1,0,1.74,1.13,1.74,2.59v1.66Z"/><rect class="cls-20" x="4.2" y="190.11" width="26.92" height="1.06"/><polygon class="cls-12" points="32.04 197.34 3.28 197.34 4.27 191.17 31.05 191.17 32.04 197.34"/><polygon class="cls-13" points="7.68 192.12 8 197.3 6.56 197.3 7.68 192.12"/><polygon class="cls-13" points="5.99 192.16 6.34 197.34 3.69 197.34 4.23 194.55 4.95 196.81 5.99 192.16"/><polygon class="cls-13" points="8.59 191.7 9.3 197.34 8.18 197.34 8.59 191.7"/><polygon class="cls-13" points="9.89 193.23 10.38 197.34 9.53 197.34 9.89 193.23"/><polygon class="cls-13" points="18.51 193.09 19.09 197.34 16.22 197.34 17.03 191.7 17.75 196.81 18.51 193.09"/><polygon class="cls-13" points="14.84 195.05 15.38 197.3 14.39 197.3 14.84 195.05"/><polygon class="cls-13" points="11.39 191.4 12.51 197.3 10.49 197.3 11.39 191.4"/><polygon class="cls-13" points="13.37 191.68 14.09 197.39 12.96 197.39 13.37 191.68"/><polygon class="cls-13" points="20.55 191.88 21.49 197.39 20.23 197.39 20.55 191.88"/><polygon class="cls-13" points="24.18 192 25.12 197.3 23.46 197.3 24.45 197.11 24.18 192"/><polygon class="cls-13" points="27.65 194.09 28.37 197.34 26.53 197.34 26.36 191.83 27.65 197.34 27.65 194.09"/><polygon class="cls-13" points="28.09 197.34 26.92 197.34 26.92 192.03 28.09 197.34"/><polygon class="cls-19" points="140.4 187.9 116.17 187.9 113.07 191.06 143.49 191.06 140.4 187.9"/><path class="cls-6" d="M144.39,193.63H112.22v-1.46a2.1,2.1,0,0,1,2-2.27h28.37a2.1,2.1,0,0,1,2,2.27v1.46Z"/><rect class="cls-20" x="113.37" y="193.63" width="29.97" height="0.94"/><polygon class="cls-12" points="144.29 200 112.27 200 113.38 194.57 143.2 194.57 144.29 200"/><polygon class="cls-13" points="113.77 195.45 114.12 200 112.52 200 113.77 195.45"/><polygon class="cls-13" points="116.66 195.45 117.07 200 114.12 200 114.72 197.55 115.52 199.54 116.66 195.45"/><polygon class="cls-13" points="119.56 195.03 120.37 200 119.12 200 119.56 195.03"/><polygon class="cls-13" points="121.02 196.37 121.56 200 120.61 200 121.02 196.37"/><polygon class="cls-13" points="126.91 196.26 127.56 200 124.36 200 125.26 195.03 126.06 199.54 126.91 196.26"/><polygon class="cls-13" points="128.31 198.02 128.91 200 127.81 200 128.31 198.02"/><polygon class="cls-13" points="130.21 194.8 131.46 200 129.21 200 130.21 194.8"/><polygon class="cls-13" points="134 194.97 134.81 200 133.56 200 134 194.97"/><polygon class="cls-13" points="135.3 195.15 136.35 200 134.95 200 135.3 195.15"/><polygon class="cls-13" points="137.3 195.33 138.35 200 136.5 200 137.6 199.82 137.3 195.33"/><polygon class="cls-13" points="140.79 197.14 141.59 200 139.54 200 139.35 195.15 140.79 200 140.79 197.14"/><polygon class="cls-13" points="143.58 200 142.28 200 142.28 195.33 143.58 200"/><polygon class="cls-21" points="127.81 149.14 127.81 151.62 128.77 151.62 128.77 149.67 128.77 149.14 127.81 149.14"/><polygon class="cls-22" points="128.77 149.67 129.72 149.94 129.72 149.14 128.77 149.14 128.77 149.67"/><polygon class="cls-21" points="126.84 159.1 126.84 155.33 132.45 155.33 132.45 145.43 129.17 145.43 129.17 146.39 124.99 146.39 124.99 146.39 124.99 147.2 124.99 157.25 124.1 157.25 124.1 159.1 126.84 159.1"/><polygon class="cls-21" points="124.03 146.39 123.08 146.39 123.36 145.43 128.22 145.43 128.22 142.69 117.11 142.69 117.11 145.43 121.28 145.43 121.28 156.3 124.03 156.3 124.03 146.92 124.03 146.39"/><polygon class="cls-22" points="124.03 146.39 124.03 146.92 124.99 147.2 124.99 146.39 124.03 146.39"/><polygon class="cls-22" points="129.98 144.47 129.17 144.47 129.17 145.43 129.7 145.43 129.98 144.47"/><polygon class="cls-22" points="124.1 158.06 124.1 157.25 123.15 157.25 123.15 157.77 123.15 157.79 124.1 158.06"/><line class="cls-21" x1="128.77" y1="149.67" x2="129.72" y2="149.94"/><polygon class="cls-15" points="126.84 148.18 126.84 152.58 129.72 152.58 129.72 149.94 128.77 149.67 128.77 151.62 127.81 151.62 127.81 149.14 130.68 149.14 130.95 148.18 126.84 148.18"/><polygon class="cls-21" points="124.99 146.39 124.99 146.39 124.03 146.39 124.03 146.39 123.08 146.39 123.36 145.43 128.22 145.43 128.22 142.69 117.11 142.69 117.11 145.43 121.28 145.43 121.28 156.3 124.03 156.3 124.03 146.92 124.99 147.2 124.99 157.25 124.99 146.39"/><polygon class="cls-15" points="124.99 147.2 124.03 146.92 124.03 156.3 121.28 156.3 121.28 145.43 117.11 145.43 117.11 142.69 128.22 142.69 128.22 145.43 123.36 145.43 123.08 146.39 124.03 146.39 124.03 146.39 124.99 146.39 124.99 146.39 129.17 146.39 129.17 141.72 116.16 141.72 116.16 146.39 120.33 146.39 120.33 157.25 123.15 157.25 123.15 157.25 124.1 157.25 124.99 157.25 124.99 147.2"/><polygon class="cls-15" points="133.41 156.28 133.41 144.47 129.98 144.47 129.7 145.43 132.45 145.43 132.45 155.33 126.84 155.33 126.84 159.1 124.1 159.1 124.1 158.06 123.15 157.79 123.15 160.05 127.81 160.05 127.81 156.28 133.41 156.28"/></svg>