<?xml version="1.0" encoding="utf-8"?>
<!-- Generator: Adobe Illustrator 24.1.2, SVG Export Plug-In . SVG Version: 6.00 Build 0)  -->
<svg version="1.1" id="Layer_2_1_" xmlns="http://www.w3.org/2000/svg" xmlns:xlink="http://www.w3.org/1999/xlink" x="0px" y="0px"
	 viewBox="0 0 210 210" style="enable-background:new 0 0 210 210;" xml:space="preserve">
<style type="text/css">
	.st0{fill:#8F2404;}
	.st1{fill:#99601C;}
	.st2{fill:#FF5D02;}
	.st3{fill:#633E12;}
	.st4{fill:#FED03D;}
	.st5{fill:#33A855;}
	.st6{fill:#3C3C3B;}
	.st7{fill:#FCA377;}
	.st8{fill:#FFAF82;}
	.st9{opacity:0.1;fill:#10100F;enable-background:new    ;}
	.st10{fill:#298741;}
	.st11{opacity:0.2;fill:#1D1D1B;enable-background:new    ;}
	.st12{opacity:0.15;fill:#1D1D1B;enable-background:new    ;}
	.st13{fill:#33322F;}
	.st14{fill:#FAC831;}
	.st15{fill:url(#SVGID_1_);}
	.st16{fill:url(#SVGID_2_);}
	.st17{fill:url(#SVGID_3_);}
	.st18{fill:url(#SVGID_4_);}
	.st19{fill:url(#SVGID_5_);}
	.st20{fill:url(#SVGID_6_);}
	.st21{fill:url(#SVGID_7_);}
	.st22{fill:url(#SVGID_8_);}
	.st23{fill:url(#SVGID_9_);}
	.st24{fill:url(#SVGID_10_);}
	.st25{fill:url(#SVGID_11_);}
	.st26{fill:url(#SVGID_12_);}
	.st27{fill:url(#SVGID_13_);}
	.st28{fill:url(#SVGID_14_);}
	.st29{fill:url(#SVGID_15_);}
	.st30{fill:url(#SVGID_16_);}
	.st31{fill:url(#SVGID_17_);}
	.st32{fill:url(#SVGID_18_);}
	.st33{fill:url(#SVGID_19_);}
	.st34{fill:url(#SVGID_20_);}
	.st35{fill:url(#SVGID_21_);}
	.st36{fill:url(#SVGID_22_);}
	.st37{fill:url(#SVGID_23_);}
	.st38{fill:url(#SVGID_24_);}
	.st39{fill:url(#SVGID_25_);}
	.st40{fill:url(#SVGID_26_);}
	.st41{fill:url(#SVGID_27_);}
	.st42{fill:url(#SVGID_28_);}
	.st43{fill:url(#SVGID_29_);}
	.st44{fill:url(#SVGID_30_);}
	.st45{fill:url(#SVGID_31_);}
	.st46{fill:url(#SVGID_32_);}
	.st47{fill:url(#SVGID_33_);}
	.st48{fill:url(#SVGID_34_);}
	.st49{fill:url(#SVGID_35_);}
	.st50{fill:url(#SVGID_36_);}
	.st51{fill:url(#SVGID_37_);}
	.st52{fill:url(#SVGID_38_);}
	.st53{fill:url(#SVGID_39_);}
	.st54{fill:url(#SVGID_40_);}
	.st55{fill:url(#SVGID_41_);}
	.st56{fill:url(#SVGID_42_);}
	.st57{fill:none;}
	.st58{fill:#39803D;}
	.st59{fill:#FFFFFF;}
</style>
<path class="st0" d="M149.7,191.3c-0.2-0.9-0.7-1.6-0.8-2.5c-0.1-1,0.1-2.1,0.8-2.9c0.7-0.8,1.5-1.4,2.5-1.7c1-0.3,2-0.6,3.1-0.7
	c-0.2,0.5-0.4,1.1-0.5,1.6c-0.3,1.8-1.1,3.6-2.2,5.1c-0.2,0.4-0.6,0.7-1,0.9C150.9,191.2,150.3,191.3,149.7,191.3z"/>
<path class="st1" d="M153.1,185.1L153.1,185.1l1.3-0.4l-1.2,0.2c0.4-0.4,0.9-0.8,1.3-1.1c-0.5,0.4-0.9,0.7-1.4,1.1l0.1-0.9
	L153.1,185.1L153.1,185.1l-0.3,0.2c-0.3,0.3-0.5,0.6-0.8,0.9v-1.5l-0.2,1.6l0,0c-0.2,0.2-0.4,0.5-0.5,0.7c-0.1,0.2-0.3,0.4-0.4,0.6
	l-0.2-1.9v2v0.1c-0.3,0.4-0.5,0.8-0.6,1.2c0,0,0,0.1,0,0.1l-0.7-1.9l0.6,2.1l0,0c-0.1,0.2-0.2,0.5-0.2,0.7v0.1l-0.5-0.9l0.5,1.1
	c-0.1,0.3-0.1,0.6-0.1,0.9l0,0c0,0.3-0.1,0.7-0.1,1c0,0.3,0,0.7,0,1c0.1,0.7,0.3,1.3,0.7,1.9l0.3-0.2c-0.2-0.3-0.4-0.5-0.5-0.9
	c-0.1-0.3-0.2-0.6-0.2-0.9c-0.1-0.3-0.1-0.7-0.1-1c0-0.3,0-0.6,0-0.9l0,0c0-0.3,0-0.5,0.1-0.8l1.8-0.3l-1.8,0.1c0-0.1,0-0.1,0.1-0.2
	c0-0.2,0.1-0.5,0.2-0.7l2.7-0.7l-2.7,0.5c0-0.1,0-0.1,0-0.2c0.2-0.4,0.4-0.8,0.6-1.2l2.8-0.7l-2.7,0.5c0.2-0.2,0.3-0.4,0.4-0.6
	c0.2-0.2,0.4-0.5,0.5-0.7h0.3l2-0.6l-1.9,0.5c0.3-0.3,0.5-0.6,0.8-0.9L153.1,185.1z"/>
<path class="st2" d="M148.8,188.4c-0.2-0.4-0.5-0.7-0.8-0.9c-0.3-0.3-0.4-0.7-0.3-1.1c0-0.1,0.2-0.2,0.2-0.4s-0.3-0.5-0.3-0.7
	s0.3-0.5,0.5-0.7c0.2-0.4-0.2-0.9,0-1.4c0.1-0.1,0.1-0.2,0.2-0.3c0-0.2,0-0.4,0-0.6c-0.1-0.3-0.1-0.8,0.2-0.9
	c0.1-0.1,0.2-0.2,0.3-0.3v-0.4c0-0.1,0-0.3,0.1-0.4c0.1-0.1,0.2-0.1,0.3-0.1s0.1-0.4,0.3-0.6s0.5-0.1,0.7-0.3s0.2-0.5,0.4-0.5
	c0.2,0,0.3,0,0.5,0c0.2,0,0.4-0.1,0.5-0.2c0.1,0,0.2,0,0.3,0c0.1,0,0.1,0,0.1,0s0,0.1,0.1,0.1h0.4c0.1,0,0.3,0,0.4-0.1
	c0.1-0.1,0.2-0.1,0.3,0c0,0,0.1,0.1,0.1,0.1c0.1,0.1,0.3,0.1,0.4,0l0.4-0.2c0,0,0.1,0,0.2,0s0.3,0.2,0.3,0.4c0,0.1,0,0.2-0.1,0.3
	c-0.1,0.2-0.1,0.4-0.1,0.6c0.1,0.1,0.1,0.2,0.1,0.3s0,0.2,0,0.3c0.1,0.2,0.1,0.3,0.1,0.5v0.2c0,0,0.1,0.1,0.1,0.2
	c0,0.1,0,0.2-0.1,0.3c0,0.1,0,0.1,0,0.2c0.1,0.1,0.2,0.3,0.2,0.5c0,0.3-0.5,0.5-0.4,0.8c0,0.1,0.1,0.2,0.1,0.3
	c0,0.2-0.1,0.4-0.2,0.5c-0.1,0.1-0.3,0.2-0.5,0.3s-0.2,0.2-0.1,0.3c0.1,0.1,0.2,0.3,0.1,0.5v0.1c-0.1,0.1-0.2,0.2-0.4,0.2
	c-0.2,0-0.3,0.1-0.5,0.2c-0.2,0.2-0.1,0.5-0.4,0.7s-0.6,0.1-0.8,0.4c0,0.1-0.1,0.3-0.1,0.4c0,0.1-0.3,0.2-0.4,0.3s-0.3,0.3-0.3,0.5
	s0.1,0.3,0,0.4c-0.1,0.1-0.3,0.2-0.4,0.2C150.1,188,149.4,188.1,148.8,188.4z"/>
<path class="st3" d="M150.3,184.2l2.7,0.1l-1.2-0.1l1-0.4l-1.2,0.4l0,0l-1.3-0.1c0.3-0.5,0.5-1.1,0.8-1.7l1.5,0.1l0,0h1.2l-0.9-0.1
	l0.9-0.4l-1,0.3l-1.4-0.2l0.2-0.3c0.2-0.3,0.4-0.6,0.6-0.9l2.2,0.1l-1-0.1l0.9-0.4l-1.1,0.3l-0.9-0.1c0.4-0.6,0.9-1.2,1.5-1.6
	c-0.6,0.4-1.1,1-1.5,1.6l0,0l-0.3-0.7l0.2-0.8l-0.2,0.7l-0.3-0.8l0.5,1.9l0,0l0,0c-0.2,0.3-0.4,0.6-0.6,0.9l-0.2,0.3l-0.6-1.3
	l0.2-0.9l-0.3,0.7l-0.4-0.7l0.9,2.4l0,0c-0.3,0.5-0.5,1.1-0.8,1.7l-0.9-1.5l0,0l0.2-0.9l-0.3,0.7l-0.4-0.6l1.2,2.4v0.1l-0.3,0.7
	c-0.1,0.2-0.2,0.4-0.2,0.6l-0.7-0.9l-0.1-0.9v0.7l-0.5-0.6l0.4,0.7l0,0l0.6,1.1l0,0l-0.3,0.8L149,187l-0.6-0.6v-0.7v0.6l-0.4-0.4
	l0.9,1.3l0,0c-0.1,0.3-0.2,0.7-0.3,1c-0.3,1.2-0.3,2.4-0.1,3.5l0.3-0.1c-0.2-0.6-0.2-1.2-0.2-1.7c0-0.6,0.1-1.2,0.2-1.8
	c0.1-0.3,0.2-0.7,0.3-1l1.7-0.2h-0.5l0.8-0.5l-0.9,0.5l-0.9-0.1c0-0.1,0.1-0.3,0.1-0.5s0.2-0.5,0.3-0.8l2.1-0.1l-1-0.1l0.9-0.6
	l-1,0.6h-0.9c0.1-0.2,0.2-0.5,0.2-0.7C150.1,184.7,150.2,184.4,150.3,184.2z"/>
<path class="st4" d="M154.6,193c-0.1-0.1-0.1-0.1-0.1-0.1c-0.1,0-0.1,0-0.2,0l0.1-0.1c-0.1,0-0.3-0.1-0.4-0.1v-0.1h-0.4v-0.1h-0.3
	v-0.1H153v-0.1h-0.4c-0.1,0-0.2,0-0.4,0c-0.2,0-0.5-0.1-0.7-0.1c-1.2,0-3.4,0.5-3.4,1.1s2.7,1.2,3.8,1l0.7-0.1
	c0.1,0,0.2-0.1,0.3-0.1c0.1,0,0.1-0.1,0.1-0.1l0.2,0.1c0-0.1,0-0.1,0-0.1h0.3V194h0.3v-0.1h0.2v-0.1 M154.1,193.8h0.2v-0.1
	c0-0.1,0,0,0,0h0.2v-0.1h0.1l0.2-0.1l0.1-0.1v-0.1h0.1c-0.2,0-0.4-0.2-0.4-0.3L154.1,193.8z"/>
<path class="st4" d="M146.4,186.7c0,0.1,0.1,0.1,0.1,0.1c0.1,0,0.1,0.1,0.1,0.2h0.1c0.1,0.1,0.1,0.3,0.2,0.4h0.1
	c0,0.1,0.1,0.2,0.1,0.3h0.1v0.2c0,0.1,0,0.1,0,0.1l0,0c0,0.1,0.1,0.2,0.1,0.3h0.1c0,0.1,0,0.2,0,0.4s0.1,0.2,0.1,0.3
	c0.1,0.2,0.2,0.5,0.2,0.7c0.3,1.2,0.3,3.4-0.3,3.6s-1.8-2.3-1.9-3.4c0-0.2,0-0.5,0-0.7v-0.5l-0.1-0.2c0.1,0,0.1,0,0.1,0l0,0
	c0,0,0-0.1-0.1-0.1c0,0,0-0.1-0.1-0.1c0,0,0.1,0,0.1-0.1V188c0,0-0.1,0-0.1-0.1c0,0,0-0.1-0.1-0.1h0.1v-0.2h0.1 M145.6,187.5v-0.2
	h0.1v-0.1c0,0,0-0.1,0-0.2h0.1V187c0-0.1,0.1-0.1,0.1-0.2v-0.1v-0.2c0.2,0.2,0.4,0.3,0.6,0.3L145.6,187.5z"/>
<path class="st4" d="M148.2,183.8l0.1,0.1c0,0.1,0.1,0.1,0.1,0.2h0.1c0.1,0.1,0.1,0.3,0.2,0.4l0.1-0.1c0.1,0.1,0.1,0.2,0.1,0.3
	l0.1-0.1v0.2c0,0.1,0,0.1,0,0.1h0.1c0,0.1,0,0.2,0,0.3h0.1c0,0.1,0.1,0.2,0.1,0.4s0.1,0.2,0.1,0.3c0.1,0.2,0.2,0.5,0.2,0.7
	c0.3,1.2,0.3,3.4-0.3,3.6s-1.8-2.3-1.9-3.4c0-0.2-0.1-0.5-0.1-0.7v-0.5l-0.1-0.2c0.1,0,0.1,0,0.1-0.1l0,0v-0.1l-0.1-0.1h0.1V185
	c0-0.1,0-0.1,0-0.1c0,0,0-0.1-0.1-0.1h0.1v-0.3h0.1h0.1v-0.2h0.1c0,0,0,0,0-0.1s0-0.1,0-0.2h0.1v-0.1l0.1-0.2c0,0,0.1-0.1,0.1-0.1
	v-0.2C148,183.5,148.1,183.7,148.2,183.8z"/>
<path class="st4" d="M152.8,180.5c0,0,0,0.1,0,0.1l0.1,0.2h0.1v0.4h0.1v0.4h0.1v0.4l0,0c0,0.1,0,0.2,0,0.3h0.1c0,0.1,0,0.2,0,0.3
	v0.4c0,0.2,0,0.5,0,0.7c-0.1,1.2-1,3.3-1.6,3.3s-0.8-2.8-0.5-3.9c0-0.2,0.1-0.4,0.2-0.6c0.1-0.1,0.1-0.2,0.1-0.3c0,0,0-0.1,0-0.1
	v-0.2c0.1,0,0.1,0,0.1,0l0,0v-0.3c0,0,0.1,0,0.1,0c0,0,0,0,0,0c0.1,0,0.1,0,0.1-0.1v-0.2h0.1v-0.1c0,0,0-0.1,0-0.1V181h0.1v-0.2l0,0
	v-0.2c0.1,0,0.1,0,0.1,0l0,0h0.1l0.1-0.2c0.1,0,0.1-0.1,0.1-0.1v-0.1l0,0v-0.1C152.6,180.3,152.7,180.4,152.8,180.5z"/>
<path class="st5" d="M153.9,79.4l-1.2,13.4l0,0l-0.4,3.7l-0.3,2.8l-0.8,8.8l-1.5,15.8v14H119v-14l-0.5-5l-0.4-3.9l0,0l-0.3-2.7
	l-1.7-18l-0.1-1l-1.3-13.9l0,0l13.1-3l0.7-0.1h0.1l4.3,1.2l0,0l1.3,0.4l1.5-0.4l4.1-1.1h0.1l0.6,0.1l13,3h0.1
	C153.7,79.3,153.8,79.4,153.9,79.4z"/>
<path class="st6" d="M110,210h16.3c0.2-3.6,0-5.1-0.8-7.6c-2.7-1.6-7.4-1.4-11.8,0.7l-1.8,0.7c-1.2,0.8-1.9,2.2-1.9,3.7L110,210z"/>
<path class="st5" d="M134.6,137.1c-0.1,0.2-0.1,0.5-0.1,0.7l0,0c0,0.1,0,0.2,0,0.2v0.4c-0.2,1.4-0.4,2.7-0.5,4
	c-1.2,9.2-2.2,17.1-4.5,23.9l-1.6-0.1l-2.1-0.1l-3.8-0.2l-2.8-0.2l-1.9-0.1c-1.2-9.1-0.6-18.2,1.7-27.1l0.1-0.5l0,0l0.1-0.1l0,0
	c0.9-1.1,2.1-1.9,3.5-2.4c2.3-0.8,4.8-0.9,7.1-0.2c1,0.3,2.1,0.6,3.1,1l0,0c0.3,0.1,0.5,0.2,0.8,0.4c0.3,0.1,0.6,0.3,0.9,0.5
	L134.6,137.1z"/>
<path class="st5" d="M129.3,166.3c0,13.1-3,36.9-3.3,38.2l0,0c-2.6-2.8-8.7-3-12.6-1.3l0,0c-0.1-0.9-0.3-1.8-0.4-2.6l0,0
	c-1.4-11.2,0.7-25,4.2-35.1c0.2-0.8,0.7-1.5,1.4-2c0.6-0.4,1.2-0.6,1.9-0.7c1.7-0.2,3.5,0.8,5.9,2.1c0.4,0.3,0.9,0.5,1.4,0.7
	C128.3,165.9,128.8,166.1,129.3,166.3z"/>
<path class="st6" d="M158.8,210h-16.3c-0.2-3.6,0-5.1,0.8-7.6c2.7-1.6,7.4-1.4,11.8,0.7l1.8,0.7c1.2,0.8,1.9,2.2,1.9,3.7L158.8,210
	L158.8,210z"/>
<path class="st5" d="M151.6,165.5l-1.8,0.1l-2.8,0.2l-3.7,0.3l-2.1,0.1l-1.6,0.1c-2.4-6.8-3.3-14.7-4.5-23.9c-0.2-1.3-0.4-2.6-0.5-4
	c0-0.1,0-0.3,0-0.4c0-0.1,0-0.2,0-0.2v-0.1c-0.1-0.2-0.1-0.5-0.1-0.7l0.2-0.1c0.3-0.1,0.6-0.3,0.9-0.5s0.5-0.2,0.8-0.4l0,0
	c1-0.4,1.9-0.7,2.9-1c2.4-0.7,4.9-0.7,7.2,0.1c1.3,0.5,2.5,1.4,3.5,2.5l0,0l0.1,0.1l0,0c0,0.1,0,0.2,0.1,0.3l0,0
	C152.2,147,152.7,156.3,151.6,165.5z"/>
<path class="st5" d="M155.7,200.3L155.7,200.3c-0.1,1-0.3,1.9-0.4,2.9l0,0c-0.6-0.3-1.3-0.5-1.9-0.7c-3.7-0.9-8.4-0.5-10.6,1.9l0,0
	c-0.3-1.2-3.3-25.1-3.3-38.1c0.5-0.3,1-0.5,1.5-0.8c0.4-0.3,0.8-0.5,1.2-0.6c2.4-1.3,4.4-2.4,6-2.1c0.7,0.1,1.4,0.3,2,0.7
	c0.7,0.5,1.2,1.2,1.4,2c1.5,4.4,2.6,8.9,3.3,13.4c0.1,0.8,0.2,1.5,0.4,2.3c0.4,3.1,0.7,6.2,0.9,9.3l0,0
	C156.2,193.7,156.1,197,155.7,200.3z"/>
<path class="st7" d="M128.8,69.2v1.8l0,0l0.1,2.6v2.7v0.1c0.2,2.1,2.4,3.2,4.7,3.3c0.3,0,0.5,0,0.8,0c0.4,0,0.9,0,1.3-0.1
	c2.3-0.3,4.3-1.5,4.4-3.3v-0.1l0.1-2.7l0,0v-2.5l0,0v-1.5L128.8,69.2z"/>
<path class="st8" d="M144.6,62.9c-0.3,1.2-0.9,2.8-1.6,3.1c-0.4,0.2-0.8,0.1-1.1-0.2c-0.4,1.8-0.5,3.3-1.1,4.2
	c-0.5,0.9-1.1,1.7-1.8,2.5c-1.2,1.4-2.2,1.7-4.4,1.7l0,0c-2.3,0-3.2-0.3-4.5-1.7c-0.7-0.8-1.4-1.6-1.9-2.5c-0.6-0.9-0.8-2.4-1.2-4.2
	c-0.3,0.3-0.7,0.4-1.1,0.2c-0.7-0.2-1.3-1.8-1.6-3.1c-0.3-0.8-0.1-1.6,0.5-2.2c0.1-0.1,0.3-0.2,0.5-0.2l0,0c0.2,0,0.4,0.1,0.6,0.2
	c-0.1-0.7-0.2-1.3-0.3-2c-0.1-1.2,0-2.4,0.3-3.5c0.3-1.2,0.9-2.3,1.8-3.3l0,0c1.5-1.6,3.6-2.5,5.8-2.6h0.1c0.2,0,0.5,0,0.7,0
	c4.1,0,7.4,2.1,8.4,5.9c0.3,1.1,0.4,2.3,0.3,3.4c0,0.7-0.1,1.4-0.3,2.1c0.2-0.1,0.4-0.2,0.6-0.2c0.2,0,0.4,0.1,0.6,0.2
	C144.6,61,144.8,61.8,144.6,62.9z"/>
<path d="M143.5,60.4c-0.6,0.3-1,1-1.1,1.7c-0.2,0.6-0.3,1.2-0.3,1.7c-0.5,0.2-0.8,0.2-1.3,0.4c0.1-0.5,0.2-1,0.3-1.5
	c0.5-2,0.7-4,0.6-6c0-0.5-0.1-1-0.2-1.6c-0.7-3.5-3.1-3.7-3.9-3.9c-2.2-0.2-4.3-0.2-6.5,0c-1.7,0.1-3.2,1.3-3.6,3
	c-0.1,0.3-0.2,0.6-0.2,0.8c-0.3,2.5-0.2,5.1,0.5,7.5c0.1,0.5,0.2,1,0.4,1.6c-0.5-0.2-0.8-0.2-1.3-0.4c-0.1-0.7-0.2-1.3-0.4-1.9
	c-0.1-0.6-0.5-1.1-1.1-1.4l0,0c-0.3-1.8-0.3-3.6-0.1-5.4c0.3-1.5,0.9-2.9,1.8-4.1c2.3-3.4,11.1-4.2,14.6-0.1c1,1.2,1.7,2.6,1.9,4.2
	C143.8,56.9,143.8,58.7,143.5,60.4z"/>
<path class="st6" d="M131.3,49.2c-0.6,0-1.2,0.3-1.8,0.6c-0.8,0.5-2.8,3.3-2.4,4c1.7,2.8,6.9,3.5,10.6,3.7c-0.6-0.4-1-0.9-1.2-1.5
	c2,0.9,4.3,1.1,6.4,0.5c-0.5-1.9-1.5-3.6-2.8-5c-1.2-1.1-2.6-1.7-4.2-1.9C134.5,49.3,132.9,49.2,131.3,49.2z"/>
<path class="st9" d="M143.5,60.4c-0.6,0.3-1,1-1.1,1.7c-0.2,0.1-0.5,0.2-0.7,0.4s-0.4,0.2-0.6,0.3c-4.2,2-9.1,2-13.3,0
	c-0.2-0.1-0.4-0.2-0.5-0.3s-0.5-0.3-0.8-0.4c-0.1-0.6-0.5-1.1-1.1-1.4l0,0c-0.3-1.8-0.3-3.6-0.1-5.4h18.3
	C143.8,57,143.7,58.7,143.5,60.4z"/>
<path class="st5" d="M135.7,46.8h-2.7c-4.5,0-8.2,3.7-8.2,8.2l0.2,2.8c6.2-1.2,12.5-1.3,18.7-0.1l0.2-2.7
	C143.9,50.5,140.3,46.9,135.7,46.8z"/>
<path class="st10" d="M125.6,57.5c0,0.3,0.2,0.5,0.3,0.8c0.6,1.4,2,2.2,3.5,2c0.8-0.3,1.6-0.6,2.4-1c1.6-0.8,3.4-0.8,5,0
	c0.8,0.4,1.6,0.8,2.4,1c1.5,0.2,3-0.6,3.5-2c0.1-0.2,0.2-0.5,0.3-0.8C140.3,54.1,128.6,54.2,125.6,57.5z"/>
<path class="st5" d="M131.7,76c-1.2-0.6-2.2-1.5-3-2.6l-0.7,3c0.3,2.5,3.5,4.2,5.5,3.4l-0.4-2C133,77,132.5,76.3,131.7,76z"/>
<path class="st5" d="M137.3,75.9c1.2-0.4,2.1-1.3,2.7-2.4l0.7,3c-0.4,2.2-2.5,3.7-4.7,3.4c-0.2,0-0.3-0.1-0.5-0.1l0.2-1.8
	C135.8,77,136.5,76.2,137.3,75.9z"/>
<rect x="133.9" y="79.7" class="st11" width="1" height="44.5"/>
<path class="st12" d="M156.1,95.7l-0.6,3.9l-0.5,3.1l-3-4.5c-0.1,0.7-0.7,7.3-0.9,9.9l-1.5,15.8v13.9l0,0l0,0
	c-0.5-6.6-1.8-12.2-4.9-15.3c2.6-2.6,3.8-6.8,4.3-11.7c0.5-3-8.8-5.7-12-6.8c-0.3-0.1-0.5-0.2-0.8-0.3c0-0.3,0-0.5,0.1-0.8
	c0.2-1.9,1.6-3.4,3.4-3.7c1.5-0.4,3.1-0.7,4.6-0.9c5.9-1,4.9-6.7,5-8.2l0,0l3.2,2.8l0,0L156.1,95.7z"/>
<path class="st12" d="M124.4,122.4l-0.3,0.3c-0.2,0.2-0.4,0.5-0.6,0.7l0,0c-0.2,0.3-0.4,0.5-0.6,0.8l0,0c-0.5,0.8-1,1.7-1.4,2.6
	c-1.1,2.6-1.8,5.3-2.2,8.1l0,0c-0.1,0.9-0.3,1.9-0.3,2.9l0,0l-0.3-1.8l-0.9-6.5l0,0l1.2-2.1v-2.5l-0.6-0.5c-1.2-0.8-1.8-2.1-1.5-2.9
	c0.1-0.1,0.1-0.2,0-0.2l-0.3-0.2l0,0v-0.2l-0.7-5.1l-1-7.3c1,1.2,2,2.5,3.1,3.8l-1.7-18l-2.8,4.2l-0.4-2.5l2.9-2.7l1.8-1.6l1.5-1.3
	c0.1,9.8-0.4,19.3,1.7,26l0,0c0.4,1.5,1,2.9,1.8,4.2c0.4,0.6,0.8,1.1,1.2,1.7L124.4,122.4z"/>
<path class="st5" d="M120.8,87.4l-2.8,4.2l-1.7,2.6l-2.8,4.2l-3.3,5l-2.4,3.6c-1.6,2.4-4.9,3.1-7.3,1.5c0,0,0,0,0,0l0,0h-0.1
	c-1.5-1-2.4-2.6-2.3-4.4v-0.2c0-1,0.3-2,0.9-2.8l13-19.4c1.6-2.4,4.9-3.1,7.3-1.5l0.1,0.1C121.7,81.8,122.4,85,120.8,87.4z"/>
<path class="st5" d="M163.2,111.3L163.2,111.3c-2.7,1.1-5.8-0.2-6.9-2.8c0,0,0-0.1,0-0.1l-8.8-21.6c-1.1-2.7,0.2-5.7,2.8-6.8
	c0,0,0,0,0.1,0l0,0h0.1c2.6-1.1,5.7,0.2,6.8,2.8c0,0,0,0.1,0,0.1l8.8,21.7C167.1,107.2,165.9,110.2,163.2,111.3
	C163.2,111.2,163.2,111.3,163.2,111.3z"/>
<path class="st12" d="M142.7,204.5c-0.3-1.2-3.3-25.1-3.3-38.2c-2.4-6.8-3.3-14.7-4.5-23.9c-0.2-1.3-0.4-2.6-0.5-4
	c-0.2,1.4-0.4,2.7-0.5,4c-1.2,9.2-2.2,17.1-4.5,23.9c0,13.1-3,36.9-3.2,38.1c0.9-15.8,2.7-33.5-0.5-38.4c0.3-0.4,0.6-0.8,0.8-1.3
	c2.8-5,4.5-15.9,6.3-26.2l-0.7-0.8l-2.4-2.7l-1.6-1.7c3.8,2.2,8.5,2.2,12.4,0l-1.5,1.7l-2.2,2.7l-0.5,0.7
	c1.6,10.1,2.6,21.6,5.9,26.4c0.3,0.4,0.6,0.8,1,1.2C140.1,170.6,142.1,189.3,142.7,204.5z"/>
<path class="st12" d="M119.2,165.9c-3.9,10.1-5.9,21.6-6.1,34.7l0,0c-1.4-11.2,0.7-25,4.2-35.1c-1.2-9.1-0.6-18.3,1.7-27.1l0.2-0.5
	c-0.8,10-1.5,19.6-0.4,25.7c0.1,0.7,0.3,1.4,0.5,2.1C119.2,165.7,119.2,165.8,119.2,165.9z"/>
<path class="st13" d="M131.6,155l-3.5,2.4c-0.4,0.3-1,0.2-1.2-0.2l-1.3-2c-0.3-0.4-0.2-1,0.2-1.2l3.5-2.4c0.4-0.3,0.9-0.2,1.2,0.2
	l1.3,2C132.1,154.2,132,154.7,131.6,155z"/>
<rect x="60.5" y="147.6" transform="matrix(0.8336 -0.5524 0.5524 0.8336 -68.2525 76.1714)" class="st13" width="63.7" height="7.5"/>
<path class="st13" d="M139.7,134.7l-1.8-0.2c0.8-8.1-2-12.8-4.8-14.5c-1.8-1.2-4.1-1.2-5.9,0c-0.8,0.5-1.4,1.4-1.6,2.3
	c-0.6,3.6,3.4,8.6,3.4,8.6l-1.5,1.1c-0.2-0.2-4.5-5.7-3.8-10.1c0.2-1.5,1.1-2.8,2.3-3.5c2.4-1.6,5.5-1.6,7.8,0
	C138.2,121,140.4,127.1,139.7,134.7z"/>
<path class="st14" d="M120.5,132.2l7.5-4.9c1.1-0.7,2.5-0.7,3.6,0l8.1,5.2c1.5,1,2,3,1,4.5c-0.3,0.4-0.6,0.7-1,1l-10.7,7
	L120.5,132.2z"/>
<path class="st13" d="M120.5,132.2l3.1-2l2.7,4.2c0.4,0.5,1.1,0.7,1.7,0.4l0,0c0.4-0.3,1-0.1,1.3,0.3l4.6,7l-4.8,3.2L120.5,132.2z"
	/>
<path class="st14" d="M130,146.2l-3.8,2.5c-0.7,0.5-1.7,0.3-2.2-0.4c0,0,0-0.1,0-0.1l-11.3-17.2c-0.5-0.7-0.3-1.7,0.4-2.2
	c0,0,0.1,0,0.1,0l3.8-2.5c0.7-0.5,1.7-0.3,2.2,0.4c0,0,0,0,0,0.1l11.3,17.2C131,144.7,130.8,145.7,130,146.2
	C130,146.2,130,146.2,130,146.2z"/>
<path class="st14" d="M134.6,150.4l-6.4,4.2c-0.9,0.6-2,0.4-2.6-0.5c0,0,0,0,0,0l-6.4-9.7c-0.6-0.8-0.4-2,0.5-2.6c0,0,0,0,0,0
	l6.4-4.1c0.8-0.6,2-0.4,2.6,0.5c0,0,0,0,0,0l6.4,9.7C135.7,148.7,135.5,149.8,134.6,150.4C134.7,150.4,134.7,150.4,134.6,150.4z"/>
<rect x="121.5" y="144.2" transform="matrix(0.8347 -0.5508 0.5508 0.8347 -59.3684 94.1723)" class="st13" width="11.4" height="3.5"/>
<rect x="130.4" y="132.7" transform="matrix(0.8347 -0.5508 0.5508 0.8347 -51.2527 95.1935)" class="st13" width="5.1" height="0.5"/>
<rect x="131.4" y="134.2" transform="matrix(0.8347 -0.5508 0.5508 0.8347 -51.8529 96.0476)" class="st13" width="5.4" height="0.5"/>
<rect x="132.3" y="135.6" transform="matrix(0.8347 -0.5508 0.5508 0.8347 -52.4741 96.8984)" class="st13" width="5.7" height="0.5"/>
<rect x="133.3" y="137.1" transform="matrix(0.8347 -0.5508 0.5508 0.8347 -53.1011 97.7893)" class="st13" width="6" height="0.5"/>
<path class="st7" d="M122.8,118.6c-0.7-0.3-1-1.1-0.6-1.8c0,0,0,0,0,0l0,0c0.3-0.6,1-0.8,1.5-0.6c0,0,0,0,0.1,0l4.1,2
	c0.6,0.3,0.9,1.1,0.6,1.8l0,0l0,0c-0.3,0.6-1,0.9-1.7,0.6l0,0L122.8,118.6z"/>
<path class="st7" d="M126.4,121.6c-0.6-0.5-0.7-1.3-0.3-1.9l0,0c0.4-0.5,1.1-0.6,1.7-0.3l1.8,1.3c0.6,0.4,0.7,1.2,0.3,1.8
	c0,0,0,0,0,0l0,0v0.1c-0.4,0.5-1.2,0.7-1.8,0.3l0,0L126.4,121.6z"/>
<path class="st7" d="M124.5,123.3c-0.3-0.2-0.4-0.5-0.5-0.8c0-0.3,0-0.6,0.2-0.8l0,0c0.5-0.6,1.3-0.7,1.9-0.3l2.3,1.6
	c0.5,0.4,0.6,1.1,0.3,1.6l0,0l-0.1,0.2c-0.4,0.5-1.2,0.7-1.7,0.3L124.5,123.3z"/>
<path class="st7" d="M123.4,125.6c-0.6-0.5-0.8-1.3-0.3-1.9l0,0c0.4-0.5,1.1-0.6,1.7-0.3l1.7,1.3c0.6,0.4,0.7,1.2,0.3,1.8
	c0,0,0,0,0,0l0,0l-0.1,0.2c-0.3,0.5-0.9,0.6-1.4,0.3c0,0,0,0,0,0L123.4,125.6z"/>
<path class="st7" d="M122.1,127.2c-0.4-0.3-0.5-0.9-0.2-1.3c0,0,0,0,0,0l0,0l0.1-0.1c0.3-0.4,0.9-0.6,1.3-0.3l1.5,1.1
	c0.4,0.3,0.5,0.8,0.2,1.2c0,0,0,0,0,0l0,0l-0.2,0.3c-0.3,0.4-0.8,0.5-1.1,0.2L122.1,127.2z"/>
<path class="st8" d="M128.6,121.4L128.6,121.4c-0.3,0.6-1.1,0.7-1.6,0.4c0,0-0.1,0-0.1-0.1c0.1,0.1,0.2,0.2,0.3,0.4l0.1,0.1
	c0.2,0.4,0.2,0.9-0.1,1.3l0,0c-0.4,0.5-1.1,0.7-1.7,0.4h-0.1l-0.3-0.2c0.1,0.1,0.2,0.2,0.3,0.3h0.1c0,0,0,0.1,0,0.1
	c0.2,0.4,0.1,0.8-0.1,1.2l0,0c-0.2,0.3-0.6,0.5-1,0.5c-0.2,0-0.4-0.1-0.6-0.2l-0.3-0.2c0.2,0.1,0.3,0.3,0.4,0.4v0.1
	c0.1,0.3,0.1,0.7-0.1,1l0,0c-0.3,0.5-1,0.7-1.5,0.4l0,0L122,127l-0.2-0.1l-0.4-0.3l-1.5-1.2l-1-0.7l-0.6-0.5
	c-1.2-0.8-1.8-2.1-1.5-2.9c0.1-0.1,0.1-0.2,0-0.2l-0.3-0.2l0,0l-0.1-0.1l-2.7-2c-0.1,0-0.1-0.2,0-0.3l0,0l2.1-2.8l1.1-1.5
	c0.1-0.1,0.2-0.1,0.3,0l0.8,0.7l0,0l2.1,1.7c0.1,0.1,0.2,0.1,0.2,0l0.3-0.1l0.1-0.1l0,0c0,0,0.1,0,0.2,0l0,0
	c0.8-0.3,1.6-0.4,2.4-0.1c0,0,0.1,0,0.2,0s0.6,0.4,1.2,0.8l2.9,2.2l0.3,0.2l0.3,0.2l0.1,0.1l0.1,0.2
	C128.9,120.5,128.9,121,128.6,121.4z"/>
<path class="st5" d="M121,116.4L121,116.4l-2.4,2.5l-1.9,2l-0.1,0.1l-0.7,0.7c-5.2-2.7-10.7-8.1-16.4-14.1c-0.9-1-1.4-2.3-1.3-3.7
	v-0.2c0.1-1.4,0.7-2.7,1.8-3.6l0.1-0.1c2.2-1.9,5.5-1.7,7.4,0.4c1,0.9,1.9,1.8,2.9,2.8c1.7,1.7,3.2,3.3,4.7,5.1c1,1.2,2,2.5,3.1,3.8
	S120.1,115,121,116.4z"/>
<path class="st7" d="M142.4,120.5c0.7-0.2,1.1-1,0.9-1.7l0,0c-0.1-0.3-0.3-0.6-0.6-0.7c-0.3-0.1-0.6-0.1-0.9,0l-4.2,1.5
	c-0.6,0.3-1,1-0.8,1.6l0,0l0,0c0.2,0.6,0.9,0.9,1.5,0.7c0,0,0,0,0,0L142.4,120.5z"/>
<path class="st7" d="M138.4,123c0.6-0.4,0.8-1.2,0.5-1.8l0,0c-0.3-0.5-1-0.7-1.6-0.5l0,0l-1.8,1c-0.6,0.4-0.8,1.1-0.5,1.8l0,0
	c0.3,0.6,1,0.8,1.6,0.5L138.4,123z"/>
<path class="st7" d="M140.1,125c0.3-0.1,0.5-0.4,0.5-0.7c0.1-0.3,0.1-0.6-0.1-0.9l0,0c-0.4-0.6-1.2-0.8-1.8-0.5l-2.4,1.3
	c-0.5,0.3-0.7,0.9-0.4,1.5l0,0l0.1,0.2c0.3,0.6,1,0.8,1.6,0.5c0,0,0,0,0,0L140.1,125z"/>
<path class="st7" d="M140.9,127.3c0.6-0.4,0.8-1.2,0.5-1.8l0,0c-0.3-0.5-1-0.7-1.6-0.5l-1.8,1c-0.6,0.4-0.8,1.1-0.5,1.8l0,0l0.1,0.2
	c0.2,0.5,0.8,0.7,1.3,0.4c0,0,0,0,0,0l0,0L140.9,127.3z"/>
<path class="st7" d="M142,129c0.4-0.2,0.6-0.8,0.3-1.2c0,0,0-0.1-0.1-0.1l0,0l-0.1-0.1c-0.2-0.5-0.8-0.6-1.2-0.4l0,0l-1.6,0.9
	c-0.4,0.2-0.5,0.8-0.3,1.2c0,0,0,0,0,0l0.2,0.3c0.2,0.4,0.6,0.5,1,0.4L142,129z"/>
<path class="st8" d="M148.2,116.9l-3.2,1.9c-0.1,0.1-0.2,0.1-0.2,0l-0.3-0.3h-0.1c-0.8-0.5-1.7-0.6-2.6-0.4c-0.1,0-3.1,1.8-4.4,2.6
	l0,0l-0.7,0.4c-0.6,0.3-0.8,1-0.5,1.6l0,0c0.3,0.6,1,0.8,1.6,0.5l0,0c-0.6,0.3-0.8,1-0.5,1.6l0,0c0.3,0.6,1.1,0.8,1.7,0.5l0.3-0.2
	c-0.6,0.3-0.8,1-0.5,1.6l0,0l0,0c0.3,0.6,1.1,0.8,1.7,0.5l0.4-0.2c-0.5,0.2-0.7,0.8-0.5,1.3c0,0,0,0.1,0,0.1l0,0
	c0.3,0.5,0.9,0.7,1.4,0.5l0,0l0.4-0.2l0,0l3.7-2.1c1.2-0.7,2.1-1.8,1.8-2.7c0-0.1,0-0.2,0.1-0.2c0,0,0,0,0,0l3.3-1.9
	c0.1-0.1,0.1-0.2,0.1-0.3l0,0l-2.6-4.6C148.4,116.8,148.4,116.8,148.2,116.9z"/>
<path class="st5" d="M165.7,105.7h0.1c2,2.1,2,5.4,0,7.4l0,0c-0.1,0.1-0.3,0.2-0.4,0.3l-0.5,0.4c-1.8,1.4-3.7,2.7-5.4,4
	c-0.9,0.6-1.8,1.1-2.6,1.7c-2.2,1.4-4.5,2.6-6.9,3.7l-0.4-0.5l-3.7-4.4l-0.2-0.3l4.7-4.7l1.1-1.1l1.4-1.4l5.4-5.3
	c2-2,5.3-2.1,7.3-0.1C165.6,105.6,165.6,105.6,165.7,105.7L165.7,105.7z"/>
<linearGradient id="SVGID_1_" gradientUnits="userSpaceOnUse" x1="-1041.2653" y1="453.9062" x2="-1038.3654" y2="453.9062" gradientTransform="matrix(-0.97 -0.23 -0.23 0.97 -850.0053 -504.4931)">
	<stop  offset="0" style="stop-color:#FF8C6D"/>
	<stop  offset="1" style="stop-color:#FF5C60"/>
</linearGradient>
<path class="st15" d="M57.9,176.7c0-1.2-1-2.2-2.2-2.2c-0.1,0-0.2,0-0.3,0C55.6,175.7,56.7,176.7,57.9,176.7z"/>
<linearGradient id="SVGID_2_" gradientUnits="userSpaceOnUse" x1="-526.4166" y1="2042.8217" x2="-524.3766" y2="2042.8217" gradientTransform="matrix(-0.7842 0.6205 0.6205 0.7842 -1609.6687 -1180.8223)">
	<stop  offset="0" style="stop-color:#FF8C6D"/>
	<stop  offset="1" style="stop-color:#FF5C60"/>
</linearGradient>
<path class="st16" d="M71.6,95.9c-0.5-1.3-1.9-1.9-3.2-1.4c-0.1,0-0.1,0.1-0.2,0.1C68.8,95.9,70.3,96.4,71.6,95.9z"/>
<linearGradient id="SVGID_3_" gradientUnits="userSpaceOnUse" x1="-1354.7344" y1="-700.5522" x2="-1352.6943" y2="-700.5522" gradientTransform="matrix(1.692891e-02 -0.9999 -0.9999 -1.692891e-02 -598.8352 -1228.8497)">
	<stop  offset="0" style="stop-color:#FF8C6D"/>
	<stop  offset="1" style="stop-color:#FF5C60"/>
</linearGradient>
<path class="st17" d="M77.1,137.4c1.3,0.4,2.7-0.3,3.2-1.6c0-0.1,0-0.2,0.1-0.2C78.9,135.3,77.5,136.1,77.1,137.4z"/>
<linearGradient id="SVGID_4_" gradientUnits="userSpaceOnUse" x1="-456.19" y1="1674.1288" x2="-453.89" y2="1674.1288" gradientTransform="matrix(-0.8 0.6 0.6 0.8 -1257.3239 -915.1519)">
	<stop  offset="0" style="stop-color:#FF8C6D"/>
	<stop  offset="1" style="stop-color:#FF5C60"/>
</linearGradient>
<path class="st18" d="M110.7,153.8c-0.5-1.5-2.1-2.3-3.6-1.7c-0.1,0-0.2,0.1-0.2,0.1C107.5,153.6,109.2,154.4,110.7,153.8z"/>
<linearGradient id="SVGID_5_" gradientUnits="userSpaceOnUse" x1="-1331.5444" y1="-686.7985" x2="-1330.1544" y2="-686.7985" gradientTransform="matrix(1.692891e-02 -0.9999 -0.9999 -1.692891e-02 -598.8352 -1228.8497)">
	<stop  offset="0" style="stop-color:#FF8C6D"/>
	<stop  offset="1" style="stop-color:#FF5C60"/>
</linearGradient>
<path class="st19" d="M64.2,114.1c0.9,0.3,1.8-0.2,2.1-1c0-0.1,0-0.1,0.1-0.2C65.5,112.6,64.5,113.1,64.2,114.1
	C64.3,114,64.3,114,64.2,114.1z"/>
<linearGradient id="SVGID_6_" gradientUnits="userSpaceOnUse" x1="-2507.825" y1="552.4734" x2="-2505.1848" y2="552.4734" gradientTransform="matrix(-0.76 -0.65 -0.65 0.76 -1480.0316 -1842.3862)">
	<stop  offset="0" style="stop-color:#FF8C6D"/>
	<stop  offset="1" style="stop-color:#FF5C60"/>
</linearGradient>
<path class="st20" d="M65.4,209.1c0,0,2.9-1.9,0.8-4.7C64.8,205.5,64.4,207.6,65.4,209.1z"/>
<linearGradient id="SVGID_7_" gradientUnits="userSpaceOnUse" x1="-249.5316" y1="1812.3831" x2="-247.3516" y2="1812.3831" gradientTransform="matrix(-0.5177 0.8555 0.8555 0.5177 -1620.3163 -555.6434)">
	<stop  offset="0" style="stop-color:#FF8C6D"/>
	<stop  offset="1" style="stop-color:#FF5C60"/>
</linearGradient>
<path class="st21" d="M60.9,170.1c-1-1.1-2.7-1.2-3.8-0.2c-0.1,0.1-0.1,0.1-0.2,0.2C58,171.2,59.8,171.2,60.9,170.1z"/>
<linearGradient id="SVGID_8_" gradientUnits="userSpaceOnUse" x1="-284.0848" y1="-1338.1368" x2="-281.4548" y2="-1338.1368" gradientTransform="matrix(0.9405 -0.3399 -0.3399 -0.9405 -119.0973 -1150.3967)">
	<stop  offset="0" style="stop-color:#FF8C6D"/>
	<stop  offset="1" style="stop-color:#FF5C60"/>
</linearGradient>
<path class="st22" d="M68,202.6c0,0,0.3,3.4,3.7,3.1C71.5,203.8,69.9,202.5,68,202.6z"/>
<linearGradient id="SVGID_9_" gradientUnits="userSpaceOnUse" x1="525.3045" y1="-746.0087" x2="527.9445" y2="-746.0087" gradientTransform="matrix(0.9646 0.2637 0.2637 -0.9646 -249.0657 -656.1935)">
	<stop  offset="0" style="stop-color:#FF8C6D"/>
	<stop  offset="1" style="stop-color:#FF5C60"/>
</linearGradient>
<path class="st23" d="M61.6,200c0,0-1.8,3,1.2,4.6C63.7,203,63.2,201,61.6,200z"/>
<linearGradient id="SVGID_10_" gradientUnits="userSpaceOnUse" x1="-816.9929" y1="1941.5571" x2="-814.3629" y2="1941.5571" gradientTransform="matrix(-0.79 0.62 0.62 0.79 -1797.9917 -830.4529)">
	<stop  offset="0" style="stop-color:#FF8C6D"/>
	<stop  offset="1" style="stop-color:#FF5C60"/>
</linearGradient>
<path class="st24" d="M50.7,199.9c0,0-1.3-3.2-4.4-1.8C46.2,198.1,47.3,200.9,50.7,199.9z"/>
<linearGradient id="SVGID_11_" gradientUnits="userSpaceOnUse" x1="-1515.5585" y1="480.3564" x2="-1513.8785" y2="480.3564" gradientTransform="matrix(0.3175 -0.9483 -0.9483 -0.3175 984.1989 -1104.3531)">
	<stop  offset="0" style="stop-color:#FF8C6D"/>
	<stop  offset="1" style="stop-color:#FF5C60"/>
</linearGradient>
<path class="st25" d="M46.3,179.8c0.9,0.7,2.2,0.5,2.9-0.4c0-0.1,0.1-0.1,0.1-0.2C48.3,178.6,47,178.8,46.3,179.8z"/>
<linearGradient id="SVGID_12_" gradientUnits="userSpaceOnUse" x1="-314.3677" y1="2057.6738" x2="-312.5977" y2="2057.6738" gradientTransform="matrix(-0.3305 0.9438 0.9438 0.3305 -1999.614 -225.4744)">
	<stop  offset="0" style="stop-color:#FF8C6D"/>
	<stop  offset="1" style="stop-color:#FF5C60"/>
</linearGradient>
<path class="st26" d="M47.6,158.5c-1-0.7-2.3-0.5-3.1,0.5c0,0-0.1,0.1-0.1,0.1C45.5,159.8,46.9,159.6,47.6,158.5z"/>
<linearGradient id="SVGID_13_" gradientUnits="userSpaceOnUse" x1="-1033.532" y1="2298.4512" x2="-1031.422" y2="2298.4512" gradientTransform="matrix(-0.8816 0.4719 0.4719 0.8816 -1934.5496 -1394.0702)">
	<stop  offset="0" style="stop-color:#FF8C6D"/>
	<stop  offset="1" style="stop-color:#FF5C60"/>
</linearGradient>
<path class="st27" d="M62.2,146c-0.2-1.4-1.5-2.3-2.9-2.1c-0.1,0-0.2,0-0.3,0.1C59.3,145.4,60.7,146.3,62.2,146z"/>
<linearGradient id="SVGID_14_" gradientUnits="userSpaceOnUse" x1="-2302.6477" y1="-576.6029" x2="-2300.4678" y2="-576.6029" gradientTransform="matrix(-0.1495 -0.9888 -0.9888 0.1495 -851.5239 -2029.4703)">
	<stop  offset="0" style="stop-color:#FF8C6D"/>
	<stop  offset="1" style="stop-color:#FF5C60"/>
</linearGradient>
<path class="st28" d="M61.2,161.3c1.4,0.2,2.8-0.7,3-2.2c0-0.1,0-0.2,0-0.3C62.8,158.6,61.4,159.7,61.2,161.3z"/>
<linearGradient id="SVGID_15_" gradientUnits="userSpaceOnUse" x1="101.3123" y1="45.7334" x2="103.4423" y2="45.7334" gradientTransform="matrix(0.9 0.43 0.43 -0.9 54.9374 132.5208)">
	<stop  offset="0" style="stop-color:#FF8C6D"/>
	<stop  offset="1" style="stop-color:#FF5C60"/>
</linearGradient>
<path class="st29" d="M167,133.7c-1,1.1-0.9,2.7,0.1,3.7c0.1,0.1,0.1,0.1,0.2,0.2C168.3,136.4,168.2,134.6,167,133.7
	C167,133.7,167,133.7,167,133.7z"/>
<linearGradient id="SVGID_16_" gradientUnits="userSpaceOnUse" x1="-1454.4989" y1="999.0526" x2="-1452.3689" y2="999.0526" gradientTransform="matrix(-0.9688 0.248 0.248 0.9688 -1488.3391 -484.0005)">
	<stop  offset="0" style="stop-color:#FF8C6D"/>
	<stop  offset="1" style="stop-color:#FF5C60"/>
</linearGradient>
<path class="st30" d="M168.8,124.7c0.1-1.4-1-2.7-2.5-2.7c-0.1,0-0.2,0-0.3,0C166.2,123.5,167.4,124.7,168.8,124.7z"/>
<linearGradient id="SVGID_17_" gradientUnits="userSpaceOnUse" x1="-1598.4515" y1="-1296.9475" x2="-1595.8215" y2="-1296.9475" gradientTransform="matrix(0.4471 -0.8945 -0.8945 -0.4471 -392.5793 -1804.614)">
	<stop  offset="0" style="stop-color:#FF8C6D"/>
	<stop  offset="1" style="stop-color:#FF5C60"/>
</linearGradient>
<path class="st31" d="M51,204c0,0,2.6,2.3,4.8-0.3C54.4,202.5,52.2,202.6,51,204z"/>
<linearGradient id="SVGID_18_" gradientUnits="userSpaceOnUse" x1="-2507.7048" y1="538.6675" x2="-2505.075" y2="538.6675" gradientTransform="matrix(-0.76 -0.65 -0.65 0.76 -1480.0316 -1842.3862)">
	<stop  offset="0" style="stop-color:#FF8C6D"/>
	<stop  offset="1" style="stop-color:#FF5C60"/>
</linearGradient>
<path class="st32" d="M74.4,198.6c0,0,2.9-1.9,0.8-4.7C75.2,193.9,72.7,195.5,74.4,198.6z"/>
<linearGradient id="SVGID_19_" gradientUnits="userSpaceOnUse" x1="-272.1248" y1="-1331.2246" x2="-269.4948" y2="-1331.2246" gradientTransform="matrix(0.9405 -0.3399 -0.3399 -0.9405 -119.0973 -1150.3967)">
	<stop  offset="0" style="stop-color:#FF8C6D"/>
	<stop  offset="1" style="stop-color:#FF5C60"/>
</linearGradient>
<path class="st33" d="M76.9,192.1c0,0,0.3,3.4,3.7,3.1C80.4,193.3,78.8,191.9,76.9,192.1z"/>
<linearGradient id="SVGID_20_" gradientUnits="userSpaceOnUse" x1="531.1046" y1="-733.4532" x2="533.7346" y2="-733.4532" gradientTransform="matrix(0.9646 0.2637 0.2637 -0.9646 -249.0657 -656.1935)">
	<stop  offset="0" style="stop-color:#FF8C6D"/>
	<stop  offset="1" style="stop-color:#FF5C60"/>
</linearGradient>
<path class="st34" d="M70.5,189.4c0,0-1.7,3,1.2,4.6C71.7,194,73.3,191.5,70.5,189.4z"/>
<linearGradient id="SVGID_21_" gradientUnits="userSpaceOnUse" x1="-1944.8784" y1="924.8948" x2="-1942.6284" y2="924.8948" gradientTransform="matrix(-0.99 0.13 0.13 0.99 -1977.1157 -462.4909)">
	<stop  offset="0" style="stop-color:#FF8C6D"/>
	<stop  offset="1" style="stop-color:#FF5C60"/>
</linearGradient>
<path class="st35" d="M70.9,201.8c0.3-1.5-0.7-2.9-2.2-3.2c-0.1,0-0.2,0-0.3,0C68.2,200.1,69.3,201.6,70.9,201.8
	C70.9,201.8,70.9,201.8,70.9,201.8z"/>
<linearGradient id="SVGID_22_" gradientUnits="userSpaceOnUse" x1="-879.4568" y1="-1030.4647" x2="-877.2068" y2="-1030.4647" gradientTransform="matrix(0.3798 -0.9251 -0.9251 -0.3798 -549.4338 -1007.5828)">
	<stop  offset="0" style="stop-color:#FF8C6D"/>
	<stop  offset="1" style="stop-color:#FF5C60"/>
</linearGradient>
<path class="st36" d="M68.3,196.5c1.2,1,2.9,0.8,3.9-0.4c0.1-0.1,0.1-0.2,0.2-0.3C71,195,69.2,195.2,68.3,196.5z"/>
<linearGradient id="SVGID_23_" gradientUnits="userSpaceOnUse" x1="-137.0591" y1="-838.0285" x2="-134.8191" y2="-838.0285" gradientTransform="matrix(0.8431 -0.5377 -0.5377 -0.8431 -271.3103 -579.7433)">
	<stop  offset="0" style="stop-color:#FF8C6D"/>
	<stop  offset="1" style="stop-color:#FF5C60"/>
</linearGradient>
<path class="st37" d="M62.9,199c0.4,1.5,1.9,2.3,3.3,1.9c0.1,0,0.2-0.1,0.3-0.1C66,199.4,64.4,198.6,62.9,199z"/>
<linearGradient id="SVGID_24_" gradientUnits="userSpaceOnUse" x1="-2389.49" y1="777.3029" x2="-2387.9202" y2="777.3029" gradientTransform="matrix(-0.9062 -0.4229 -0.4229 0.9062 -1742.5256 -1513.2738)">
	<stop  offset="0" style="stop-color:#FF8C6D"/>
	<stop  offset="1" style="stop-color:#FF5C60"/>
</linearGradient>
<path class="st38" d="M93.4,202.8c0.7-0.8,0.6-2.1-0.3-2.8c0,0,0,0,0,0C92.4,200.8,92.6,202,93.4,202.8
	C93.4,202.8,93.4,202.8,93.4,202.8z"/>
<linearGradient id="SVGID_25_" gradientUnits="userSpaceOnUse" x1="-541.4297" y1="-1352.837" x2="-539.8598" y2="-1352.837" gradientTransform="matrix(0.81 -0.58 -0.58 -0.81 -246.6839 -1213.5593)">
	<stop  offset="0" style="stop-color:#FF8C6D"/>
	<stop  offset="1" style="stop-color:#FF5C60"/>
</linearGradient>
<path class="st39" d="M93.9,198.7c0.3,1,1.4,1.6,2.5,1.2c0,0,0.1,0,0.1-0.1C96.1,198.9,94.9,198.3,93.9,198.7
	C93.9,198.7,93.9,198.7,93.9,198.7z"/>
<linearGradient id="SVGID_26_" gradientUnits="userSpaceOnUse" x1="324.1888" y1="-902.4673" x2="325.7487" y2="-902.4673" gradientTransform="matrix(1 -4.712372e-03 -4.712372e-03 -1 -238.7739 -701.5007)">
	<stop  offset="0" style="stop-color:#FF8C6D"/>
	<stop  offset="1" style="stop-color:#FF5C60"/>
</linearGradient>
<path class="st40" d="M89.8,198.2c-0.3,1.1,0.4,2.2,1.4,2.4c0,0,0,0,0,0C91.5,199.6,90.9,198.5,89.8,198.2
	C89.8,198.2,89.8,198.2,89.8,198.2z"/>
<linearGradient id="SVGID_27_" gradientUnits="userSpaceOnUse" x1="-824.9929" y1="1940.864" x2="-822.3629" y2="1940.864" gradientTransform="matrix(-0.79 0.62 0.62 0.79 -1797.9917 -830.4529)">
	<stop  offset="0" style="stop-color:#FF8C6D"/>
	<stop  offset="1" style="stop-color:#FF5C60"/>
</linearGradient>
<path class="st41" d="M56.5,194.4c0,0-1.3-3.2-4.4-1.8C52.9,194.3,54.8,195.1,56.5,194.4z"/>
<linearGradient id="SVGID_28_" gradientUnits="userSpaceOnUse" x1="-1585.0315" y1="-1300.124" x2="-1582.3939" y2="-1300.124" gradientTransform="matrix(0.4471 -0.8945 -0.8945 -0.4471 -392.5793 -1804.614)">
	<stop  offset="0" style="stop-color:#FF8C6D"/>
	<stop  offset="1" style="stop-color:#FF5C60"/>
</linearGradient>
<path class="st42" d="M59.9,193.4c0,0,2.6,2.3,4.8-0.3C63.2,191.9,61.1,192,59.9,193.4z"/>
<linearGradient id="SVGID_29_" gradientUnits="userSpaceOnUse" x1="-959.3603" y1="-882.1161" x2="-956.4203" y2="-882.1161" gradientTransform="matrix(0.59 -0.8 -0.8 -0.59 -78.6982 -1106.875)">
	<stop  offset="0" style="stop-color:#FF8C6D"/>
	<stop  offset="1" style="stop-color:#FF5C60"/>
</linearGradient>
<path class="st43" d="M57.5,184.4c1.2,0.5,2.5-0.1,3-1.3c0,0,0-0.1,0.1-0.1C59.3,182.6,58,183.2,57.5,184.4z"/>
<linearGradient id="SVGID_30_" gradientUnits="userSpaceOnUse" x1="-1457.8605" y1="-358.6404" x2="-1455.1604" y2="-358.6404" gradientTransform="matrix(0.2674 -0.9636 -0.9636 -0.2674 86.1409 -1350.4017)">
	<stop  offset="0" style="stop-color:#FF8C6D"/>
	<stop  offset="1" style="stop-color:#FF5C60"/>
</linearGradient>
<path class="st44" d="M41.2,150.1c1.1,0,2.1-0.9,2.1-2c0-0.1,0-0.1,0-0.2C42.1,147.9,41.1,148.9,41.2,150.1z"/>
<linearGradient id="SVGID_31_" gradientUnits="userSpaceOnUse" x1="-1446.6282" y1="712.3008" x2="-1444.4081" y2="712.3008" gradientTransform="matrix(-0.8737 -0.4865 -0.4865 0.8737 -873.0989 -1136.299)">
	<stop  offset="0" style="stop-color:#FF8C6D"/>
	<stop  offset="1" style="stop-color:#FF5C60"/>
</linearGradient>
<path class="st45" d="M44,190.4c0.2-0.9-0.3-1.9-1.2-2.1c0,0-0.1,0-0.1,0C42.5,189.2,43.1,190.1,44,190.4z"/>
<linearGradient id="SVGID_32_" gradientUnits="userSpaceOnUse" x1="-418.6953" y1="838.0486" x2="-416.4753" y2="838.0486" gradientTransform="matrix(-0.6473 0.7622 0.7622 0.6473 -849.8177 -26.1544)">
	<stop  offset="0" style="stop-color:#FF8C6D"/>
	<stop  offset="1" style="stop-color:#FF5C60"/>
</linearGradient>
<path class="st46" d="M60.5,197.6c-0.9-0.4-1.9-0.1-2.3,0.8c0,0,0,0.1-0.1,0.1C59,198.9,60.1,198.5,60.5,197.6
	C60.5,197.6,60.5,197.6,60.5,197.6z"/>
<linearGradient id="SVGID_33_" gradientUnits="userSpaceOnUse" x1="-423.7754" y1="827.2446" x2="-421.5554" y2="827.2446" gradientTransform="matrix(-0.6473 0.7622 0.7622 0.6473 -849.8177 -26.1544)">
	<stop  offset="0" style="stop-color:#FF8C6D"/>
	<stop  offset="1" style="stop-color:#FF5C60"/>
</linearGradient>
<path class="st47" d="M55.5,186.7c-0.9-0.4-1.9-0.1-2.3,0.8c0,0,0,0.1-0.1,0.1C54.1,188,55.1,187.6,55.5,186.7z"/>
<linearGradient id="SVGID_34_" gradientUnits="userSpaceOnUse" x1="-1312.8295" y1="881.2794" x2="-1310.6094" y2="881.2794" gradientTransform="matrix(-0.9683 -0.2499 -0.2499 0.9683 -982.5338 -986.8034)">
	<stop  offset="0" style="stop-color:#FF8C6D"/>
	<stop  offset="1" style="stop-color:#FF5C60"/>
</linearGradient>
<path class="st48" d="M68.3,195.2c0-1-0.8-1.7-1.7-1.7c0,0-0.1,0-0.1,0C66.5,194.4,67.3,195.2,68.3,195.2z"/>
<linearGradient id="SVGID_35_" gradientUnits="userSpaceOnUse" x1="-618.2678" y1="1754.5475" x2="-616.0478" y2="1754.5475" gradientTransform="matrix(-0.8065 0.5912 0.5912 0.8065 -1445.5269 -847.0008)">
	<stop  offset="0" style="stop-color:#FF8C6D"/>
	<stop  offset="1" style="stop-color:#FF5C60"/>
</linearGradient>
<path class="st49" d="M90.7,203.1c-0.7-0.6-1.8-0.5-2.4,0.2c0,0-0.1,0.1-0.1,0.1C89,204,90.1,203.9,90.7,203.1
	C90.7,203.2,90.7,203.1,90.7,203.1z"/>
<linearGradient id="SVGID_36_" gradientUnits="userSpaceOnUse" x1="-1099.9454" y1="-38.9289" x2="-1098.3755" y2="-38.9289" gradientTransform="matrix(0.4163 0.9092 0.9092 -0.4163 573.6779 1179.7812)">
	<stop  offset="0" style="stop-color:#FF8C6D"/>
	<stop  offset="1" style="stop-color:#FF5C60"/>
</linearGradient>
<path class="st50" d="M81.6,195.5c-1.1,0.1-1.8,1.1-1.7,2.2c0,0,0,0.1,0,0.1c1.1-0.1,1.8-1.1,1.7-2.2
	C81.6,195.6,81.6,195.6,81.6,195.5z"/>
<linearGradient id="SVGID_37_" gradientUnits="userSpaceOnUse" x1="-467.1404" y1="175.9424" x2="-465.5704" y2="175.9424" gradientTransform="matrix(-0.9963 -8.628631e-02 -8.628631e-02 0.9963 -371.4868 -18.4454)">
	<stop  offset="0" style="stop-color:#FF8C6D"/>
	<stop  offset="1" style="stop-color:#FF5C60"/>
</linearGradient>
<path class="st51" d="M78.6,198.4c0.4-1-0.1-2.2-1.2-2.6c0,0,0,0-0.1,0C77,196.8,77.5,198,78.6,198.4
	C78.6,198.4,78.6,198.4,78.6,198.4z"/>
<linearGradient id="SVGID_38_" gradientUnits="userSpaceOnUse" x1="-494.0442" y1="385.3345" x2="-492.4742" y2="385.3345" gradientTransform="matrix(-0.76 -0.64 -0.64 0.76 -46.4005 -408.4162)">
	<stop  offset="0" style="stop-color:#FF8C6D"/>
	<stop  offset="1" style="stop-color:#FF5C60"/>
</linearGradient>
<path class="st52" d="M81.4,201.4c0.9-0.6,1.2-1.9,0.6-2.8c0,0,0,0,0-0.1C81,199.2,80.8,200.4,81.4,201.4z"/>
<linearGradient id="SVGID_39_" gradientUnits="userSpaceOnUse" x1="-713.6177" y1="233.6417" x2="-711.3978" y2="233.6417" gradientTransform="matrix(0.9974 7.219377e-02 7.219377e-02 -0.9974 778.683 482.1688)">
	<stop  offset="0" style="stop-color:#FF8C6D"/>
	<stop  offset="1" style="stop-color:#FF5C60"/>
</linearGradient>
<path class="st53" d="M83.8,197c0.1,0.9,1,1.6,1.9,1.4c0.1,0,0.1,0,0.2,0C85.7,197.4,84.8,196.8,83.8,197
	C83.8,197,83.8,197,83.8,197z"/>
<linearGradient id="SVGID_40_" gradientUnits="userSpaceOnUse" x1="567.672" y1="-48.3462" x2="570.262" y2="-48.3462" gradientTransform="matrix(0.84 0.54 0.54 -0.84 -299.2205 -216.5925)">
	<stop  offset="0" style="stop-color:#FF8C6D"/>
	<stop  offset="1" style="stop-color:#FF5C60"/>
</linearGradient>
<path class="st54" d="M151.3,129.5c-0.4,1,0.2,2.2,1.2,2.5c0.1,0,0.1,0,0.2,0.1C153,131,152.4,129.9,151.3,129.5z"/>
<linearGradient id="SVGID_41_" gradientUnits="userSpaceOnUse" x1="543.0978" y1="460.7838" x2="545.6978" y2="460.7838" gradientTransform="matrix(0.57 0.82 0.82 -0.57 -544.5996 -44.2428)">
	<stop  offset="0" style="stop-color:#FF8C6D"/>
	<stop  offset="1" style="stop-color:#FF5C60"/>
</linearGradient>
<path class="st55" d="M143.9,138.7c-0.7,0.8-0.7,2.1,0.1,2.8c0.1,0.1,0.1,0.1,0.2,0.2C144.9,140.7,144.7,139.4,143.9,138.7z"/>
<linearGradient id="SVGID_42_" gradientUnits="userSpaceOnUse" x1="206.3432" y1="1164.6614" x2="208.9333" y2="1164.6614" gradientTransform="matrix(1.047176e-02 0.9999 0.9999 -1.047176e-02 -1006.9904 -64.6335)">
	<stop  offset="0" style="stop-color:#FF8C6D"/>
	<stop  offset="1" style="stop-color:#FF5C60"/>
</linearGradient>
<path class="st56" d="M160.5,129.5c-1.1,0.3-1.7,1.4-1.4,2.4c0,0.1,0,0.1,0,0.2C160.2,131.8,160.8,130.6,160.5,129.5z"/>
<g>
	<polygon class="st57" points="127.1,92 127.1,92.9 127.4,92.9 127.4,92.2 127.4,92 	"/>
	<polygon class="st58" points="127.4,92.2 127.7,92.3 127.7,92 127.4,92 	"/>
	<polygon class="st57" points="126.7,95.4 126.7,94.2 128.6,94.2 128.6,90.8 127.5,90.8 127.5,91.1 126.1,91.1 126.1,91.1 
		126.1,91.4 126.1,94.8 125.8,94.8 125.8,95.4 	"/>
	<polygon class="st57" points="125.8,91.1 125.5,91.1 125.5,90.8 127.2,90.8 127.2,89.9 123.4,89.9 123.4,90.8 124.8,90.8 
		124.8,94.5 125.8,94.5 125.8,91.3 	"/>
	<polygon class="st58" points="125.8,91.1 125.8,91.3 126.1,91.4 126.1,91.1 	"/>
	<polygon class="st58" points="127.8,90.5 127.5,90.5 127.5,90.8 127.7,90.8 	"/>
	<polygon class="st58" points="125.8,95.1 125.8,94.8 125.5,94.8 125.5,95 125.5,95 	"/>
	<line class="st57" x1="127.4" y1="92.2" x2="127.7" y2="92.3"/>
	<polygon class="st59" points="126.7,91.7 126.7,93.2 127.7,93.2 127.7,92.3 127.4,92.2 127.4,92.9 127.1,92.9 127.1,92 128,92 
		128.1,91.7 	"/>
	<polygon class="st57" points="126.1,91.1 126.1,91.1 125.8,91.1 125.8,91.1 125.5,91.1 125.5,90.8 127.2,90.8 127.2,89.9 
		123.4,89.9 123.4,90.8 124.8,90.8 124.8,94.5 125.8,94.5 125.8,91.3 126.1,91.4 126.1,94.8 	"/>
	<polygon class="st59" points="126.1,91.4 125.8,91.3 125.8,94.5 124.8,94.5 124.8,90.8 123.4,90.8 123.4,89.9 127.2,89.9 
		127.2,90.8 125.5,90.8 125.5,91.1 125.8,91.1 125.8,91.1 126.1,91.1 126.1,91.1 127.5,91.1 127.5,89.5 123.1,89.5 123.1,91.1 
		124.5,91.1 124.5,94.8 125.5,94.8 125.5,94.8 125.8,94.8 126.1,94.8 	"/>
	<polygon class="st59" points="129,94.5 129,90.5 127.8,90.5 127.7,90.8 128.6,90.8 128.6,94.2 126.7,94.2 126.7,95.4 125.8,95.4 
		125.8,95.1 125.5,95 125.5,95.8 127.1,95.8 127.1,94.5 	"/>
</g>
</svg>
